<svg fill="none" height="435" width="455" xmlns="http://www.w3.org/2000/svg" xmlns:xlink="http://www.w3.org/1999/xlink"><linearGradient id="a"><stop offset="0" stop-color="#f5f6f0"/><stop offset=".696" stop-color="#d6d5d5"/><stop offset="1" stop-color="#d8d8d8"/></linearGradient><linearGradient id="c" gradientUnits="userSpaceOnUse" x1="383.922" x2="325.27" xlink:href="#a" y1="110.065" y2="122.628"/><linearGradient id="b"><stop offset="0" stop-color="#f5f6f0"/><stop offset="1" stop-color="#ea593f"/></linearGradient><linearGradient id="d" gradientUnits="userSpaceOnUse" x1="367.999" x2="367.999" xlink:href="#b" y1="158.473" y2="253.377"/><linearGradient id="e" gradientUnits="userSpaceOnUse" x1="377.286" x2="377.286" xlink:href="#b" y1="166.677" y2="278.956"/><linearGradient id="f" gradientUnits="userSpaceOnUse" x1="400.917" x2="357.436" xlink:href="#a" y1="119.112" y2="124.626"/><linearGradient id="g" gradientUnits="userSpaceOnUse" x1="376.583" x2="314.616" xlink:href="#a" y1="114.429" y2="127.887"/><path d="m366.384 127.35-7.09 7.491a39.655 39.655 0 0 0-8.333-18.576c-6.616-8.525-5.127-12.82-1.727-16.95 3.399-4.14 3.929-2.275 4.678 1.197.758 3.472 2.257 7.986 3.81 8.973 1.545.987 2.001-2.568 4.249-3.518 2.239-.95 2.604.521 1.837 1.243a37.684 37.684 0 0 0-4.404 5.418c-1.362 2.111-1.599 2.54.941 6.442a80.626 80.626 0 0 0 6.039 8.28z" fill="#fff" stroke="#17212a" stroke-width=".914"/><path clip-rule="evenodd" d="m328.014 433.887 20.001-208.118h2.901l27.134 208.118h2.758l-3.609-27.679h68.227l-.463-2.675 5.316 30.354h2.777l-36.729-209.722-.199-1.131H345.53l-20.264 210.853zm116.938-30.414-4.615-26.352.44 2.535h-67.039l3.105 23.817zm-4.65-26.551h-66.921l-3.12-23.927h65.848l-.483-2.735h-65.721l-3.208-24.601.105.784h64.657l-.483-2.734h-64.533l-3.118-23.918h63.466l-.483-2.734h-63.34l-6.577-50.442h61.083L417 243.88h-60.965l-2.362-18.111h60.159zm-80.438-103.683h62.278l-.483-2.734h-62.151z" fill="#8dd1db" fill-rule="evenodd"/><path d="M348.015 225.769v-.85h-.773l-.073.768zm-20.001 208.118v.85h.772l.074-.769zm22.902-208.118.842-.11-.096-.74h-.746zm27.134 208.118-.842.11.096.74h.746zm2.758 0v.85h.968l-.125-.96zm-3.609-27.679v-.85h-.967l.125.96zm68.227 0v.85h1.01l-.172-.995zm-.463-2.675.837-.147-1.675.292zm5.316 30.354-.838.147.124.703h.714zm2.777 0v.85h1.011l-.174-.997zm-36.729-209.722.837-.146v-.001zm-.199-1.131.837-.147-.123-.703h-.714zm-70.598 0v-.85h-.772l-.074.769zm-20.264 210.853-.846-.081-.089.931h.935zm119.686-30.414v.85h1.012l-.174-.996zm-4.615-26.352.837-.147-1.674.292zm.44 2.535v.85h1.01l-.173-.995zm-67.039 0v-.85h-.968l.125.96zm3.105 23.817-.843.11.097.74h.746zm-3.462-26.551-.843.109.097.74h.746zm66.921 0v.849h1.012l-.174-.996zm-70.041-23.927v-.85h-.967l.125.96zm65.848 0v.85h1.013l-.176-.998zm-.483-2.735.837-.147-.124-.702h-.713zm-65.721 0-.843.11.097.74h.746zm-3.208-24.601.843-.112-1.685.222zm.105.784-.843.112.099.738h.744zm64.657 0v.85h1.014l-.177-.998zm-.483-2.734.837-.148-.124-.702h-.713zm-64.533 0-.843.109.097.74h.746zm-3.118-23.918v-.85h-.968l.125.96zm63.466 0v.85h1.014l-.177-.998zm-.483-2.734.837-.148-.124-.702h-.713zm-63.34 0-.843.109.097.74h.746zm-6.577-50.442v-.85h-.967l.125.959zm61.083 0v.849h1.01l-.173-.995zM417 243.88l.837-.145-.122-.705H417zm-60.965 0-.843.11.097.74h.746zm-2.362-18.111v-.85h-.967l.125.96zm60.159 0 .837-.147-.123-.703h-.714zm8.31 47.47v.85h1.013l-.176-.998zm-62.278 0-.843.11.096.74h.747zm61.795-2.734.837-.148-.125-.702h-.712zm-62.151 0v-.85h-.967l.125.959zm-12.339-44.818-20.001 208.119 1.692.162 20.001-208.118zm3.747-.768h-2.901v1.7h2.901zm27.977 208.858-27.135-208.118-1.685.22 27.135 208.118zm1.915-.74h-2.758v1.7h2.758zm-4.451-26.719 3.609 27.679 1.685-.22-3.609-27.679zm69.069-.96h-68.227v1.7h68.227zm-1.301-1.68.464 2.675 1.675-.29-.464-2.675zm6.991 30.062-5.316-30.354-1.674.294 5.315 30.354zm1.94-.703h-2.777v1.7h2.777zM415.49 224.312l36.728 209.722 1.675-.294-36.729-209.721zm-.199-1.131.199 1.132 1.674-.295-.199-1.131zm-61.538.703h62.375v-1.7h-62.375zm-3.194 0h3.194v-1.7h-3.194zm-5.029 0h5.029v-1.7h-5.029zm-19.418 210.084 20.264-210.852-1.692-.163-20.264 210.853zm1.902-.931h-2.748v1.7h2.748zm117.776-29.71-4.616-26.353-1.674.293 4.615 26.353zm-6.29-26.061.439 2.535 1.675-.29-.439-2.535zm1.277 1.54h-67.039v1.7h67.039zm-67.882.96L376 403.583l1.686-.22-3.106-23.817zm3.948 24.557h68.109v-1.7h-68.109zm-3.462-26.552h66.921v-1.699h-66.921zm-3.962-24.666 3.119 23.926 1.686-.219-3.12-23.927zm66.69-.96h-65.848v1.7h65.848zm-1.32-1.737.483 2.735 1.674-.296-.483-2.734zm-64.884.702h65.721v-1.699h-65.721zm-4.05-25.341 3.207 24.601 1.686-.219-3.208-24.601zm1.789.562-.104-.784-1.685.225.104.783zm63.815-.738h-64.657v1.7h64.657zm-1.32-1.736.483 2.734 1.674-.296-.483-2.734zm-63.696.701h64.533v-1.699h-64.533zm-3.961-24.657 3.118 23.917 1.686-.219-3.119-23.918zm64.309-.96h-63.466v1.7h63.466zm-1.32-1.737.484 2.735 1.673-.296-.483-2.734zm-62.503.702h63.34v-1.699h-63.34zm-7.419-51.182 6.576 50.442 1.686-.219-6.577-50.442zm61.925-.959h-61.083v1.699h61.083zm-1.312-1.74.475 2.735 1.674-.291-.474-2.734zm-60.127.705H417v-1.7h-60.965zm-3.204-18.851 2.361 18.111 1.686-.22-2.362-18.111zm.922-.96h-.08v1.7h.08zm60.079 0h-60.079v1.7h60.079zm27.308 151.856-26.471-151.153-1.674.293 26.47 151.153zm-18.998-104.386h-62.278v1.7h62.278zm-1.32-1.736.483 2.734 1.674-.296-.483-2.734zm-61.314.702h62.151v-1.7h-62.151zm1.199 1.775-.356-2.735-1.685.219.355 2.735z" fill="#17212a"/><path d="M388.487 125.282s3.041 3.786-3.417 7.503c-6.458 3.718-8.206 2.997-12.883-1.829-4.677-4.825-5.403-6.148-5.403-6.148l-17.315 18.338s2.139 7.056 8.827 8.992 8.703 3.055 11.296 5.66c2.593 2.604 9.008 7.75 19.95 5.658 16.754-3.202 16.145-32.296 4.552-44.316l14.036-8.155" fill="url(#c)"/><path d="M388.487 125.282s3.041 3.786-3.417 7.503c-6.458 3.718-8.206 2.997-12.883-1.829-4.677-4.825-5.403-6.148-5.403-6.148l-17.315 18.338s2.139 7.056 8.827 8.992 8.703 3.055 11.296 5.66c2.593 2.604 9.008 7.75 19.95 5.658 16.754-3.202 16.145-32.296 4.552-44.316l14.036-8.155" fill="#8edc97"/><path d="M388.487 125.282s3.041 3.786-3.417 7.503c-6.458 3.718-8.206 2.997-12.883-1.829-4.677-4.825-5.403-6.148-5.403-6.148l-17.315 18.338s2.139 7.056 8.827 8.992 8.703 3.055 11.296 5.66c2.593 2.604 9.008 7.75 19.95 5.658 16.754-3.202 16.145-32.296 4.552-44.316l14.036-8.155" stroke="#17212a"/><g fill="#17212a" stroke="#8ed2dc"><path d="M360.509 1 205.463 82.427l164.529 94.284zM1 396.22c34.783 43.404 98.066 50.311 141.344 15.427 37.752-30.429 48.505-83.527 25.58-126.315z"/><circle cx="266.163" cy="210.255" r="79.868"/><path d="M181.503 290.124h143.763v143.763H181.503z"/></g><path d="m401.114 253.376 6.392 17.833-45.131.002s2.315-4.464 10.029-7.77c7.713-3.306 14.914-10.065 14.914-10.065zM416.04 278.956l6.768 18.879-47.781.002s2.45-4.726 10.617-8.225c8.167-3.5 15.79-10.656 15.79-10.656z" fill="#334656"/><path d="M381.218 159.149s-6.692 19.929-10.259 29.504c-3.66 9.823-4.672 15.137 1.326 28.52 4.733 10.562 15.035 36.204 15.035 36.204h12.511a39.282 39.282 0 0 0-.962-18.046c-2.887-9.143-5.053-7.94-5.775-14.676-.721-6.736-8.18-11.309-3.368-22.377 4.813-11.068 12.797-9.352 20.715-39.805z" fill="url(#d)"/><path d="M381.218 159.149s-6.692 19.929-10.259 29.504c-3.66 9.823-4.672 15.137 1.326 28.52 4.733 10.562 15.035 36.204 15.035 36.204h12.511a39.282 39.282 0 0 0-.962-18.046c-2.887-9.143-5.053-7.94-5.775-14.676-.721-6.736-8.18-11.309-3.368-22.377 4.813-11.068 12.797-9.352 20.715-39.805z" fill="#1d918b"/><path d="M381.218 159.149s-6.692 19.929-10.259 29.504c-3.66 9.823-4.672 15.137 1.326 28.52 4.733 10.562 15.035 36.204 15.035 36.204h12.511a39.282 39.282 0 0 0-.962-18.046c-2.887-9.143-5.053-7.94-5.775-14.676-.721-6.736-8.18-11.309-3.368-22.377 4.813-11.068 12.797-9.352 20.715-39.805z" stroke="#17212a"/><path d="M416.042 278.956h-14.607s-22.619-50.798-23.68-61.128c-1.051-10.327-.208-22.639 1.269-32.776.18-1.225 1.161-16.518 1.364-17.699 4.181-.292 8.377-.338 12.564-.138.724.018 8.544-.05 10.648-.233a65.65 65.65 0 0 0 6.01-.305c-.029 5.124-1.036 11.963-4.185 20.764-8.446 23.636-2.107 27.011.635 34.165 2.745 7.144 4.223 11.518 3.593 18.274-.634 6.756 2.529 4.964 4.224 13.707 1.686 8.736 2.165 25.369 2.165 25.369z" fill="url(#e)"/><path d="M416.042 278.956h-14.607s-22.619-50.798-23.68-61.128c-1.051-10.327-.208-22.639 1.269-32.776.18-1.225 1.161-16.518 1.364-17.699 4.181-.292 8.377-.338 12.564-.138.724.018 8.544-.05 10.648-.233a65.65 65.65 0 0 0 6.01-.305c-.029 5.124-1.036 11.963-4.185 20.764-8.446 23.636-2.107 27.011.635 34.165 2.745 7.144 4.223 11.518 3.593 18.274-.634 6.756 2.529 4.964 4.224 13.707 1.686 8.736 2.165 25.369 2.165 25.369z" fill="#1d918b"/><path d="M416.042 278.956h-14.607s-22.619-50.798-23.68-61.128c-1.051-10.327-.208-22.639 1.269-32.776.18-1.225 1.161-16.518 1.364-17.699 4.181-.292 8.377-.338 12.564-.138.724.018 8.544-.05 10.648-.233a65.65 65.65 0 0 0 6.01-.305c-.029 5.124-1.036 11.963-4.185 20.764-8.446 23.636-2.107 27.011.635 34.165 2.745 7.144 4.223 11.518 3.593 18.274-.634 6.756 2.529 4.964 4.224 13.707 1.686 8.736 2.165 25.369 2.165 25.369z" stroke="#17212a"/><path clip-rule="evenodd" d="M384.746 175.211a.1.1 0 0 0-.138-.023.095.095 0 0 0-.039.127l.007.011a.103.103 0 1 0 .171-.114l-.001-.001zm8.998 3.367c.05.014.081.066.068.116a.1.1 0 0 1-.118.079.11.11 0 0 1-.084-.122.104.104 0 0 1 .123-.075l.011.002zm-.508 2.401a.1.1 0 0 1 .079.118.1.1 0 0 1-.118.078.1.1 0 1 1 .039-.196zm5.08-1.286a.1.1 0 0 1 .117.083v.005a.093.093 0 0 1-.079.106c-.054.01-.106-.024-.116-.078s.025-.105.078-.116zm-9.141-1.812a.104.104 0 0 0-.145.027.104.104 0 0 0 .027.145.104.104 0 0 0 .145-.027.104.104 0 0 0-.027-.145zm14.632 10.972a.191.191 0 0 1 .23.143.188.188 0 0 1-.136.229l-.002.001h-.001l-.001.001h-.002a.19.19 0 0 1-.229-.141v-.002a.188.188 0 0 1 .135-.23l.006-.001zm-.949-4.369a.187.187 0 0 0-.229-.135h-.002a.193.193 0 1 0 .096.375.2.2 0 0 0 .135-.24zm-17.408 6.296a.195.195 0 0 1 .265-.067.191.191 0 0 1 .071.26.194.194 0 0 1-.274.062.186.186 0 0 1-.062-.255zm2.613-4.09a.19.19 0 0 0-.259.071.193.193 0 1 0 .332.198.206.206 0 0 0-.073-.269zm2.085-3.948a.205.205 0 0 1 .269-.071.195.195 0 0 1 .067.266l-.002.003-.002.002a.19.19 0 0 1-.261.061l-.009-.006a.185.185 0 0 1-.062-.255zm2.614-4.09a.19.19 0 0 0-.26.072.193.193 0 1 0 .264-.069l-.001-.001h-.001zm2.955 13.166a.196.196 0 0 1-.06.386h-.001l-.001-.001h-.002a.196.196 0 0 1-.161-.225.195.195 0 0 1 .225-.16zm.796-4.389a.196.196 0 0 0-.386-.064.197.197 0 0 0 .165.226.197.197 0 0 0 .221-.162zm.461-4.834a.205.205 0 0 1 .172.221.205.205 0 0 1-.226.167.195.195 0 0 1-.162-.215.195.195 0 0 1 .216-.173zm-16.59.437a.183.183 0 0 0-.257-.04l-.012.009a.187.187 0 0 0-.037.264v.001a.195.195 0 0 0 .271.04.204.204 0 0 0 .035-.274zm3.442-2.851a.19.19 0 0 1 .267.043l.003.002a.187.187 0 0 1-.038.263.205.205 0 0 1-.275-.036.194.194 0 0 1 .041-.27l.002-.002zm3.976-2.774a.194.194 0 0 0-.27-.04.192.192 0 0 0-.042.267l.007.007a.184.184 0 0 0 .257.041l.004-.003.004-.003a.193.193 0 0 0 .04-.269zm12.407 14.956a.17.17 0 1 1-.013.341.17.17 0 0 1 .013-.341zm.333-3.975c.003-.094-.071-.173-.165-.177s-.174.07-.177.165a.17.17 0 0 0 .164.177.169.169 0 0 0 .178-.157zm.154-4.248a.12.12 0 0 1 .019.092.145.145 0 0 1-.068.125v.001a.127.127 0 0 1-.048-.008h-.002l-.002-.001a.115.115 0 0 1-.053-.152.118.118 0 0 1 .148-.061.175.175 0 0 0-.14-.082.176.176 0 0 0-.182.169v.001a.173.173 0 0 0 .164.178.15.15 0 0 0 .115-.044h.001a.107.107 0 0 0 .104-.064.115.115 0 0 0-.052-.152h-.001l-.001-.001-.002-.001zm-16.236.926a.17.17 0 0 0-.242-.01l-.002.002a.165.165 0 0 0-.013.239.18.18 0 0 0 .249.012.176.176 0 0 0 .008-.243zm2.814-2.824a.171.171 0 0 1 .242.01.175.175 0 0 1-.018.244.171.171 0 0 1-.24-.013l-.004-.006a.165.165 0 0 1 .017-.234l.003-.001zm3.298-2.806a.172.172 0 0 0-.242-.01l-.001.001-.001.001a.162.162 0 0 0-.024.228l.011.012a.172.172 0 0 0 .242.01l.001-.002h.002a.174.174 0 0 0 .012-.24zm15.117 1.815a.18.18 0 0 1 .222.099l.001.002a.117.117 0 0 0 .007.025.174.174 0 0 1-.332.098.174.174 0 0 1 .102-.224zm.23.126a.122.122 0 0 0 .105.076.117.117 0 0 0 .122-.112.12.12 0 0 0-.114-.122.117.117 0 0 0-.121.113c-.003.004-.002.007-.001.011l.001.007.002.002.006.025zm-13.125 7.159a.182.182 0 0 0-.23.09.171.171 0 0 0 .085.225c.085.04.188.005.23-.08a.179.179 0 0 0-.085-.235zm1.518-3.68a.18.18 0 0 1 .229-.09c.085.042.12.145.08.23l-.002.005-.002.005a.165.165 0 0 1-.221.075.17.17 0 0 1-.084-.225zm1.971-3.854a.164.164 0 0 0-.221.075l-.001.002-.003.007a.168.168 0 0 0 .084.224.17.17 0 0 0 .225-.084.165.165 0 0 0-.075-.221.024.024 0 0 0-.009-.003zm-14.489-4.073a.175.175 0 0 1 .222.113.168.168 0 0 1-.109.212.162.162 0 0 1-.214-.101l-.002-.006a.17.17 0 0 1 .103-.218zm4.117-1.331a.177.177 0 0 0-.229-.094.176.176 0 0 0-.098.216.178.178 0 0 0 .224.102.17.17 0 0 0 .105-.215l-.002-.009zm19.841 8.248a.103.103 0 0 1 .116.087.105.105 0 0 1-.087.116.103.103 0 0 1-.029-.203zm-.256-2.332a.103.103 0 0 0-.116-.087.104.104 0 0 0-.087.116c.008.056.06.095.116.087a.106.106 0 0 0 .087-.116zm-9.831-.088a.102.102 0 0 1 .141-.021.101.101 0 0 1 .021.14.1.1 0 0 1-.162-.119zm1.59-1.998a.097.097 0 0 0-.136.016l-.002.001-.002.003-.001.002a.1.1 0 0 0 .021.14c.045.034.11.026.145-.017a.103.103 0 0 0-.024-.143v-.001zm3.705 2.929c.051.015.08.069.065.12a.103.103 0 0 1-.123.074.108.108 0 0 1-.074-.123l.001-.006a.099.099 0 0 1 .122-.068zm5.014 4.573a.11.11 0 0 0-.104-.116h-.004a.113.113 0 0 0-.121.104v.009a.11.11 0 0 0 .104.116h.004a.118.118 0 0 0 .121-.113zm-.02-2.913a.11.11 0 0 1 .104.116v.009a.113.113 0 0 1-.116.109.117.117 0 0 1-.112-.12.116.116 0 0 1 .12-.114zm-10.913-2.005a.125.125 0 0 1 .165.002.117.117 0 0 1-.01.165l-.01.01a.108.108 0 0 1-.152-.016.114.114 0 0 1 .007-.161zm2.202-1.915a.126.126 0 0 0-.166-.002.115.115 0 0 0-.006.161.116.116 0 0 0 .165.012l.001-.001a.127.127 0 0 0 .006-.17zm4.601 1.487a.126.126 0 0 0-.158.061.12.12 0 0 0 .065.152.11.11 0 0 0 .147-.059v-.001l.001-.001a.114.114 0 0 0-.055-.152zm-4.431 14.639c.05-.099.169-.139.268-.092s.142.165.096.264a.205.205 0 0 1-.268.091.199.199 0 0 1-.096-.263zm2.324-4.427a.198.198 0 1 0-.166.359.198.198 0 0 0 .166-.359zm1.795-4.246a.197.197 0 0 1 .266-.085c.1.046.142.164.096.263a.203.203 0 0 1-.269.091l-.002-.001-.002-.001-.002-.001-.002-.001a.196.196 0 0 1-.085-.265zm2.322-4.421a.195.195 0 0 0-.261.091l-.001.002-.001.002a.197.197 0 0 0 .096.263.197.197 0 0 0 .263-.096.196.196 0 0 0-.092-.261l-.004-.001zm-19.866-1.992a.2.2 0 0 1 .258.118.205.205 0 0 1-.12.255.211.211 0 0 1-.26-.125.202.202 0 0 1 .122-.248zm4.776-1.491a.198.198 0 1 0-.374.132v.003a.2.2 0 0 0 .375-.132v-.001l-.001-.002zm4.274-1.735a.195.195 0 0 1 .247.133.195.195 0 0 1-.122.247.2.2 0 0 1-.254-.118.21.21 0 0 1 .124-.26l.002-.001.003-.001zm-1.651 10.855a.195.195 0 0 0-.275-.014l-.003.003a.2.2 0 0 0-.021.278.21.21 0 0 0 .283.016.2.2 0 0 0 .016-.283zm3.289-3.234c.08-.069.2-.06.269.019l.004.005.005.005c.068.08.059.2-.02.269a.2.2 0 0 1-.283-.016.193.193 0 0 1 .016-.273.038.038 0 0 1 .009-.009zm3.831-3.201a.2.2 0 0 0-.293.272c.072.08.196.086.275.014l.003-.003a.2.2 0 0 0 .015-.283zm-5.881 9.343a.2.2 0 1 1 .275.289.2.2 0 0 1-.275-.289zm3.692-3.343a.211.211 0 0 0-.288-.001.204.204 0 0 0-.001.278.202.202 0 0 0 .284.005.206.206 0 0 0 .005-.282zm3.122-3.349c.077-.077.201-.076.278.001s.079.202.005.282a.2.2 0 0 1-.283-.005.197.197 0 0 1 0-.278zm3.688-3.348a.194.194 0 0 0-.274-.005l-.003.004a.198.198 0 0 0-.001.278.19.19 0 0 0 .268.01l.003-.003.006-.006a.193.193 0 0 0 .005-.274l-.004-.004zm.987 9.179a.203.203 0 0 1 .263-.106c.1.046.147.162.105.263v.002c-.044.098-.159.142-.258.098a.199.199 0 0 1-.11-.257zm-14.423-8.54a.193.193 0 0 0-.251-.108l-.008.003a.197.197 0 0 0-.11.254.203.203 0 0 0 .26.115.198.198 0 0 0 .111-.258l-.002-.006zm4.181-1.898a.192.192 0 0 1 .25.108l.002.006a.2.2 0 0 1-.111.258.202.202 0 0 1-.259-.115.197.197 0 0 1 .11-.254l.008-.003zm3.642 4.515a.142.142 0 0 0-.194-.057l-.012.008a.15.15 0 1 0 .16.253.15.15 0 0 0 .046-.204zm2.837-1.988a.148.148 0 0 1 .203.051.152.152 0 0 1-.048.208.15.15 0 0 1-.208-.049.15.15 0 0 1 .049-.207l.002-.001zm3.243-1.886a.15.15 0 1 0-.048.208.154.154 0 0 0 .048-.208zm.146 7.912a.15.15 0 0 1 .217-.027.144.144 0 0 1 .026.202.153.153 0 0 1-.209.035.157.157 0 0 1-.034-.209zm2.273-2.984a.143.143 0 0 0-.2.035l-.002.002-.001.002a.15.15 0 0 0 .033.208l.001.001a.16.16 0 0 0 .213-.04.15.15 0 0 0-.042-.206l-.001-.001v-.001h-.001zm-.589-1.814a.127.127 0 0 1 .163.07.092.092 0 0 0 .005.008.132.132 0 0 1-.073.17.134.134 0 0 1-.175-.074.026.026 0 0 1-.005-.012.123.123 0 0 1 .075-.157l.002-.002.008-.003z" fill="#17212a" fill-rule="evenodd" opacity=".86"/><path d="M386.472 117.108a31.918 31.918 0 0 1-1.188 11.504s4.433-5.126 6.556-6.294l1.245-5.701-6.74.106z" fill="#e9dac1" stroke="#17212a"/><path d="M395.484 114.567c-1.261.246-2.668 1.589-3.408 3.49-.887.018-1.499-.009-1.499-.009-13.057-1.243-10.106-13.103-10.106-13.103-1.161-2.833-1.087-3.518 2.156-3.573 2.422-.037 6.461-3.344 6.461-3.344.093-.079.198-.144.31-.192a23.151 23.151 0 0 0 1.599 7.858c1.874 4.578 2.897 5.044 4.578 4.953 1.682-.101 2.796 3.362-.091 3.92z" fill="#e9dac1" stroke="#17212a"/><path d="M414.481 180.064c-7.118 7.63-16.694 7.886-38.378-15.972l9.193-35.499c.265-.302 4.486-5.145 6.542-6.278l.073-.32c.621-.548 1.27-1.142 1.946-1.763a52.516 52.516 0 0 1 13.679 16.804c5.684 10.928 3.674 14.629 6.716 21.043 3.043 6.415 7.347 14.355.229 21.985z" fill="url(#f)"/><path d="M414.481 180.064c-7.118 7.63-16.694 7.886-38.378-15.972l9.193-35.499c.265-.302 4.486-5.145 6.542-6.278l.073-.32c.621-.548 1.27-1.142 1.946-1.763a52.516 52.516 0 0 1 13.679 16.804c5.684 10.928 3.674 14.629 6.716 21.043 3.043 6.415 7.347 14.355.229 21.985z" fill="#8edc97"/><path d="M414.481 180.064c-7.118 7.63-16.694 7.886-38.378-15.972l9.193-35.499c.265-.302 4.486-5.145 6.542-6.278l.073-.32c.621-.548 1.27-1.142 1.946-1.763a52.516 52.516 0 0 1 13.679 16.804c5.684 10.928 3.674 14.629 6.716 21.043 3.043 6.415 7.347 14.355.229 21.985z" stroke="#17212a"/><path d="m355.991 133.071-7.09 7.492a39.658 39.658 0 0 0-8.333-18.577c-6.616-8.525-5.127-12.82-1.727-16.95 3.399-4.139 3.929-2.275 4.678 1.197.758 3.472 2.257 7.986 3.81 8.973 1.545.987 2.001-2.567 4.249-3.518 2.239-.95 2.604.521 1.837 1.243a37.692 37.692 0 0 0-4.404 5.419c-1.362 2.11-1.599 2.54.941 6.441a80.517 80.517 0 0 0 6.039 8.28z" fill="#e9dac1" stroke="#17212a"/><path d="M380.215 170.15c-10.947 2.092-17.361-3.052-19.956-5.656s-4.605-3.728-11.294-5.665c-6.689-1.938-8.827-8.992-8.827-8.992l17.316-18.339s.721 1.325 5.4 6.15c4.678 4.824 6.424 5.546 12.884 1.827 6.46-3.709 9.548-10.864 9.548-10.864a.025.025 0 0 1 .01-.018l.036-.037 3.737-4.002a.13.13 0 0 0 .037-.028 17.807 17.807 0 0 1 2.735-2.207l-.113-.607 5.912-6.323v.274c11.587 12.025-.676 51.289-17.425 54.487z" fill="url(#g)"/><path d="M380.215 170.15c-10.947 2.092-17.361-3.052-19.956-5.656s-4.605-3.728-11.294-5.665c-6.689-1.938-8.827-8.992-8.827-8.992l17.316-18.339s.721 1.325 5.4 6.15c4.678 4.824 6.424 5.546 12.884 1.827 6.46-3.709 9.548-10.864 9.548-10.864a.025.025 0 0 1 .01-.018l.036-.037 3.737-4.002a.13.13 0 0 0 .037-.028 17.807 17.807 0 0 1 2.735-2.207l-.113-.607 5.912-6.323v.274c11.587 12.025-.676 51.289-17.425 54.487z" fill="#8edc97"/><path d="M380.215 170.15c-10.947 2.092-17.361-3.052-19.956-5.656s-4.605-3.728-11.294-5.665c-6.689-1.938-8.827-8.992-8.827-8.992l17.316-18.339s.721 1.325 5.4 6.15c4.678 4.824 6.424 5.546 12.884 1.827 6.46-3.709 9.548-10.864 9.548-10.864a.025.025 0 0 1 .01-.018l.036-.037 3.737-4.002a.13.13 0 0 0 .037-.028 17.807 17.807 0 0 1 2.735-2.207l-.113-.607 5.912-6.323v.274c11.587 12.025-.676 51.289-17.425 54.487z" stroke="#17212a"/><path clip-rule="evenodd" d="M410.039 107.113a6.105 6.105 0 1 0-6.103-6.237 16.762 16.762 0 0 0-14.526-4.24 22.968 22.968 0 0 0 1.587 9.058c1.868 4.575 2.895 5.042 4.575 4.949 1.681-.093 2.802 3.362-.093 3.922-1.874.362-4.058 3.152-3.922 6.594a9.437 9.437 0 0 1-.011.173c-.006.101-.013.202-.011.307.04 1.993 1.1 4.087 2.16 6.181 1.855 3.661 3.708 7.32.1 10.437-.223.193.102.515.324.324a6.02 6.02 0 0 0 1.966-6.151 27.17 27.17 0 0 0-2.208-5.785c.126.145.252.289.388.433a11.044 11.044 0 0 1 2.335 11.951s14.286 4.109 23.904-2.334c0 0 2.802-6.163-4.575-11.859a73.208 73.208 0 0 1-1.761-1.404l.605.325a33.9 33.9 0 0 1 2.01 1.135 12.114 12.114 0 0 1 5.736 11.127c-.015.294.442.293.457 0a12.651 12.651 0 0 0-2.698-8.711c-1.255-1.561-2.986-2.518-4.703-3.468-1.205-.666-2.404-1.329-3.426-2.194a14.027 14.027 0 0 1-1.555-1.74 4.486 4.486 0 0 0-.077-.113c-.051-.076-.102-.151-.148-.232a.029.029 0 0 0-.014-.011c-.004-.002-.009-.004-.013-.009-1.351-2.041-1.37-3.95-1.402-7.379l-.013-1.144a11.315 11.315 0 0 0-.629-3.442 7.469 7.469 0 0 0 7.393-1.44c.226-.189-.098-.51-.323-.323a6.986 6.986 0 0 1-7.274 1.201c-.034-.084-.067-.169-.102-.252.64.227 1.329.351 2.047.351z" fill="#334656" fill-rule="evenodd"/><path d="M384.347 109.442c-2.137 1.412-4.976.766-6.343-1.447a4.879 4.879 0 0 1-.72-2.687c.014-.724 1.107-.836 1.093-.103-.125 1.993 1.334 3.715 3.262 3.846a3.409 3.409 0 0 0 2.07-.535c.602-.371 1.246.549.638.926z" fill="#17212a"/></svg>