<svg fill="none" height="218" width="502" xmlns="http://www.w3.org/2000/svg" xmlns:xlink="http://www.w3.org/1999/xlink"><linearGradient id="a"><stop offset="0" stop-color="#f5f6f0"/><stop offset=".696" stop-color="#d6d5d5"/><stop offset="1" stop-color="#d8d8d8"/></linearGradient><linearGradient id="c" gradientUnits="userSpaceOnUse" x1="318.333" x2="378.42" xlink:href="#a" y1="15.888" y2="23.321"/><linearGradient id="b"><stop offset="0" stop-color="#f5f6f0"/><stop offset="1" stop-color="#ea593f"/></linearGradient><linearGradient id="d" gradientUnits="userSpaceOnUse" x1="356.043" x2="356.043" xlink:href="#b" y1="53.319" y2="137.484"/><linearGradient id="e" gradientUnits="userSpaceOnUse" x1="306.779" x2="306.779" xlink:href="#b" y1="52.944" y2="157.91"/><linearGradient id="f" gradientUnits="userSpaceOnUse" x1="286.482" x2="368.96" xlink:href="#a" y1="16.299" y2="41.493"/><linearGradient id="g" gradientUnits="userSpaceOnUse" x1="303.093" x2="366.711" xlink:href="#a" y1="15.707" y2="23.171"/><linearGradient id="h" gradientUnits="userSpaceOnUse" x1="372.675" x2="358.011" y1="41.282" y2="41.282"><stop offset="0" stop-color="#428dfc"/><stop offset=".998" stop-color="#2176db"/></linearGradient><g stroke="#17212a"><path d="M471.298 157.856H195.185c-16.384 0-29.666 13.283-29.666 29.667s13.282 29.666 29.666 29.666h276.113c16.384 0 29.666-13.282 29.666-29.666s-13.282-29.667-29.666-29.667z" fill="#f5f6f0"/><path d="M479.994 166.593h-41.86v41.86h41.86zM433.163 166.593h-41.86v41.86h41.86zM149.2 175.329h-41.86v41.86h41.86zM88.719 133.469H46.858v41.86h41.86zM101.225 175.329h-41.86v41.86h41.86z" fill="#f5f6f0"/><path d="M35.256 158.859 1.037 182.97l24.11 34.219 34.22-24.11z" fill="#f5f6f0"/><path d="M346.928 86.607c8.114 3.75 17.528 7.414 21.843 11.486 7.928 7.486 18.65 9.464 21.885 8.55 3.236-.907 4.965-5.936 4.679-6.843-.286-.907-8.829.993-8.686.257.136-.743 8.215.3 9.065-1.85.842-2.15-5.165-.886-9.829-2.021-4.664-1.143-6.179-1.972-5.721-2.515 1.271-1.514 8.2-2.692 7.185-4.514-1.014-1.821-8.135.95-12.785.243-5.493-.836-15.243-8.843-19.779-12.35-.671-.521-1.357-1.05-2.043-1.593-.271.564-.564 1.15-.878 1.75-1.508 2.886-3.172 6.043-4.936 9.4z" fill="#e9dac1"/></g><path d="m199.87 135.118-22.434-4.177-4.5 55.393s4.89 1.202 7.947-5.27 17.304-23.177 17.304-23.177zM301.729 137.439l-2.14 20.415 49.796.005s.726-4.453-5.271-6.723c-5.997-2.271-21.929-13.811-21.929-13.811z" fill="#17212a"/><path d="M339.801 28.269s-4.665 4.961-5.8 17.829c-.808 9.16 2.28 13.588 10.029 21.552 6.411 6.59 8.567 7.789 8.567 7.789l-17.15 33.22s-9.489.729-16.024-9.558-9.296-13.113-14.566-16.162c-5.27-3.048-15.243-12.861-8.124-31.25s17.739-18.871 40.394-34.216" fill="url(#c)"/><path d="M339.801 28.269s-4.665 4.961-5.8 17.829c-.808 9.16 2.28 13.588 10.029 21.552 6.411 6.59 8.567 7.789 8.567 7.789l-17.15 33.22s-9.489.729-16.024-9.558-9.296-13.113-14.566-16.162c-5.27-3.048-15.243-12.861-8.124-31.25s17.739-18.871 40.394-34.216" fill="#8edc97"/><path d="M339.801 28.269s-4.665 4.961-5.8 17.829c-.808 9.16 2.28 13.588 10.029 21.552 6.411 6.59 8.567 7.789 8.567 7.789l-17.15 33.22s-9.489.729-16.024-9.558-9.296-13.113-14.566-16.162c-5.27-3.048-15.243-12.861-8.124-31.25s17.739-18.871 40.394-34.216" stroke="#17212a"/><path d="M295.812 54.041s39.292-1.855 49.77.383c9.695 2.072 14.472 7.093 6.279 22.785s-21.034 39.353-29.676 60.117l-26.145.158s-3.483-8.785.728-15.294 5.551-3.446 5.934-11.103.766-9.954 7.275-17.803c6.508-7.848 11.294-13.017 4.785-12.06-6.508.957-23.928 4.595-23.928 4.595z" fill="url(#d)"/><path d="M295.812 54.041s39.292-1.855 49.77.383c9.695 2.072 14.472 7.093 6.279 22.785s-21.034 39.353-29.676 60.117l-26.145.158s-3.483-8.785.728-15.294 5.551-3.446 5.934-11.103.766-9.954 7.275-17.803c6.508-7.848 11.294-13.017 4.785-12.06-6.508.957-23.928 4.595-23.928 4.595z" fill="#1d918b"/><path d="M295.812 54.041s39.292-1.855 49.77.383c9.695 2.072 14.472 7.093 6.279 22.785s-21.034 39.353-29.676 60.117l-26.145.158s-3.483-8.785.728-15.294 5.551-3.446 5.934-11.103.766-9.954 7.275-17.803c6.508-7.848 11.294-13.017 4.785-12.06-6.508.957-23.928 4.595-23.928 4.595z" fill="#1d918b"/><path d="M295.812 54.041s39.292-1.855 49.77.383c9.695 2.072 14.472 7.093 6.279 22.785s-21.034 39.353-29.676 60.117l-26.145.158s-3.483-8.785.728-15.294 5.551-3.446 5.934-11.103.766-9.954 7.275-17.803c6.508-7.848 11.294-13.017 4.785-12.06-6.508.957-23.928 4.595-23.928 4.595z" stroke="#17212a"/><path d="M260.904 52.944s-8.482 20.609-1.198 42.155c7.283 21.545 12.03 28.832 9.248 30.329-4.565 2.458-12.152-9.711-23.987-3.035s-16.083 6.979-22.456 3.945-13.656-4.856-22.153 2.124l-2.124 29.436s72.334-.339 86.943-.022c12.92.281 23.213-.889 21.392-15.455-1.82-14.567-13.959-64.637-11.835-71.921z" fill="url(#e)"/><path d="M260.904 52.944s-8.482 20.609-1.198 42.155c7.283 21.545 12.03 28.832 9.248 30.329-4.565 2.458-12.152-9.711-23.987-3.035s-16.083 6.979-22.456 3.945-13.656-4.856-22.153 2.124l-2.124 29.436s72.334-.339 86.943-.022c12.92.281 23.213-.889 21.392-15.455-1.82-14.567-13.959-64.637-11.835-71.921z" fill="#1d918b"/><path d="M260.904 52.944s-8.482 20.609-1.198 42.155c7.283 21.545 12.03 28.832 9.248 30.329-4.565 2.458-12.152-9.711-23.987-3.035s-16.083 6.979-22.456 3.945-13.656-4.856-22.153 2.124l-2.124 29.436s72.334-.339 86.943-.022c12.92.281 23.213-.889 21.392-15.455-1.82-14.567-13.959-64.637-11.835-71.921z" fill="#1d918b"/><path d="M260.904 52.944s-8.482 20.609-1.198 42.155c7.283 21.545 12.03 28.832 9.248 30.329-4.565 2.458-12.152-9.711-23.987-3.035s-16.083 6.979-22.456 3.945-13.656-4.856-22.153 2.124l-2.124 29.436s72.334-.339 86.943-.022c12.92.281 23.213-.889 21.392-15.455-1.82-14.567-13.959-64.637-11.835-71.921z" stroke="#17212a"/><path d="M250.899 59.314c-.207 2.622 10.636 8.622 26.822 12.522-.45-5.286.957-11.736 6.257-19 11.628-15.929 27.3-26.386 53.15-35.364 0 0-29.386-2.658-51.943 10.335-17.171 9.886-10.579 5.672-21.829 12.657-11.242 6.993-12.157 14.893-12.457 18.85z" fill="url(#f)"/><path d="M250.899 59.314c-.207 2.622 10.636 8.622 26.822 12.522-.45-5.286.957-11.736 6.257-19 11.628-15.929 27.3-26.386 53.15-35.364 0 0-29.386-2.658-51.943 10.335-17.171 9.886-10.579 5.672-21.829 12.657-11.242 6.993-12.157 14.893-12.457 18.85z" fill="#8edc97"/><path d="M250.899 59.314c-.207 2.622 10.636 8.622 26.822 12.522-.45-5.286.957-11.736 6.257-19 11.628-15.929 27.3-26.386 53.15-35.364 0 0-29.386-2.658-51.943 10.335-17.171 9.886-10.579 5.672-21.829 12.657-11.242 6.993-12.157 14.893-12.457 18.85z" stroke="#17212a"/><path d="M397.011 90.85h-41.86v41.86h41.86z" fill="#f5f6f0" stroke="#17212a"/><path d="M326.099 97.786c3.893 1.65 7.365 3.071 9.757 4.007 9.743 3.814 15.665 6.35 20.958 13.128 5.292 6.772 5.442 7.15 10.521 10.958 5.079 3.814 15.35.735 15.35.307 0-.422-12.743-8.936-4.486-5.343 8.257 3.6 12.279-1.057 6.986-1.9-5.293-.85-13.129-6.779-15.243-8.472-2.114-1.692 0-2.964 5.293-2.328s6.771-2.75 3.386-2.536c-3.386.207-7.829-2.964-14.822-2.964-6.985 0-13.057-5.679-24.493-12.664a62.32 62.32 0 0 1-4.357-2.943z" fill="#e9dac1" stroke="#17212a"/><path d="M339.316 28.984s-12.93 14.163-18.097 26.002c-5.166 11.84-3.874 14.853 4.09 22.603 7.965 7.749 10.095 8.889 10.095 8.889l-26.885 32.655s-11.193-3.014-14.853-14.638c-3.659-11.624-5.596-15.068-9.902-19.373-4.305-4.305-11.408-16.36.215-32.288 11.624-15.93 27.301-26.381 53.148-35.36" fill="url(#g)"/><path d="M339.316 28.984s-12.93 14.163-18.097 26.002c-5.166 11.84-3.874 14.853 4.09 22.603 7.965 7.749 10.095 8.889 10.095 8.889l-26.885 32.655s-11.193-3.014-14.853-14.638c-3.659-11.624-5.596-15.068-9.902-19.373-4.305-4.305-11.408-16.36.215-32.288 11.624-15.93 27.301-26.381 53.148-35.36" fill="#8edc97"/><path d="M339.316 28.984s-12.93 14.163-18.097 26.002c-5.166 11.84-3.874 14.853 4.09 22.603 7.965 7.749 10.095 8.889 10.095 8.889l-26.885 32.655s-11.193-3.014-14.853-14.638c-3.659-11.624-5.596-15.068-9.902-19.373-4.305-4.305-11.408-16.36.215-32.288 11.624-15.93 27.301-26.381 53.148-35.36" stroke="#17212a"/><path d="M339.314 28.986c3.45-2.807 6.392-3.224 7.864-3.245-.029-.357.016-.735.016-1.085a12.78 12.78 0 0 1 .099-2.777l.764-2.429c.486.529.607.507.964.514 1.336.029 1.558-.971 1.758-2.285-4.372 1.3-13.65-.208-13.65-.208-1.801 9.422 2.185 11.515 2.185 11.515z" fill="#e9dac1" stroke="#17212a"/><path d="M350.921 33.743c3.614 2.914 8.385 2.736 8.721 3.607.343.871 1.514 2.557 2.479 2.293.957-.272 2.928-3.564 6.285-5 .315-.129.608-.264.9-.407.015-.007.022-.007.029-.022l.157-.078c.193-.1.522-.279.936-.536-2.257-1.571-3.65-3.407-3.679-4.636-.085-3.478-2.043-2.821-5.671-4.307-3.636-1.493-3.707-4.536-4.793-8.55-1.093-4.014-4.729-2.193-5.214-.157-.493 2.036-.265 4.107-2.15 4.064a2.184 2.184 0 0 1-1.329-.828l-.101.524a5.281 5.281 0 0 0-.071.5l-.219 2.343c-.372 4.206.327 8.461 3.72 11.19z" fill="#e9dac1" stroke="#17212a"/><path clip-rule="evenodd" d="M364.971 38.59a2.505 2.505 0 0 1-.003-.533 3.41 3.41 0 0 1 2.249-2.669c-.264-.967-1.248-1.585-2.086-2.028a5.298 5.298 0 0 1-2.242.78 5.08 5.08 0 0 1-3.242-.674 3.266 3.266 0 0 1-1.616-2.402 2.902 2.902 0 0 1-.004-.625 3.404 3.404 0 0 1 1.048-2.075 5.082 5.082 0 0 1 3.012-1.377c2.458-.276 4.637 1.104 4.859 3.077a3.26 3.26 0 0 1-1.044 2.7c-.052.051-.111.097-.17.142-.036.028-.072.056-.106.085a4.094 4.094 0 0 1 2.125 2.214c.235-.064.475-.11.718-.139 2.119-.237 3.999.956 4.191 2.661.189 1.705-1.379 3.286-3.498 3.524s-3.999-.955-4.191-2.66zm-2.145-5.012a4.513 4.513 0 0 0 2.678-1.217c.487-.455.8-1.069.882-1.732a2.415 2.415 0 0 0-.003-.503c-.187-1.662-2.086-2.818-4.234-2.576a4.513 4.513 0 0 0-2.678 1.217 2.567 2.567 0 0 0 .473 4.22 4.524 4.524 0 0 0 2.882.591zm9.271 4.213c.158 1.399-1.189 2.696-2.998 2.898-1.81.203-3.41-.766-3.566-2.161-.156-1.399 1.188-2.696 2.998-2.899 1.81-.203 3.41.767 3.566 2.162z" fill="url(#h)" fill-rule="evenodd"/><path clip-rule="evenodd" d="M364.971 38.59a2.505 2.505 0 0 1-.003-.533 3.41 3.41 0 0 1 2.249-2.669c-.264-.967-1.248-1.585-2.086-2.028a5.298 5.298 0 0 1-2.242.78 5.08 5.08 0 0 1-3.242-.674 3.266 3.266 0 0 1-1.616-2.402 2.902 2.902 0 0 1-.004-.625 3.404 3.404 0 0 1 1.048-2.075 5.082 5.082 0 0 1 3.012-1.377c2.458-.276 4.637 1.104 4.859 3.077a3.26 3.26 0 0 1-1.044 2.7c-.052.051-.111.097-.17.142-.036.028-.072.056-.106.085a4.094 4.094 0 0 1 2.125 2.214c.235-.064.475-.11.718-.139 2.119-.237 3.999.956 4.191 2.661.189 1.705-1.379 3.286-3.498 3.524s-3.999-.955-4.191-2.66zm-2.145-5.012a4.513 4.513 0 0 0 2.678-1.217c.487-.455.8-1.069.882-1.732a2.415 2.415 0 0 0-.003-.503c-.187-1.662-2.086-2.818-4.234-2.576a4.513 4.513 0 0 0-2.678 1.217 2.567 2.567 0 0 0 .473 4.22 4.524 4.524 0 0 0 2.882.591zm9.271 4.213c.158 1.399-1.189 2.696-2.998 2.898-1.81.203-3.41-.766-3.566-2.161-.156-1.399 1.188-2.696 2.998-2.899 1.81-.203 3.41.767 3.566 2.162z" fill="#17212a" fill-rule="evenodd"/><path d="M350.059 4.178c8.432-7.813 18.875-3.315 20.236 4.513 1.361 7.828 8.756 8.968 8.756 8.968l9.481 16.492a15.877 15.877 0 0 1-14.01 1.537 15.259 15.259 0 0 0 14.098-.33c.305-.16.576.303.271.463a15.737 15.737 0 0 1-17.896-1.847c-2.587-1.646-4.211-3.685-4.244-5.013-.085-3.476-2.045-2.817-5.676-4.306s-3.706-4.53-4.793-8.547c-1.087-4.017-4.726-2.197-5.215-.16-.489 2.036-.258 4.11-2.146 4.067-1.887-.043-7.295-8.025 1.138-15.837z" fill="#17212a"/></svg>