<?xml version="1.0" encoding="UTF-8"?>
<svg width="247px" height="247px" viewBox="0 0 247 247" version="1.1" xmlns="http://www.w3.org/2000/svg" xmlns:xlink="http://www.w3.org/1999/xlink">
    <title>Group 17</title>
    <defs>
        <linearGradient x1="38.3909677%" y1="0%" x2="61.6090323%" y2="100%" id="linearGradient-1">
            <stop stop-color="#334554" offset="0%"></stop>
            <stop stop-color="#17212A" offset="100%"></stop>
        </linearGradient>
        <linearGradient x1="0.00125682725%" y1="50.0010465%" x2="99.9981698%" y2="50.0010465%" id="linearGradient-2">
            <stop stop-color="#F5F6F0" offset="0%"></stop>
            <stop stop-color="#EFF2E0" offset="100%"></stop>
        </linearGradient>
        <linearGradient x1="0.306186502%" y1="0%" x2="99.6938135%" y2="100%" id="linearGradient-3">
            <stop stop-color="#334554" offset="0%"></stop>
            <stop stop-color="#17212A" offset="100%"></stop>
        </linearGradient>
        <linearGradient x1="-272.361902%" y1="50.0030035%" x2="100.00867%" y2="50.0030035%" id="linearGradient-4">
            <stop stop-color="#23286B" offset="0%"></stop>
            <stop stop-color="#151A4F" offset="100%"></stop>
        </linearGradient>
        <linearGradient x1="0.00863837599%" y1="50.0026608%" x2="162.329662%" y2="50.0026608%" id="linearGradient-5">
            <stop stop-color="#23286B" offset="0%"></stop>
            <stop stop-color="#151A4F" offset="100%"></stop>
        </linearGradient>
        <linearGradient x1="0%" y1="49.9992414%" x2="99.9997089%" y2="49.9992414%" id="linearGradient-6">
            <stop stop-color="#8EDC97" offset="0%"></stop>
            <stop stop-color="#5DC969" offset="100%"></stop>
        </linearGradient>
        <linearGradient x1="0%" y1="49.9992414%" x2="99.9997089%" y2="49.9992414%" id="linearGradient-7">
            <stop stop-color="#8EDC97" offset="0%"></stop>
            <stop stop-color="#5DC969" offset="100%"></stop>
        </linearGradient>
        <linearGradient x1="0.000372106869%" y1="49.9967342%" x2="100.000074%" y2="49.9967342%" id="linearGradient-8">
            <stop stop-color="#8EDC97" offset="0%"></stop>
            <stop stop-color="#1D918B" offset="100%"></stop>
        </linearGradient>
        <linearGradient x1="0.486014503%" y1="0%" x2="99.5139855%" y2="100%" id="linearGradient-9">
            <stop stop-color="#334554" offset="0%"></stop>
            <stop stop-color="#17212A" offset="100%"></stop>
        </linearGradient>
        <linearGradient x1="0%" y1="14.989793%" x2="100%" y2="85.010207%" id="linearGradient-10">
            <stop stop-color="#334554" offset="0%"></stop>
            <stop stop-color="#17212A" offset="100%"></stop>
        </linearGradient>
        <linearGradient x1="0%" y1="49.9992414%" x2="99.9997089%" y2="49.9992414%" id="linearGradient-11">
            <stop stop-color="#8EDC97" offset="0%"></stop>
            <stop stop-color="#1D918B" offset="100%"></stop>
        </linearGradient>
        <linearGradient x1="0%" y1="50%" x2="100%" y2="50%" id="linearGradient-12">
            <stop stop-color="#F5F6F0" offset="0%"></stop>
            <stop stop-color="#D6D7D8" offset="100%"></stop>
        </linearGradient>
    </defs>
    <g id="WIP" stroke="none" stroke-width="1" fill="none" fill-rule="evenodd">
        <g id="Service-Single" transform="translate(-1054.000000, -3323.000000)">
            <g id="Group-17" transform="translate(1055.000000, 3324.000000)">
                <path d="M122.5,245 C190.154882,245 245,190.154882 245,122.5 C245,54.8451181 190.154882,0 122.5,0 C54.8451181,0 0,54.8451181 0,122.5 C0,190.154882 54.8451181,245 122.5,245 Z" id="Oval" stroke="#17212A" stroke-linecap="round" stroke-linejoin="round" stroke-dasharray="13,14" fill-rule="nonzero"></path>
                <path d="M122.5,230 C181.870611,230 230,181.870611 230,122.5 C230,63.1293894 181.870611,15 122.5,15 C63.1293894,15 15,63.1293894 15,122.5 C15,181.870611 63.1293894,230 122.5,230 Z" id="Oval" stroke="#17212A" stroke-linecap="round" stroke-linejoin="round" stroke-dasharray="8,14" fill-rule="nonzero"></path>
                <g id="clip-online-ordering-pizza-in-a-mobile-application" transform="translate(78.000000, 60.000000)">
                    <g id="Group" transform="translate(41.465969, 0.000000)">
                        <path d="M41.3711364,97.6502363 L7.05199476,97.6502363 C3.53570419,97.6502363 0.685057853,94.8132528 0.685057853,91.3144449 L0.685057853,6.33603558 C0.685057853,2.83673937 3.53546152,0.000244125591 7.05199476,0.000244125591 L41.3708937,0.000244125591 C44.8871843,0.000244125591 47.7378306,2.83698349 47.7378306,6.33603558 L47.7378306,91.314689 C47.7378306,94.813497 44.8871843,97.6502363 41.3711364,97.6502363 Z" id="Path" fill="url(#linearGradient-1)"></path>
                        <ellipse id="Oval" fill="#334656" fill-rule="nonzero" cx="17.4513817" cy="6.13219072" rx="1.11409869" ry="1.10857431"></ellipse>
                        <path d="M41.3711364,0 L34.783127,0 C34.4453301,0.209215631 34.1131147,0.423802026 33.7879366,0.64058555 C25.1564018,6.39120797 17.7326364,14.5332847 14.8441335,24.4623607 C13.6795594,28.4645556 13.2764843,32.6432534 12.3909809,36.7157565 C10.3644424,46.0403775 5.84859346,54.6480018 0.685543194,62.6909635 L0.685543194,91.3142007 C0.685543194,94.813497 3.53594686,97.6499922 7.0524801,97.6499922 L41.3713791,97.6499922 C44.8876696,97.6499922 47.738316,94.8130087 47.738316,91.3142007 L47.738316,6.33603558 C47.738316,2.83673937 44.8871843,0 41.3711364,0 Z" id="Path" fill="#000000" fill-rule="nonzero" opacity="0.0772131057"></path>
                        <ellipse id="Oval" fill="url(#linearGradient-2)" fill-rule="nonzero" cx="24.5553079" cy="91.9467301" rx="3.95431021" ry="3.93481627"></ellipse>
                        <polygon id="Path" fill="#FFFFFF" fill-rule="nonzero" opacity="0.309898013" points="20.4769932 5.80530655 28.4023579 4.82123629 28.5724696 6.17759808 20.6468623 7.16142421"></polygon>
                        <polygon id="Path" fill="#FFFFFF" fill-rule="nonzero" points="2.54876466 11.054495 45.8746092 11.054495 45.8746092 86.6929033 2.54876466 86.6929033"></polygon>
                        <ellipse id="Oval" fill="#FFFFFF" fill-rule="nonzero" cx="24.0893812" cy="91.4831357" rx="3.02221414" ry="3.00762728"></ellipse>
                        <path d="M27.4338613,6.06603268 L20.9213223,6.06603268 C20.7924644,6.06603268 20.6883589,5.9622793 20.6883589,5.83435749 C20.6883589,5.70643569 20.7924644,5.60268231 20.9213223,5.60268231 L27.4338613,5.60268231 C27.5627191,5.60268231 27.6668246,5.70643569 27.6668246,5.83435749 C27.6668246,5.9622793 27.5624764,6.06603268 27.4338613,6.06603268 Z" id="Path" fill="#FFFFFF" fill-rule="nonzero" opacity="0.709558396"></path>
                        <ellipse id="Oval" fill="#17212A" fill-rule="nonzero" cx="17.4790461" cy="5.99743339" rx="1" ry="1"></ellipse>
                        <g transform="translate(0.000000, 11.272743)" fill-rule="nonzero" id="Path">
                            <polygon fill="#D62929" points="0 0 0.782611257 0 0.782611257 3.35843575 0 3.35843575"></polygon>
                            <polygon fill="#D62929" points="0 7.39871428 0.782611257 7.39871428 0.782611257 13.4347195 0 13.4347195"></polygon>
                            <polygon fill="#8EDC97" points="47.7514202 7.39871428 48.5340314 7.39871428 48.5340314 13.4347195 47.7514202 13.4347195"></polygon>
                            <polygon fill="#D62929" points="0 15.2839709 0.782611257 15.2839709 0.782611257 21.3199761 0 21.3199761"></polygon>
                        </g>
                        <polygon id="Path" fill="#FFFFFF" fill-rule="nonzero" opacity="0.309898013" points="16.6049482 4.42038207 17.684345 5.58071101 16.5183149 6.65510773 15.4389181 5.4947788"></polygon>
                        <polygon id="Path" fill="#FFFFFF" fill-rule="nonzero" opacity="0.309898013" points="15.8400518 4.54610675 16.6032495 5.36636874 15.778899 6.12584345 15.0157013 5.30558147"></polygon>
                    </g>
                    <g id="Group" transform="translate(47.968586, 26.563133)" fill="#F5F6F0" fill-rule="nonzero">
                        <g id="Rectangle">
                            <rect x="0" y="0" width="35.1518325" height="35.2599595" rx="0.34947644"></rect>
                        </g>
                    </g>
                    <g id="Group" transform="translate(50.701571, 29.304524)">
                        <path d="M0,15.1182039 C0.0593717277,19.0568643 1.64274974,22.6244348 4.18544293,25.2543552 L13.899845,15.5100716 C14.0440524,15.3654207 13.941933,15.1182039 13.7379581,15.1182039 L0,15.1182039 Z" id="Path" fill="#8EDC97" fill-rule="nonzero" opacity="0.346195766"></path>
                        <path d="M25.1767791,4.19831735 C22.5549236,1.64780284 18.9982932,0.0595543552 15.071711,0 L15.071711,13.7803484 C15.071711,13.9848184 15.3181696,14.0872519 15.462377,13.9427333 L25.1767791,4.19831735 Z" id="Path" fill="#8EDC97" fill-rule="nonzero" opacity="0.346195766"></path>
                        <path d="M4.18544293,4.52295476 C1.64274974,7.15274274 0.0593717277,10.7203133 0,14.6589737 L13.7379581,14.6589737 C13.941801,14.6589737 14.0439204,14.4117569 13.899845,14.267106 L4.18544293,4.52295476 Z" id="Path" fill="#8EDC97" fill-rule="nonzero" opacity="0.346195766"></path>
                        <path d="M4.50908482,25.5788602 C7.13094031,28.1293747 10.6874387,29.7176232 14.6140209,29.7771776 L14.6140209,15.9969615 C14.6140209,15.7924916 14.3675623,15.6900581 14.223355,15.8345766 L4.50908482,25.5788602 Z" id="Path" fill="#8EDC97" fill-rule="nonzero" opacity="0.346195766"></path>
                        <path d="M29.6858639,14.6589737 C29.6264921,10.7203133 28.0431141,7.15274274 25.5004209,4.52295476 L15.7861508,14.267106 C15.6419435,14.4117569 15.7440628,14.6589737 15.9479058,14.6589737 L29.6858639,14.6589737 Z" id="Path" fill="#8EDC97" fill-rule="nonzero" opacity="0.346195766"></path>
                        <path d="M14.6140209,0 C10.6874387,0.0595543552 7.13094031,1.64780284 4.50908482,4.19831735 L14.223355,13.9424686 C14.3675623,14.0871195 14.6140209,13.984686 14.6140209,13.7800837 L14.6140209,0 Z" id="Path" fill="#8EDC97" fill-rule="nonzero" opacity="0.346195766"></path>
                        <path d="M15.7860188,15.5100716 L25.500289,25.2542228 C28.0429822,22.6243025 29.6263602,19.0568643 29.6857319,15.1182039 L15.9479058,15.1182039 C15.7440628,15.1182039 15.6419435,15.3654207 15.7860188,15.5100716 Z" id="Path" fill="#8EDC97" fill-rule="nonzero" opacity="0.346195766"></path>
                        <path d="M15.071711,29.7771776 C18.9982932,29.7176232 22.5549236,28.1293747 25.1767791,25.5788602 L15.462377,15.8345766 C15.3181696,15.6899257 15.071711,15.7923592 15.071711,15.9969615 L15.071711,29.7771776 Z" id="Path" fill="#8EDC97" fill-rule="nonzero" opacity="0.346195766"></path>
                        <path d="M2.81474764,15.1182039 C2.58860733,15.6694126 2.20427435,16.1629196 2.10769634,16.7505226 C1.85173822,18.3087292 3.58789948,19.3448427 4.57017173,20.5789413 C5.23210052,21.4105847 5.5773801,22.4380959 6.02913298,23.4048616 L13.8997131,15.5100716 C14.0439204,15.3654207 13.941801,15.1182039 13.7379581,15.1182039 L2.81474764,15.1182039 L2.81474764,15.1182039 Z" id="Path" fill="#8EDC97" fill-rule="nonzero"></path>
                        <path d="M6.24366283,23.8389467 C6.24366283,23.8392113 6.24353089,23.839476 6.24353089,23.8397407 C6.83315812,24.9822579 7.91332775,26.086131 9.20301361,26.0019608 C9.95083351,25.9532586 10.6338723,25.5083214 11.3827476,25.4817205 C12.6077843,25.438312 13.5461215,26.473102 14.6140209,27.0989521 L14.6140209,15.9969615 C14.6140209,15.7924916 14.3675623,15.6900581 14.223355,15.8345766 L6.24366283,23.8389467 Z" id="Path" fill="#8EDC97" fill-rule="nonzero"></path>
                        <path d="M5.98546178,6.32851047 C5.79863874,6.74089129 5.57803979,7.12733288 5.24700942,7.42457529 C4.63205026,7.97684267 3.72709319,8.13393383 3.15237487,8.72828629 C1.73273089,10.1963673 3.38867435,12.6707846 2.95631623,14.6589737 L13.7378262,14.6589737 C13.9416691,14.6589737 14.0437885,14.4117569 13.8995812,14.267106 L5.98546178,6.32851047 Z" id="Path" fill="#8EDC97" fill-rule="nonzero"></path>
                        <path d="M14.6140209,2.18617421 C14.4432942,2.22720054 14.2748105,2.28688724 14.1093613,2.36999865 C13.5301571,2.66088859 13.0970073,3.19224578 12.513977,3.47545982 C10.9184607,4.25032816 8.7614199,2.95760162 7.33161675,4.00866982 C6.73328168,4.44844564 6.4661089,5.16653883 6.17914555,5.87364754 L14.223355,13.9426009 C14.3675623,14.0872519 14.6140209,13.9848184 14.6140209,13.7803484 L14.6140209,2.18617421 Z" id="Path" fill="#8EDC97" fill-rule="nonzero"></path>
                        <path d="M26.4014199,16.8051803 C26.606978,16.2306793 26.9223079,15.6782795 27.1785298,15.1182039 L15.9479058,15.1182039 C15.7440628,15.1182039 15.6419435,15.3654207 15.7861508,15.5100716 L23.150488,22.8970614 C23.5354806,22.7858933 23.9225843,22.6772397 24.2658848,22.4768724 C26.0626052,21.428451 25.6992503,18.7675625 26.4014199,16.8051803 Z" id="Path" fill="#8EDC97" fill-rule="nonzero"></path>
                        <path d="M27.3712901,14.6589737 C27.5333089,14.2248886 27.6334492,13.7815395 27.5954513,13.3154274 C27.4425361,11.4380095 25.1861466,10.4033518 24.6620921,8.59448751 C24.3991414,7.68687914 24.5949361,6.64825118 24.2247204,5.802447 L15.7860188,14.267106 C15.6418115,14.4117569 15.7439309,14.6589737 15.9479058,14.6589737 L27.3712901,14.6589737 Z" id="Path" fill="#8EDC97" fill-rule="nonzero"></path>
                        <path d="M15.071711,27.3318758 C16.8869026,28.1136259 19.2352524,27.4487346 20.3350806,25.7899473 C20.8753634,24.9749791 21.165889,23.9424389 21.968067,23.3852748 C22.1798262,23.2382417 22.413223,23.1351465 22.6559874,23.0501823 L15.462377,15.8344443 C15.3181696,15.6897934 15.071711,15.7922269 15.071711,15.9968292 L15.071711,27.3318758 L15.071711,27.3318758 Z" id="Path" fill="#8EDC97" fill-rule="nonzero"></path>
                        <path d="M23.984199,5.39456583 C22.8917592,4.01674274 19.0298262,3.23605132 18.5444293,3.56982039 C17.5180901,2.82618501 16.2621801,2.06547738 15.0715791,2.12119379 L15.0715791,13.7802161 C15.0715791,13.984686 15.3180377,14.0871195 15.462245,13.9426009 L23.984199,5.39456583 Z" id="Path" fill="#8EDC97" fill-rule="nonzero"></path>
                        <path d="M11.7088963,5.35737745 C10.9055309,4.88994193 9.86322723,5.09361783 9.2988,5.86067792 C8.73450471,6.62773801 8.84770681,7.68687914 9.52982199,8.3190817 L10.3269864,7.23558947 L11.1853696,7.87096826 L11.7701152,7.07624848 L10.9117319,6.44086968 L11.7088963,5.35737745 Z" id="Path" fill="#FFFFFF" fill-rule="nonzero"></path>
                        <path d="M24.5809508,17.8206482 C24.4788314,16.8946442 23.6965759,16.1743011 22.7462325,16.1743011 C21.795889,16.1743011 21.0135016,16.8946442 20.9115141,17.8206482 L22.2539749,17.8206482 L22.2539749,18.8907738 L23.2387539,18.8907738 L23.2387539,17.8206482 L24.5809508,17.8206482 Z" id="Path" fill="#FFFFFF" fill-rule="nonzero"></path>
                        <path d="M18.4140754,25.3840513 C19.097378,24.7531722 19.2126911,23.6942957 18.6498471,22.9261769 C18.0870031,22.1580581 17.0450953,21.952397 16.2408063,22.4182444 L17.0358597,23.5031924 L16.176289,24.1369831 L16.7594513,24.932894 L17.619022,24.2991033 L18.4140754,25.3840513 Z" id="Path" fill="#1D918B" fill-rule="nonzero"></path>
                        <g transform="translate(21.590859, 7.977901)" id="Oval">
                            <ellipse fill="url(#linearGradient-3)" cx="1.98341152" cy="1.98951249" rx="1.98341152" ry="1.98951249"></ellipse>
                            <ellipse fill="#428DFC" fill-rule="nonzero" transform="translate(1.420205, 1.324021) rotate(23.947945) translate(-1.420205, -1.324021) " cx="1.4202045" cy="1.32402116" rx="1" ry="1"></ellipse>
                            <ellipse fill="#428DFC" fill-rule="nonzero" transform="translate(2.813801, 1.877130) rotate(-32.291453) translate(-2.813801, -1.877130) " cx="2.81380057" cy="1.87713017" rx="1" ry="1"></ellipse>
                            <ellipse fill="#428DFC" fill-rule="nonzero" transform="translate(2.174032, 3.417237) rotate(-32.291453) translate(-2.174032, -3.417237) " cx="2.17403193" cy="3.41723718" rx="1" ry="1"></ellipse>
                            <ellipse fill="#428DFC" fill-rule="nonzero" cx="1.11975079" cy="2.59921675" rx="1" ry="1"></ellipse>
                        </g>
                        <g transform="translate(5.915139, 16.069221)" fill-rule="nonzero" id="Oval">
                            <ellipse fill="#1D918B" cx="1.4112" cy="1.07118433" rx="1.4112" ry="1.07118433"></ellipse>
                            <ellipse fill="#23286B" cx="2.36378639" cy="1.07118433" rx="1" ry="1"></ellipse>
                        </g>
                        <g transform="translate(9.469061, 21.826364)" fill-rule="nonzero" id="Oval">
                            <ellipse fill="#428DFC" transform="translate(1.367483, 1.626307) rotate(-76.520980) translate(-1.367483, -1.626307) " cx="1.36748296" cy="1.62630655" rx="1.41537021" ry="1.06812746"></ellipse>
                            <ellipse fill="#23286B" transform="translate(1.589377, 0.697081) rotate(-76.520980) translate(-1.589377, -0.697081) " cx="1.58937652" cy="0.697080511" rx="1" ry="1"></ellipse>
                        </g>
                        <g transform="translate(16.978408, 5.893307)" fill-rule="nonzero" id="Oval">
                            <ellipse fill="#428DFC" transform="translate(1.752353, 1.758983) rotate(-134.854148) translate(-1.752353, -1.758983) " cx="1.7523533" cy="1.75898322" rx="1.41337348" ry="1.069529"></ellipse>
                            <ellipse fill="#23286B" transform="translate(1.080574, 1.081659) rotate(-134.854148) translate(-1.080574, -1.081659) " cx="1.08057443" cy="1.08165872" rx="1" ry="1"></ellipse>
                        </g>
                        <ellipse id="Oval" fill="#1D918B" fill-rule="nonzero" transform="translate(5.532170, 21.523836) rotate(-36.037905) translate(-5.532170, -21.523836) " cx="5.53216955" cy="21.523836" rx="1.24822324" ry="1"></ellipse>
                        <ellipse id="Oval" fill="#1D918B" fill-rule="nonzero" transform="translate(6.905208, 19.917012) rotate(-36.037905) translate(-6.905208, -19.917012) " cx="6.90520825" cy="19.9170119" rx="1.24822324" ry="1"></ellipse>
                        <ellipse id="Oval" fill="#A1C3FC" fill-rule="nonzero" transform="translate(20.028139, 13.726362) rotate(15.122961) translate(-20.028139, -13.726362) " cx="20.0281388" cy="13.726362" rx="1.24724059" ry="1"></ellipse>
                        <ellipse id="Oval" fill="#8EDC97" fill-rule="nonzero" transform="translate(5.451281, 7.787479) rotate(15.122961) translate(-5.451281, -7.787479) " cx="5.45128109" cy="7.78747912" rx="1.0417646" ry="1"></ellipse>
                        <ellipse id="Oval" fill="#A1C3FC" fill-rule="nonzero" transform="translate(22.287388, 13.066091) rotate(15.122961) translate(-22.287388, -13.066091) " cx="22.287388" cy="13.0660908" rx="1.24724074" ry="1.13080503"></ellipse>
                        <ellipse id="Oval" fill="#FFFFFF" fill-rule="nonzero" transform="translate(11.903731, 9.364680) rotate(15.122961) translate(-11.903731, -9.364680) " cx="11.9037314" cy="9.36468032" rx="1.24724074" ry="1.13080503"></ellipse>
                        <g transform="translate(15.071711, 18.008046)" fill-rule="nonzero" id="Path">
                            <path d="M0.373382199,1.35889804 C0.510201047,1.57607292 0.41533822,1.88271168 0.161491099,2.04364078 C0.109639791,2.07646185 0.055017801,2.09856313 0,2.11444429 L0,3.52508845 C0.632902618,3.19277515 1.06526073,2.52881026 1.06526073,1.76254423 C1.06526073,0.99627819 0.632770681,0.332313302 0,0 L0,1.16289804 C0.153310995,1.16660365 0.293956021,1.23277515 0.373382199,1.35889804 Z" fill="url(#linearGradient-4)"></path>
                            <path d="M0.161491099,2.04364078 C0.41533822,1.88271168 0.510332984,1.57607292 0.373382199,1.35889804 C0.293956021,1.23277515 0.153310995,1.1664713 0,1.16303038 L0,2.11457664 C0.055017801,2.09856313 0.109639791,2.07646185 0.161491099,2.04364078 Z" fill="#428DFC"></path>
                        </g>
                        <g transform="translate(12.170149, 17.781078)" fill-rule="nonzero">
                            <path d="M2.42329005,3.81081702 C2.16944293,3.97174612 1.85266178,3.92608778 1.71571099,3.7089129 C1.57889215,3.49173801 1.67375497,3.18509926 1.92760209,3.02417016 C2.09595393,2.91750169 2.29095707,2.90334099 2.44374031,2.96805672 L2.44374031,2.26452127 C2.41022827,2.23725861 2.37935497,2.20655503 2.35534241,2.16857259 C2.24411937,1.99215935 2.28792251,1.75777988 2.44374031,1.58943957 L2.44374031,0.0561134369 C2.29570681,0.0207778528 2.14213194,0 1.98341152,0 C0.88806911,0 0,0.890668467 0,1.98951249 C0,3.08835652 0.887937173,3.97902498 1.98341152,3.97902498 C2.14213194,3.97902498 2.29583874,3.95824713 2.44374031,3.92291155 L2.44374031,3.7950682 C2.43674764,3.80009723 2.43081047,3.80618501 2.42329005,3.81081702 Z M0.991507853,1.13391492 C1.1134178,0.858641458 1.40420733,0.720872384 1.64090262,0.826349764 C1.87759791,0.931827144 1.97061361,1.24045105 1.84870366,1.51585685 C1.72679372,1.79113032 1.43600419,1.92889939 1.1993089,1.82342201 C0.96274555,1.71794463 0.869597906,1.40918839 0.991507853,1.13391492 Z M1.11988272,3.03250777 C0.819593717,3.03250777 0.576037696,2.83862525 0.576037696,2.59934909 C0.576037696,2.36007292 0.81946178,2.16619041 1.11988272,2.16619041 C1.42017173,2.16619041 1.66372775,2.36007292 1.66372775,2.59934909 C1.66372775,2.83849291 1.42017173,3.03250777 1.11988272,3.03250777 Z" id="Shape" fill="url(#linearGradient-5)"></path>
                            <ellipse id="Oval" fill="#428DFC" transform="translate(1.420629, 1.325696) rotate(113.947945) translate(-1.420629, -1.325696) " cx="1.42062867" cy="1.32569558" rx="1" ry="1"></ellipse>
                            <path d="M2.35560628,2.16870493 C2.37948691,2.20668737 2.41036021,2.23725861 2.44400419,2.26465361 L2.44400419,1.58957191 C2.28818639,1.75804456 2.24438325,1.99229169 2.35560628,2.16870493 Z" id="Path" fill="#428DFC"></path>
                            <path d="M1.92773403,3.02417016 C1.67388691,3.18509926 1.57889215,3.49173801 1.71584293,3.7089129 C1.85266178,3.92608778 2.16944293,3.97174612 2.42342199,3.81081702 C2.43094241,3.80605267 2.43687958,3.80009723 2.44400419,3.7950682 L2.44400419,2.96805672 C2.29108901,2.90347333 2.09608586,2.91750169 1.92773403,3.02417016 Z" id="Path" fill="#428DFC"></path>
                            <ellipse id="Oval" fill="#428DFC" cx="1.11988272" cy="2.59934909" rx="1" ry="1"></ellipse>
                        </g>
                        <path d="M14.8053298,20.9071519 C14.7592838,20.8339662 14.6917319,20.7820878 14.6140209,20.7491344 L14.6140209,21.5761458 C14.8513759,21.4119082 14.9381906,21.1179743 14.8053298,20.9071519 Z" id="Path" fill="#FFFFFF" fill-rule="nonzero"></path>
                        <path d="M18.2676251,5.24515057 C18.2572021,5.23244564 18.238467,5.23085753 18.225801,5.24131263 C18.2131351,5.25176772 18.2115518,5.27056043 18.2219749,5.28326536 C18.2323979,5.29597029 18.251133,5.29755841 18.263799,5.28710331 L18.263799,5.28710331 C18.276333,5.27664821 18.2781801,5.2578555 18.2676251,5.24515057 L18.2676251,5.24515057 Z M15.5560524,3.86309251 C15.5576356,3.84628494 15.5453654,3.83146253 15.5287414,3.82987441 L15.5287414,3.82987441 C15.5135686,3.82788926 15.4995832,3.83874139 15.4977361,3.85396084 C15.4974723,3.85515192 15.4974723,3.8566077 15.4976042,3.85793113 C15.4957571,3.87394463 15.5069717,3.88850236 15.5229361,3.89061985 C15.5394283,3.89181094 15.5544691,3.87976772 15.5560524,3.86309251 L15.5560524,3.86309251 L15.5560524,3.86309251 Z M16.8845277,4.65172451 C16.8911246,4.63637272 16.8851874,4.61850641 16.8708063,4.6101688 C16.8557654,4.60236057 16.8370304,4.60858069 16.829378,4.62393248 C16.8215937,4.63901958 16.8277948,4.65781229 16.8430995,4.66548818 C16.8582723,4.67170831 16.8760838,4.66601756 16.8845277,4.65172451 Z M19.7637927,1.9240027 C19.7794932,1.89674004 19.7705215,1.86180149 19.7436063,1.8455233 C19.7182743,1.82884808 19.6842346,1.8359946 19.6677424,1.86127211 C19.6672147,1.86219851 19.666555,1.86299257 19.6661592,1.86391897 C19.6504586,1.89118163 19.6594304,1.92612019 19.6863455,1.94239838 C19.712601,1.95880891 19.7474325,1.95060365 19.7637927,1.9240027 L19.7637927,1.9240027 Z M19.0535749,3.10582579 C19.0692754,3.07829845 19.0597759,3.04335989 19.032333,3.02774342 C19.0054178,3.01225928 18.9711141,3.02112627 18.9551497,3.04772721 C18.9387895,3.07432816 18.9469696,3.10900203 18.9733571,3.12541256 L18.9733571,3.12541256 C19.0013277,3.14063201 19.0361592,3.13216205 19.0535749,3.10582579 Z M18.3411141,4.28870763 C18.3573424,4.26210668 18.3491623,4.2276975 18.3226429,4.21141931 C18.3221152,4.21115463 18.3214555,4.2107576 18.3209277,4.21049291 C18.2955958,4.19381769 18.261556,4.20096421 18.2450639,4.22624173 C18.2445361,4.22716813 18.2438764,4.22796219 18.2434806,4.22888859 C18.228044,4.25668062 18.2366199,4.29161918 18.2630073,4.30935314 C18.2900545,4.32470493 18.3248859,4.3157056 18.3411141,4.28870763 Z M21.4804272,4.32126401 C21.4611644,4.29664821 21.4256733,4.29241323 21.401133,4.31186766 C21.3765927,4.33118974 21.3723707,4.36679001 21.3917654,4.39140581 C21.4107644,4.41549223 21.4453319,4.42012424 21.4698723,4.40172856 C21.4944126,4.38240648 21.4991623,4.34667387 21.4804272,4.32126401 L21.4804272,4.32126401 Z M20.372023,5.14099662 C20.3527602,5.11638082 20.3172691,5.11214585 20.2927288,5.13160027 C20.2681885,5.15092235 20.2639665,5.18652262 20.2833613,5.21113842 C20.3023602,5.23522485 20.3369277,5.23985685 20.3614681,5.22146117 C20.3858764,5.20227144 20.3906262,5.16627414 20.372023,5.14099662 L20.372023,5.14099662 Z M17.0031393,1.595395 C17.0072293,1.56416205 16.9855916,1.53531128 16.9543225,1.53081161 C16.923977,1.52591492 16.8956105,1.54669278 16.8907288,1.57713167 C16.8907288,1.57726401 16.8905969,1.5775287 16.8905969,1.5775287 C16.8841319,1.60730587 16.902999,1.63628899 16.9324209,1.6427738 C16.9338723,1.64303849 16.9351916,1.64330317 16.9367749,1.6437002 C16.9681759,1.64727346 16.9969382,1.62649561 17.0031393,1.595395 Z M16.7962618,2.96170425 C16.799956,2.93033896 16.778978,2.90148818 16.7482366,2.89526806 C16.7170995,2.89129777 16.6883372,2.91300203 16.6838513,2.94423498 C16.6792335,2.97520324 16.7006073,3.00418636 16.7313487,3.00868602 C16.7317445,3.00881837 16.7321403,3.00881837 16.7324042,3.00881837 C16.7627497,3.01371506 16.7911162,2.9929372 16.7959979,2.96263065 C16.7962618,2.96210128 16.7962618,2.96196894 16.7962618,2.96170425 Z M16.590044,4.32589602 C16.5953215,4.29611884 16.5756628,4.26766509 16.545977,4.26250371 C16.5451853,4.26237137 16.5442618,4.26210668 16.5433382,4.26223903 C16.5127288,4.25641594 16.4831749,4.27679676 16.4773696,4.30750034 C16.4772377,4.30855908 16.4769738,4.30935314 16.4768419,4.31027954 C16.472356,4.34164483 16.4941257,4.3707603 16.5251309,4.37512762 C16.5564,4.37962728 16.5854262,4.35779068 16.5897801,4.32669007 C16.589912,4.32629305 16.589912,4.32602836 16.590044,4.32589602 Z M22.2525236,5.43241594 C22.2381424,5.40859419 22.2072691,5.40065361 22.1831246,5.41468197 C22.159244,5.42884267 22.1511958,5.46007562 22.165445,5.4842944 C22.1795623,5.50851317 22.2106995,5.5163214 22.234844,5.50202836 L22.234844,5.50202836 C22.2584607,5.48747063 22.266377,5.45663471 22.2525236,5.43241594 Z M18.1044188,2.3803214 C18.110356,2.35226469 18.0934681,2.32473734 18.0658932,2.31719379 C18.0396377,2.31044429 18.0128545,2.32619311 18.0061257,2.35252937 C18.0059937,2.35332343 18.0058618,2.35398515 18.0057298,2.3547792 C17.9983414,2.38190952 18.0143058,2.40970155 18.0412209,2.41698042 C18.0416168,2.41711276 18.0417487,2.41711276 18.0422764,2.41711276 C18.0691916,2.42293585 18.0963707,2.40705469 18.1044188,2.3803214 L18.1044188,2.3803214 Z M17.8043937,3.57339365 C17.8107267,3.54626334 17.7939707,3.51926536 17.7671874,3.51278055 C17.7409319,3.50603106 17.7141487,3.52177988 17.7074199,3.54811614 C17.707288,3.5489102 17.707156,3.54957191 17.7070241,3.55036597 C17.6996356,3.57749629 17.7156,3.60528832 17.7425152,3.61269953 C17.742911,3.61283187 17.7430429,3.61283187 17.7435707,3.61283187 C17.7708817,3.61825793 17.7979288,3.600921 17.8043937,3.57339365 L17.8043937,3.57339365 Z M17.5050283,4.77109791 C17.5124168,4.74396759 17.4964524,4.71617556 17.4695372,4.70876435 C17.4691414,4.70863201 17.4690094,4.70863201 17.4684817,4.70863201 C17.4431497,4.70108845 17.4166304,4.71591087 17.4091099,4.74132073 C17.4085822,4.74290885 17.4083183,4.74449696 17.4079225,4.74608508 C17.400534,4.7732154 17.4164984,4.80100743 17.4434136,4.80841864 C17.4438094,4.80855098 17.4439414,4.80855098 17.4444691,4.80855098 C17.4713843,4.81397704 17.4980356,4.79756651 17.5050283,4.77109791 L17.5050283,4.77109791 Z M20.1954911,4.08437002 C20.2114555,4.06134234 20.206178,4.02958001 20.1834848,4.01316948 C20.1611874,3.99649426 20.1297864,4.00099392 20.1132942,4.02322755 C20.096934,4.04599055 20.1010241,4.07788521 20.1225298,4.09561918 C20.1457508,4.11242674 20.1780754,4.1073977 20.1954911,4.08437002 L20.1954911,4.08437002 Z M19.4613927,5.07389872 C19.4781487,5.05285618 19.4748503,5.02202026 19.4538723,5.00521269 C19.4530806,5.00468332 19.452289,5.00402161 19.4514974,5.00335989 C19.4292,4.98668467 19.397799,4.99118433 19.3813068,5.01341796 C19.3649466,5.03618096 19.3690366,5.06807562 19.3905424,5.08580959 C19.4133675,5.10182309 19.4449005,5.09666172 19.4613927,5.07389872 L19.4613927,5.07389872 Z M15.6518387,2.86032951 C15.6485403,2.8338609 15.6245277,2.81520054 15.5981403,2.81837677 C15.5970848,2.81850912 15.5960293,2.81850912 15.5951058,2.8187738 C15.5675309,2.82208238 15.5476084,2.84735989 15.5509068,2.87515192 C15.5510387,2.87581364 15.5510387,2.87647535 15.5511707,2.87687238 C15.5564482,2.90426739 15.5821759,2.92292775 15.6098827,2.9190898 C15.6371937,2.91525186 15.6560607,2.889842 15.6522346,2.862447 C15.6522346,2.86178528 15.6519707,2.86112357 15.6518387,2.86032951 L15.6518387,2.86032951 Z M15.831933,4.08053207 C15.8275791,4.0526077 15.8019832,4.03302093 15.7738806,4.03646185 C15.7459099,4.04135854 15.7270429,4.06809183 15.7319246,4.09614855 C15.7364105,4.12288184 15.7610827,4.14140986 15.7879979,4.13863065 C15.8153089,4.13571911 15.8353634,4.11083862 15.8324607,4.08344362 C15.8323288,4.08251722 15.8321969,4.08145847 15.831933,4.08053207 L15.831933,4.08053207 Z M22.8688021,4.27864956 C22.8867455,4.25151924 22.8806764,4.21525726 22.8545529,4.19567049 C22.8284293,4.1766131 22.7918827,4.18203916 22.7726199,4.20811074 C22.7542806,4.23510871 22.7604817,4.27190007 22.7868691,4.2910898 C22.8129927,4.3101472 22.8496712,4.30472113 22.8688021,4.27864956 L22.8688021,4.27864956 Z M22.0335079,5.42950439 C22.0527707,5.40330047 22.0470974,5.36664146 22.0211058,5.34731938 C21.9952461,5.32812964 21.9584356,5.33368805 21.9391728,5.35975962 C21.9199099,5.38596354 21.9255832,5.42262255 21.9515749,5.44194463 C21.9776984,5.46126671 22.014245,5.45557596 22.0335079,5.42950439 L22.0335079,5.42950439 Z M17.0710869,2.83491965 C17.0650178,2.80249561 17.0348042,2.78052667 17.0022157,2.78489399 C16.970155,2.79111411 16.949045,2.82234706 16.955378,2.85463876 C16.9613152,2.88573937 16.9907372,2.90651722 17.0218743,2.90201756 C17.0535393,2.89632681 17.0753089,2.86694666 17.0710869,2.83491965 L17.0710869,2.83491965 Z M17.2926094,4.24040243 C17.2869361,4.20864011 17.2576461,4.18680351 17.2257173,4.19103849 C17.1936565,4.19593518 17.171623,4.22597704 17.1765047,4.25813639 C17.1813864,4.29029575 17.2113361,4.31239703 17.2433969,4.30750034 C17.2750618,4.30220662 17.2968314,4.2722971 17.2926094,4.24040243 L17.2926094,4.24040243 Z M20.0543183,3.65213774 C20.0602555,3.62050777 20.0409927,3.58940716 20.0102513,3.58040783 C19.9787183,3.57405537 19.947845,3.59390682 19.9407204,3.62540446 C19.9325403,3.65624038 19.9508796,3.6880027 19.9818848,3.69607562 C19.9822806,3.69620797 19.9826764,3.69620797 19.9830723,3.69634031 C20.0147372,3.70414855 20.046666,3.6842971 20.0543183,3.65213774 C20.0543183,3.65240243 20.0543183,3.65213774 20.0543183,3.65213774 L20.0543183,3.65213774 Z M19.7221005,5.0372397 C19.7296209,5.00521269 19.7099623,4.97318569 19.6781654,4.96550979 C19.6781654,4.96550979 19.6781654,4.96550979 19.6780335,4.96550979 C19.6472921,4.95823093 19.6162869,4.977553 19.6092942,5.00838893 L19.6092942,5.00838893 C19.6017738,5.03975422 19.6207728,5.0713842 19.6519099,5.07906009 C19.6827832,5.08700068 19.7140524,5.06820797 19.7221005,5.0372397 L19.7221005,5.0372397 Z M21.0276188,3.63758001 C21.0355351,3.60647941 21.0166681,3.57458474 20.9855309,3.56664416 C20.9542618,3.55857124 20.9227288,3.57762863 20.9148126,3.60886158 C20.9072921,3.63930047 20.9248398,3.67040108 20.9547895,3.67913572 C20.9864545,3.68773801 21.018911,3.66907765 21.0276188,3.63758001 L21.0276188,3.63758001 Z M20.6403832,5.0012424 C20.6488272,4.96961242 20.630356,4.93705604 20.598823,4.9283214 C20.5682136,4.92038082 20.5365487,4.93798244 20.5267853,4.96802431 C20.5187372,4.99991897 20.5365487,5.0326077 20.5675539,5.04293045 C20.5992188,5.05073869 20.6310157,5.03234301 20.6403832,5.0012424 L20.6403832,5.0012424 Z M18.1096963,4.11057394 C18.1052105,4.07828224 18.0756565,4.0553869 18.0433319,4.05922485 C18.011667,4.06319514 17.9889738,4.09204591 17.9929319,4.12380824 C17.9953068,4.15530587 18.0226178,4.17899527 18.0540188,4.1766131 C18.0548105,4.1766131 18.055734,4.17648076 18.0565257,4.17621607 C18.0888503,4.17343687 18.1127309,4.14485078 18.1096963,4.1122944 C18.1098283,4.11189737 18.1096963,4.11123565 18.1096963,4.11057394 L18.1096963,4.11057394 Z" id="texture-2_2_-i3" fill="#FFFFFF" fill-rule="nonzero"></path>
                        <path d="M4.30537382,13.8320945 C4.29495079,13.8193896 4.27621571,13.8178015 4.26354974,13.8282566 C4.25088377,13.8387117 4.24930052,13.8575044 4.25972356,13.8702093 C4.2701466,13.8829142 4.28888168,13.8845024 4.30154764,13.8740473 L4.30154764,13.8740473 C4.31421361,13.8635922 4.3159288,13.8449318 4.30537382,13.8320945 L4.30537382,13.8320945 Z M1.59380105,12.4501688 C1.59538429,12.4333612 1.58311414,12.4185388 1.56649005,12.4169507 L1.56649005,12.4169507 C1.55131728,12.4149656 1.53733194,12.4258177 1.53548482,12.4410371 C1.53522094,12.4422282 1.53522094,12.443684 1.53535288,12.4450074 C1.53350576,12.4610209 1.54472042,12.4755787 1.56068482,12.4776962 C1.57717696,12.4788872 1.5922178,12.466844 1.59380105,12.4501688 L1.59380105,12.4501688 L1.59380105,12.4501688 Z M2.92227644,13.2386685 C2.9288733,13.2233167 2.92293613,13.2054504 2.90855497,13.1971128 C2.89351414,13.1893045 2.87477906,13.1955246 2.8671267,13.2108764 C2.85934241,13.2259635 2.86554346,13.2447562 2.88084817,13.2524321 C2.89615288,13.2587846 2.91383246,13.2530939 2.92227644,13.2386685 Z M5.80154136,10.511079 C5.81724188,10.4838163 5.80827016,10.4488778 5.78135497,10.4325996 C5.75602304,10.4159244 5.72198325,10.4230709 5.7054911,10.4483484 C5.70496335,10.4492748 5.70430366,10.4500689 5.70390785,10.4509953 C5.68820733,10.4782579 5.69717906,10.5131965 5.72409424,10.5294747 C5.75048168,10.5457529 5.78518115,10.5375476 5.80154136,10.511079 L5.80154136,10.511079 Z M5.09132356,11.6927698 C5.10702408,11.6652424 5.09752461,11.6303038 5.07008168,11.6146874 C5.04316649,11.5992032 5.00886283,11.6080702 4.99289843,11.6346712 C4.97653822,11.6612721 4.98471832,11.695946 5.01110576,11.7123565 L5.01110576,11.7123565 C5.03907644,11.7277083 5.07403979,11.719106 5.09132356,11.6927698 Z M4.37886283,12.8757839 C4.3950911,12.849183 4.38691099,12.8147738 4.36039162,12.7984956 C4.35986387,12.7982309 4.35920419,12.7978339 4.35867644,12.7975692 C4.3333445,12.780894 4.29930471,12.7880405 4.28281257,12.813318 C4.28228482,12.8142444 4.28162513,12.8150385 4.28122932,12.8159649 C4.26579267,12.8437569 4.27436859,12.8786955 4.30075602,12.8964294 C4.32780314,12.9116489 4.36263455,12.9026496 4.37886283,12.8757839 Z M7.51817592,12.9083403 C7.49891309,12.8837245 7.46342199,12.8794895 7.43888168,12.898944 C7.41434136,12.918266 7.41011937,12.9538663 7.42951414,12.9784821 C7.44851309,13.0025685 7.48308063,13.0072005 7.50762094,12.9888049 C7.53216126,12.9693504 7.53691099,12.9336178 7.51817592,12.9083403 L7.51817592,12.9083403 Z M6.40977173,13.7279406 C6.3905089,13.7033248 6.3550178,13.6990898 6.33047749,13.7185442 C6.30593717,13.7378663 6.30171518,13.7734666 6.32110995,13.7980824 C6.3401089,13.8221688 6.37467644,13.8268008 6.39921675,13.8084051 C6.42375707,13.7892154 6.42850681,13.7533504 6.40977173,13.7279406 L6.40977173,13.7279406 Z M3.0410199,10.1824713 C3.04497801,10.1512384 3.02347225,10.1223876 2.99220314,10.1178879 C2.96185759,10.1129912 2.9334911,10.1337691 2.92860942,10.164208 C2.92860942,10.1643403 2.92847749,10.164605 2.92847749,10.164605 C2.92201257,10.1943822 2.94087958,10.2233653 2.97030157,10.2298501 C2.97175288,10.2301148 2.97307225,10.2303795 2.9746555,10.2307765 C3.00592461,10.2342174 3.03468691,10.2134396 3.0410199,10.1824713 Z M2.83401047,11.5487806 C2.83770471,11.5174153 2.8167267,11.4885645 2.78598534,11.4823444 C2.75484817,11.4783741 2.72608586,11.5000783 2.7216,11.5313113 C2.7169822,11.5622795 2.73835602,11.5912627 2.76909738,11.5957623 C2.76949319,11.5958947 2.76988901,11.5958947 2.77015288,11.5958947 C2.80049843,11.6007914 2.82886492,11.5800135 2.8337466,11.549707 C2.83401047,11.5490452 2.83401047,11.5489129 2.83401047,11.5487806 Z M2.62779267,12.91284 C2.63307016,12.8830628 2.61341152,12.854609 2.58372565,12.8494477 C2.58293403,12.8493153 2.58201047,12.8490506 2.58108691,12.849183 C2.55047749,12.8433599 2.52092356,12.8637407 2.51511832,12.8944443 C2.51498639,12.895503 2.51472251,12.8962971 2.51459058,12.8972235 C2.51010471,12.9285888 2.53187435,12.9577043 2.56287958,12.9620716 C2.59414869,12.9665712 2.62317487,12.9447346 2.6275288,12.913634 C2.62766073,12.913237 2.62779267,12.9131047 2.62779267,12.91284 Z M8.29027225,14.0194922 C8.2758911,13.9956705 8.2450178,13.9877299 8.2208733,14.0017583 C8.19699267,14.015919 8.1889445,14.0471519 8.20319372,14.0713707 C8.21731099,14.0955895 8.24844817,14.1033977 8.27259267,14.0891047 L8.27259267,14.0891047 C8.29634136,14.0745469 8.30425759,14.0435787 8.29027225,14.0194922 Z M4.14229948,10.9672654 C4.14823665,10.9392086 4.13134869,10.9116813 4.10377382,10.9041377 C4.07751832,10.8973883 4.05073508,10.9131371 4.04400628,10.9394733 C4.04387435,10.9402674 4.04374241,10.9409291 4.04361047,10.9417232 C4.03622199,10.9688535 4.05218639,10.9966455 4.07910157,11.0039244 C4.07949738,11.0040567 4.07962932,11.0040567 4.08015707,11.0040567 C4.10694031,11.0098798 4.13411937,10.9939986 4.14229948,10.9672654 L4.14229948,10.9672654 Z M3.84214241,12.16047 C3.84847539,12.1333396 3.83171937,12.1063417 3.80493613,12.0998569 C3.77868063,12.0931074 3.75189738,12.1088562 3.74516859,12.1351924 C3.74503665,12.1359865 3.74490471,12.1366482 3.74477277,12.1374423 C3.73738429,12.1645726 3.75334869,12.1923646 3.78026387,12.1997758 C3.78065969,12.1999082 3.78079162,12.1999082 3.78131937,12.1999082 C3.8087623,12.2052019 3.83580942,12.187865 3.84214241,12.16047 L3.84214241,12.16047 Z M3.5429089,13.3580419 C3.55029738,13.3309115 3.53433298,13.3031195 3.5074178,13.2957083 C3.50702199,13.295576 3.50689005,13.295576 3.5063623,13.2954436 C3.48103037,13.2879001 3.45451099,13.3027225 3.44699058,13.3281323 C3.44646283,13.3297205 3.44619895,13.3313086 3.44580314,13.3328967 C3.43841466,13.360027 3.45437906,13.387819 3.48129424,13.3952302 C3.48169005,13.3953626 3.48182199,13.3953626 3.48234974,13.3953626 C3.50913298,13.400921 3.53578429,13.3846428 3.5429089,13.3580419 L3.5429089,13.3580419 Z M6.23323979,12.6714463 C6.24920419,12.6484186 6.2439267,12.6166563 6.22123351,12.6002458 C6.19893613,12.5835706 6.16753508,12.5880702 6.15104293,12.6103038 C6.13468272,12.6330668 6.13877277,12.6649615 6.16027853,12.6826955 C6.18349948,12.699503 6.21582408,12.6943417 6.23323979,12.6714463 L6.23323979,12.6714463 Z M5.49914136,13.6608427 C5.51589738,13.6398001 5.51259895,13.6089642 5.49162094,13.5921567 C5.49082932,13.5916273 5.4900377,13.5909656 5.48924607,13.5903038 C5.46694869,13.5736286 5.43554764,13.5781283 5.4190555,13.6003619 C5.40269529,13.6231249 5.40678534,13.6550196 5.4282911,13.6727535 C5.45111623,13.6888994 5.48264921,13.6836057 5.49914136,13.6608427 L5.49914136,13.6608427 Z M1.68971937,11.4472735 C1.68642094,11.4208049 1.66240838,11.4021445 1.63602094,11.4053207 C1.63496545,11.4054531 1.63390995,11.4054531 1.63298639,11.4058501 C1.60541152,11.4091587 1.58548901,11.4344362 1.58878743,11.4622282 C1.58891937,11.4628899 1.58891937,11.4635517 1.58905131,11.4639487 C1.5943288,11.4913437 1.62005654,11.5100041 1.64776335,11.5061661 C1.67507435,11.5023282 1.69394136,11.4769183 1.69011518,11.4495233 C1.68998325,11.4487292 1.68971937,11.4480675 1.68971937,11.4472735 L1.68971937,11.4472735 Z M1.86968168,12.667476 C1.86532775,12.6395517 1.83973194,12.6199649 1.81162932,12.6234058 C1.78365864,12.6283025 1.76479162,12.6550358 1.7696733,12.6830925 C1.77415916,12.7098258 1.79883141,12.7283538 1.8257466,12.7255746 C1.85305759,12.7226631 1.87311204,12.6977826 1.87020942,12.6703876 C1.87007749,12.6695935 1.86994555,12.6684024 1.86968168,12.667476 L1.86968168,12.667476 Z M8.90655079,12.8657259 C8.92449424,12.8385955 8.91842513,12.8023336 8.89230157,12.7827468 C8.86617801,12.7636894 8.82963141,12.7691155 8.81036859,12.795187 C8.79202932,12.822185 8.79823037,12.8589764 8.8246178,12.8781661 C8.8508733,12.8970912 8.8874199,12.8916651 8.90655079,12.8657259 L8.90655079,12.8657259 Z M8.07125654,14.0165807 C8.09051937,13.9903768 8.08484607,13.9537178 8.05885445,13.9343957 C8.03299476,13.9152059 7.99618429,13.9207643 7.97692147,13.9468359 C7.95765864,13.9730398 7.96333194,14.0096989 7.98932356,14.0290209 C8.01544712,14.0482107 8.05212565,14.0425199 8.07125654,14.0165807 L8.07125654,14.0165807 Z M3.10896754,11.4218636 C3.10289843,11.3894396 3.07268482,11.3674706 3.04009634,11.3718379 C3.0080356,11.3780581 2.98692565,11.409291 2.99325864,11.4415827 C2.99919581,11.4726833 3.0286178,11.4934612 3.05975497,11.4889615 C3.09128796,11.4834031 3.11305759,11.4538906 3.10896754,11.4218636 L3.10896754,11.4218636 Z M3.33035812,12.8274787 C3.32468482,12.7957164 3.29539476,12.7738798 3.26346597,12.7781148 C3.23140524,12.7830115 3.20937173,12.8130533 3.2142534,12.8452127 C3.21913508,12.877372 3.24908482,12.8994733 3.28114555,12.8945766 C3.31281047,12.8891506 3.33471204,12.8593734 3.33035812,12.8274787 L3.33035812,12.8274787 Z M6.09219895,12.239214 C6.09813613,12.2075841 6.0788733,12.1764835 6.04813194,12.1674841 C6.01659895,12.1611317 5.98572565,12.1809831 5.97846911,12.2124808 C5.97028901,12.2433167 5.98862827,12.275079 6.01963351,12.2831519 C6.02002932,12.2832843 6.02042513,12.2832843 6.02082094,12.2834166 C6.05248586,12.2910925 6.08441466,12.2713734 6.09219895,12.239214 C6.09206702,12.2393464 6.09219895,12.239214 6.09219895,12.239214 L6.09219895,12.239214 Z M5.75998115,13.624316 C5.76750157,13.592289 5.74784293,13.560262 5.71604607,13.5525861 C5.71604607,13.5525861 5.71604607,13.5525861 5.71591414,13.5525861 C5.68517277,13.5453072 5.65416754,13.5646293 5.64717487,13.5954652 L5.64717487,13.5954652 C5.63965445,13.6268305 5.6586534,13.6584605 5.68979058,13.6661364 C5.72053194,13.674077 5.75180105,13.6551519 5.75998115,13.624316 L5.75998115,13.624316 Z M7.06536754,12.224524 C7.07328377,12.1934234 7.05441675,12.1615287 7.02327958,12.1535881 C6.99201047,12.1455152 6.96047749,12.1645726 6.95256126,12.1958055 C6.94504084,12.2262444 6.96258848,12.257345 6.99253822,12.2660797 C7.02420314,12.274682 7.05665969,12.256154 7.06536754,12.224524 L7.06536754,12.224524 Z M6.67826387,13.5883187 C6.68670785,13.5566887 6.66823665,13.5241323 6.63670366,13.5153977 C6.60609424,13.5074571 6.57442932,13.5250587 6.56466597,13.5551006 C6.5566178,13.5869953 6.57442932,13.619684 6.60543455,13.6300068 C6.63696754,13.637815 6.6687644,13.619287 6.67826387,13.5883187 L6.67826387,13.5883187 Z M4.14744503,12.6976502 C4.14295916,12.6653585 4.11340524,12.6424632 4.08108063,12.6463011 C4.04941571,12.6502714 4.02672251,12.6791222 4.03068063,12.7108845 C4.0330555,12.7423822 4.06036649,12.7660716 4.09176754,12.7636894 C4.09255916,12.7636894 4.09348272,12.7635571 4.09427435,12.7632924 C4.12659895,12.7605132 4.15047958,12.7319271 4.14744503,12.6993707 C4.14757696,12.6988413 4.14757696,12.698312 4.14744503,12.6976502 L4.14744503,12.6976502 Z" id="texture-2_3_-i3" fill="#FFFFFF" fill-rule="nonzero"></path>
                        <ellipse id="Oval" fill="#A1C3FC" fill-rule="nonzero" transform="translate(18.653740, 3.166664) rotate(-36.037905) translate(-18.653740, -3.166664) " cx="18.6537396" cy="3.1666643" rx="1.37448516" ry="1"></ellipse>
                        <g transform="translate(6.098268, 9.590236)" id="Oval">
                            <ellipse fill="url(#linearGradient-3)" cx="1.98341152" cy="1.98951249" rx="1.98341152" ry="1.98951249"></ellipse>
                            <ellipse fill="#8EDC97" fill-rule="nonzero" transform="translate(1.420327, 1.324477) rotate(23.947945) translate(-1.420327, -1.324477) " cx="1.42032677" cy="1.3244767" rx="1" ry="1"></ellipse>
                            <ellipse fill="#8EDC97" fill-rule="nonzero" transform="translate(2.814507, 1.876798) rotate(-32.291453) translate(-2.814507, -1.876798) " cx="2.81450662" cy="1.87679808" rx="1" ry="1"></ellipse>
                            <ellipse fill="#8EDC97" fill-rule="nonzero" transform="translate(2.174795, 3.417017) rotate(-32.291453) translate(-2.174795, -3.417017) " cx="2.17479527" cy="3.41701697" rx="1" ry="1"></ellipse>
                            <ellipse fill="#8EDC97" fill-rule="nonzero" cx="1.11975079" cy="2.59921675" rx="1" ry="1"></ellipse>
                        </g>
                    </g>
                    <g id="Group" transform="translate(48.157068, 63.997299)" fill="#F5F6F0" fill-rule="nonzero">
                        <g id="Rectangle">
                            <rect x="0" y="0" width="35.1518325" height="22" rx="0.349476427"></rect>
                        </g>
                    </g>
                    <g id="Group" transform="translate(54.659686, 65.887950)" fill-rule="nonzero">
                        <g>
                            <path d="M21.4481408,6.28722147 L1.25590734,6.28722147 L1.25590734,5.64564056 C1.25590734,2.8094479 3.80195936,1.530395 6.12789329,0.767013504 C9.24437145,-0.255671168 13.2189868,-0.255671168 16.0631828,0.767013504 C19.0909084,1.85573464 21.4481408,2.8094479 21.4481408,5.64564056 L21.4481408,6.28722147 L21.4481408,6.28722147 Z" id="Path" fill="url(#linearGradient-6)"></path>
                            <path d="M21.4481408,9.75707067 L1.25590734,9.75707067 L1.25590734,10.3986516 C1.25590734,13.2348442 3.6829369,15.1606142 6.12789329,15.2772786 C9.24246122,15.4257873 13.2170766,15.4768555 16.0631828,15.2772786 C19.2723809,15.0523144 21.4481408,13.2348442 21.4481408,10.3986516 L21.4481408,9.75707067 L21.4481408,9.75707067 Z" id="Path" fill="url(#linearGradient-7)"></path>
                            <path d="M20.3255092,9.75824465 L2.37839198,9.75824465 C1.88408143,9.75824465 1.47969895,9.354395 1.47969895,8.86073576 L1.47969895,8.8583878 C1.47969895,8.36472856 1.88408143,7.96087891 2.37839198,7.96087891 L20.3255092,7.96087891 C20.8198198,7.96087891 21.2242023,8.36472856 21.2242023,8.8583878 L21.2242023,8.86073576 C21.2242023,9.35424826 20.8198198,9.75824465 20.3255092,9.75824465 Z" id="Path" fill="url(#linearGradient-8)"></path>
                            <polygon id="Path" fill="#319E8D" points="2.55780732 7.89586968 0 6.82754648 0.197342174 6.35355143 2.55780732 7.33940243 5.0173109 6.31231533 7.47681448 7.33940243 9.936465 6.31231533 12.3962625 7.33940243 14.8560599 6.31231533 17.3160043 7.33940243 19.7762426 6.31231533 22.3350785 7.38063853 22.1377364 7.85463358 19.7762426 6.86878258 17.3160043 7.89586968 14.8560599 6.86878258 12.3962625 7.89586968 9.936465 6.86878258 7.47681448 7.89586968 5.0173109 6.86878258"></polygon>
                            <path d="M12.9084999,5.66104907 C12.8933649,5.64255886 12.8657399,5.64021089 12.8473723,5.65532591 C12.8288577,5.67058767 12.8265066,5.69817623 12.8417885,5.71651969 C12.8569235,5.7350099 12.8845484,5.73735787 12.9029161,5.72224285 L12.9029161,5.72224285 C12.9214307,5.70712784 12.9240756,5.67968602 12.9084999,5.66104907 L12.9084999,5.66104907 Z M8.93799883,3.64077358 C8.94034989,3.61626671 8.92242305,3.59454805 8.89803079,3.59220009 L8.89803079,3.59220009 C8.87569572,3.58941188 8.85541781,3.60511389 8.85262593,3.62741954 C8.85233205,3.62918051 8.85218511,3.63123498 8.85233205,3.6331427 C8.84954016,3.65662233 8.86599759,3.677754 8.8895082,3.6808357 C8.91360657,3.68289016 8.93564777,3.66528044 8.93799883,3.64077358 L8.93799883,3.64077358 L8.93799883,3.64077358 Z M10.8832078,4.7934767 C10.892759,4.77102431 10.8842364,4.74490322 10.8632238,4.73272316 C10.8411826,4.72142359 10.8138515,4.7303752 10.8025371,4.75282759 C10.7912226,4.7749865 10.800186,4.80228157 10.8225211,4.81358114 C10.8450031,4.82282624 10.8708648,4.81446163 10.8832078,4.7934767 Z M15.0993947,0.806341886 C15.1223176,0.766426514 15.1092398,0.715505064 15.0698595,0.69158519 C15.0326834,0.667225073 14.9830172,0.677644159 14.958625,0.71447783 C14.9577433,0.71579856 14.9568617,0.716972541 14.9564208,0.71829327 C14.933498,0.758208643 14.9465758,0.809130092 14.985956,0.833049966 C15.0244547,0.857116588 15.0754433,0.845230025 15.0993947,0.806341886 L15.0993947,0.806341886 Z M14.0594911,2.53370898 C14.0825609,2.49350011 14.0686015,2.44243192 14.0283396,2.41953928 C13.9889593,2.39694013 13.9387054,2.40985393 13.9153417,2.44874207 C13.8913903,2.48748346 13.9032925,2.53825816 13.942085,2.56232478 L13.942085,2.56232478 C13.9829347,2.58477718 14.0339233,2.57230362 14.0594911,2.53370898 Z M13.0160609,4.26298379 C13.0397184,4.22409566 13.0278162,4.1737612 12.9890237,4.14998807 C12.988289,4.14954783 12.9874073,4.14910758 12.9865257,4.14866734 C12.9493495,4.12430722 12.8996834,4.13472631 12.8752911,4.17155998 C12.8744095,4.17288071 12.8735278,4.17405469 12.873087,4.17537542 C12.850605,4.21602453 12.8629481,4.26709273 12.9017406,4.29292032 C12.9414147,4.31551947 12.9922564,4.30245892 13.0160609,4.26298379 Z M17.6129727,4.31067679 C17.58476,4.27472361 17.5327428,4.26841346 17.4967421,4.29702926 C17.4607415,4.32520482 17.45457,4.37730025 17.4830766,4.41340018 C17.5108485,4.44861963 17.5615433,4.45537002 17.5973969,4.42851519 C17.6335445,4.39989939 17.6404507,4.34765721 17.6129727,4.31067679 L17.6129727,4.31067679 Z M15.9898591,5.50887171 C15.9616463,5.47291852 15.9096291,5.46660837 15.8736285,5.49522417 C15.8376279,5.52339973 15.8314563,5.57549516 15.8599629,5.61159509 C15.8877348,5.64681454 15.9384296,5.65356493 15.9742833,5.62671011 C16.0104308,5.5983878 16.0173371,5.54585213 15.9898591,5.50887171 L15.9898591,5.50887171 Z M11.0570394,0.326036687 C11.0629171,0.280251407 11.0313247,0.238134819 10.985479,0.23167792 C10.9409558,0.224487283 10.8995183,0.255010804 10.8923182,0.299475354 C10.8923182,0.29976885 10.8921713,0.300062345 10.8921713,0.300062345 C10.882767,0.343499662 10.910245,0.386056493 10.9534458,0.395448346 C10.955503,0.395888589 10.9575601,0.396182084 10.9599112,0.396769075 C11.0057569,0.401758497 11.047929,0.371381724 11.0570394,0.326036687 Z M10.7540464,2.32327279 C10.7593363,2.27748751 10.7287725,2.23522417 10.6838085,2.22612582 C10.6381097,2.22025591 10.5960845,2.25210016 10.5896191,2.29773869 C10.5828598,2.34293698 10.6141583,2.38534706 10.6592693,2.39195071 C10.6598571,2.39209746 10.6604448,2.3922442 10.6607387,2.3922442 C10.7052619,2.39943484 10.7466994,2.36891132 10.7538995,2.32474027 C10.7538995,2.32371303 10.7540464,2.32341954 10.7540464,2.32327279 Z M10.4519351,4.31728044 C10.4595761,4.27369638 10.4309225,4.23216678 10.3874279,4.2245359 C10.3862523,4.2242424 10.3847829,4.22409566 10.3836074,4.22409566 C10.3387903,4.21558429 10.2955896,4.24537407 10.287067,4.29027887 C10.2867731,4.29174634 10.2864792,4.29292032 10.2863323,4.2943878 C10.2797199,4.34031983 10.3116062,4.38272991 10.357011,4.38918681 C10.4028567,4.39579046 10.4451758,4.36379946 10.4517882,4.31830767 C10.4519351,4.31786743 10.4519351,4.31757394 10.4519351,4.31728044 Z M18.7435391,5.93488026 C18.7223796,5.89995431 18.6772686,5.88836124 18.6420027,5.90890592 C18.6068837,5.92974409 18.5952754,5.97523588 18.6159941,6.01060207 C18.6367128,6.04596826 18.6822646,6.05741458 18.7175305,6.03657641 L18.7175305,6.03657641 C18.7523556,6.015298 18.763964,5.97009971 18.7435391,5.93488026 Z M12.6697202,1.47331015 C12.6783898,1.43236754 12.6537036,1.39201193 12.6132948,1.38100585 C12.5747962,1.37102701 12.5357098,1.3940664 12.5257178,1.43251429 C12.5254239,1.43368827 12.5252769,1.43456876 12.52513,1.43574274 C12.5142563,1.47536462 12.53762,1.51616048 12.5771472,1.52657956 C12.577735,1.52672631 12.5780289,1.52672631 12.5786166,1.52687306 C12.6179969,1.53567792 12.657818,1.51234504 12.6697202,1.47331015 L12.6697202,1.47331015 Z M12.2302188,3.21740648 C12.2394761,3.1777846 12.2149369,3.13830948 12.1758505,3.12877088 C12.1373519,3.11879203 12.0982655,3.14183142 12.0882735,3.18027932 C12.0879796,3.1814533 12.0878327,3.18233378 12.0876857,3.18350777 C12.0768121,3.22312964 12.1001757,3.2639255 12.1397029,3.27463808 C12.1402907,3.27478483 12.1405846,3.27478483 12.1411724,3.27493158 C12.1812873,3.28285595 12.2208145,3.2574686 12.2302188,3.21740648 L12.2302188,3.21740648 Z M11.7918929,4.96795971 C11.8027665,4.92833783 11.7794029,4.88754198 11.7398757,4.87682939 C11.7392879,4.87668265 11.738994,4.87668265 11.7384062,4.8765359 C11.701377,4.86552982 11.6624376,4.88724848 11.6515639,4.92437565 C11.6508292,4.92657686 11.6503884,4.92907157 11.6499476,4.93141954 C11.6390739,4.97104141 11.6624376,5.01183727 11.7019648,5.02254985 C11.7025526,5.0226966 11.7028464,5.0226966 11.7034342,5.02284335 C11.7426675,5.03076772 11.781607,5.00684785 11.7918929,4.96795971 L11.7918929,4.96795971 Z M15.7315362,3.96435224 C15.7548999,3.93060027 15.747259,3.88437475 15.7139033,3.86016138 C15.6812823,3.83580126 15.6354366,3.84225816 15.6110444,3.87498289 C15.5870929,3.90829462 15.5929706,3.95481364 15.6247099,3.98078798 C15.6586533,4.00529485 15.7059684,3.99795746 15.7315362,3.96435224 L15.7315362,3.96435224 Z M14.6566606,5.4106975 C14.6811998,5.37988049 14.6763507,5.33482894 14.64564,5.31032208 C14.6446114,5.30958834 14.6432889,5.30856111 14.6422603,5.30753387 C14.6096394,5.28317376 14.5637937,5.28963065 14.5394014,5.32235539 C14.51545,5.35566712 14.5213276,5.40218614 14.553067,5.42816048 C14.5862757,5.45164011 14.6324153,5.44400923 14.6566606,5.4106975 L14.6566606,5.4106975 Z M9.07832778,2.17491087 C9.07347871,2.13616948 9.03835974,2.10902116 8.99971418,2.11357034 C8.99809782,2.11386383 8.99662841,2.11386383 8.99530594,2.11430407 C8.95489708,2.11914675 8.9258027,2.15612717 8.93050482,2.19677628 C8.93065176,2.19765676 8.93065176,2.198684 8.93094565,2.19927099 C8.93858659,2.23933311 8.97635051,2.26662818 9.01705325,2.26090502 C9.05702129,2.25532861 9.08464625,2.21820144 9.07906248,2.17813932 C9.0787686,2.17711209 9.07832778,2.17608485 9.07832778,2.17491087 L9.07832778,2.17491087 Z M9.34194048,3.95862908 C9.335622,3.91783322 9.29815197,3.88907067 9.2570084,3.89420684 C9.21615872,3.90139748 9.18838681,3.94043237 9.19558694,3.98137497 C9.2021993,4.02040986 9.23819992,4.04755818 9.27758019,4.04344925 C9.31769516,4.03919356 9.34693648,4.00294688 9.34252824,3.96273801 C9.34252824,3.96156403 9.34223436,3.95994981 9.34194048,3.95862908 L9.34194048,3.95862908 Z M19.6460526,4.24830903 C19.6723551,4.20868715 19.6633917,4.15556448 19.62504,4.12694868 C19.5866883,4.09906662 19.5332017,4.10713774 19.5051359,4.1451454 C19.4782457,4.18462053 19.487503,4.23847693 19.5261485,4.26650574 C19.5643533,4.29424105 19.6179868,4.28631668 19.6460526,4.24830903 L19.6460526,4.24830903 Z M18.4229132,5.93062458 C18.450979,5.89232343 18.4427503,5.83861377 18.4048394,5.81058497 C18.3669286,5.78240941 18.3130011,5.79077403 18.2849353,5.82878168 C18.2568695,5.86708283 18.2650982,5.92079248 18.3030091,5.94882129 C18.3412138,5.9768501 18.3947005,5.96863223 18.4229132,5.93062458 L18.4229132,5.93062458 Z M11.1565187,2.1377837 C11.1475552,2.0903842 11.1034729,2.05824646 11.05557,2.06470335 C11.0085488,2.07365496 10.9776911,2.11944024 10.9869484,2.16654625 C10.9956179,2.21203804 11.0386717,2.24241481 11.0842235,2.23595791 C11.130657,2.22774004 11.1625433,2.18459622 11.1565187,2.1377837 L11.1565187,2.1377837 Z M11.4808181,4.19239815 C11.4725894,4.14602588 11.4295356,4.11418163 11.3828083,4.12019829 C11.3357871,4.12738893 11.30346,4.17126649 11.3106601,4.2183725 C11.3178602,4.26547851 11.3616487,4.297763 11.40867,4.29057236 C11.4551034,4.28264799 11.4871366,4.23906392 11.4808181,4.19239815 L11.4808181,4.19239815 Z M15.5247898,3.33245667 C15.5336063,3.2860844 15.5053936,3.24073937 15.4602826,3.22753207 C15.4139961,3.21814022 15.3688851,3.24734301 15.3583053,3.29327504 C15.3464031,3.33832658 15.3731464,3.38469885 15.4185513,3.39673216 C15.419139,3.39687891 15.4197268,3.39702566 15.4203145,3.39702566 C15.4668949,3.40847198 15.5134753,3.37956268 15.5247898,3.33245667 C15.5247898,3.33275017 15.5247898,3.33245667 15.5247898,3.33245667 L15.5247898,3.33245667 Z M15.0384141,5.35728134 C15.0494347,5.31046883 15.0206342,5.26365631 14.9742007,5.25250349 C14.9742007,5.25250349 14.9742007,5.25250349 14.9739069,5.25250349 C14.9289428,5.24179091 14.883538,5.26996646 14.8732521,5.31516475 L14.8732521,5.31516475 C14.8620845,5.36109678 14.8901503,5.4073223 14.9357021,5.41847513 C14.9806662,5.42992145 15.0265118,5.40233288 15.0384141,5.35728134 L15.0384141,5.35728134 Z M16.9499735,3.31103151 C16.9615819,3.26553973 16.9339569,3.21902071 16.8882582,3.20728089 C16.8425595,3.19554108 16.7964199,3.22327639 16.7846646,3.26906167 C16.773497,3.31352622 16.7993587,3.35901801 16.8431472,3.37178506 C16.8897276,3.38440536 16.9373366,3.35725703 16.9499735,3.31103151 L16.9499735,3.31103151 Z M16.383074,5.30459892 C16.3954171,5.2583734 16.3683799,5.2106804 16.3222403,5.19806009 C16.2774232,5.18646703 16.2309897,5.21214787 16.2167364,5.25617218 C16.2048342,5.30283795 16.2311367,5.35053095 16.2763946,5.36564596 C16.3226811,5.37694553 16.3692615,5.34994396 16.383074,5.30459892 L16.383074,5.30459892 Z M12.6772142,4.00265339 C12.6706019,3.95540063 12.6274011,3.92194216 12.580086,3.92751857 C12.5336526,3.93324173 12.5004439,3.97550506 12.5063215,4.02202408 C12.5098481,4.06810286 12.5498161,4.10273531 12.5958088,4.09921337 C12.5971312,4.09921337 12.5983068,4.09906662 12.5994823,4.09877313 C12.6467974,4.09466419 12.6817694,4.0528411 12.6773612,4.00544159 C12.6775081,4.00441436 12.6773612,4.00353387 12.6772142,4.00265339 L12.6772142,4.00265339 Z" id="texture-2_1_-i5" fill="#FFFFFF"></path>
                        </g>
                    </g>
                    <g id="Group" transform="translate(0.000000, 42.444451)">
                        <path d="M42.6678079,51.7924057 C29.0265597,61.8929904 25.5181335,73.8733069 20.4601806,87.8424681 C17.3042887,83.3246532 13.5610652,79.2218749 9.35569037,75.6711192 C18.5631946,70.6023015 22.9712259,60.7304799 26.8727852,47.8242339 C30.5321042,50.032664 38.5750951,50.5731294 42.6678079,51.7924057 Z" id="Path" stroke="#17212A" stroke-width="1.04137199" fill="#E9DAC1" fill-rule="nonzero"></path>
                        <path d="M51.8475694,32.9366214 C51.5478138,33.6864747 50.4875045,33.8574521 49.7797294,33.4733477 C49.0719543,33.0895833 48.6466803,32.3424494 48.283658,31.6218288 C47.4601759,29.9871759 46.7642422,28.2875992 46.204315,26.5441733 C46.0459791,26.0509561 45.8967779,25.5271466 46.0063951,25.0206727 C46.1227787,24.4832666 46.5115137,24.0512341 46.9063385,23.6698491 C48.0874297,22.5277335 49.4576444,21.5841285 50.9435661,20.8893416 C51.2680194,24.5672256 51.5921343,28.2451097 51.9165876,31.9233337 C51.9463602,32.263589 51.9744412,32.6188006 51.8475694,32.9366214 L51.8475694,32.9366214 Z" id="Path" fill="#F8AFA9" fill-rule="nonzero"></path>
                        <path d="M66.4202252,0.189516449 C68.9614013,1.82590894 67.1938226,5.0666466 64.8426065,8.14401214 L64.5187184,8.56247425 C63.3204296,10.0919049 62.0185624,11.5604047 61.0787563,12.7470092 L52.9477588,23.0128352 L50.4171903,26.2068019 C51.6523259,27.7945652 53.0042078,29.6855188 53.3361037,30.4646669 C53.802508,31.5590515 53.8201693,32.6669162 53.5785681,33.7634166 C54.3504278,33.472304 55.1342794,33.2084517 55.9260726,32.9712928 C59.7934612,31.8132012 64.9194173,31.7941659 66.8126818,35.3751741 C60.0972766,37.5475731 53.9313107,41.4120708 49.0364303,46.5172594 C47.442583,48.1794455 45.9725626,49.9786174 44.173014,51.4130602 C41.1064398,53.8577314 37.131464,55.1232362 33.2234764,54.899232 C30.9759861,54.7704041 28.6631991,54.1096087 27.0470224,52.5351208 C25.2396924,50.7746992 24.5630431,48.1488531 24.3140362,45.63144 C23.695487,39.3810117 27.0686802,30.4273239 28.9988242,26.3451526 C29.4078393,24.8012225 33.0411219,18.2712446 34.9035964,16.8667833 C35.7142222,16.2552756 36.76878,15.663143 37.686993,16.0944956 C38.1707972,16.3215591 38.8699262,17.8186973 39.2560924,19.0285442 L39.2804435,19.107 L39.5345837,18.8301344 C40.2425669,18.1125469 41.0021517,17.3651274 41.9509125,17.0659022 L42.1921235,17.0007099 C43.254801,16.7607297 44.5834018,17.3810752 44.6761027,18.4718636 C44.6826418,18.5485826 44.6843002,18.62561 44.6813694,18.702565 C44.7933365,18.7433098 44.9016127,18.8117506 45.0041369,18.9095637 C45.2131592,19.10894 45.3860335,19.3265281 45.5213403,19.5596733 C45.5439825,19.5467574 45.5679767,19.5353093 45.5918729,19.5245516 L46.0669552,19.1384376 C46.630604,18.6860102 47.2341751,18.3406563 47.9554831,18.3243403 C48.5641291,18.3107437 49.0073343,18.4137381 49.3243445,18.935848 C49.3559443,18.987935 49.3854725,19.0408397 49.4129814,19.0944838 C51.9302397,15.7734288 54.4434649,12.4605451 57.6491598,8.7026964 C57.9580739,8.34052554 58.2900052,7.91741651 58.6387421,7.45643908 L58.9416302,7.05257974 C59.4528201,6.36581792 59.9946852,5.6152254 60.5491154,4.86806098 L60.8831365,4.42071177 C62.8945717,1.74554158 65.0219118,-0.710865644 66.4202252,0.189516449 Z" id="Combined-Shape" stroke="#17212A" stroke-width="1.04137199" fill="#E9DAC1" fill-rule="nonzero"></path>
                        <path d="M33.9319282,31.243503 C33.9150119,31.2142703 33.8771196,31.2044128 33.8480237,31.2217485 C33.8189277,31.2387442 33.8091163,31.2768147 33.8263709,31.3060475 C33.8432871,31.3352802 33.8811795,31.3451377 33.9102754,31.3278021 C33.9393713,31.3111462 33.9491827,31.2727358 33.9319282,31.243503 Z M28.8496159,27.5122522 C28.8584124,27.4786006 28.8384512,27.4439293 28.8046187,27.4350915 C28.7741695,27.4259137 28.742367,27.4435893 28.7332323,27.4741817 C28.7325556,27.4765611 28.731879,27.4796204 28.7315406,27.4819998 C28.7224059,27.5142917 28.7406754,27.5476034 28.7724779,27.5571211 C28.8063104,27.565619 28.8408195,27.5459039 28.8496159,27.5122522 L28.8496159,27.5122522 Z M31.3024693,29.5680603 C31.3207388,29.5388276 31.314649,29.5004171 31.2882597,29.4783226 C31.2601787,29.4575878 31.2199181,29.4637063 31.198942,29.4925991 C31.1783042,29.520812 31.184394,29.561262 31.2131516,29.5823367 C31.2425859,29.6006922 31.2804782,29.5949136 31.3024693,29.5680603 Z M38.085201,24.9455514 C38.1261383,24.894904 38.1197102,24.8204626 38.0699764,24.7783131 C38.023626,24.7358237 37.9519012,24.7388829 37.9096106,24.7851114 C37.9082573,24.786811 37.9065657,24.7881706 37.9055507,24.7898702 C37.8646134,24.8405176 37.8710416,24.914959 37.9207753,24.9571086 C37.969494,24.999598 38.0432488,24.9944992 38.085201,24.9455514 L38.085201,24.9455514 Z M36.2440385,27.1271281 C36.2853141,27.0761408 36.2771943,27.0013595 36.2264457,26.9602297 C36.1767119,26.9197798 36.1036338,26.9262382 36.0623582,26.9755259 C36.0200676,27.0244737 36.0251425,27.0982353 36.0738613,27.1407248 C36.1259632,27.1811747 36.2000563,27.1753961 36.2440385,27.1271281 Z M34.3978012,29.3107444 C34.4397534,29.2617965 34.4343402,29.1883748 34.3856215,29.1465652 C34.3846065,29.1458854 34.3835915,29.1448657 34.3825765,29.1441858 C34.3362261,29.1016964 34.2645013,29.1047557 34.2222107,29.1509841 C34.2208574,29.1526837 34.2191658,29.1540434 34.2181508,29.155743 C34.1775518,29.2074101 34.1833034,29.2818516 34.2313454,29.3267204 C34.2817558,29.3671703 34.3558489,29.360372 34.3978012,29.3107444 L34.3978012,29.3107444 Z M40.7995794,30.4229474 C40.7684535,30.3661815 40.6974053,30.3454467 40.6405668,30.3773987 C40.5840666,30.4086709 40.5637671,30.4803931 40.5952313,30.5371589 C40.6260188,30.5929051 40.6950371,30.6136399 40.751199,30.5844072 C40.8080375,30.5524551 40.8296903,30.4810729 40.7995794,30.4229474 Z M38.2648514,31.7312816 C38.2337255,31.6745157 38.1626774,31.6537809 38.1058388,31.6857329 C38.0493386,31.7170051 38.0290392,31.7887273 38.0605034,31.8454931 C38.0912909,31.9012392 38.1603091,31.9219741 38.216471,31.8927414 C38.2729712,31.8611292 38.294624,31.7894071 38.2648514,31.7312816 Z M32.554947,23.3537278 C32.5735549,23.2911834 32.5390458,23.2248999 32.4764557,23.2055247 C32.4162339,23.1854697 32.3512756,23.2184415 32.3309761,23.2792864 C32.3309761,23.2796263 32.3306378,23.2799662 32.3306378,23.2803061 C32.3079701,23.3387716 32.3363893,23.4043752 32.3945812,23.4274895 C32.3972877,23.4285092 32.3999943,23.429529 32.4033776,23.4308886 C32.466306,23.4482243 32.5319409,23.4152525 32.554947,23.3537278 L32.554947,23.3537278 Z M31.6807162,26.0805288 C31.6983091,26.0176444 31.6654916,25.951361 31.6045932,25.9285866 C31.5423415,25.9098913 31.4763682,25.9449026 31.4570837,26.007447 C31.4374608,26.0693116 31.4712933,26.1355951 31.5328684,26.1553102 C31.533545,26.1556501 31.53456,26.15599 31.5348983,26.15599 C31.5951201,26.176045 31.6600784,26.1430732 31.6800396,26.0825683 C31.6803779,26.0812086 31.6807162,26.0808687 31.6807162,26.0805288 Z M30.8085154,28.8035907 C30.8291532,28.7444454 30.7983657,28.6795216 30.7394972,28.6591266 C30.7378055,28.6584468 30.7361139,28.657767 30.734084,28.657767 C30.6735239,28.6356725 30.6065356,28.6676245 30.5845445,28.7284694 C30.5838679,28.7305089 30.5831912,28.7322084 30.5825146,28.733908 C30.5628917,28.7964524 30.5977392,28.8634158 30.6596526,28.8827909 C30.7219043,28.902506 30.7885542,28.8674947 30.8078387,28.8052902 C30.8085154,28.8042705 30.8085154,28.8039306 30.8085154,28.8035907 L30.8085154,28.8035907 Z M42.0097665,32.9539571 C41.9881137,32.9002505 41.9278919,32.8737371 41.8740983,32.8944719 C41.8203047,32.9155467 41.7939154,32.9767314 41.8148915,33.030778 C41.8358676,33.0851644 41.8967661,33.1113379 41.9505597,33.0902631 C42.004015,33.0688485 42.0304043,33.0080036 42.0097665,32.9539571 Z M34.5449724,25.3265965 C34.5662868,25.2711903 34.5409125,25.2089858 34.4871188,25.1845119 C34.4356935,25.1617376 34.3758101,25.1851918 34.3531423,25.2368589 C34.3524657,25.2385585 34.3521273,25.2395782 34.3514507,25.2412778 C34.3274296,25.2943046 34.350774,25.3565091 34.4035527,25.3803032 C34.4042293,25.3806431 34.4045676,25.3806431 34.4055826,25.380983 C34.4586996,25.4020577 34.519598,25.3786036 34.5449724,25.3265965 Z M33.53778,27.6682734 C33.5597711,27.6149067 33.5343968,27.5540618 33.4819564,27.5319673 C33.4305311,27.509193 33.3706476,27.5326472 33.3479799,27.5843143 C33.3473032,27.5860139 33.3469649,27.5870336 33.3462883,27.5887332 C33.3222672,27.64176 33.3456116,27.7039645 33.3983903,27.7280985 C33.3990669,27.7284384 33.3994052,27.7284384 33.4004202,27.7287783 C33.4548905,27.7488333 33.5157889,27.7223199 33.53778,27.6682734 Z M32.530926,30.0194679 C32.554947,29.9664411 32.5316026,29.9042366 32.478824,29.8801026 C32.4781473,29.8797627 32.477809,29.8797627 32.476794,29.8794227 C32.4273986,29.8556287 32.3685302,29.8770433 32.3448474,29.926671 C32.3431558,29.9297302 32.3421408,29.9327895 32.3411259,29.9361886 C32.3171048,29.9892154 32.3404492,30.0514199 32.3932279,30.0755539 C32.3939045,30.0758938 32.3942428,30.0758938 32.3952578,30.0762337 C32.4476981,30.0959488 32.5075816,30.0714749 32.530926,30.0194679 Z M38.2533484,29.5099348 C38.293609,29.4677853 38.2932707,29.4015018 38.2523334,29.3600321 C38.2124111,29.3185624 38.1467761,29.3172028 38.1055005,29.3573128 C38.0645632,29.3984425 38.062195,29.4650659 38.100764,29.5085751 C38.1423779,29.5510645 38.2100428,29.5510645 38.2533484,29.5099348 Z M36.4270721,31.2907513 C36.4683477,31.2533606 36.471731,31.1891166 36.4345153,31.1476469 C36.433162,31.1462873 36.4318087,31.1449276 36.4304554,31.1428881 C36.3905331,31.1014184 36.3248981,31.1000588 36.2836225,31.1401688 C36.2426852,31.1812985 36.240317,31.2479219 36.278886,31.2914311 C36.3194849,31.331881 36.3857965,31.331881 36.4270721,31.2907513 L36.4270721,31.2907513 Z M29.3767257,25.4921353 C29.3787556,25.4367291 29.3357884,25.3908405 29.2809798,25.3884611 C29.2786115,25.3884611 29.2765816,25.3881212 29.2748899,25.3884611 C29.2173748,25.3860817 29.1683177,25.4309505 29.1659494,25.4890761 L29.1659494,25.4924752 C29.167641,25.5502608 29.2139915,25.5971692 29.2721834,25.5985288 C29.3290219,25.5998885 29.376049,25.5539999 29.3774023,25.4968941 C29.3767257,25.4951946 29.3763873,25.493495 29.3767257,25.4921353 Z M29.3412016,28.0493185 C29.3415399,27.9908531 29.2958661,27.9419052 29.2373359,27.9398658 C29.1784674,27.9405456 29.131102,27.9888136 29.132117,28.0479588 C29.1324553,28.1040449 29.1767758,28.1502734 29.2325994,28.1533326 C29.2894379,28.1563918 29.338495,28.1122028 29.3415399,28.0550971 C29.3415399,28.0533975 29.3415399,28.0510181 29.3412016,28.0493185 L29.3412016,28.0493185 Z M43.6499642,30.797874 C43.695638,30.7485863 43.6949614,30.6721053 43.6482726,30.6234974 C43.6012454,30.5759093 43.5247841,30.5748895 43.476742,30.6217979 C43.4303915,30.6710856 43.4310682,30.7482464 43.4784336,30.7961744 C43.5254607,30.8437626 43.6019221,30.8447823 43.6499642,30.797874 Z M41.563178,32.8747568 C41.6112201,32.8275086 41.6115584,32.7506877 41.5648696,32.7024197 C41.5181808,32.6544917 41.4413812,32.6538118 41.3933391,32.7007202 C41.345297,32.7479684 41.3449586,32.8247893 41.3916474,32.8730572 C41.4390129,32.9213252 41.5154742,32.9216651 41.563178,32.8747568 Z M32.283949,25.9126106 C32.2822574,25.8442876 32.2277871,25.7892213 32.1597839,25.7875218 C32.092119,25.7895612 32.0386637,25.8463271 32.0410319,25.9146501 C32.0427236,25.9802538 32.0961788,26.0326007 32.1611372,26.0339604 C32.2277871,26.0326007 32.2819191,25.9795739 32.283949,25.9126106 Z M32.2721076,28.8627359 C32.2710927,28.7961125 32.218314,28.7413861 32.1516641,28.7393467 C32.0846758,28.7386668 32.0295289,28.7927134 32.0288523,28.8603565 C32.0281756,28.9276598 32.0819692,28.983066 32.1492958,28.9837458 C32.2159458,28.9834059 32.270416,28.9293593 32.2721076,28.8627359 Z M38.1078688,28.5785667 C38.1305365,28.5156824 38.1014406,28.4456598 38.0415572,28.4171069 C37.9793054,28.3936527 37.9096106,28.4242451 37.8845746,28.4861097 C37.8578469,28.5466147 37.8845746,28.617657 37.9451347,28.6445103 C37.9458113,28.6448502 37.9468263,28.6451901 37.9475029,28.6451901 C38.0097547,28.6717035 38.0814795,28.641791 38.1078688,28.5785667 C38.1075305,28.5789066 38.1078688,28.5785667 38.1078688,28.5785667 L38.1078688,28.5785667 Z M36.9717748,31.3026483 C36.9978258,31.2394241 36.9680532,31.1677019 36.9058015,31.1411885 C36.9058015,31.1411885 36.9058015,31.1411885 36.9054631,31.1411885 C36.8452414,31.1160348 36.7755465,31.1452675 36.7508488,31.2061124 C36.7247978,31.267637 36.7535554,31.3390193 36.8147921,31.3648528 C36.8746756,31.3913662 36.9447088,31.3631532 36.9717748,31.3026483 Z M40.1006007,28.8725935 C40.1269901,28.8114087 40.0989091,28.7400265 40.0380107,28.7135131 C39.9767739,28.6866598 39.9060641,28.7152127 39.8796748,28.7763974 C39.8543004,28.8358826 39.8796748,28.9055653 39.9382049,28.9334383 C40.0001183,28.9616513 40.0725198,28.9344581 40.1006007,28.8725935 Z M38.8592877,31.5348105 C38.8870304,31.4729459 38.8599644,31.400204 38.7983893,31.3716511 C38.7385059,31.3451377 38.6681343,31.3706314 38.6380235,31.4287569 C38.6109575,31.4913013 38.6366702,31.5640432 38.6965536,31.5956553 C38.7588053,31.6221687 38.8298535,31.5949755 38.8592877,31.5348105 L38.8592877,31.5348105 Z M33.9840302,28.8691943 C33.9853835,28.8015512 33.9326048,28.7447853 33.8656165,28.742066 C33.7996432,28.7396866 33.7438197,28.7910138 33.7411131,28.8572973 C33.7356999,28.922561 33.7834037,28.9800067 33.848362,28.9857853 C33.8500536,28.9861252 33.8517452,28.9861252 33.8537752,28.9861252 C33.9207635,28.9912239 33.9789553,28.9405765 33.9833535,28.8732733 C33.9840302,28.8719136 33.9840302,28.870554 33.9840302,28.8691943 L33.9840302,28.8691943 Z" id="Shape" fill="#17212A" fill-rule="nonzero"></path>
                        <polygon id="Path" fill="url(#linearGradient-9)" points="20.146892 97.5555493 0 84.3545967 13.1368062 64.1088985 33.2836982 77.3098511"></polygon>
                        <polygon id="Path" fill="#8EDC97" fill-rule="nonzero" transform="translate(20.366118, 83.721333) rotate(31.351887) translate(-20.366118, -83.721333) " points="16.5073773 82.7749288 24.2222922 82.7854643 24.224859 84.6677378 16.5099441 84.6572023"></polygon>
                        <polygon id="Path" fill="#FFFFFF" fill-rule="nonzero" points="19.5592222 80.8782824 25.3029591 80.8782824 25.3029591 86.650385 19.5592222 86.650385"></polygon>
                        <polygon id="Path" fill="#E9DAC1" fill-rule="nonzero" points="19.991601 81.3388677 24.8705802 81.3388677 24.8705802 86.1897997 19.991601 86.1897997"></polygon>
                        <polygon id="Path" fill="url(#linearGradient-10)" points="20.8137298 82.0758042 23.5890066 82.0758042 23.5890066 84.3981059 20.8137298 84.3981059"></polygon>
                        <polygon id="Path" fill="#FFFFFF" fill-rule="nonzero" points="21.8137298 83.1720003 23.1040999 83.1720003 23.1040999 84.108807 21.8137298 84.108807"></polygon>
                        <g transform="translate(19.993631, 83.358645)"></g>
                    </g>
                    <g id="Group" transform="translate(64.507433, 16.826306) rotate(21.052904) translate(-64.507433, -16.826306) translate(48.910887, 10.303610)" fill="#F5F6F0" fill-rule="nonzero">
                        <g id="Path">
                            <path d="M30.6567635,1.94783719 L1.35700093,12.986628 C0.918253298,13.1526696 0.419182902,12.954908 0.239237841,12.5437033 L0.0625629584,12.1384272 C-0.0225927094,11.9415703 -0.0207515027,11.720919 0.0676787949,11.5253423 C0.156109092,11.3297656 0.323830242,11.1754047 0.533695979,11.0964469 L29.836992,0.0587633518 C30.2757396,-0.107278248 30.77481,0.0904833411 30.9547551,0.501688051 L31.13143,0.906964151 C31.2160211,1.10411184 31.2134854,1.32483521 31.1243849,1.52021933 C31.0352845,1.71560344 30.8669777,1.86951206 30.6567635,1.94783719 L30.6567635,1.94783719 Z"></path>
                        </g>
                    </g>
                    <g id="Group" transform="translate(64.507433, 17.677083) rotate(21.052904) translate(-64.507433, -17.677083) translate(48.910887, 11.154387)" fill="#F5F6F0" fill-rule="nonzero">
                        <g id="Path">
                            <path d="M30.6567635,1.94783719 L1.35700093,12.986628 C0.918253298,13.1526696 0.419182902,12.954908 0.239237841,12.5437033 L0.0625629584,12.1384272 C-0.0225927094,11.9415703 -0.0207515027,11.720919 0.0676787949,11.5253423 C0.156109092,11.3297656 0.323830242,11.1754047 0.533695979,11.0964469 L29.836992,0.0587633518 C30.2757396,-0.107278248 30.77481,0.0904833411 30.9547551,0.501688051 L31.13143,0.906964151 C31.2160211,1.10411184 31.2134854,1.32483521 31.1243849,1.52021933 C31.0352845,1.71560344 30.8669777,1.86951206 30.6567635,1.94783719 L30.6567635,1.94783719 Z"></path>
                        </g>
                    </g>
                    <g id="Group" transform="translate(80.670157, 18.528022) rotate(48.133394) translate(-80.670157, -18.528022) translate(77.465969, 16.920999)" fill-rule="nonzero">
                        <g transform="translate(-0.000000, 0.000000)">
                            <path d="M6.10514146,1.90833896 L1.85984442,1.90833896 C1.69237756,1.90833896 1.55660892,1.77346962 1.55660892,1.60702228 C1.55660892,1.44057495 1.69237756,1.3057056 1.85984442,1.3057056 L6.10514146,1.3057056 C6.27260832,1.3057056 6.40837696,1.44057495 6.40837696,1.60702228 C6.40837696,1.77346962 6.27260832,1.90833896 6.10514146,1.90833896 Z" id="Path" fill="#1D918B"></path>
                            <ellipse id="Oval" fill="url(#linearGradient-11)" cx="1.61725602" cy="1.60702228" rx="1.61725602" ry="1.60702228"></ellipse>
                            <ellipse id="Oval" fill="url(#linearGradient-12)" cx="1.61725602" cy="1.60702228" rx="1.13207921" ry="1.1249156"></ellipse>
                            <ellipse id="Oval" fill="#FFFFFF" cx="1.17251061" cy="1.23206381" rx="1" ry="1"></ellipse>
                        </g>
                    </g>
                </g>
            </g>
        </g>
    </g>
</svg>