<?xml version="1.0" encoding="UTF-8"?>
<svg width="271px" height="262px" viewBox="0 0 271 262" version="1.1" xmlns="http://www.w3.org/2000/svg" xmlns:xlink="http://www.w3.org/1999/xlink">
    <title>clip-277</title>
    <defs>
        <linearGradient x1="68.4788309%" y1="48.66409%" x2="-32.3241467%" y2="68.1565634%" id="linearGradient-1">
            <stop stop-color="#F5F6F0" offset="0%"></stop>
            <stop stop-color="#D6D5D5" offset="69.55%"></stop>
            <stop stop-color="#D8D8D8" offset="100%"></stop>
        </linearGradient>
        <circle id="path-2" cx="107.5" cy="107.5" r="107.5"></circle>
        <linearGradient x1="50%" y1="0%" x2="50%" y2="100%" id="linearGradient-4">
            <stop stop-color="#3EC4BF" offset="0%"></stop>
            <stop stop-color="#1D918B" offset="100%"></stop>
        </linearGradient>
        <linearGradient x1="50%" y1="0%" x2="50%" y2="100%" id="linearGradient-5">
            <stop stop-color="#3EC4BF" offset="0%"></stop>
            <stop stop-color="#1D918B" offset="100%"></stop>
        </linearGradient>
    </defs>
    <g id="WIP" stroke="none" stroke-width="1" fill="none" fill-rule="evenodd">
        <g id="Service-Single" transform="translate(-262.000000, -4020.000000)">
            <g id="clip-277" transform="translate(262.000000, 4020.000000)">
                <path d="M140.035649,253.085228 C207.690531,253.085228 262.535649,198.24011 262.535649,130.585228 C262.535649,62.9303464 207.690531,8.08522827 140.035649,8.08522827 C72.3807673,8.08522827 17.5356492,62.9303464 17.5356492,130.585228 C17.5356492,198.24011 72.3807673,253.085228 140.035649,253.085228 Z" id="Oval" stroke="#17212A" stroke-linecap="round" stroke-linejoin="round" stroke-dasharray="52" fill-rule="nonzero"></path>
                <g id="Group" transform="translate(31.535649, 24.085228)">
                    <mask id="mask-3" fill="white">
                        <use xlink:href="#path-2"></use>
                    </mask>
                    <g id="Mask" fill-rule="nonzero">
                        <use fill="url(#linearGradient-1)" xlink:href="#path-2"></use>
                        <use fill="#8EDC97" xlink:href="#path-2"></use>
                    </g>
                    <path d="M114.853356,145.673094 C114.786627,145.442953 114.915062,145.202057 115.145385,145.130362 C115.365662,145.068704 115.596702,145.202057 115.65769,145.422161 C115.65769,145.42718 115.662713,145.432198 115.662713,145.432198 C115.729442,145.673094 115.601007,145.913272 115.370684,145.979949 C115.145385,146.031569 114.920085,145.893198 114.853356,145.673094 L114.853356,145.673094 Z M124.902873,142.841138 C124.836144,142.610996 124.964579,142.365082 125.199924,142.298406 C125.430247,142.231729 125.676354,142.360064 125.743083,142.595224 C125.809812,142.825365 125.681377,143.071279 125.446032,143.137955 C125.220732,143.194594 124.979647,143.06626 124.902873,142.841138 Z M120.049601,101.685286 C120.162251,101.480238 120.423426,101.403524 120.628635,101.516085 C120.833845,101.628646 120.910619,101.889617 120.797969,102.094665 C120.685319,102.299713 120.424144,102.376426 120.218934,102.263865 C120.008702,102.150587 119.931928,101.894635 120.049601,101.685286 Z M138.294576,111.875309 C138.407226,111.670261 138.668401,111.593548 138.87361,111.706109 C139.083842,111.828708 139.160617,112.090395 139.058012,112.310499 C138.924554,112.515547 138.658356,112.582223 138.438079,112.468945 C138.237892,112.341327 138.171163,112.080357 138.294576,111.875309 Z M147.406301,116.980717 C147.51895,116.775669 147.780126,116.698955 147.985335,116.811517 C148.195567,116.934115 148.277364,117.200821 148.169737,117.415906 C148.057087,117.620954 147.795911,117.697668 147.590702,117.585107 C147.375447,117.462508 147.298673,117.195802 147.406301,116.980717 Z M154.565667,74.7953234 C154.498938,74.5651821 154.627373,74.319268 154.862718,74.2525915 C155.07295,74.1859151 155.29825,74.2984764 155.364979,74.5035244 C155.370001,74.5185803 155.375024,74.5393719 155.375024,74.5601635 C155.446775,74.7802674 155.329103,75.0161443 155.108826,75.0878394 C154.878503,75.1588175 154.632396,75.0312003 154.565667,74.7953234 L154.565667,74.7953234 Z M118.650446,124.252751 C118.676277,124.022609 118.880768,123.858427 119.111808,123.879219 C119.342131,123.905029 119.506442,124.10936 119.485634,124.340219 C119.464826,124.57036 119.255311,124.734542 119.024271,124.71375 C118.803994,124.703713 118.634661,124.513721 118.650446,124.293617 C118.645424,124.282862 118.650446,124.267806 118.650446,124.252751 Z M139.395961,126.684648 C139.431837,126.459526 139.647092,126.305381 139.872392,126.341229 C140.102714,126.367039 140.272047,126.566351 140.246217,126.797209 C140.220386,127.027351 140.020917,127.196551 139.789877,127.170741 L139.784855,127.170741 C139.54377,127.144931 139.369413,126.9406 139.395244,126.704723 L139.400267,126.694685 L139.395961,126.684648 Z M149.784146,127.929275 C149.794191,127.709171 149.984332,127.539971 150.20461,127.555744 C150.214655,127.555744 150.235463,127.555744 150.245508,127.560762 C150.48157,127.581554 150.655209,127.790903 150.635119,128.02678 C150.635119,128.031799 150.635119,128.041836 150.630096,128.047572 C150.604266,128.277713 150.399774,128.441895 150.168734,128.421103 C149.932671,128.395293 149.759033,128.185226 149.779123,127.950067 C149.784146,127.939312 149.784146,127.929275 149.784146,127.929275 Z M137.960931,89.5379857 C137.827473,89.3379564 137.863349,89.0719676 138.042728,88.9135214 C138.232152,88.7651126 138.514135,88.7959415 138.667684,88.9952538 C138.821232,89.1895475 138.785356,89.4662906 138.585887,89.6197181 C138.386418,89.753071 138.12022,89.7172234 137.960931,89.5379857 Z M144.433635,97.7313011 C144.295155,97.5420261 144.336053,97.2753203 144.526195,97.1319301 C144.695528,96.9785026 144.956704,96.9885399 145.110252,97.1577404 C145.115275,97.1677777 145.12532,97.1785319 145.136083,97.1885692 C145.279586,97.3828629 145.24371,97.6545874 145.054286,97.8130335 C144.859122,97.9463864 144.592924,97.9105388 144.433635,97.7313011 L144.433635,97.7313011 Z M73.6342635,134.755365 C73.6493313,134.310138 74.0288968,133.9617 74.4744737,133.976756 L74.5053269,133.976756 C74.9458812,133.997548 75.2895709,134.371079 75.268763,134.816306 L75.268763,134.821324 C75.2536952,135.272287 74.8741297,135.620008 74.4285528,135.604952 C74.4185075,135.604952 74.4077448,135.604952 74.3976996,135.604952 C73.9571453,135.58416 73.6134555,135.210629 73.6342635,134.765402 L73.6342635,134.755365 Z M93.4104159,135.754078 C93.4362464,135.298097 93.8258572,134.950376 94.2814793,134.975469 C94.7378189,135.001279 95.0858137,135.390583 95.0607007,135.845847 C95.0398928,136.286055 94.6660674,136.629475 94.2204905,136.608683 L94.2154679,136.608683 C93.7591282,136.58359 93.4053933,136.204323 93.4104159,135.754078 L93.4104159,135.754078 Z M113.208094,136.737017 C113.233924,136.281037 113.623535,135.933315 114.079157,135.958409 C114.535497,135.984219 114.883492,136.373523 114.858379,136.828787 C114.832548,137.284768 114.442937,137.632489 113.987315,137.607396 C113.541738,137.59234 113.193026,137.213073 113.208094,136.767846 C113.208094,136.757809 113.208094,136.747055 113.208094,136.737017 Z M89.8185351,59.0639857 C89.5214838,58.7205662 89.552337,58.2086633 89.8902866,57.9068269 C90.2031232,57.6049906 90.7003612,57.6100092 91.0074577,57.9168642 C91.0175029,57.9269015 91.0282656,57.9376558 91.0383108,57.9476931 C91.3353621,58.285377 91.3045089,58.8030156 90.9665593,59.1048519 C90.6379374,59.4124239 90.1256316,59.3916323 89.8185351,59.0639857 Z M103.086825,73.7406886 C102.784751,73.4080233 102.804842,72.8853661 103.143509,72.5785111 C103.476436,72.2766747 103.999504,72.2967493 104.306601,72.6351502 L104.321669,72.6502062 C104.623743,72.9778527 104.603652,73.4897557 104.275748,73.792309 C103.922013,74.0884098 103.409707,74.0683351 103.086825,73.7406886 L103.086825,73.7406886 Z M116.390991,88.4324473 C116.088917,88.1048008 116.109007,87.5928978 116.441934,87.2953631 C116.446957,87.2903445 116.457002,87.2853258 116.462742,87.2745716 C116.775579,86.9727352 117.272817,86.9777539 117.579914,87.2846089 L117.610767,87.3154378 C117.902795,87.6638759 117.876965,88.1807976 117.554083,88.5034255 C117.210393,88.8009601 116.698087,88.7651126 116.390991,88.4324473 L116.390991,88.4324473 Z M142.968469,117.795173 C142.666395,117.467527 142.686486,116.960642 143.009368,116.658089 C143.337272,116.356253 143.844555,116.376327 144.147347,116.698955 L144.168155,116.719747 C144.475969,117.042375 144.455161,117.549259 144.132279,117.851096 C144.127256,117.856114 144.122234,117.856114 144.117211,117.861133 C143.782849,118.168705 143.270543,118.132857 142.968469,117.795173 L142.968469,117.795173 Z M87.5684076,167.170151 C87.4198819,166.739981 87.6451817,166.273962 88.0756908,166.125554 C88.5011773,165.977145 88.9725847,166.202267 89.1211104,166.632438 C89.1211104,166.632438 89.1211104,166.637457 89.126133,166.642475 C89.269636,167.072646 89.0393136,167.538664 88.6138271,167.687073 C88.1883407,167.835482 87.7269784,167.615378 87.5734302,167.190226 C87.5734302,167.180188 87.5684076,167.17517 87.5684076,167.170151 Z M106.253937,160.533336 C106.089626,160.118222 106.289813,159.652203 106.705254,159.488739 C107.114955,159.324557 107.58708,159.524586 107.750674,159.939701 C107.755696,159.960492 107.765741,159.975548 107.771481,159.99634 C107.920007,160.411455 107.69973,160.871737 107.279266,161.020863 C106.858085,161.163536 106.407485,160.948451 106.253937,160.533336 L106.253937,160.533336 Z M72.1425495,97.5061785 C72.3477588,97.1068368 72.8342341,96.9476737 73.2396302,97.1577404 C73.6392861,97.3627883 73.7985745,97.8488811 73.5883425,98.2539583 C73.3881558,98.6432627 72.9117257,98.8067275 72.5170924,98.6174525 C72.1116964,98.4023672 71.9423628,97.9105388 72.1425495,97.5061785 Z M90.0388122,105.996312 C90.2440216,105.59697 90.7304968,105.437807 91.1358929,105.647873 C91.5355488,105.852921 91.6948372,106.339014 91.4846052,106.744091 C91.2844185,107.133396 90.8079885,107.296861 90.4083325,107.102567 C90.0079591,106.898236 89.8436481,106.406408 90.0388122,105.996312 Z M107.929335,114.461351 C108.139567,114.051972 108.641827,113.892809 109.051529,114.102876 C109.446162,114.302905 109.615495,114.778961 109.436117,115.183321 C109.251715,115.603454 108.754477,115.792729 108.334013,115.603454 C107.913549,115.414179 107.724125,114.922351 107.913549,114.502218 C107.91929,114.49218 107.91929,114.476407 107.929335,114.461351 L107.929335,114.461351 Z M127.916437,46.8614806 C127.772934,46.4313101 128.003256,45.965292 128.428742,45.8168831 C128.844184,45.6634556 129.299806,45.8785409 129.454072,46.2929385 L129.459094,46.3029758 C129.628428,46.7023175 129.444026,47.163317 129.043653,47.3325174 C129.022845,47.3375361 129.007777,47.3475734 128.981947,47.3583276 C128.552155,47.4959822 128.090793,47.2808969 127.916437,46.8614806 L127.916437,46.8614806 Z M134.578565,65.5165443 C134.440084,65.0863737 134.660362,64.6203556 135.075803,64.4511551 C135.506312,64.307765 135.972697,64.5379062 136.121222,64.9630581 C136.269748,65.38821 136.049471,65.8492095 135.623984,66.002637 C135.618962,66.002637 135.613939,66.0076556 135.608917,66.0076556 C135.193475,66.1610832 134.737853,65.9459979 134.583587,65.5316002 C134.578565,65.5215629 134.578565,65.5215629 134.578565,65.5165443 Z M141.225625,84.1457976 C141.067054,83.7414373 141.266523,83.2854565 141.671202,83.132029 C141.681247,83.1270103 141.697033,83.1219917 141.707078,83.1219917 C142.122519,82.9578099 142.598949,83.1628579 142.762543,83.5779725 C142.767565,83.5930285 142.772588,83.6037827 142.77761,83.61382 C142.926136,84.0439906 142.700836,84.5100087 142.270327,84.6584176 C141.839818,84.8068264 141.373433,84.5817038 141.224908,84.1515332 C141.230648,84.1565519 141.230648,84.1515332 141.225625,84.1457976 L141.225625,84.1457976 Z M147.867663,102.816634 C147.72416,102.386464 147.954482,101.920445 148.379969,101.772037 C148.784647,101.618609 149.240987,101.817921 149.394535,102.222999 C149.399558,102.233036 149.40458,102.248809 149.40458,102.258846 C149.558128,102.67898 149.353637,103.144998 148.933173,103.313481 C148.503381,103.46189 148.031256,103.241786 147.867663,102.816634 L147.867663,102.816634 Z M64.2757135,115.260035 C64.4141939,114.886503 64.8289176,114.686474 65.2084832,114.819827 C65.5880487,114.95318 65.7824953,115.367577 65.6490374,115.751863 C65.5155796,116.13113 65.1008559,116.325424 64.7162678,116.192071 C64.3424424,116.048681 64.1479958,115.639302 64.2757135,115.260035 Z M80.9012569,121.277404 C81.0397373,120.903873 81.454461,120.703843 81.8340266,120.837196 C82.2186147,120.959795 82.4231065,121.369891 82.3004114,121.754176 C82.1777163,122.138462 81.7672976,122.342793 81.3827095,122.220195 C81.3676417,122.215176 81.356879,122.210157 81.3418112,122.205139 C80.9679858,122.08254 80.767799,121.677463 80.8904941,121.303931 C80.8955167,121.297479 80.9012569,121.282423 80.9012569,121.277404 Z M97.5619585,127.811695 C97.4693991,127.653249 97.4593538,127.463257 97.5311054,127.289038 C97.6695858,126.915506 98.0843095,126.715477 98.463875,126.84883 C98.8534858,126.987201 99.0586951,127.407335 98.9202147,127.795922 C98.9202147,127.800941 98.9202147,127.800941 98.9151921,127.805959 C98.8333953,128.036101 98.6432538,128.21032 98.4079089,128.271978 L98.3820783,128.287033 C98.2486205,128.3279 98.1051175,128.312844 97.987445,128.246167 C97.7822357,128.185226 97.6236648,128.016026 97.5619585,127.811695 Z M114.155931,133.300671 C114.299434,132.916386 114.724921,132.722092 115.103769,132.865482 C115.488357,133.008872 115.682803,133.434024 115.5393,133.812574 C115.40082,134.186106 114.986096,134.386135 114.606531,134.252782 C114.21692,134.114411 114.011711,133.694278 114.150191,133.30569 C114.155931,133.311426 114.155931,133.306407 114.155931,133.300671 Z M114.509666,60.9280582 C114.351095,60.5487911 114.509666,60.1136019 114.878469,59.9343642 C115.232204,59.7651638 115.652668,59.9135726 115.821284,60.2670294 C115.826307,60.2770667 115.826307,60.287821 115.831329,60.2978583 C116.010708,60.6563338 115.862182,61.0965417 115.498402,61.2707607 C115.493379,61.2707607 115.488357,61.2757794 115.483334,61.2757794 C115.124577,61.4349425 114.69909,61.281515 114.509666,60.9280582 L114.509666,60.9280582 Z M122.012722,76.8895371 C121.848411,76.526043 122.012722,76.1008911 122.37148,75.9367093 C122.725215,75.7675089 123.145678,75.9159177 123.314295,76.2693745 C123.319317,76.2794119 123.319317,76.2901661 123.32434,76.3002034 C123.503719,76.6586789 123.355193,77.0988868 122.991413,77.2731059 C122.98639,77.2731059 122.981368,77.2781245 122.976345,77.2781245 C122.606825,77.4329859 122.182056,77.2587668 122.012722,76.8895371 L122.012722,76.8895371 Z M129.520801,92.9234281 C129.341422,92.5649526 129.489947,92.1247447 129.853728,91.9505256 C129.85875,91.9505256 129.863773,91.945507 129.868795,91.945507 C130.206745,91.7712879 130.622186,91.9046408 130.796542,92.2423247 C130.806588,92.2631162 130.81735,92.2831909 130.827396,92.3039824 C131.006774,92.6624579 130.858249,93.1026658 130.494469,93.2768849 C130.489446,93.2768849 130.484423,93.2819035 130.479401,93.2819035 C130.114903,93.435331 129.694439,93.2761679 129.520801,92.9234281 Z M137.003048,108.899963 C136.844478,108.526432 137.018116,108.096261 137.392659,107.932079 C137.751417,107.778652 138.176903,107.932079 138.346237,108.290555 C138.504808,108.654049 138.356282,109.084219 138.002547,109.268476 C137.617959,109.432657 137.182427,109.269193 137.003048,108.899963 Z M144.511127,124.928118 C144.336771,124.564624 144.485296,124.124416 144.849077,123.945179 C145.212857,123.770959 145.653411,123.924387 145.83279,124.282862 L145.83279,124.287881 C145.991361,124.667148 145.83279,125.102337 145.463987,125.281575 C145.100207,125.429984 144.689788,125.276556 144.511127,124.928118 Z M84.5598666,153.097838 C84.5390586,152.703515 84.84185,152.365831 85.241506,152.345039 L85.2773817,152.345039 C85.6619698,152.319229 85.9898743,152.60601 86.0157048,152.985277 C86.0157048,153.000333 86.0207274,153.016106 86.0157048,153.031161 C86.046558,153.430503 85.7437666,153.778941 85.3441106,153.80977 C85.3340654,153.80977 85.3233027,153.80977 85.3182801,153.80977 C84.9136016,153.814789 84.5806745,153.49718 84.5598666,153.097838 L84.5598666,153.097838 Z M137.55123,150.696769 C137.546207,150.292409 137.859044,149.959027 138.268745,149.943971 C138.673424,149.928915 139.012091,150.251543 139.022136,150.660922 C139.032181,151.065282 138.714322,151.403683 138.304621,151.41372 C137.899942,151.423757 137.561275,151.10113 137.55123,150.696769 Z M89.6391563,90.644241 C89.3521502,90.3624793 89.3370824,89.9014798 89.6133257,89.6096808 C89.885264,89.3128631 90.3358635,89.2920715 90.6329148,89.5587773 C90.9249434,89.8355203 90.9557966,90.2907842 90.6996437,90.6033748 C90.4176602,90.9052112 89.9462528,90.9209841 89.6391563,90.644241 L89.6391563,90.644241 Z M102.717305,102.550645 C102.420254,102.299713 102.384378,101.859505 102.635508,101.56197 C102.645553,101.551933 102.656316,101.541178 102.661339,101.531141 C102.933277,101.234323 103.383876,101.213532 103.680928,101.480238 C103.972956,101.756981 104.003809,102.212245 103.747657,102.524835 C103.470696,102.816634 103.015074,102.826671 102.717305,102.550645 L102.717305,102.550645 Z M115.77034,114.476407 C115.473289,114.204683 115.452481,113.754438 115.719397,113.45762 C115.991335,113.160802 116.441934,113.140011 116.738986,113.406717 C117.036037,113.678441 117.056845,114.128686 116.789929,114.425504 C116.518709,114.722322 116.068109,114.743113 115.77034,114.476407 Z M150.465785,60.9538684 C150.439955,60.5695827 150.726961,60.2419361 151.106526,60.2161259 C151.121594,60.2161259 151.137379,60.2111072 151.152447,60.2161259 C151.552103,60.185297 151.900815,60.4878503 151.931669,60.887192 L151.931669,60.9130022 C151.931669,61.3123439 151.618832,61.6450091 151.214153,61.6658007 C150.81952,61.6865923 150.48157,61.384039 150.460763,60.9846973 C150.465785,60.9739431 150.465785,60.9639057 150.465785,60.9538684 Z M151.265097,78.615238 C151.250029,78.2108777 151.557126,77.8624395 151.961804,77.8366293 C152.371505,77.8316107 152.710172,78.1542386 152.720218,78.5636176 C152.72524,78.9529219 152.433212,79.2805685 152.043601,79.3164161 C151.648968,79.3472449 151.300255,79.0554459 151.264379,78.6611229 C151.265097,78.6410483 151.265097,78.631011 151.265097,78.615238 L151.265097,78.615238 Z M92.2164707,149.016953 C92.2573691,148.781076 92.4826688,148.617611 92.7187313,148.658478 C92.9547938,148.699344 93.1183872,148.924466 93.0774889,149.160343 C93.0365905,149.39622 92.8112907,149.559685 92.5752283,149.518819 C92.3449059,149.472217 92.1856175,149.252113 92.2164707,149.016953 Z M112.839291,152.232478 C112.875167,152.007356 113.090421,151.853211 113.315721,151.889059 C113.535998,151.904115 113.705332,152.099125 113.684524,152.319229 C113.679501,152.340021 113.679501,152.365114 113.674479,152.390924 C113.638603,152.616047 113.423348,152.770191 113.198049,152.734344 C112.972749,152.713552 112.808438,152.519258 112.829246,152.299155 C112.834268,152.273344 112.839291,152.25327 112.839291,152.232478 Z M115.171215,111.875309 C115.032735,111.686034 115.073633,111.419329 115.263775,111.275938 C115.453199,111.137567 115.720114,111.178433 115.863617,111.368425 C116.00712,111.5577 115.961199,111.824406 115.771058,111.967796 C115.575894,112.111186 115.308978,112.07032 115.171215,111.875309 Z M139.744674,145.560533 C139.606193,145.371258 139.647092,145.104552 139.837233,144.961162 C140.026657,144.82279 140.298596,144.868675 140.437076,145.058667 C140.570534,145.247942 140.529635,145.509629 140.344516,145.647284 C140.149352,145.790674 139.883154,145.749808 139.744674,145.560533 Z M98.6841522,170.939162 C98.6382312,170.71404 98.7709715,170.4882 98.9919662,170.422241 C99.2280287,170.376356 99.4633736,170.519746 99.5250799,170.754906 C99.5867862,170.97501 99.4533284,171.205868 99.2330513,171.266809 C99.2280287,171.266809 99.2230061,171.271827 99.2179835,171.271827 C98.9812035,171.312694 98.7458585,171.169303 98.6841522,170.939162 Z M108.821206,168.49651 C108.764522,168.271388 108.903003,168.04053 109.12902,167.979589 C109.344275,167.912912 109.574597,168.036228 109.641326,168.251313 C109.646349,168.26135 109.646349,168.272105 109.646349,168.272105 C109.7181,168.492209 109.600428,168.717331 109.395218,168.789026 C109.38015,168.794045 109.359343,168.799064 109.338535,168.799064 C109.118257,168.860721 108.887218,168.727369 108.826229,168.507265 C108.826229,168.506548 108.826229,168.501529 108.821206,168.49651 L108.821206,168.49651 Z M104.567776,131.160573 C104.701234,130.971298 104.957387,130.90964 105.162596,131.017183 C105.362783,131.129744 105.434535,131.390714 105.316145,131.590743 C105.311122,131.600781 105.311122,131.600781 105.301077,131.611535 C105.19345,131.811564 104.942319,131.883259 104.742133,131.775717 C104.732087,131.770698 104.716302,131.765679 104.716302,131.765679 C104.50607,131.626591 104.444364,131.365621 104.567776,131.160573 L104.567776,131.160573 Z M113.490077,136.572836 C113.623535,136.383561 113.879688,136.321903 114.084897,136.429445 C114.285084,136.55778 114.346073,136.81875 114.2284,137.023798 C114.125796,137.228846 113.874665,137.310578 113.675196,137.203035 C113.665151,137.198017 113.660128,137.192998 113.649366,137.187979 C113.439134,137.0704 113.362359,136.803694 113.475009,136.593627 C113.474292,136.593627 113.485055,136.58359 113.490077,136.572836 L113.490077,136.572836 Z M122.39731,142.0317 C122.504937,141.831671 122.756068,141.759976 122.956254,141.867518 C122.9663,141.872537 122.982085,141.877556 122.99213,141.88831 C123.19734,142.016644 123.258328,142.282633 123.135633,142.482662 C123.002175,142.671937 122.746023,142.733595 122.540813,142.626052 C122.340626,142.513491 122.268875,142.252521 122.382242,142.052492 C122.386547,142.042454 122.39157,142.037436 122.39731,142.0317 L122.39731,142.0317 Z M136.582585,107.716994 C136.525901,107.486853 136.664381,107.255994 136.890399,107.200072 C137.120721,107.143433 137.351761,107.281805 137.407727,107.507644 C137.474456,107.717711 137.361806,107.942833 137.156597,108.00951 C137.141529,108.014529 137.120721,108.019547 137.099913,108.019547 C136.879636,108.081205 136.648596,107.947852 136.587607,107.727748 L136.582585,107.716994 Z M139.032181,117.851096 C138.981238,117.6102 139.129763,117.37504 139.365108,117.318401 C139.590408,117.272516 139.805663,117.415906 139.857324,117.63601 C139.924053,117.846077 139.811403,118.071199 139.606193,118.137876 C139.591126,118.142895 139.570318,118.147913 139.54951,118.147913 C139.329233,118.209571 139.098193,118.076218 139.037204,117.856114 L139.032181,117.851096 Z M141.471733,127.985197 C141.420789,127.744302 141.569315,127.509142 141.80466,127.452503 C142.045745,127.401599 142.28109,127.550008 142.332751,127.785168 C142.373649,128.031082 142.210056,128.256205 141.963948,128.297071 C141.753716,128.333635 141.538462,128.200282 141.471733,127.985197 L141.471733,127.985197 Z M79.9735098,145.468046 C80.0553065,145.222132 80.3272448,145.088779 80.5733524,145.176247 L80.5833977,145.176247 C80.8395506,145.257979 80.9830536,145.524685 80.9062795,145.780637 C80.9012569,145.790674 80.8962343,145.806447 80.8912117,145.816484 C80.8094149,146.062398 80.5374767,146.195751 80.291369,146.108283 C80.2863464,146.108283 80.2813238,146.108283 80.2813238,146.108283 C80.0194308,146.005759 79.8859729,145.723997 79.9735098,145.468046 Z M91.1918591,149.411276 C91.2844185,149.155325 91.5714246,149.016953 91.8275775,149.10944 C92.088753,149.201926 92.2222108,149.488707 92.1296514,149.744658 C92.0478546,149.990573 91.7759164,150.123925 91.5298087,150.036457 C91.5298087,150.036457 91.5197635,150.036457 91.5147409,150.031439 C91.258588,149.964762 91.1050397,149.703792 91.1767912,149.442822 C91.1810963,149.431351 91.1868365,149.421313 91.1918591,149.411276 L91.1918591,149.411276 Z M113.40254,108.500621 C113.279845,108.280517 113.366665,107.998756 113.581919,107.881176 C113.596987,107.871138 113.617795,107.86612 113.632863,107.855365 C113.873948,107.742804 114.165976,107.850347 114.278626,108.091242 C114.381231,108.342175 114.288672,108.623937 114.058349,108.762308 C113.812959,108.869134 113.515908,108.756573 113.40254,108.500621 L113.40254,108.500621 Z M118.537796,119.234094 C118.425146,118.983161 118.542819,118.686343 118.793949,118.578801 C119.035034,118.466239 119.327063,118.573782 119.439713,118.814678 C119.542317,119.06561 119.449758,119.347372 119.219436,119.485744 C118.968305,119.587551 118.671254,119.480008 118.537796,119.234094 L118.537796,119.234094 Z M128.90589,140.685266 C128.772432,140.470181 128.839161,140.183401 129.059438,140.050048 C129.080246,140.04001 129.105359,140.024237 129.126167,140.0142 C129.367252,139.901639 129.659281,140.009181 129.771931,140.250077 C129.889603,140.495991 129.792739,140.792809 129.551654,140.921143 C129.305546,141.033704 129.01854,140.926162 128.90589,140.685266 Z M82.827785,171.077534 C82.8019545,170.805809 82.9971186,170.565631 83.2683393,170.539821 L83.2941699,170.539821 C83.5661081,170.544839 83.7863853,170.749887 83.8114983,171.020895 C83.8265661,171.292619 83.6220743,171.52276 83.3501361,171.537816 C83.3451134,171.537816 83.3400908,171.537816 83.3350682,171.537816 C83.0688701,171.543552 82.8435704,171.343523 82.827785,171.077534 L82.827785,171.077534 Z M94.7076833,170.401449 C94.6976381,170.13546 94.8971073,169.914639 95.1640229,169.899583 C95.4359611,169.873773 95.6763287,170.068784 95.7021593,170.339791 L95.7021593,170.365601 C95.7122045,170.642345 95.4919273,170.867467 95.2149665,170.877504 C94.9530734,170.882523 94.7227511,170.672456 94.7076833,170.401449 Z M106.606954,169.751174 C106.581124,169.500242 106.765525,169.275119 107.016656,169.254327 C107.031723,169.249309 107.042486,169.254327 107.062577,169.254327 C107.318729,169.223499 107.554792,169.402736 107.590668,169.658688 C107.590668,169.668725 107.590668,169.679479 107.59569,169.694535 C107.621521,169.96626 107.426357,170.206438 107.155136,170.232249 C106.883198,170.258059 106.64283,170.063048 106.617,169.792041 C106.606954,169.776985 106.606954,169.761212 106.606954,169.751174 L106.606954,169.751174 Z M97.5619585,127.811695 C97.5827664,127.745019 97.6129021,127.678342 97.654518,127.62242 C97.8288741,127.422391 98.1359706,127.407335 98.3361574,127.581554 C98.34118,127.586572 98.3462026,127.586572 98.3512252,127.591591 C98.5456718,127.770829 98.5664797,128.062628 98.4079089,128.267676 L98.3820783,128.282732 C98.2077221,128.482761 97.9006257,128.497817 97.7004389,128.323598 C97.6954163,128.318579 97.6903937,128.313561 97.6903937,128.313561 C97.5461732,128.195264 97.4952296,127.990933 97.5619585,127.811695 L97.5619585,127.811695 Z M106.586864,136.250208 C106.386677,136.081007 106.356542,135.779171 106.525158,135.574123 C106.525158,135.574123 106.525158,135.569104 106.53018,135.569104 C106.709559,135.364056 107.017373,135.338963 107.23765,135.497409 C107.432097,135.691703 107.452905,135.999275 107.283571,136.21436 C107.09917,136.419408 106.786333,136.435181 106.586864,136.250208 L106.586864,136.250208 Z M115.442436,144.177534 C115.242249,143.993278 115.227181,143.680687 115.411583,143.486394 C115.595984,143.286364 115.908821,143.271308 116.103267,143.455565 C116.303454,143.639821 116.318522,143.952412 116.13412,144.146705 C115.959764,144.346735 115.652668,144.361791 115.452481,144.187572 C115.447459,144.187572 115.447459,144.182553 115.442436,144.177534 L115.442436,144.177534 Z M138.422293,107.906986 C138.407226,107.635261 138.611717,107.40512 138.883656,107.390064 L138.898723,107.390064 C139.164922,107.380027 139.385916,107.579339 139.400984,107.846045 C139.431837,108.101997 139.252458,108.337873 138.996306,108.373721 C138.98626,108.373721 138.975498,108.373721 138.96043,108.37874 C138.689209,108.38806 138.448124,108.183012 138.422293,107.906986 L138.422293,107.906986 Z M139.09891,119.776826 C139.07308,119.525893 139.257481,119.30077 139.508611,119.279979 C139.523679,119.27496 139.534442,119.279979 139.554532,119.279979 C139.810685,119.24915 140.046748,119.428388 140.077601,119.684339 C140.077601,119.694376 140.077601,119.705131 140.082623,119.720187 C140.103431,119.99693 139.893199,120.237108 139.621261,120.262918 C139.345018,120.268654 139.108955,120.053569 139.09891,119.776826 Z M139.749696,131.662439 C139.734629,131.390714 139.944143,131.160573 140.211059,131.145517 C140.477257,131.130461 140.708297,131.334792 140.728387,131.601498 C140.754218,131.873222 140.559054,132.113401 140.287833,132.139211 C140.277788,132.139211 140.272765,132.139211 140.262002,132.139211 C140.000827,132.138494 139.775527,131.933446 139.749696,131.662439 Z M52.406578,100.717402 C52.0786735,100.384737 52.0686283,99.8570607 52.3807474,99.5086225 C52.6986066,99.165203 53.2317204,99.1451284 53.56967,99.457719 C53.902597,99.7853656 53.9133598,100.323079 53.5955005,100.666498 C53.2833815,101.009201 52.7502677,101.029275 52.406578,100.717402 Z M67.3610286,114.614779 C67.0173388,114.29717 66.9972484,113.764475 67.310085,113.426791 C67.6279442,113.083372 68.161058,113.063297 68.4990076,113.375888 C68.8426974,113.693497 68.8627878,114.226192 68.5499512,114.563875 C68.2371146,114.912314 67.7047183,114.932388 67.3610286,114.614779 Z M82.2846261,128.533665 C81.951699,128.206018 81.9409363,127.668305 82.2587955,127.324885 C82.5866999,126.997239 83.1198137,126.997239 83.4477181,127.319867 C83.7756225,127.647513 83.7756225,128.180208 83.4527407,128.507854 C83.1305764,128.830482 82.6175531,128.84052 82.2846261,128.533665 Z M112.162674,156.354946 C111.829747,156.027299 111.818984,155.489586 112.136844,155.146167 C112.459725,154.813502 112.987817,154.802747 113.325766,155.125375 C113.653671,155.442984 113.669456,155.964925 113.356619,156.303326 C113.033738,156.646745 112.505646,156.667537 112.162674,156.354946 L112.162674,156.354946 Z M130.350966,64.4870027 C130.345943,64.0159659 130.714746,63.6216429 131.186153,63.5958327 C131.657561,63.5958327 132.042149,63.9750997 132.037126,64.4461365 C132.037126,64.9021173 131.683391,65.2756487 131.227052,65.2964403 C130.765689,65.3064776 130.376079,64.9480022 130.350966,64.4870027 L130.350966,64.4870027 Z M131.068481,84.8735028 C131.058435,84.4125034 131.417193,84.023199 131.878555,83.9923701 C132.34494,83.9715786 132.739573,84.3357896 132.760381,84.8018077 C132.781189,85.2678259 132.416692,85.6621489 131.950307,85.6829405 C131.488227,85.6922608 131.099334,85.3337853 131.068481,84.8735028 Z M131.791018,105.254267 C131.780973,104.793268 132.134708,104.398945 132.601093,104.373135 C133.072501,104.368116 133.467134,104.736629 133.492964,105.207666 C133.492964,105.678702 133.108376,106.057969 132.636969,106.057969 C132.190674,106.062988 131.816131,105.710248 131.791018,105.254267 L131.791018,105.254267 Z M75.8786509,155.372006 C76.0429618,154.931798 76.5344597,154.705959 76.9757315,154.870141 C77.4162858,155.034322 77.6423031,155.525434 77.4779921,155.966359 C77.3136811,156.406567 76.8221833,156.632406 76.3809115,156.468224 C75.9453798,156.293288 75.7251026,155.812214 75.8786509,155.372006 Z M95.0097571,162.53578 C95.1532602,162.095572 95.6296902,161.854677 96.070962,161.998067 C96.0810073,162.003086 96.0860299,162.003086 96.09177,162.003086 C96.5273017,162.172286 96.7475788,162.658379 96.5940306,163.099304 C96.4354597,163.539511 95.9532896,163.77037 95.5127353,163.606188 C95.5077127,163.606188 95.50269,163.601169 95.50269,163.601169 C95.0714634,163.447025 94.8511863,162.965951 95.0097571,162.53578 L95.0097571,162.53578 Z M114.150909,169.663706 C114.309479,169.223499 114.796672,168.997659 115.237227,169.156822 C115.242249,169.156822 115.247272,169.161841 115.247272,169.161841 C115.656973,169.320287 115.85716,169.771249 115.708634,170.180628 C115.723702,170.206438 115.723702,170.206438 115.713657,170.247305 C115.570154,170.651665 115.134622,170.871769 114.719181,170.759208 L114.637384,170.738416 C114.21692,170.595026 113.986598,170.134026 114.135123,169.708874 C114.140863,169.694535 114.145886,169.679479 114.150909,169.663706 L114.150909,169.663706 Z M90.4485134,84.1766265 C90.2741572,83.746456 90.4635812,83.2546276 90.8739999,83.0452779 C91.3045089,82.8710588 91.7917017,83.0660695 91.9811257,83.4854858 C92.1813124,83.9006004 92.0069563,84.3967305 91.591515,84.5917411 C91.5864924,84.5917411 91.5814698,84.5967598 91.5764472,84.5967598 C91.1509607,84.7960721 90.6487001,84.6067971 90.4485134,84.1766265 Z M98.9352825,102.754976 C98.7408359,102.324806 98.9302599,101.82294 99.360769,101.622911 C99.7762102,101.433636 100.262686,101.622911 100.45211,102.038025 C100.652296,102.458159 100.47794,102.955006 100.057476,103.154318 C99.6370123,103.354347 99.1397743,103.180128 98.9403051,102.759995 C98.9403051,102.759995 98.9352825,102.759995 98.9352825,102.754976 L98.9352825,102.754976 Z M107.406984,121.308233 C107.206797,120.893118 107.381153,120.396988 107.791572,120.201978 C107.796595,120.201978 107.801617,120.196959 107.80664,120.196959 C108.227104,119.991911 108.739409,120.161111 108.949641,120.586263 C109.154851,121.006397 108.985517,121.5183 108.560031,121.728366 C108.139567,121.933414 107.627261,121.764214 107.417029,121.339062 C107.417029,121.333326 107.406984,121.31827 107.406984,121.308233 L107.406984,121.308233 Z M115.877968,139.860773 C115.693566,139.435621 115.893035,138.938774 116.318522,138.759536 C116.733963,138.580298 117.215416,138.764555 117.409862,139.174651 C117.604309,139.589765 117.42493,140.091631 117.010206,140.290943 C116.580415,140.480218 116.073132,140.290943 115.877968,139.860773 Z M78.9173275,169.899583 C79.0758983,169.469413 79.5422832,169.228517 79.9885776,169.346814 C80.4291319,169.50526 80.6601718,169.987051 80.5166687,170.427259 C80.3939737,170.85743 79.9476792,171.103344 79.5171702,170.980028 C79.5021023,170.97501 79.486317,170.969991 79.4762718,170.964972 C79.0306949,170.826601 78.7795646,170.360583 78.9173275,169.915356 C78.9173275,169.909621 78.9173275,169.904602 78.9173275,169.899583 Z M76.6628949,86.64007 C76.4627082,86.2249554 76.6478271,85.7230897 77.0625508,85.5237773 C77.4779921,85.323748 77.9802527,85.5087214 78.1797219,85.923119 C78.3691459,86.3274794 78.2055525,86.8142891 77.8058965,87.0243557 C77.3804101,87.2337054 76.8731268,87.0594863 76.6628949,86.64007 Z M85.8671792,104.767458 C85.6619698,104.347324 85.8313034,103.835421 86.2567899,103.625355 C86.666491,103.431061 87.163729,103.589507 87.3840062,103.988849 C87.5841929,104.414001 87.4198819,104.925904 87.0152034,105.156045 C86.5846943,105.351773 86.0824337,105.177554 85.8671792,104.767458 Z M95.0714634,122.890544 C94.8662541,122.47041 95.0355877,121.958507 95.4610742,121.748441 C95.8707753,121.538374 96.378776,121.697537 96.5882905,122.111935 C96.7985224,122.521314 96.639234,123.028915 96.2245103,123.238265 C95.809069,123.448332 95.3017858,123.299923 95.0714634,122.890544 Z M104.300861,141.002875 C104.080584,140.608552 104.224087,140.121743 104.61872,139.901639 C104.633788,139.891601 104.649573,139.886583 104.664641,139.875829 C105.074342,139.665762 105.576603,139.829944 105.791857,140.239323 C106.002089,140.648702 105.837778,141.150567 105.428077,141.360634 C105.013353,141.571418 104.511093,141.412254 104.300861,141.002875 Z M149.348614,118.046106 C149.507185,117.605898 149.989355,117.37504 150.429909,117.51843 C150.860418,117.666839 151.090741,118.142895 150.942215,118.573065 C150.81952,119.003236 150.373226,119.24915 149.942717,119.125834 C149.927649,119.120816 149.911863,119.115797 149.901818,119.110778 C149.456241,118.972407 149.205111,118.506389 149.342874,118.061162 C149.348614,118.061162 149.348614,118.056143 149.348614,118.046106 L149.348614,118.046106 Z M65.7982806,134.872945 C65.4495682,134.571109 65.4187151,134.048451 65.7164839,133.700013 C65.7164839,133.700013 65.7164839,133.694994 65.7215065,133.694994 C66.0185577,133.336519 66.5466489,133.285615 66.9054065,133.582433 C67.2541188,133.895024 67.2950172,134.427718 66.9979659,134.785477 C66.6894344,135.128896 66.1620608,135.169763 65.7982806,134.872945 L65.7982806,134.872945 Z M81.2750823,148.094954 C80.9213473,147.798137 80.8754263,147.270461 81.1724776,146.911985 C81.4695289,146.558528 81.99762,146.512643 82.3563776,146.809461 C82.3614002,146.809461 82.3614002,146.81448 82.3664228,146.819498 C82.7101125,147.132089 82.7510109,147.659048 82.4589822,148.022542 C82.1569084,148.37098 81.6338398,148.401809 81.2851275,148.104275 L81.2750823,148.094954 Z M96.7059629,161.311945 C96.3572506,160.994336 96.3371602,160.456622 96.6550194,160.103166 C96.9570932,159.7705 97.4701166,159.734653 97.8181114,160.016415 C98.176869,160.323986 98.2127447,160.8617 97.9106709,161.219458 C97.6028569,161.583669 97.0596979,161.619517 96.7059629,161.311945 L96.7059629,161.311945 Z M119.173515,85.2879005 C119.147684,84.8218824 119.501419,84.417522 119.967804,84.3816745 C120.424144,84.3508456 120.823799,84.6942651 120.854653,85.149529 C120.905596,85.6004911 120.588455,86.0048514 120.132115,86.0607736 C120.12207,86.0607736 120.106284,86.0657923 120.096239,86.0657923 C119.629854,86.1166958 119.214413,85.7739932 119.168492,85.3129938 C119.168492,85.3029565 119.168492,85.2922022 119.168492,85.2922022 L119.168492,85.2871835 L119.173515,85.2871835 L119.173515,85.2879005 Z M120.742003,105.551085 C120.716172,105.085067 121.069907,104.680707 121.536292,104.644859 C121.997654,104.61403 122.392288,104.95745 122.423141,105.412714 C122.474084,105.863676 122.156943,106.268036 121.700603,106.323958 C121.690558,106.323958 121.674772,106.328977 121.664727,106.328977 C121.198342,106.374862 120.782901,106.037178 120.73698,105.576178 C120.73698,105.57116 120.73698,105.561122 120.73698,105.561122 L120.73698,105.551085 L120.742003,105.551085 Z M123.878261,146.082473 C123.857454,145.616455 124.211188,145.217113 124.672551,145.176247 C125.133913,145.145418 125.528546,145.488838 125.559399,145.944101 C125.58523,146.400082 125.251585,146.799424 124.806009,146.855346 C124.334601,146.896212 123.91916,146.55351 123.878261,146.087492 C123.878261,146.09251 123.873239,146.087492 123.878261,146.082473 L123.878261,146.082473 Z M87.2354806,175.731979 C87.4148593,175.424407 87.8044701,175.316865 88.1115665,175.496102 C88.4193805,175.670321 88.5270078,176.064645 88.347629,176.3715 C88.1782955,176.668317 87.7994475,176.770841 87.5016787,176.601641 C87.4966561,176.601641 87.4966561,176.601641 87.4916335,176.596622 C87.1945822,176.423837 87.0812148,176.04457 87.2354806,175.731979 Z M98.6640618,113.990315 C98.5715023,113.652631 98.7767116,113.304193 99.1153788,113.216725 C99.4483058,113.129974 99.7919956,113.324267 99.8895776,113.651914 C99.9871597,113.974542 99.8128035,114.312226 99.4899217,114.41475 C99.4691138,114.419768 99.4490233,114.424787 99.4282154,114.429806 C99.0995935,114.512972 98.7609263,114.317961 98.6640618,113.990315 L98.6640618,113.990315 Z M102.599632,128.773843 C102.512813,128.436159 102.722327,128.082702 103.060995,127.995234 C103.404684,127.908483 103.752679,128.117833 103.840216,128.456234 C103.932775,128.793918 103.732589,129.137337 103.399662,129.229824 C103.389617,129.234843 103.384594,129.234843 103.378854,129.234843 C103.040187,129.322311 102.697214,129.117263 102.599632,128.773843 Z M106.550988,143.588918 C106.464169,143.251234 106.673683,142.897777 107.01235,142.810309 C107.3503,142.723558 107.704035,142.932907 107.791572,143.271308 C107.879109,143.609709 107.668877,143.962449 107.33021,144.049917 C106.98652,144.131649 106.64857,143.926601 106.550988,143.588918 Z M74.0181341,135.241458 C73.8129248,134.959696 73.8696085,134.565373 74.1465693,134.355306 C74.4335754,134.166031 74.8131409,134.216935 75.033418,134.483641 C75.24365,134.760384 75.1869663,135.154707 74.9107229,135.369792 C74.9107229,135.369792 74.9107229,135.369792 74.9057003,135.374811 C74.6445248,135.584877 74.2549141,135.544011 74.0446821,135.282324 C74.038942,135.267268 74.0281793,135.252212 74.0181341,135.241458 L74.0181341,135.241458 Z M83.3300456,147.439661 C83.1198137,147.152881 83.1714748,146.753539 83.4426955,146.528416 C83.7196564,146.31835 84.1142897,146.374989 84.3295442,146.651015 C84.5447988,146.911985 84.508923,147.30129 84.2477475,147.511356 C84.2427249,147.516375 84.2326797,147.521393 84.2269396,147.526412 C83.9550013,147.751535 83.560368,147.715687 83.3350682,147.44468 L83.3300456,147.439661 Z M92.6577425,159.6013 C92.4475106,159.34033 92.4884089,158.951025 92.750302,158.740959 C92.7653698,158.730921 92.7761325,158.720167 92.7861777,158.715149 C93.0423306,158.500063 93.4218961,158.535911 93.6371507,158.791862 C93.6421733,158.8019 93.6522185,158.806918 93.6579586,158.817673 C93.8681905,159.104453 93.8165295,159.503795 93.5453087,159.728917 C93.2683479,159.938984 92.8737146,159.882345 92.65846,159.606319 L92.65846,159.6013 L92.6577425,159.6013 Z M128.439505,134.416964 C128.501212,134.063507 128.834139,133.822612 129.182851,133.88427 C129.520801,133.940909 129.75184,134.247764 129.720987,134.586164 C129.675066,134.939621 129.352184,135.190554 128.993427,135.144669 C128.638974,135.093049 128.392867,134.770421 128.439505,134.416964 L128.439505,134.416964 Z M91.8476679,164.210578 C91.7551084,164.041377 91.8117921,163.826292 91.9761031,163.729503 C92.1454367,163.631998 92.3606912,163.688637 92.4575558,163.857838 C92.5551378,164.027038 92.4984541,164.242123 92.3291206,164.338912 C92.3190754,164.34393 92.3140527,164.348949 92.30329,164.353968 C92.134674,164.430682 91.9402274,164.364005 91.8476679,164.210578 Z M95.7940012,171.568645 C95.7071819,171.410199 95.7681707,171.205151 95.927459,171.117683 C95.927459,171.117683 95.9324816,171.117683 95.9375042,171.112664 C96.0860299,171.020178 96.281194,171.066779 96.3680133,171.215188 C96.3780585,171.230244 96.3830811,171.246017 96.3938439,171.256055 C96.4914259,171.414501 96.4505276,171.624567 96.2912392,171.722073 C96.2862166,171.727091 96.2761714,171.73211 96.2654086,171.73211 C96.0910525,171.799503 95.8858431,171.732827 95.7940012,171.568645 L95.7940012,171.568645 Z M109.328489,163.252731 C109.302659,163.068475 109.436117,162.904293 109.620518,162.8792 C109.814965,162.858408 109.989321,162.99678 110.010129,163.19179 C110.035959,163.371028 109.912547,163.540228 109.728145,163.565322 C109.728145,163.565322 109.723123,163.565322 109.7181,163.565322 C109.523653,163.590415 109.349297,163.447025 109.328489,163.252731 Z M110.148609,171.589437 C110.127801,171.395143 110.266282,171.220924 110.461446,171.200132 C110.655892,171.179341 110.830249,171.317712 110.851056,171.512723 C110.871864,171.707734 110.733384,171.881236 110.53822,171.902027 C110.343056,171.922102 110.169417,171.778712 110.148609,171.589437 Z M91.2169721,147.531431 C91.1911415,147.21884 91.427204,146.942814 91.7450632,146.917004 C92.0320693,146.876138 92.2982674,147.07545 92.3341432,147.357212 C92.3341432,147.378003 92.3391658,147.393059 92.3391658,147.413851 C92.3901094,147.70565 92.1906401,147.982393 91.8986115,148.028278 C91.8835437,148.033296 91.8677583,148.033296 91.8526905,148.033296 C91.5506166,148.079181 91.2636106,147.869115 91.2219947,147.56226 C91.2169721,147.557241 91.2169721,147.547204 91.2169721,147.531431 Z M92.6728103,161.321982 C92.6218667,161.030183 92.821336,160.75344 93.1133646,160.707555 C93.1284324,160.702537 93.1442178,160.702537 93.1592856,160.702537 C93.4613595,160.656652 93.7483655,160.866718 93.7899814,161.173573 C93.7899814,161.173573 93.795004,161.199384 93.795004,161.21444 C93.8258572,161.52703 93.6005574,161.813811 93.2877208,161.849658 C92.9856469,161.880487 92.7086861,161.660383 92.6778329,161.35783 C92.6778329,161.347792 92.6778329,161.337038 92.6778329,161.337038 L92.6728103,161.321982 Z M94.0920553,175.097478 C94.0662247,174.784887 94.292242,174.503125 94.5993385,174.462259 C94.9071525,174.421393 95.1941585,174.641497 95.2350569,174.949069 C95.2350569,174.949069 95.2400795,174.964125 95.2350569,174.96986 C95.26591,175.282451 95.0406103,175.569231 94.7277737,175.605079 C94.4149371,175.635191 94.1336712,175.41437 94.0920553,175.097478 L94.0920553,175.097478 Z M114.719898,170.754906 C114.643124,170.621553 114.622316,170.463107 114.668955,170.309679 C114.766537,170.007843 115.084396,169.838643 115.391492,169.920375 C115.519928,169.971278 115.632577,170.058746 115.709352,170.176326 C115.724419,170.202137 115.724419,170.202137 115.714374,170.243003 C115.796171,170.360583 115.816979,170.508992 115.781103,170.647363 C115.683521,170.9492 115.365662,171.1184 115.058565,171.036668 C114.914345,170.980028 114.796672,170.882523 114.719898,170.754906 L114.719898,170.754906 Z" id="Shape" fill="#FFFFFF" fill-rule="nonzero" opacity="0.596314203" mask="url(#mask-3)"></path>
                    <g mask="url(#mask-3)">
                        <g transform="translate(64.925743, 86.212871)">
                            <path d="M48.0511329,6.91462792 C48.4052684,7.92910289 48.6252271,10.6292427 48.8276758,13.5493611 C49.6507674,12.6370885 50.911317,12.0566095 52.0773589,12.396735 C53.3012901,12.7536547 54.0820083,14.0239708 54.255079,15.2904824 C54.4278043,16.5569941 54.1120625,17.8338813 53.7987389,19.0730706 L51.1263335,29.6464715 L51.1263335,29.6464715 C51.0838431,29.8121349 51.0399709,29.9833318 50.9359903,30.1185601 C50.7421925,30.369649 50.3988147,30.4346693 50.0865274,30.484472 C44.9780472,31.2992142 39.8501208,32.7560662 35.3895056,35.3120976 C34.6902642,36.2112684 34.1496155,37.2313331 33.9971688,38.3277137 C33.7366991,40.1980838 34.1153129,42.0943927 34.5574896,43.9298316 C35.6539496,48.4802122 37.156314,52.9195742 38.6559147,57.352365 C40.0074139,61.346397 47.4641537,79.0255776 55.2187402,97.0062147 L56.7057913,100.44952 C64.9706304,119.560788 73.1530365,138.04641 74.261069,139.792792 C66.7133203,140.1006 49.1499243,141.252635 41.6018301,141.559406 C41.9075539,120.675452 29.0644807,61.4749261 23.4947817,41.3490807 C23.0698775,39.8128041 22.6377189,38.2336419 22.7931717,36.6472167 C22.9781682,34.7584529 23.5988287,32.2299299 25.0743371,31.0219202 C26.9310099,28.4946078 30.1484151,24.5158007 31.0221488,22.2984905 C31.7175408,20.534643 31.1368384,15.6868293 31.5555245,15.3423603 C31.973865,14.998583 32.3600787,16.5189503 32.8910362,16.4151946 C35.825984,15.8424629 39.0632009,16.2889584 41.6343892,14.7585614 C42.4240891,14.288202 43.2718248,13.0856731 44.1831233,13.2018795 C44.6759825,13.2647258 45.3864755,11.9174047 46.0676909,10.4434441 L46.2613139,10.0199753 C47.0950461,8.17962047 47.8478529,6.33252297 48.0511329,6.91462792 Z" id="Combined-Shape" stroke="#17212A" stroke-width="1.10839097" fill="#E9DAC1" fill-rule="nonzero"></path>
                            <g fill="#1D2933" fill-rule="nonzero" id="Path">
                                <polygon points="76.047135 39.7820233 59.3439108 38.4235149 50.8143917 20.8196254 62.0581157 4.82291234 78.7623762 6.18038318 77.9001317 16.847856 67.269237 15.9832249 63.1649392 21.8232892 66.2784849 28.2506111 76.9086887 29.1138588"></polygon>
                                <polygon points="16.7526236 34.9625695 0 33.6009484 0.861899082 22.9338214 11.5418478 23.8022569 15.646491 17.9618467 12.5325999 11.5345249 1.85334211 10.6664352 2.71489574 0 19.4678648 1.36196693 27.9966931 18.9655105"></polygon>
                                <polygon points="18.2487699 13.0732224 59.1936399 16.4020522 58.3313953 27.0677957 17.3865254 23.7389659"></polygon>
                            </g>
                            <path d="M42.8859565,20.2337514 C44.9600415,18.4114549 46.8399833,16.3667752 48.4832915,14.145365 C45.6740878,15.1915686 43.7378375,18.226078 43.9689439,21.2225435 C45.1134216,21.9028353 46.5408232,21.0523841 47.5391752,20.1711521 C49.8319304,18.1482612 51.8127438,15.7715632 53.3900709,13.1496558 C53.556578,12.8729738 53.7241216,12.5727739 53.710649,12.2500936 C53.6854311,11.6427767 53.0629292,11.2578429 52.5026085,11.0247384 C47.4269038,8.90881312 41.0975591,10.3212745 37.3950203,14.3954163 C36.223943,15.6840625 35.3133354,17.1867914 34.4728542,18.7144216 C33.9256606,19.709785 33.3902122,20.8701199 33.7684806,21.9415708 C38.2621011,20.4959076 42.2710546,17.5765671 45.0336225,13.7393342 C42.6192687,14.2684884 41.17494,16.6863429 40.0169898,18.8759347 C39.7523747,19.3763832 39.4808506,19.9546485 39.6756847,20.4865695 C39.8943549,21.0859318 40.6467461,21.3435919 41.2689026,21.2107846 C41.8914044,21.0765938 42.4071621,20.654308 42.8859565,20.2337514 Z" id="Path"></path>
                            <path d="M36.1275623,9.46667311 C36.5372666,8.69853483 36.9065532,7.64264732 36.265397,7.05608157 C35.5820959,6.4311262 34.5927255,5.93136942 33.7045722,6.1897212 C28.443706,7.71735144 26.1727142,12.6613121 25.2451796,17.3403499 C25.0949086,18.1001877 25.1342899,19.0813711 25.8369363,19.4037055 C26.2245318,19.5814737 26.6794902,19.4780638 27.0836673,19.3431814 C31.4228714,17.8957889 33.9702237,13.510034 36.1275623,9.46667311 Z" id="Path" stroke="#17212A" stroke-width="1.10839097" fill="#E9DAC1" fill-rule="nonzero"></path>
                            <path d="M41.9964214,8.93163938 C42.4061257,8.1635011 42.7754123,7.10761358 42.1342561,6.52104784 C41.4506095,5.89609247 40.4774754,5.4610101 39.5734313,5.65468747 C34.3125652,6.78112888 32.0415734,12.1262784 31.1143841,16.8053161 C30.9641131,17.5651539 31.0034945,18.5463373 31.7061409,18.8686718 C32.0937364,19.04644 32.5486947,18.9430301 32.9528719,18.8081476 C37.2917306,17.3607552 39.8394283,12.9753462 41.9964214,8.93163938 Z" id="Path" stroke="#17212A" stroke-width="1.10839097" fill="#E9DAC1" fill-rule="nonzero"></path>
                            <path d="M47.865626,8.93163938 C48.2753303,8.1635011 48.6446169,7.10761358 48.0034607,6.52104784 C47.3198141,5.89609247 46.3256075,5.37869722 45.4426359,5.65468747 C40.9821786,7.04847282 37.9107779,12.1262784 36.9832432,16.8053161 C36.8329723,17.5651539 36.8122452,19.0332976 37.5142007,19.3552862 C37.9017962,19.5330544 39.2435261,19.4901687 39.6483941,19.3552862 C43.9872528,17.9082396 45.7086328,12.9753462 47.865626,8.93163938 Z" id="Path" stroke="#17212A" stroke-width="1.10839097" fill="#E9DAC1" fill-rule="nonzero"></path>
                        </g>
                    </g>
                </g>
                <g id="Group" transform="translate(35.069851, 135.540751)"></g>
                <g id="Group-11" transform="translate(135.139187, 130.882907) rotate(20.000000) translate(-135.139187, -130.882907) translate(27.802456, 30.667602)" fill-rule="nonzero">
                    <g id="Group-10" transform="translate(114.221273, 17.000000) rotate(90.000000) translate(-114.221273, -17.000000) translate(97.221273, -33.500000)">
                        <path d="M28.5234566,101 C27.2104344,100.172156 25.8529809,99.3178028 24.529234,98.3975553 C10.177151,88.4702437 0.799077946,71.559655 0.0491078793,54.2590026 C-0.700862187,36.9583502 7.18416529,19.3168654 20.6223419,8.21633296 L22.7289994,10.7104687 C10.05688,21.1785677 2.62076213,37.8134608 3.32706693,54.1241845 C4.03337174,70.4349081 12.8752047,86.3828346 26.4060743,95.7413348 C27.6754312,96.6176528 29.0053066,97.4561005 30.2853883,98.268039 L28.5234566,101 Z" id="Path" fill="url(#linearGradient-4)"></path>
                        <polygon id="Path" fill="#17212A" points="19.5169213 24.4520735 34 0 4.11457381 11.8473341 18.5815653 12.7448594"></polygon>
                    </g>
                    <g id="Group-10" transform="translate(106.427727, 180.057578) rotate(-86.000000) translate(-106.427727, -180.057578) translate(89.550742, 129.350311)">
                        <path d="M28.3170554,101.414533 C27.0135346,100.583291 25.6659039,99.7254316 24.3517358,98.8014072 C10.1035072,88.8333511 0.793295667,71.8533565 0.0487525254,54.4816972 C-0.695790616,37.1100379 7.1321793,19.3961474 20.4731147,8.25005515 L22.564528,10.7544275 C9.98410656,21.2654906 2.6017978,37.9686581 3.30299165,54.3463257 C4.00418549,70.7239933 12.7820373,86.7373747 26.2149949,96.1342848 C27.4751665,97.0141994 28.7954187,97.8560884 30.0662375,98.6713593 L28.3170554,101.414533 Z" id="Path" fill="url(#linearGradient-5)"></path>
                        <polygon id="Path" fill="#17212A" points="19.3756931 24.5524318 33.7539696 0 4.08479997 11.895959 18.4471056 12.797168"></polygon>
                    </g>
                    <g id="Group-7" transform="translate(192.134035, 109.379595) rotate(100.000000) translate(-192.134035, -109.379595) translate(153.722528, 93.265446)" fill="#17212A">
                        <polygon id="Path" points="39.9669881 25.1661666 76.8230143 27.0187785 45.3826078 0 52.9329901 17.0621301"></polygon>
                        <path d="M2.17096661,32.228299 C1.63328326,32.228299 1.10092351,32.0328469 0.682640843,31.6358586 C-0.191950181,30.8099405 -0.229975878,29.4356918 0.590618657,28.5664244 C16.5226251,11.6837756 43.8129071,7.49030173 64.0798429,18.805228 C65.1285916,19.3915843 65.5027644,20.7118365 64.9164082,21.7605852 C64.330052,22.8093339 63.0097998,23.1835068 61.9610511,22.5971505 C43.6881828,12.390293 18.1197043,16.3229106 3.75207508,31.54916 C3.32238471,32.0001448 2.74667566,32.228299 2.17096661,32.228299 L2.17096661,32.228299 Z" id="Path"></path>
                    </g>
                    <g id="Group-7" transform="translate(22.539428, 85.803664) rotate(-80.000000) translate(-22.539428, -85.803664) translate(-15.872080, 69.689514)" fill="#17212A">
                        <polygon id="Path" points="39.9669881 25.1661666 76.8230143 27.0187785 45.3826078 -9.09494702e-13 52.9329901 17.0621301"></polygon>
                        <path d="M2.17096661,32.228299 C1.63328326,32.228299 1.10092351,32.0328469 0.682640843,31.6358586 C-0.191950181,30.8099405 -0.229975878,29.4356918 0.590618657,28.5664244 C16.5226251,11.6837756 43.8129071,7.49030173 64.0798429,18.805228 C65.1285916,19.3915843 65.5027644,20.7118365 64.9164082,21.7605852 C64.330052,22.8093339 63.0097998,23.1835068 61.9610511,22.5971505 C43.6881828,12.390293 18.1197043,16.3229106 3.75207508,31.54916 C3.32238471,32.0001448 2.74667566,32.228299 2.17096661,32.228299 L2.17096661,32.228299 Z" id="Path"></path>
                    </g>
                </g>
            </g>
        </g>
    </g>
</svg>