<svg height="40" width="117" xmlns="http://www.w3.org/2000/svg"><path d="M48.511 4.611c2.828 1.722 12.2 6.744 15.755 7.236 3.554.491 4.657-2.282 7.218-3.609 2.413-1.25 4.874-3.642 5.651-4.422l.14-.142c.565-.574 12.688 9.712 23.354 14.55 10.516 4.77 16.213 5.413 16.371 5.43H115.622l-.194-.001h-.42l-.227-.001h-.483l-.257-.001h-.541c-2.518-.005-6.117-.01-9.87-.02l-.836-.002-.419-.001-.84-.003-.838-.002c-6.003-.017-11.784-.042-13.591-.078-2.27-.044 2.813.406 8.503.803l.635.044c.53.037 1.063.072 1.594.107l.636.041c3.276.21 6.381.372 8.04.383h.303c.19 0 .354-.004.49-.01-5.52 1.9-7.66 1.966-7.896 1.967h-.023l-19.07.71 13.524 1.211-8.083 3.764-9.912.656 7.38.984s-3.932 1.913-6.356 2.898c-2.496-1.678-3.7-2.488-5.32-3.467l-.415-.25c-1.205-.719-2.692-1.566-5.066-2.912-1.347.447-2.394.786-3.403 1.036l-.275.066-.274.062-.274.057c-3.252.654-6.847.431-19.557-.059 6.612 1.504 12.661 2.195 12.661 2.195s-6.563 2.761-12.903 4.714l-.678.206c-1.692.506-3.35.946-4.844 1.249-2.64-2.022-6.14-4.373-6.14-4.373l9.857-1.149-14.707-1.202-8.941-4.81 9.264-.985-23.54-2.843 26.61-.765L0 23.218s9.696-7.627 13.413-7.38c3.38.223 5.113-1.647 6.675-3.222l.31-.31.155-.15c1.697-1.64 13.088-7.799 14.139-11.079 1.05-3.279 10.991 1.813 13.82 3.534zm28 20.518a1.54 1.54 0 0 0-1.128.469c-.347.346-.521.805-.521 1.376 0 .534.164.974.492 1.323.31.34.748.53 1.205.522.2.003.397-.032.584-.104.185-.079.353-.196.492-.342 0 .291-.03.497-.09.615a.668.668 0 0 1-.308.291c-.144.075-.337.113-.576.113a1.38 1.38 0 0 1-.486-.078.824.824 0 0 1-.335-.23h-.98c.07.234.194.447.36.624.169.173.373.306.6.388.236.088.529.132.877.132.652 0 1.14-.194 1.463-.581.24-.288.36-.736.36-1.343V25.22h-.885v.396a1.849 1.849 0 0 0-.547-.375 1.496 1.496 0 0 0-.577-.113zm-40.674 0c-.462 0-.872.163-1.229.489-.406.375-.61.844-.61 1.406-.008.501.187.985.54 1.337.36.367.795.55 1.303.55.345 0 .661-.082.949-.25.286-.165.511-.396.678-.692s.25-.612.25-.952a1.88 1.88 0 0 0-1.88-1.888zm21.557-.001c-.526 0-.963.182-1.311.545-.35.362-.523.818-.523 1.367 0 .536.175.982.524 1.338.35.356.803.533 1.359.533.359 0 .668-.064.928-.193.271-.137.503-.343.672-.597l-.75-.357c-.238.237-.524.354-.857.354-.278 0-.506-.076-.685-.226a.97.97 0 0 1-.332-.611h2.859l.003-.171c0-.596-.175-1.075-.525-1.437-.35-.363-.804-.545-1.362-.545zm-10.708-1.297h-.889v1.786a1.664 1.664 0 0 0-.518-.366 1.464 1.464 0 0 0-.598-.123c-.463 0-.856.179-1.179.533-.323.354-.484.81-.484 1.365 0 .537.167.984.5 1.345.335.36.73.54 1.19.54.203 0 .392-.036.566-.11.195-.087.372-.21.523-.362v.38h.89zm18.746.001h-.888v4.987h.888v-1.658l1.507 1.658h1.105l-1.71-1.873 1.527-1.725h-1.117l-1.312 1.483zM54.59 25.13a.786.786 0 0 0-.45.138.963.963 0 0 0-.329.407v-.453h-.762v3.598h.883v-1.454l-.003-.176c0-.503.047-.84.142-1.013.094-.171.21-.257.347-.257a.61.61 0 0 1 .257.078l.277-.776a.826.826 0 0 0-.362-.092zm-12.552-1.297h-.89v4.987h.89zm-1.927 1.297a.786.786 0 0 0-.45.138.958.958 0 0 0-.328.407v-.453h-.764v3.598h.883v-1.454l-.002-.176c0-.503.047-.84.141-1.013.095-.171.21-.257.348-.257.066 0 .152.026.257.078l.276-.776a.821.821 0 0 0-.36-.092zm29.423.093h-.89v3.598h.89zm-8.306-1.39h-.89v4.987h.89v-1.658l1.506 1.658h1.104l-1.71-1.873 1.527-1.725h-1.117l-1.31 1.483zm-32.764.123h-.896l1.084 4.864h.867l.867-3.145.883 3.145h.876l1.08-4.864h-.899l-.686 3.105-.868-3.105h-.76l-.855 3.105zm44.153 1.174c-.172 0-.34.033-.502.1a2.11 2.11 0 0 0-.549.361v-.369l-.89.001v3.597h.89v-1.444c0-.374.013-.617.039-.729a.984.984 0 0 1 .27-.508.648.648 0 0 1 .461-.182.555.555 0 0 1 .35.109c.1.083.169.197.198.324.039.14.057.425.057.854v1.576h.88v-2.378c0-.413-.103-.727-.31-.939a1.205 1.205 0 0 0-.894-.373zm-20.221-1.174h-2.649v.913h.85v3.95h.926v-3.95h.873zm-7.534 2.007c.282 0 .514.096.698.292.185.193.276.447.276.76 0 .32-.091.578-.276.775a.912.912 0 0 1-.695.296c-.27 0-.498-.101-.683-.3-.186-.202-.279-.457-.279-.768 0-.31.092-.561.273-.759a.89.89 0 0 1 .686-.296zm-9.01.017c.283 0 .516.096.697.289.182.193.273.443.273.752 0 .31-.093.561-.277.757a.919.919 0 0 1-.696.296.906.906 0 0 1-.69-.293c-.183-.193-.273-.446-.273-.76 0-.304.092-.554.276-.75a.909.909 0 0 1 .69-.29zm40.861-.006c.284 0 .517.093.697.28.18.188.27.431.27.73 0 .305-.089.55-.269.738a.9.9 0 0 1-.682.282.943.943 0 0 1-.704-.288 1.015 1.015 0 0 1-.28-.737c0-.29.09-.53.274-.72a.916.916 0 0 1 .694-.286zm-19.274-.08c.228 0 .429.063.601.187a.91.91 0 0 1 .347.49H56.46c.1-.222.21-.378.326-.466.188-.141.405-.211.654-.211zm24.847-10.166h-1.76l2.608 6.44-1.41 3.066H83.5l4.295-9.506h-1.763l-1.966 4.367zm-25.666-.18c-.896 0-1.687.316-2.377.947-.786.725-1.179 1.632-1.179 2.72 0 1.015.348 1.878 1.043 2.588.696.71 1.536 1.064 2.519 1.064.668 0 1.28-.16 1.834-.482a3.524 3.524 0 0 0 1.316-1.341 3.71 3.71 0 0 0 .481-1.843c0-.652-.159-1.26-.48-1.823a3.525 3.525 0 0 0-1.333-1.336 3.593 3.593 0 0 0-1.824-.494zm15.5 0c-1.016 0-1.862.35-2.536 1.053-.674.702-1.012 1.584-1.012 2.646 0 1.035.338 1.898 1.015 2.587.677.688 1.553 1.033 2.63 1.033.693 0 1.29-.125 1.796-.375.504-.248.937-.634 1.298-1.154l-1.45-.69a2.276 2.276 0 0 1-1.658.683c-.539 0-.98-.145-1.327-.437-.346-.292-.559-.686-.64-1.181h5.529l.007-.333c0-1.15-.339-2.077-1.015-2.78-.677-.701-1.555-1.051-2.636-1.051zm-23.438 0c-.734 0-1.4.163-1.994.486a3.54 3.54 0 0 0-1.39 1.337 3.618 3.618 0 0 0-.498 1.862c0 .973.34 1.822 1.024 2.547.683.725 1.627 1.087 2.834 1.087 1.34 0 2.378-.485 3.114-1.457l-1.357-.942c-.43.533-1.029.8-1.8.8-.622 0-1.125-.187-1.507-.562-.384-.374-.576-.858-.576-1.45 0-.609.2-1.109.596-1.498.399-.39.92-.584 1.564-.584.352 0 .661.055.924.166.264.11.53.309.799.595l1.433-.8a3.503 3.503 0 0 0-1.33-1.174c-.544-.276-1.154-.412-1.836-.412zm-7.287 0c-.651 0-1.186.196-1.604.586-.419.39-.628.86-.628 1.411 0 .852.555 1.563 1.664 2.129l.58.295c.501.256.75.519.75.788 0 .145-.068.271-.207.383-.139.111-.322.166-.549.166-.21 0-.45-.074-.722-.22a2.434 2.434 0 0 1-.708-.58l-1.06 1.17c.597.795 1.395 1.19 2.396 1.19.753 0 1.352-.206 1.8-.62.447-.413.671-.928.671-1.547 0-.465-.124-.87-.373-1.217-.248-.344-.702-.683-1.367-1.016l-.63-.32c-.274-.136-.444-.244-.514-.323a.386.386 0 0 1-.105-.26c0-.123.056-.226.165-.31.108-.083.26-.124.453-.124.353 0 .746.218 1.18.652l1.065-1.08a2.77 2.77 0 0 0-2.257-1.153zm38.342 0a1.519 1.519 0 0 0-.869.27c-.266.178-.478.441-.639.786v-.876h-1.474v6.96h1.709v-2.815l-.007-.339c0-.972.091-1.624.274-1.957.183-.333.407-.5.672-.5.13 0 .297.051.497.154l.537-1.503a1.598 1.598 0 0 0-.7-.18zm-17.055.18h-1.754l2.926 6.96h1.116l2.918-6.96h-1.745l-1.729 4.107zm-24.792 0h-1.721v6.96h1.72zm-8.286-2.45h-2.09v9.41h2.122c1.2 0 2.045-.077 2.532-.23.487-.154.939-.431 1.357-.832.418-.401.746-.904.983-1.513a5.455 5.455 0 0 0 .356-1.999c0-1.02-.213-1.912-.637-2.674-.424-.763-.962-1.315-1.618-1.654-.655-.339-1.657-.508-3.005-.508zm83.201 3.521c1.362 0 2.466 1.114 2.466 2.489s-1.104 2.488-2.466 2.488-2.466-1.114-2.466-2.488 1.104-2.489 2.466-2.489zm0 .505c-1.085 0-1.965.888-1.965 1.984s.88 1.983 1.965 1.983 1.965-.888 1.965-1.983-.88-1.984-1.965-1.984zm-56.157-.112c.547 0 .997.187 1.348.56s.527.859.527 1.456-.179 1.086-.536 1.465c-.357.38-.807.57-1.345.57s-.985-.188-1.336-.563c-.351-.377-.528-.867-.528-1.472 0-.588.179-1.072.534-1.45a1.76 1.76 0 0 1 1.336-.565zm-26.784-2.187c1.098 0 1.894.247 2.39.743.55.55.826 1.325.826 2.325 0 .648-.116 1.195-.347 1.639-.231.444-.528.76-.892.948-.363.188-.948.281-1.755.281h-.82v-5.936zm82.876 2.923c.34 0 .588.059.746.174.16.114.238.297.238.547 0 .171-.04.313-.123.424a.714.714 0 0 1-.373.243c.092.022.173.07.245.143.073.074.146.185.218.336l.363.738h-.708l-.316-.647a.695.695 0 0 0-.192-.265.43.43 0 0 0-.261-.073h-.187v.985h-.666v-2.605zm-.07.488h-.28v.67h.28c.138 0 .237-.029.298-.081.06-.05.092-.137.092-.258 0-.118-.032-.202-.092-.255-.06-.05-.16-.076-.298-.076zm-40.464-1.39c.443 0 .831.122 1.165.365.325.229.562.563.673.947h-3.732c.194-.432.404-.731.631-.903.363-.272.784-.409 1.263-.409zm5.16-12.565-.01.006c-.451.837-4.512 3.939-5.71 4.374-.788.286-4.256 3.472-4.256 3.472-.64.553 10.774.846 11.043.464.257-.364-6.098-2.717-6.69-2.935l-.044-.017s1.509-.874 5.064-.6c3.556.272 20.133 7.68 18.948 7.023-.592-.327-5.615-2.936-9.858-6.066-4.21-3.105-8.406-5.883-8.498-5.715zm-30.036.228C41.324 1.435 36.676.485 36.3.547c-.996.164-.929 1.763-3.71 4.001-2.228 2.108-10.51 6.884-11.764 8.34.51.098 3.403-1.388 5.937-2.661l.827-.414c1.614-.803 2.932-1.423 3.142-1.328.42.189 1.322 1.303 2.264 2.503l.531.678c1.059 1.352 2.062 2.613 2.376 2.587.434-.037 1.276-1.684 2.11-3.383l.263-.537c.74-1.515 1.44-2.94 1.802-3.16.877-.533 4.067 2.651 4.471 2.597.323-.028.323-3.881 1.509-3.664 1.185.22 14.436 6.187 15.352 5.531-7.002-2.623-9.467-4.451-14.08-6.95z" fill="#fff"/></svg>