<svg height="397.763" width="352.67" xmlns="http://www.w3.org/2000/svg"><linearGradient id="a" gradientUnits="objectBoundingBox" x1=".5" x2=".5" y2="1"><stop offset="0" stop-color="#f5f6f0"/><stop offset="1" stop-color="#ea593f"/></linearGradient><linearGradient id="b" gradientUnits="objectBoundingBox" x1=".685" x2="-.323" y1=".487" y2=".682"><stop offset="0" stop-color="#f5f6f0"/><stop offset=".696" stop-color="#d6d5d5"/><stop offset="1" stop-color="#d8d8d8"/></linearGradient><linearGradient id="c" gradientUnits="objectBoundingBox" x1=".5" x2=".5" y1=".78" y2=".08"><stop offset="0" stop-color="#2e3f4d"/><stop offset=".478" stop-color="#2e3f4d"/><stop offset="1" stop-color="#17212a"/></linearGradient><g stroke="#17212a" stroke-miterlimit="10"><path d="M205.48 135.716s-12.8 10.184-17.606 11.809-16.385-9.505-16.385-9.505l21.838-12.671z" fill="#fff" stroke-width="1.423"/><path d="M138.873 125.181s23.024 4.524 28.606 2.377 13.311-5.367 18.679-3.65 20.611 10.95 21.47 14.6-16.532 9.232-19.753 8.158-15.243-9.232-24.046-7.085-26.623 10.95-26.623 10.95zM260.036 43.949s5.462 8.64 5.062 15.556c0 0 7.713 3.325 12.767-7.049l-4.788-10.107z" fill="#e9dac1" stroke-width="1.05"/><path d="M253.736 15.535s-5.012 8.771-8.592 11.278-.985 4.028 1.432 4.386c0 0 5.281 19.374 26.5 11.15l6.51-12.607-3.463-11.778-14 3.465z" fill="#e9dac1" stroke-width="1.05"/></g><path d="M275.297 365.295h-25.115s-13.11 12.3-27.153 18.323-18.257 14.145-18.257 14.145h82.164z" fill="#17212a"/><path d="M329.283 365.295h-26.706s-11.519 12.3-25.562 18.324-18.257 14.145-18.257 14.145h82.164z" fill="#17212a"/><path d="M56.494 33.748c-8.929 39.188-7.422 33.282-12.027 67.687-3.651 27.274-1.61 15.836-2.986 44.692s2.2 62.139-16.36 80.353L0 226.5s.767-77.536 1.188-102.413c.347-21.592 2.546-46.872 4.184-62.774.093-.908.215-1.816.374-2.723C7.73 47.319 8.274 43.426 9.238 36.9 9.341 36.248 15.12.58 15.213 0c9.5 4.862 7.716 6.1 20.489 7.609 0 0 11.824 2.367 18.545-.339.646-.252 1.31-.506 2.012-.758a26.363 26.363 0 0 0 3.6-1.628c.182 7.431-.642 16.916-3.365 28.864z" fill="url(#a)" transform="translate(250.176 138.796)"/><path d="M306.67 172.544c-8.929 39.188-7.422 33.282-12.027 67.687-3.651 27.274-1.61 15.836-2.986 44.692s2.2 62.139-16.36 80.353l-25.121.02s.767-77.536 1.188-102.413c.347-21.592 2.546-46.872 4.184-62.774.093-.908.215-1.816.374-2.723 1.984-11.271 2.528-15.164 3.492-21.69.103-.652 5.882-36.32 5.975-36.9 9.5 4.862 7.716 6.1 20.489 7.609 0 0 11.824 2.367 18.545-.339.646-.252 1.31-.506 2.012-.758a26.363 26.363 0 0 0 3.6-1.628c.182 7.431-.642 16.916-3.365 28.864z" fill="#1d918b"/><path d="M306.67 172.544c-8.929 39.188-7.422 33.282-12.027 67.687-3.651 27.274-1.61 15.836-2.986 44.692s2.2 62.139-16.36 80.353l-25.121.02s.767-77.536 1.188-102.413c.347-21.592 2.546-46.872 4.184-62.774.093-.908.215-1.816.374-2.723 1.984-11.271 2.528-15.164 3.492-21.69.103-.652 5.882-36.32 5.975-36.9 9.5 4.862 7.716 6.1 20.489 7.609 0 0 11.824 2.367 18.545-.339.646-.252 1.31-.506 2.012-.758a26.363 26.363 0 0 0 3.6-1.628c.182 7.431-.642 16.916-3.365 28.864z" fill="#1d918b" stroke="#17212a" stroke-miterlimit="10" stroke-width="1.05"/><path d="M72.759 169.532c-6.056-16.108-11.437-10.955-10.211-24.011s-1.638-21.508-6.948-35.313c-5.3-13.824-17.549-20.348-1.226-66.022 6.083-17.006 8.031-30.222 8.087-40.124a126.02 126.02 0 0 1-11.615.589L9.256 0 4.482 32.59a278.28 278.28 0 0 0-1.123 6.982C.5 59.161-1.125 82.953.906 102.907 2.956 122.871 49.562 224.8 49.562 224.8h26.706s2.213-40.047-3.509-55.268z" fill="url(#a)" transform="translate(253.015 140.5)"/><path d="M325.774 310.032c-6.056-16.108-11.437-10.955-10.211-24.011s-1.638-21.508-6.948-35.313c-5.3-13.824-17.549-20.348-1.226-66.022 6.083-17.006 8.031-30.222 8.087-40.124a126.02 126.02 0 0 1-11.615.589l-41.59-4.651-4.774 32.59a278.28 278.28 0 0 0-1.123 6.982c-2.859 19.589-4.484 43.381-2.453 63.335 2.05 19.964 48.656 121.893 48.656 121.893h26.706s2.213-40.047-3.509-55.268z" fill="#1d918b"/><path d="M325.774 310.032c-6.056-16.108-11.437-10.955-10.211-24.011s-1.638-21.508-6.948-35.313c-5.3-13.824-17.549-20.348-1.226-66.022 6.083-17.006 8.031-30.222 8.087-40.124a126.02 126.02 0 0 1-11.615.589l-41.59-4.651-4.774 32.59a278.28 278.28 0 0 0-1.123 6.982c-2.859 19.589-4.484 43.381-2.453 63.335 2.05 19.964 48.656 121.893 48.656 121.893h26.706s2.213-40.047-3.509-55.268z" fill="#1d918b" stroke="#17212a" stroke-miterlimit="10" stroke-width="1.05"/><path d="M285.168 192.779a.328.328 0 0 1 .3-.344.317.317 0 0 1 .339.292.328.328 0 0 1-.3.345h-.032a.308.308 0 0 1-.307-.293zm10.973-5.188a.337.337 0 1 1 .144-.658.335.335 0 0 1 .257.4.336.336 0 0 1-.4.257zm-25.419-.134a.316.316 0 0 1-.2-.4c0-.008 0-.017.007-.025a.31.31 0 0 1 .393-.188.344.344 0 0 1 .209.415.325.325 0 0 1-.41.2zm7.589-1.1h-.012a.277.277 0 0 1-.2-.341.015.015 0 0 1 0-.006.287.287 0 0 1 .342-.216h.005a.291.291 0 1 1-.141.564zm6.33-1.394a.321.321 0 0 1 .292-.346.342.342 0 0 1 .351.305v.001a.321.321 0 0 1-.3.339h-.018a.322.322 0 0 1-.326-.303zm15.492-.054a.324.324 0 0 1 .155-.432l.009-.005a.316.316 0 0 1 .423.147.334.334 0 0 1-.152.436l-.014.006a.313.313 0 0 1-.419-.148zm-8.837.087a.338.338 0 0 1-.233-.407s0-.005 0-.007a.326.326 0 0 1 .392-.243.335.335 0 0 1 .244.409.353.353 0 0 1-.34.254.358.358 0 0 1-.064-.009zm1.65-1.973a.305.305 0 0 1 .233-.343.3.3 0 0 1 .337.246.3.3 0 0 1-.243.33.291.291 0 0 1-.045 0 .284.284 0 0 1-.282-.233zm-18.769-1.781a.33.33 0 0 1-.059-.462l.009-.013a.325.325 0 0 1 .454-.064.336.336 0 1 1-.4.54zm-.992-1.219a.327.327 0 0 1-.2-.413v-.007a.32.32 0 0 1 .408-.193.317.317 0 0 1 .2.4.343.343 0 0 1-.408.213zm24.516-.327a.342.342 0 0 1-.259-.388.354.354 0 0 1 .4-.273.344.344 0 0 1 .257.4.337.337 0 0 1-.328.269.333.333 0 0 1-.069-.003zm-17.824-.163h-.011a.279.279 0 0 1-.2-.342.017.017 0 0 0 0-.006.285.285 0 0 1 .342-.215.3.3 0 0 1 .205.355.284.284 0 0 1-.342.21zm16.8-1.642a.325.325 0 0 1 .155-.432h.01a.316.316 0 0 1 .422.147.333.333 0 0 1-.152.435l-.014.006a.313.313 0 0 1-.419-.148zm-14.012-.401a.33.33 0 0 1-.088-.456.113.113 0 0 1 .01-.015.318.318 0 0 1 .444-.086l.01.007a.333.333 0 0 1-.188.609.33.33 0 0 1-.188-.059zm-15.454-.055h-.005a.289.289 0 0 1-.066-.4.293.293 0 0 1 .4-.061l.007.005a.285.285 0 0 1 .052.4l-.014.01a.268.268 0 0 1-.378.046zm16.889-.284a.346.346 0 0 1 .3-.356.324.324 0 0 1 .339.305.034.034 0 0 1 0 .01.318.318 0 0 1-.3.334h-.033a.309.309 0 0 1-.306-.293zm9.081-.019a.325.325 0 0 1-.234-.4v-.022a.319.319 0 0 1 .389-.228h.02a.321.321 0 0 1 .226.392.334.334 0 0 1-.4.247zm-1.365-1.009a.306.306 0 0 1 .233-.342.289.289 0 0 1 .326.245v.014a.278.278 0 0 1-.234.316.286.286 0 0 1-.046 0 .283.283 0 0 1-.279-.233zm11.414-.714a.3.3 0 0 1 .091-.409.292.292 0 0 1 .3.5.286.286 0 0 1-.4-.087zm-24.331-.7a.332.332 0 0 1-.072-.464l.009-.013a.324.324 0 0 1 .454-.064.338.338 0 0 1 .074.466.332.332 0 0 1-.464.073zm17.161-1.133a.251.251 0 0 1-.13-.322.212.212 0 0 1 .012-.031.239.239 0 0 1 .32-.1.25.25 0 0 1 .129.322.048.048 0 0 1 0 .01.245.245 0 0 1-.326.12zm8.231-.58a.336.336 0 0 1 .664-.1.342.342 0 0 1-.284.383h-.052a.331.331 0 0 1-.328-.283zm-22.843-.273-.026-.006a.272.272 0 0 1-.182-.338s0 0 0-.005a.284.284 0 0 1 .341-.216.292.292 0 0 1 .208.345s0 0 0 .005a.284.284 0 0 1-.341.216zm-5.785-.133h-.013a.324.324 0 1 1 .412-.2v.016a.309.309 0 0 1-.394.185zm-6.193-.436-.019-.008a.16.16 0 0 1-.066-.214.164.164 0 0 1 .211-.1.173.173 0 0 1 .1.225.17.17 0 0 1-.159.108.172.172 0 0 1-.067-.011zm17.141-.168a.171.171 0 0 1 .088-.221.166.166 0 0 1 .217.09.171.171 0 0 1-.088.222.165.165 0 0 1-.063.013.166.166 0 0 1-.154-.104zm12.649-.18a.331.331 0 0 1 .124-.65.344.344 0 0 1 .271.389.335.335 0 0 1-.4.261zm-28.036-.07a.284.284 0 0 1-.052-.4.28.28 0 0 1 .391-.075.034.034 0 0 1 .011.008.285.285 0 0 1 .06.4l-.011.014a.284.284 0 0 1-.4.051zm19.074-.023a.193.193 0 0 1-.142-.23.21.21 0 0 1 .229-.16.2.2 0 0 1 .14.241.091.091 0 0 1 0 .023.181.181 0 0 1-.172.129.176.176 0 0 1-.056-.004zm-12.271-.212a.174.174 0 1 1 .173.175.176.176 0 0 1-.174-.175zm15.2-.612a.332.332 0 0 1 .141-.436.339.339 0 0 1 .444.143.35.35 0 0 1-.155.446.324.324 0 0 1-.136.03.328.328 0 0 1-.296-.183zm-6.129-.1a.333.333 0 0 1-.094-.46.089.089 0 0 1 .01-.015.319.319 0 0 1 .444-.086h.006a.334.334 0 0 1 .091.465.333.333 0 0 1-.457.092zm3.527-.544a.169.169 0 1 1 .015-.337.166.166 0 0 1 .16.174.168.168 0 0 1-.167.16zm-7.051-.917a.321.321 0 0 1 .292-.346.322.322 0 1 1 .051.642h-.026a.321.321 0 0 1-.319-.293zm16 .154a.3.3 0 0 1 .091-.408.285.285 0 0 1 .27-.022h.019a.189.189 0 0 1 .213.161.178.178 0 0 1-.084.187.245.245 0 0 1-.116.171.284.284 0 0 1-.15.043.288.288 0 0 1-.249-.129zm-8.889-.259v-.015a.279.279 0 0 1 .234-.316h.02a.271.271 0 0 1 .307.235.286.286 0 0 1-.231.33.289.289 0 0 1-.047 0 .282.282 0 0 1-.283-.234zm4.393.058a.337.337 0 1 1 .394-.249s0 0 0 .007a.326.326 0 0 1-.317.251.329.329 0 0 1-.076-.005zm-10.048-1.106a.174.174 0 0 1 .1-.22l.02-.008a.156.156 0 0 1 .2.1.168.168 0 0 1-.088.221.183.183 0 0 1-.23-.09zm-1.414 0a.353.353 0 0 1-.073-.478l.008-.011a.323.323 0 0 1 .453-.054.334.334 0 0 1-.388.543zm19.207-.21h-.005a.322.322 0 0 1-.023-.455.311.311 0 0 1 .44-.027.336.336 0 0 1 .041.461l-.008.009a.317.317 0 0 1-.448.022zm-4.394.036a.259.259 0 0 1-.128-.334v-.009a.245.245 0 0 1 .326-.121.258.258 0 0 1 .128.334.253.253 0 0 1-.33.13zm-20.409-.632a.179.179 0 0 1 .175-.175.187.187 0 0 1 .173.175.168.168 0 0 1-.173.163h-.016a.162.162 0 0 1-.159-.163zm13.283-.256a.194.194 0 0 1-.142-.23.212.212 0 0 1 .23-.156.217.217 0 0 1 .152.243.2.2 0 0 1-.239.14zm7.211-.558a.028.028 0 0 0 0-.007.166.166 0 0 1 .1-.212.08.08 0 0 1 .017-.006.16.16 0 0 1 .2.106.174.174 0 0 1-.1.22.181.181 0 0 1-.218-.1zm-15.535-.3a.166.166 0 0 1-.08-.22.158.158 0 0 1 .01-.022.155.155 0 0 1 .211-.065.166.166 0 0 1 .08.22v.006a.163.163 0 0 1-.217.081zm7.79-.127a.168.168 0 0 1-.161-.175v-.013a.163.163 0 0 1 .174-.151.173.173 0 0 1 .168.176.178.178 0 0 1-.176.161zm-7.754-.219a.288.288 0 0 1-.216-.346.3.3 0 0 1 .343-.221.306.306 0 0 1 .217.358.288.288 0 0 1-.344.21zm-.6-.2a.193.193 0 0 1-.051-.267l.008-.014a.183.183 0 0 1 .255-.044.2.2 0 0 1 .054.276.192.192 0 0 1-.266.049zm10.08-.328-.01-.009a.159.159 0 0 1 .008-.224s.008-.01.013-.014a.155.155 0 0 1 .22.011l.011.01a.159.159 0 0 1-.008.224.1.1 0 0 1-.014.014.153.153 0 0 1-.1.04.156.156 0 0 1-.122-.05zm10.573-.352a.332.332 0 0 1 .275-.383h.008a.326.326 0 0 1 .37.275.331.331 0 1 1-.653.108zm-24.937.118h-.013a.311.311 0 0 1-.186-.4.325.325 0 0 1 .4-.214.335.335 0 0 1 .209.415.325.325 0 0 1-.41.2zm20.834-.5a.214.214 0 0 1 .16-.235.192.192 0 0 1 .221.159.188.188 0 0 1-.147.224.2.2 0 0 1-.234-.149zm-15.5-.284c0-.006-.005-.011-.007-.016a.173.173 0 1 1 .226.105.164.164 0 0 1-.062.012.166.166 0 0 1-.162-.097zm8.052-.279a.334.334 0 0 1 .367-.557l.009.006a.334.334 0 1 1-.376.551zm-3.992-.025-.012-.011a.25.25 0 0 1 .016-.351l.009-.009a.237.237 0 0 1 .337.022.246.246 0 0 1-.005.347l-.008.008a.239.239 0 0 1-.339-.01zm2.249-.181a.335.335 0 0 1 .141-.437.326.326 0 0 1 .43.153l.008.014a.308.308 0 0 1-.148.41l-.012.006a.315.315 0 0 1-.42-.148zm11.043.031a.333.333 0 0 1-.259-.387s0-.005 0-.008a.325.325 0 0 1 .382-.255h.007a.324.324 0 0 1 .251.385.1.1 0 0 1 0 .022.317.317 0 0 1-.38.241zm-4.908-.351a.308.308 0 0 1 .091-.409.285.285 0 0 1 .393.089.29.29 0 1 1-.484.319zm1.061-.719a.333.333 0 0 1-.029-.461.324.324 0 0 1 .488.427.326.326 0 0 1-.459.034zm-7.326-.344h-.012a.042.042 0 0 1-.032-.016.168.168 0 0 1-.049-.148.294.294 0 0 1 .242-.33.283.283 0 0 1 .325.233.287.287 0 0 1-.231.33.268.268 0 0 1-.057.006.277.277 0 0 1-.189-.072zm2.671.015a.193.193 0 0 1-.142-.23.211.211 0 0 1 .229-.155.193.193 0 0 1 .142.23c0 .01 0 .02-.005.03a.182.182 0 0 1-.224.125zm-7.642-.016a.163.163 0 0 1-.074-.22.206.206 0 0 1 .009-.021.157.157 0 0 1 .212-.066.168.168 0 0 1 .082.221.177.177 0 0 1-.159.1.173.173 0 0 1-.074-.012zm16.127-.071a.258.258 0 0 1-.127-.334.255.255 0 0 1 .33-.13.258.258 0 0 1 .127.334.253.253 0 0 1-.33.13zm-9.877-.423a.166.166 0 0 1-.163-.171v-.011a.161.161 0 0 1 .173-.15.167.167 0 0 1 0 .334zm-5.838-.159-.009-.006a.185.185 0 0 1-.047-.258.193.193 0 1 1 .317.22.093.093 0 0 1-.011.015.178.178 0 0 1-.25.03zm-2.038-.33a.317.317 0 0 1 .291-.341.327.327 0 0 1 .341.3.176.176 0 0 1 0 .021.316.316 0 0 1-.306.327h-.012a.316.316 0 0 1-.314-.307zm5.285.135a.359.359 0 0 1-.073-.478l.007-.01a.322.322 0 0 1 .453-.055.186.186 0 0 1 .022.015.321.321 0 0 1 .053.451.333.333 0 0 1-.462.076zm15.5-.568a.181.181 0 0 1 .011-.245.174.174 0 0 1 .242.01.18.18 0 0 1-.01.245.177.177 0 0 1-.116.043.175.175 0 0 1-.123-.053zm-21.939-.522a.183.183 0 0 1 .092-.233.166.166 0 0 1 .217.09.186.186 0 0 1-.09.233.167.167 0 0 1-.218-.09zm-.583-.817a.333.333 0 0 1 .1-.455l.019-.013a.314.314 0 0 1 .433.1s.006.01.01.015a.331.331 0 0 1-.559.354z" fill="#fff" opacity=".86"/><path d="M34.537 9.434S45.062 34.9 0 66.172c0 0 16.093 25.29 28.508 25.75 0 0 32.784-23.28 17.208-91.922z" fill="url(#b)" transform="translate(230.562 50.07)"/><path d="M265.099 59.504s10.525 25.466-34.537 56.738c0 0 16.093 25.29 28.508 25.75 0 0 32.784-23.28 17.208-91.922z" fill="#8edc97" stroke="#17212a" stroke-miterlimit="10" stroke-width="1.05"/><path d="M15.615 9.528S17.526 66.685 0 93.822c0 0 40.14 29.4 69.538 11.872 0 0-8.959-80.051-41.68-105.694S16.554 7.836 15.615 9.528z" fill="url(#b)" transform="translate(249.483 49.976)"/><path d="M265.098 59.504s1.911 57.157-15.615 84.294c0 0 40.14 29.4 69.538 11.872 0 0-8.959-80.051-41.68-105.694s-11.304 7.836-12.243 9.528z" fill="#8edc97" stroke="#17212a" stroke-miterlimit="10" stroke-width="1.05"/><path d="M14.981 0s59.295 34.018 59.295 114.3c0 0-23.745 3.392-44.662-9.611 0 0-11.171-75.869-29.613-93.339z" fill="url(#b)" transform="translate(265.098 48.156)"/><path d="M280.079 48.156s59.295 34.018 59.295 114.3c0 0-23.745 3.392-44.662-9.611 0 0-11.171-75.869-29.613-93.339z" fill="#8edc97" stroke="#17212a" stroke-miterlimit="10" stroke-width="1.05"/><path d="M2.034 16.455C2.875 6.28 12.919.255 22.5 2.551c9.1 2.182 14.63 10.346 16.033 19.19.2 1.287 2.16.74 1.957-.54C38.814 10.65 31.336 1.3 20.241.11A18.105 18.105 0 0 0 0 16.454c-.108 1.3 1.922 1.3 2.029 0z" fill="url(#c)" transform="translate(277.818 209.939)"/><path d="M315.369 188.241c-8.426 17.745-4.66 18.6-3.239 26.188s-1.291 9-14.157 8.231-7.972-14.409-7.972-14.409-1.242 2-2.508-.536-.5-10.131 9.376-16.471c8.905-5.706 8.548-28.719 8.393-33.184a74.859 74.859 0 0 0 22.73 4.684c-1.875 3.58-6.34 12.282-12.623 25.497z" fill="#e9dac1" stroke="#17212a" stroke-miterlimit="10" stroke-width="1.05"/><path d="m243.396 221.702 109.274 10.956-7.582 75.629-109.275-10.956z" fill="#17212a"/><path d="M337.444 266.011a.344.344 0 0 1 .318-.361.332.332 0 0 1 .356.308.344.344 0 0 1-.317.361H337.765a.325.325 0 0 1-.321-.308zm11.515-5.445a.354.354 0 1 1 .151-.691.352.352 0 0 1 .269.418.353.353 0 0 1-.42.269zm-26.681-.142a.331.331 0 0 1-.207-.421c0-.009 0-.018.008-.027a.323.323 0 0 1 .412-.2.363.363 0 0 1 .22.437.343.343 0 0 1-.322.228.338.338 0 0 1-.111-.017zm7.966-1.158h-.013a.292.292 0 0 1-.205-.358.057.057 0 0 0 0-.006.3.3 0 0 1 .358-.226.306.306 0 1 1-.146.594zm6.647-1.463a.336.336 0 0 1 .305-.363.36.36 0 0 1 .37.32v.006a.338.338 0 0 1-.319.355h-.018a.338.338 0 0 1-.339-.318zm6.987.033a.353.353 0 0 1-.245-.427.022.022 0 0 1 0-.007.342.342 0 0 1 .412-.255.354.354 0 0 1 .257.428.372.372 0 0 1-.426.261zm1.733-2.069a.321.321 0 0 1 .244-.36.306.306 0 1 1 .1.6.3.3 0 0 1-.341-.244zm-19.706-1.868a.345.345 0 0 1-.062-.485.041.041 0 0 1 .009-.013.339.339 0 0 1 .476-.067.353.353 0 0 1-.21.638.349.349 0 0 1-.213-.073zm-1.04-1.275a.344.344 0 0 1-.207-.434v-.008a.334.334 0 0 1 .427-.2.331.331 0 0 1 .207.421.359.359 0 0 1-.432.222zm25.738-.343a.358.358 0 0 1-.273-.406.372.372 0 0 1 .417-.287.362.362 0 0 1 .271.419.351.351 0 0 1-.415.274zm-18.712-.17h-.013a.291.291 0 0 1-.205-.358.058.058 0 0 1 0-.006.3.3 0 0 1 .358-.227.31.31 0 0 1 .216.374.3.3 0 0 1-.358.22zm17.637-1.73a.34.34 0 0 1 .162-.454l.01-.005a.333.333 0 0 1 .444.155.348.348 0 0 1-.161.456l-.014.007a.33.33 0 0 1-.439-.157zm-14.714-.426a.347.347 0 0 1-.091-.48.131.131 0 0 1 .009-.016.336.336 0 0 1 .467-.09l.01.006a.352.352 0 0 1-.4.58zm-16.223-.054h-.006a.3.3 0 0 1-.068-.423.308.308 0 0 1 .422-.065l.009.006a.3.3 0 0 1 .054.42.218.218 0 0 1-.013.018.284.284 0 0 1-.4.048zm17.731-.3a.363.363 0 0 1 .319-.374.341.341 0 0 1 .357.319.04.04 0 0 1 0 .01.336.336 0 0 1-.319.352H336.643a.325.325 0 0 1-.321-.304zm9.537-.02a.341.341 0 0 1-.247-.415.1.1 0 0 1 0-.023.336.336 0 0 1 .409-.239l.022.005a.334.334 0 0 1 .237.411.35.35 0 0 1-.424.258zm-1.435-1.058a.319.319 0 0 1 .244-.359.3.3 0 0 1 .342.257v.015a.292.292 0 0 1-.245.332.3.3 0 0 1-.048 0 .3.3 0 0 1-.294-.243zm-13.565-1.483a.35.35 0 0 1-.072-.488.055.055 0 0 1 .009-.013.339.339 0 0 1 .475-.068.359.359 0 0 1 .079.491.348.348 0 0 1-.487.073zm18.02-1.191a.264.264 0 0 1-.136-.338c0-.009.007-.017.012-.026a.248.248 0 0 1 .335-.109.264.264 0 0 1 .137.337l-.005.011a.258.258 0 0 1-.234.149.254.254 0 0 1-.108-.024zm-15.343-.9a.147.147 0 0 1-.027-.006.284.284 0 0 1-.191-.355v-.005a.3.3 0 0 1 .359-.227.306.306 0 0 1 .217.361.057.057 0 0 0 0 .006.3.3 0 0 1-.358.226zm-6.071-.139h-.014a.338.338 0 0 1-.205-.431.343.343 0 0 1 .431-.212.347.347 0 0 1 .207.435.125.125 0 0 1-.005.017.322.322 0 0 1-.413.2zm-6.5-.457a.079.079 0 0 1-.02-.009.165.165 0 0 1-.069-.224.172.172 0 0 1 .22-.105.184.184 0 0 1 .1.237.179.179 0 0 1-.233.1zm17.994-.172a.18.18 0 0 1 .094-.233.173.173 0 0 1 .228.094.178.178 0 0 1-.094.232.176.176 0 0 1-.068.014.173.173 0 0 1-.16-.107zm-16.157-.263a.307.307 0 0 1 .358-.5l.012.008a.3.3 0 0 1 .063.419l-.013.016a.3.3 0 0 1-.42.054zm20.026-.024a.2.2 0 0 1-.149-.241.221.221 0 0 1 .241-.164.209.209 0 0 1 .148.255.177.177 0 0 1-.006.023.188.188 0 0 1-.234.127zm-12.882-.221a.182.182 0 1 1 .181.184.184.184 0 0 1-.181-.184zm15.956-.643a.35.35 0 0 1 .149-.459.355.355 0 0 1 .465.15.368.368 0 0 1-.161.469.344.344 0 0 1-.453-.16zm-6.435-.1a.348.348 0 0 1-.1-.482l.01-.016a.338.338 0 0 1 .467-.09s0 0 .006 0a.353.353 0 0 1 .1.49.349.349 0 0 1-.481.095zm3.7-.571a.177.177 0 1 1 .192-.178.176.176 0 0 1-.177.169zm-7.4-.964a.336.336 0 0 1 .305-.363h.005a.338.338 0 1 1 .053.674h-.026a.338.338 0 0 1-.335-.313zm7.468-.108a.1.1 0 0 1 0-.016.29.29 0 0 1 .245-.331h.02a.288.288 0 0 1 .323.247.3.3 0 0 1-.242.347.3.3 0 0 1-.342-.244zm4.612.06a.354.354 0 0 1-.257-.428.349.349 0 0 1 .413-.262.352.352 0 0 1 .257.428.02.02 0 0 0 0 .007.343.343 0 0 1-.412.255zm-10.548-1.166a.182.182 0 0 1 .105-.231l.02-.009a.165.165 0 0 1 .21.1.178.178 0 0 1-.093.232.189.189 0 0 1-.07.013.192.192 0 0 1-.172-.105zm-1.484 0a.372.372 0 0 1-.076-.5l.008-.011a.338.338 0 0 1 .475-.058.35.35 0 1 1-.407.571zm15.551-.18a.269.269 0 0 1-.133-.349.039.039 0 0 1 0-.011.259.259 0 0 1 .343-.126.272.272 0 0 1 .134.35.269.269 0 0 1-.244.157.265.265 0 0 1-.1-.021zm-21.428-.667a.189.189 0 0 1 .184-.184.2.2 0 0 1 .182.184.177.177 0 0 1-.182.171h-.016a.171.171 0 0 1-.168-.171zm13.947-.268a.2.2 0 0 1-.149-.242.22.22 0 0 1 .241-.163.226.226 0 0 1 .159.255.206.206 0 0 1-.2.155.21.21 0 0 1-.051-.005zm7.574-.585v-.008a.176.176 0 0 1 .108-.224l.018-.006a.168.168 0 0 1 .211.112.182.182 0 0 1-.105.231.194.194 0 0 1-.054.008.19.19 0 0 1-.178-.113zm-16.31-.317a.174.174 0 0 1-.085-.231.1.1 0 0 1 .01-.022.164.164 0 0 1 .221-.068.175.175 0 0 1 .085.231.039.039 0 0 0 0 .006.172.172 0 0 1-.229.085zm8.178-.132a.177.177 0 0 1-.168-.184.068.068 0 0 1 0-.013.169.169 0 0 1 .181-.158h.006a.179.179 0 0 1 .175.185.187.187 0 0 1-.187.17zm-8.141-.23a.3.3 0 0 1-.227-.364.314.314 0 0 1 .36-.232.321.321 0 0 1 .228.375.3.3 0 0 1-.361.221zm-.631-.207a.2.2 0 0 1-.053-.281l.009-.014a.191.191 0 0 1 .266-.047.213.213 0 0 1 .058.291.2.2 0 0 1-.28.05zm10.581-.346-.01-.01a.167.167 0 0 1 .009-.236.064.064 0 0 1 .013-.014.162.162 0 0 1 .23.011l.011.011a.167.167 0 0 1-.009.236l-.014.014a.163.163 0 0 1-.23-.012zm-15.082-.245-.013-.005a.324.324 0 0 1-.2-.417.34.34 0 0 1 .42-.225.353.353 0 0 1 .219.436.342.342 0 0 1-.43.211zm21.872-.523a.224.224 0 0 1 .168-.247.2.2 0 0 1 .231.167.2.2 0 0 1-.154.236.213.213 0 0 1-.246-.157zm-16.275-.3-.006-.016a.181.181 0 1 1 .238.11.175.175 0 0 1-.229-.095zm8.455-.292a.35.35 0 0 1 .385-.585l.01.005a.352.352 0 0 1-.4.58zm-4.19-.027-.013-.012a.262.262 0 0 1 .016-.369l.01-.008a.25.25 0 0 1 .353.023.258.258 0 0 1-.006.364.041.041 0 0 1-.008.009.248.248 0 0 1-.172.069.252.252 0 0 1-.181-.076zm2.36-.189a.352.352 0 0 1 .149-.458.342.342 0 0 1 .453.16l.007.015a.323.323 0 0 1-.154.431l-.014.007a.331.331 0 0 1-.441-.156zm6.442-.338a.323.323 0 0 1 .1-.428.3.3 0 0 1 .412.094.304.304 0 1 1-.508.335zm1.112-.754a.349.349 0 0 1-.03-.482.34.34 0 1 1 .03.482zm-7.694-.365h-.012a.045.045 0 0 1-.034-.016.173.173 0 0 1-.052-.155.309.309 0 0 1 .255-.346.3.3 0 0 1 .341.245.3.3 0 0 1-.243.347.291.291 0 0 1-.257-.073zm2.805.021a.2.2 0 0 1-.148-.242.22.22 0 0 1 .241-.163.2.2 0 0 1 .149.242.121.121 0 0 1-.005.031.191.191 0 0 1-.184.139.194.194 0 0 1-.052-.008zm-8.022-.017a.174.174 0 0 1-.077-.232.17.17 0 0 1 .01-.023.164.164 0 0 1 .222-.068.175.175 0 0 1 .085.231.186.186 0 0 1-.244.089zm6.567-.52a.175.175 0 0 1-.171-.18.059.059 0 0 1 0-.013.168.168 0 0 1 .181-.158.176.176 0 0 1-.007.351zm-6.127-.17-.01-.006a.194.194 0 0 1-.049-.272.202.202 0 1 1 .332.23.1.1 0 0 1-.011.016.188.188 0 0 1-.148.071.185.185 0 0 1-.114-.039zm-2.144-.349a.011.011 0 0 1 0-.005.333.333 0 0 1 .306-.357.341.341 0 0 1 .357.319.148.148 0 0 1 0 .021.332.332 0 0 1-.32.343h-.012a.332.332 0 0 1-.331-.321zm5.549.141a.375.375 0 0 1-.076-.5l.008-.01a.339.339 0 0 1 .476-.058l.022.015a.338.338 0 0 1 .056.474.35.35 0 0 1-.485.08zm9.064-.233a.348.348 0 0 1 .157-.678.354.354 0 0 1 .257.428.345.345 0 0 1-.414.249zm-15.825-.908a.193.193 0 0 1 .1-.245.173.173 0 0 1 .228.094.194.194 0 0 1-.094.246.174.174 0 0 1-.067.013.176.176 0 0 1-.167-.108zm-.609-.86a.349.349 0 0 1 .1-.478l.021-.012a.33.33 0 0 1 .455.1l.01.015a.347.347 0 1 1-.586.372zm5.655-.187-.012-.013a.164.164 0 0 1 .01-.233.1.1 0 0 1 .012-.013.162.162 0 0 1 .231.006.178.178 0 0 1 0 .253.17.17 0 0 1-.241-.01z" fill="#fff" opacity=".86"/><path d="M169.84 139.151s13.1 9.876 18.035 8.373 4.294-5.153.214-6.656-10.734-7.729-18.249-1.717zM230.561 116.242s-22.29 7.881-29.375 6.807-9.447-1.073-12.455.43-9.23 5.153-10.732 5.363 1.718 4.079 7.515 1.932 13.526-1.073 19.967 4.938c0 0 25.12-6.87 34.781-6.226z" fill="#e9dac1" stroke="#17212a" stroke-miterlimit="10" stroke-width="1.05"/><path d="M272.911 40.291a59.736 59.736 0 0 0 3.928-9.115c1.885-5.5-2.829-6.915-5.814-4.243a3.441 3.441 0 0 1-1.252.724 7.858 7.858 0 0 1-2.354 1.029c-2.679.631-5.445-.409-7.684-1.858a16.844 16.844 0 0 1-7.511-13.026 10.858 10.858 0 0 1-.056-5.412c24.358-11.466 46.672 4.872 39.443 19.172-4.658 9.213-11.072 11.835-15.049 12.537a21.25 21.25 0 0 1 8.238 2.483 41.5 41.5 0 0 0 17.343 3.994.304.304 0 0 1 0 .609 42.717 42.717 0 0 1-12.965-2.19c6.964 3.3 13.451 2.8 13.591 5.037.157 2.514-2.514 11.157-15.242 12.571-.002.002-13.83-7.54-14.616-22.312zM252.992 23.028a4.886 4.886 0 0 1-6.883-1.57 5.294 5.294 0 0 1-.784-2.916c.017-.785 1.2-.907 1.188-.112a3.885 3.885 0 0 0 3.54 4.174 3.691 3.691 0 0 0 2.245-.581c.654-.4 1.353.6.693 1.005zM75.604 366.653l-11.12 31.021h78.507s-4.026-7.765-17.445-13.515-25.943-17.506-25.943-17.506h-24" fill="#17212a"/><path d="m13.815 366.637-11.12 31.021h78.507s-4.026-7.765-17.445-13.515-25.943-17.506-25.943-17.506h-24" fill="#17212a"/><path d="M60.634 104.671c-1.347-17.344-5.887-33.139-8.668-48.971-.384-2.185-.9-4.34-1.182-6.54C49.411 38.62 44.954 4.594 44.035 0L23.566 2.378l-9.82 1.548A51.532 51.532 0 0 0 1.583 8a86.188 86.188 0 0 0 .807 36.585c9.462 41.527 10.2 35.7 8.742 64.833s3.275 19.3 4.731 49.9-8.7 25.344 6.622 64.862l36.63.153s3.562-93.369 1.519-119.662z" fill="url(#a)" transform="translate(40.485 142.328)"/><path d="M101.119 246.999c-1.347-17.344-5.887-33.139-8.668-48.971-.384-2.185-.9-4.34-1.182-6.54-1.373-10.54-5.83-44.566-6.749-49.16l-20.469 2.378-9.82 1.548a51.532 51.532 0 0 0-12.163 4.074 86.188 86.188 0 0 0 .807 36.585c9.462 41.527 10.2 35.7 8.742 64.833s3.275 19.3 4.731 49.9-8.7 25.344 6.622 64.862l36.63.153s3.562-93.369 1.519-119.662z" fill="#1d918b"/><path d="M101.119 246.999c-1.347-17.344-5.887-33.139-8.668-48.971-.384-2.185-.9-4.34-1.182-6.54-1.373-10.54-5.83-44.566-6.749-49.16l-20.469 2.378-9.82 1.548a51.532 51.532 0 0 0-12.163 4.074 86.188 86.188 0 0 0 .807 36.585c9.462 41.527 10.2 35.7 8.742 64.833s3.275 19.3 4.731 49.9-8.7 25.344 6.622 64.862l36.63.153s3.562-93.369 1.519-119.662z" fill="#1d918b" stroke="#17212a" stroke-miterlimit="10" stroke-width="1.05"/><path d="M84.417 64.288S87.826 7.15 89.828 0L28.034 3.623l-3.391 6.558c-.658-.134.608.135 0 0a96.43 96.43 0 0 0 1.806 55.947c15.1 45.3 4.722 43.158-.17 56.868-4.918 13.7-7.548 22.08-6.43 35.029C20.985 170.984 4.6 181.1 1.564 197.842c-3.014 16.759-.744 29-.744 29l36.316-.117s41.945-94.911 43.957-114.7c1.813-17.825 1.813-24.774 3.324-47.737z" fill="url(#a)" transform="translate(.679 139.91)"/><path d="M85.096 204.198s3.409-57.138 5.411-64.288l-61.794 3.623-3.391 6.558c-.658-.134.608.135 0 0a96.43 96.43 0 0 0 1.806 55.947c15.1 45.3 4.722 43.158-.17 56.868-4.918 13.7-7.548 22.08-6.43 35.029 1.136 12.959-15.249 23.075-18.285 39.817-3.014 16.759-.744 29-.744 29l36.316-.117s41.945-94.911 43.957-114.7c1.813-17.825 1.813-24.774 3.324-47.737z" fill="#1d918b"/><path d="M85.096 204.198s3.409-57.138 5.411-64.288l-61.794 3.623-3.391 6.558c-.658-.134.608.135 0 0a96.43 96.43 0 0 0 1.806 55.947c15.1 45.3 4.722 43.158-.17 56.868-4.918 13.7-7.548 22.08-6.43 35.029 1.136 12.959-15.249 23.075-18.285 39.817-3.014 16.759-.744 29-.744 29l36.316-.117s41.945-94.911 43.957-114.7c1.813-17.825 1.813-24.774 3.324-47.737z" fill="#1d918b" stroke="#17212a" stroke-miterlimit="10" stroke-width="1.05"/><path d="M48.03 185.677a.344.344 0 0 1-.318-.361.332.332 0 0 1 .358-.305.344.344 0 0 1 .318.361.148.148 0 0 1 0 .021.324.324 0 0 1-.321.289zm-22.7-4.033a.364.364 0 0 1-.3-.4.346.346 0 0 1 .4-.288.359.359 0 0 1 .3.4.347.347 0 0 1-.4.288zm11.117-1.993a.352.352 0 0 1 .27-.418.344.344 0 0 1 .145.671.347.347 0 0 1-.082.01.342.342 0 0 1-.331-.263zm26.676-.079a.362.362 0 0 1 .219-.436l.026-.008a.324.324 0 0 1 .394.232.331.331 0 0 1-.21.419.341.341 0 0 1-.43-.211zm-7.907-1.179a.316.316 0 0 1 .229-.363h.007a.3.3 0 0 1 .354.234.028.028 0 0 1 0 .012.291.291 0 0 1-.22.35.318.318 0 0 1-.373-.231zm-6.636-.914a.338.338 0 0 1-.313-.361.36.36 0 0 1 .37-.321.336.336 0 0 1 .305.363v.006a.339.339 0 0 1-.337.314zm-16.355-.229a.351.351 0 0 1-.161-.457l.005-.01a.332.332 0 0 1 .448-.139.341.341 0 0 1 .157.455.082.082 0 0 1-.006.013.332.332 0 0 1-.292.175.326.326 0 0 1-.151-.037zm9.306-.318a.354.354 0 0 1 .257-.428h.007a.342.342 0 0 1 .406.264.355.355 0 0 1-.245.427.374.374 0 0 1-.07.007.37.37 0 0 1-.355-.272zm-1.652-1.565a.308.308 0 0 1-.255-.346.312.312 0 0 1 .353-.258.322.322 0 0 1 .245.36.3.3 0 0 1-.343.242zm-14.71-1.921a.308.308 0 0 1-.094-.416l.009-.015a.291.291 0 0 1 .4-.079l.011.006a.3.3 0 0 1-.328.5zm34.262-.269a.362.362 0 0 1 .078-.491.151.151 0 0 1 .013-.009.341.341 0 0 1 .472.089.347.347 0 0 1-.069.484.365.365 0 0 1-.5-.078zm-32.816.094a.348.348 0 0 1-.283-.4s0 0 0-.005a.347.347 0 1 1 .683.12s0 .007 0 .01a.342.342 0 0 1-.337.284.347.347 0 0 1-.062-.008zm33.921-1.513a.336.336 0 0 1 .638-.211.343.343 0 0 1-.207.434.357.357 0 0 1-.431-.222zm-25.722-.4a.361.361 0 0 1 .27-.418.372.372 0 0 1 .417.287.358.358 0 0 1-.272.406.352.352 0 0 1-.415-.275zm18.774-.111a.311.311 0 0 1 .215-.374h.006a.3.3 0 0 1 .355.234.063.063 0 0 1 0 .013.29.29 0 0 1-.22.349.3.3 0 0 1-.359-.22zm-17.736-1.354a.351.351 0 0 1-.162-.457l.005-.01a.333.333 0 0 1 .449-.139.34.34 0 0 1 .157.455.082.082 0 0 1-.006.013.33.33 0 0 1-.446.136zm14.68-.668-.005-.006a.352.352 0 0 1 .107-.487l.016-.01a.336.336 0 0 1 .461.116.348.348 0 0 1-.579.387zm16.3-.032-.006-.008a.3.3 0 0 1 .069-.418.305.305 0 0 1 .422.064v.005a.3.3 0 0 1-.078.422l-.018.014a.279.279 0 0 1-.155.047.286.286 0 0 1-.234-.126zm-17.68.076h-.01a.341.341 0 0 1 .05-.68.364.364 0 0 1 .319.373.176.176 0 0 1 0 .021.324.324 0 0 1-.321.289zm-9.6-.589v-.005a.345.345 0 1 1 .427.266.351.351 0 0 1-.423-.261zm1.517-.554h-.015a.291.291 0 0 1-.228-.344.305.305 0 0 1 .341-.257.32.32 0 0 1 .245.359.3.3 0 0 1-.343.243zm-12.052-.9h-.008a.3.3 0 0 1-.086-.412.3.3 0 0 1 .41-.106.31.31 0 0 1 .1.428.3.3 0 0 1-.254.14.3.3 0 0 1-.164-.046zm-8.053-.184a.35.35 0 0 1-.284-.406v-.006a.352.352 0 1 1 .284.411zm33.524-.723a.358.358 0 0 1 .077-.49l.014-.008a.338.338 0 0 1 .472.089.348.348 0 1 1-.565.407zm-17.881-1.248a.265.265 0 0 1 .136-.339l.026-.012a.25.25 0 0 1 .32.149.263.263 0 0 1-.135.338h-.011a.258.258 0 0 1-.337-.14zm-8.693-.173a.359.359 0 0 1-.3-.4.349.349 0 1 1 .3.4zm-4.676-.225a.336.336 0 0 1 .031-.472l.013-.011a.331.331 0 0 1 .466.043.335.335 0 0 1-.032.472l-.012.011a.328.328 0 0 1-.211.076.332.332 0 0 1-.255-.119zm28.7-.593a.307.307 0 0 1 .218-.362h.005a.3.3 0 0 1 .355.233c0 .009 0 .018.006.027a.286.286 0 0 1-.224.335h-.01a.3.3 0 0 1-.061.006.3.3 0 0 1-.292-.239zm6.014-.12v-.007a.338.338 0 0 1 .641-.217.128.128 0 0 1 0 .014.338.338 0 0 1-.224.422l-.016.005a.323.323 0 0 1-.4-.218zm6.688-.348a.182.182 0 0 1 .1-.236.173.173 0 0 1 .22.1.085.085 0 0 1 .009.021.165.165 0 0 1-.1.213.18.18 0 0 1-.232-.1zm-17.995.018a.179.179 0 0 1-.093-.233.175.175 0 0 1 .229-.091.179.179 0 0 1 .094.233.175.175 0 0 1-.229.091zm-13.464-.557a.363.363 0 0 1 .284-.409.348.348 0 1 1-.284.409zm29.418.131a.018.018 0 0 0-.007-.007.3.3 0 0 1 .493-.342l.012.016a.3.3 0 0 1-.249.466.3.3 0 0 1-.249-.131zm-19.833-.104a.206.206 0 0 1 .148-.254.221.221 0 0 1 .241.163.2.2 0 0 1-.149.242l-.023.005h-.03a.189.189 0 0 1-.187-.156zm12.757-.07a.194.194 0 0 1 .181-.184.184.184 0 0 1 0 .367.2.2 0 0 1-.181-.183zm-16.042-.482a.366.366 0 0 1-.162-.47.355.355 0 0 1 .469-.148.348.348 0 0 1 .149.458.344.344 0 0 1-.452.161zm6.407-.358v-.006a.351.351 0 0 1 .106-.487.1.1 0 0 1 .016-.01.336.336 0 0 1 .461.116.348.348 0 0 1-.579.387zm-3.408-.646a.176.176 0 1 1 .183.168h-.007a.176.176 0 0 1-.178-.168zm7.225-.474a.337.337 0 0 1-.313-.36v-.011a.338.338 0 1 1 .673.052v.005a.336.336 0 0 1-.335.314zm-16.847-.063a.26.26 0 0 1-.122-.18.187.187 0 0 1-.088-.2s0-.005 0-.008a.2.2 0 0 1 .23-.159h.01a.3.3 0 0 1 .283.022.311.311 0 0 1 .1.428.3.3 0 0 1-.413.094zm9.4-.122a.3.3 0 0 1-.243-.347v-.018a.286.286 0 0 1 .339-.224h.015a.292.292 0 0 1 .227.345.3.3 0 0 1-.291.246.3.3 0 0 1-.052-.001zm-4.682-.445a.345.345 0 1 1 .413.262h-.007a.345.345 0 0 1-.072.008.341.341 0 0 1-.339-.269zm10.712-.81a.179.179 0 0 1-.093-.233.131.131 0 0 1 .009-.021.165.165 0 0 1 .221-.073.182.182 0 0 1 .1.231.192.192 0 0 1-.242.1zm1.241-.172v-.005a.346.346 0 0 1 .083-.483l.011-.008a.338.338 0 0 1 .472.076.373.373 0 0 1-.076.5.351.351 0 0 1-.486-.081zm-26.968.083a.21.21 0 0 1-.065-.285l.005-.007a.193.193 0 0 1 .266-.055l.01.007a.2.2 0 0 1 .054.279l-.005.007a.191.191 0 0 1-.266.054zm6.809-.254a.352.352 0 0 1 .043-.483l.005-.005a.326.326 0 0 1 .461.039l.005.005a.338.338 0 0 1-.036.477.043.043 0 0 1-.01.008.329.329 0 0 1-.213.078.334.334 0 0 1-.25-.116zm4.745-.067a.27.27 0 0 1 .134-.349h.011a.258.258 0 0 1 .337.14.272.272 0 0 1-.134.35.268.268 0 0 1-.347-.137zm21.593-.359a.177.177 0 0 1-.182-.172.194.194 0 0 1 .182-.184.188.188 0 0 1 .184.183v.017a.171.171 0 0 1-.17.157zm-33.12-.094h-.008a.349.349 0 0 1-.267-.414.01.01 0 0 0 0-.007.34.34 0 0 1 .4-.27.365.365 0 0 1 .276.417.345.345 0 0 1-.338.282.349.349 0 0 1-.063-.008zm19.107-.494a.225.225 0 0 1 .159-.256.222.222 0 0 1 .241.163.2.2 0 0 1-.149.242.2.2 0 0 1-.05.006.206.206 0 0 1-.199-.155zm-18.55-.234a.011.011 0 0 1 0-.005.261.261 0 0 1 .268-.253h.009a.254.254 0 0 1 .246.26.261.261 0 0 1-.255.266.283.283 0 0 1-.266-.268zm11-.1a.183.183 0 0 1-.1-.23c0-.006 0-.013.006-.018a.169.169 0 0 1 .222-.087h.008a.176.176 0 0 1 .1.229.192.192 0 0 1-.175.113.188.188 0 0 1-.058-.004zm16.311-.509a.174.174 0 0 1 .091-.229.107.107 0 0 1 .023-.01.163.163 0 0 1 .208.1.174.174 0 0 1-.091.229.008.008 0 0 1-.006 0 .173.173 0 0 1-.225-.09zm-31.733-.08a.364.364 0 0 1-.116-.489.353.353 0 0 1 .482-.116.364.364 0 0 1 .116.489.355.355 0 0 1-.482.116zm23.594-.132a.01.01 0 0 1 0-.007.179.179 0 0 1 .181-.179h.014a.171.171 0 0 1 .168.172.175.175 0 0 1-.168.183h-.009a.187.187 0 0 1-.186-.17zm7.973-.282a.319.319 0 0 1 .229-.375.315.315 0 0 1 .36.233.303.303 0 0 1-.589.142zm.712-.037a.214.214 0 0 1 .057-.291l.014-.009a.192.192 0 0 1 .262.069.202.202 0 1 1-.333.23zm-10.545-.3-.011-.011a.166.166 0 0 1 .013-.235l.014-.014a.163.163 0 0 1 .229.017l.011.011a.166.166 0 0 1-.014.235.1.1 0 0 1-.014.014.164.164 0 0 1-.107.039.161.161 0 0 1-.121-.053zm-11.258-.069a.353.353 0 0 1-.286-.4s0-.007 0-.011a.342.342 0 0 1 .4-.279.351.351 0 0 1-.112.692zm26.15-.376a.352.352 0 0 1 .219-.436.34.34 0 0 1 .42.225.079.079 0 0 1 0 .014.326.326 0 0 1-.213.409.337.337 0 0 1-.108.018.343.343 0 0 1-.318-.234zm-29.677-.156a.045.045 0 0 0-.007-.011.233.233 0 1 1 .333.076.231.231 0 0 1-.128.038.234.234 0 0 1-.198-.107zm-3.567-.121a.314.314 0 0 1 .062-.427l.012-.008a.3.3 0 0 1 .412.085l.009.013a.288.288 0 0 1-.073.4.079.079 0 0 1-.014.011.294.294 0 0 1-.409-.075zm11.555.12a.2.2 0 0 1-.154-.236.2.2 0 0 1 .232-.167.225.225 0 0 1 .168.247.215.215 0 0 1-.246.157zm16.292-.367a.181.181 0 0 1-.1-.23.066.066 0 0 1 .006-.017.181.181 0 1 1 .328.154.174.174 0 0 1-.229.091zm-24.764-.244-.011-.008a.2.2 0 0 1-.041-.28l.005-.008a.191.191 0 0 1 .266-.054.21.21 0 0 1 .065.285.208.208 0 0 1-.175.1.2.2 0 0 1-.109-.035zm16.053-.231v-.007a.352.352 0 0 1 .106-.487.35.35 0 1 1-.1.494zm4.314.067a.011.011 0 0 1 0-.005.257.257 0 0 1 0-.365l.009-.01a.25.25 0 0 1 .354 0l.013.012a.261.261 0 0 1-.008.369l-.009.009a.253.253 0 0 1-.356-.007zm-19.936.031a.19.19 0 0 1-.012-.257.184.184 0 0 1 .254-.011.188.188 0 0 1 .012.257.184.184 0 0 1-.254.011zm17.486-.074-.015-.007a.324.324 0 0 1-.131-.439.342.342 0 0 1 .452-.161.351.351 0 0 1 .149.459.082.082 0 0 1-.006.013.331.331 0 0 1-.447.136zm-11.544-.392v-.005a.344.344 0 0 1 .677-.124.351.351 0 0 1-.272.406h-.022a.338.338 0 0 1-.051 0 .334.334 0 0 1-.333-.278zm5.144 0a.31.31 0 0 1-.1-.428.3.3 0 0 1 .412-.094.322.322 0 0 1 .1.428.313.313 0 0 1-.412.094zm-1.18-.881-.006-.006a.338.338 0 0 1 .036-.477.344.344 0 0 1 .479.032.35.35 0 0 1-.03.483.341.341 0 0 1-.479-.032zm7.916-.259a.3.3 0 0 1-.242-.347.3.3 0 0 1 .342-.242.309.309 0 0 1 .256.346.176.176 0 0 1-.052.155.044.044 0 0 1-.033.017h-.013a.285.285 0 0 1-.2.078.3.3 0 0 1-.06-.008zm-2.792-.217a.2.2 0 0 1 .148-.242.221.221 0 0 1 .241.163.2.2 0 0 1-.149.242.115.115 0 0 1-.031.005h-.02a.191.191 0 0 1-.189-.168zm8.021.057a.175.175 0 0 1 .091-.229l.023-.01a.165.165 0 0 1 .209.1.173.173 0 0 1-.077.232.185.185 0 0 1-.243-.089zm-17.039-.123a.263.263 0 1 1 .347.136.267.267 0 0 1-.347-.136zm10.536-.476a.175.175 0 0 1 .17-.182h.013a.17.17 0 0 1 .169.172.177.177 0 0 1-.172.18.176.176 0 0 1-.179-.171zm6.035-.049-.011-.015a.203.203 0 0 1 .344-.215l.006.01a.2.2 0 0 1-.065.268.106.106 0 0 1-.016.012.187.187 0 0 1-.258-.059zm2.051.022a.334.334 0 0 1-.3-.364.342.342 0 0 1 .358-.319h.005a.332.332 0 0 1 .3.363.153.153 0 0 0 0 .021.334.334 0 0 1-.332.3zm-5.67-.258a.351.351 0 0 1 .562-.421.375.375 0 0 1-.076.5.351.351 0 0 1-.486-.08zm-8.993-.4a.355.355 0 0 1 .257-.428.348.348 0 0 1 .164.676.34.34 0 0 1-.087.011.345.345 0 0 1-.336-.261zm-7.054-.1a.19.19 0 0 1-.011-.257.184.184 0 0 1 .254-.011.191.191 0 0 1 .012.257.187.187 0 0 1-.133.056.185.185 0 0 1-.121-.052zm-5.2-.164h-.019a.254.254 0 0 1-.248-.258.261.261 0 0 1 .255-.265.283.283 0 0 1 .269.271v.014a.251.251 0 0 1-.25.242zm-7.323-.117a.352.352 0 0 1-.09-.49l.013-.019a.329.329 0 0 1 .461-.071s.009.005.013.009a.349.349 0 0 1-.4.572zm12.01-.2a.3.3 0 0 1 .038-.4.215.215 0 0 1-.237.014.211.211 0 0 1-.065-.285.2.2 0 0 1 .283-.064.21.21 0 0 1 .065.285c0 .013-.01.013-.021.028l-.008.007.008-.007a.307.307 0 0 1 .349.5.3.3 0 0 1-.412-.078zm23.577.017a.193.193 0 0 1-.094-.245.175.175 0 0 1 .229-.091.193.193 0 0 1 .094.245.175.175 0 0 1-.229.091zm-28.963-.533a.028.028 0 0 1-.006-.008.232.232 0 0 1 .07-.32.239.239 0 0 1 .328.078l.007.011a.233.233 0 0 1-.084.319l-.019.012a.218.218 0 0 1-.3-.091zm11.883.026h-.006a.2.2 0 0 1-.16-.233s0-.006 0-.008a.2.2 0 0 1 .23-.159.2.2 0 0 1 .162.234s0 .005 0 .008a.2.2 0 0 1-.193.162.2.2 0 0 1-.033-.006zm6.516-.36a.285.285 0 0 1 0-.381.278.278 0 0 1 .377 0 .269.269 0 0 1 0 .369.262.262 0 0 1-.193.084.265.265 0 0 1-.184-.072zm10.92.012a.352.352 0 0 1-.09-.49.148.148 0 0 1 .013-.02.329.329 0 0 1 .461-.07.348.348 0 0 1 .1.477.353.353 0 0 1-.483.1zm-32.455-.288a.028.028 0 0 1 0-.006.338.338 0 0 1 .64-.218.017.017 0 0 0 0 .007.338.338 0 1 1-.64.217zm14.287.064a.183.183 0 0 1 .089-.233.179.179 0 0 1 .231.1.173.173 0 0 1-.091.229.178.178 0 0 1-.231-.1zm12.758-.058-.005-.005a.179.179 0 0 1 .006-.253.1.1 0 0 1 .014-.014.164.164 0 0 1 .229.017l.014.013a.167.167 0 0 1-.015.233.172.172 0 0 1-.125.054.17.17 0 0 1-.122-.046zm-29.571-.072a.202.202 0 0 1 .333-.23.22.22 0 0 1-.045.289l-.011.006a.2.2 0 0 1-.277-.065zm4.661-.056a.145.145 0 0 1 .111-.162h.01a.146.146 0 0 1 .042.289h-.017a.147.147 0 0 1-.146-.128zm2.581.111a.347.347 0 0 1-.275-.4.351.351 0 1 1 .689.138v.011a.341.341 0 0 1-.41.256zm-1.129-.373a.352.352 0 0 1-.115-.476s0-.007.006-.011a.346.346 0 0 1 .477-.105.364.364 0 0 1 .116.488c0 .005-.006.009-.008.014a.343.343 0 0 1-.476.091zm25.558-.344v-.007a.302.302 0 1 1 .591-.123.302.302 0 1 1-.591.127zm-11.494.055h-.008a.175.175 0 0 1-.1-.229.191.191 0 0 1 .229-.105.183.183 0 0 1 .105.231c0 .006 0 .013-.006.018a.168.168 0 0 1-.222.087zm9.736-.278a.183.183 0 0 1 .331-.156.183.183 0 0 1-.331.156zm-9.132-.628a.188.188 0 0 1 .1-.236.179.179 0 0 1 .232.1.183.183 0 0 1-.1.236.178.178 0 0 1-.064.012.181.181 0 0 1-.173-.112zm-6.285.01a.176.176 0 0 1 .232-.265.13.13 0 0 1 .02.019.168.168 0 0 1-.009.238.17.17 0 0 1-.124.054.172.172 0 0 1-.123-.043zm13.917-.146a.221.221 0 0 1 .045-.289.207.207 0 0 1 .241.336.109.109 0 0 0-.013.009.2.2 0 0 1-.274-.056zm-5.8-.18a.2.2 0 0 1 .149-.242.213.213 0 0 1 .241.164.2.2 0 0 1-.149.241.185.185 0 0 1-.031.006h-.02a.192.192 0 0 1-.19-.169zm2.433.006a.34.34 0 0 1-.365-.084.349.349 0 0 1 .032-.483.344.344 0 0 1 .557.339.194.194 0 0 1 .12.168.176.176 0 0 1-.169.183.194.194 0 0 1-.172-.123zm-1.476-.04a.324.324 0 0 1-.108-.427.314.314 0 0 1 .424-.1.309.309 0 0 1 .094.418.3.3 0 0 1-.259.147.3.3 0 0 1-.148-.039zm-3.953-.448a.055.055 0 0 1-.006-.009.348.348 0 1 1 .493.1.352.352 0 0 1-.2.059.356.356 0 0 1-.283-.151zm-6.1.033a.358.358 0 0 1-.3-.4.348.348 0 0 1 .4-.289l.031.005a.334.334 0 0 1 .255.4v.021a.329.329 0 0 1-.382.266zm-3.27-.259v-.007a.331.331 0 0 1 .63-.2.324.324 0 0 1-.3.448.341.341 0 0 1-.325-.242zm-11.969.022a.372.372 0 0 1 .076-.5.35.35 0 0 1 .408.57l-.011.008a.338.338 0 0 1-.473-.076zm31.479-.085a.339.339 0 0 1-.147-.458c0-.007.007-.015.011-.023a.316.316 0 0 1 .43-.124l.014.006a.326.326 0 0 1 .145.438.344.344 0 0 1-.452.161zm-29.516-.052a.271.271 0 0 1-.133-.348s0 0 0-.006a.254.254 0 0 1 .33-.139.273.273 0 0 1 .146.348.266.266 0 0 1-.345.146zm3.77-.166a.212.212 0 0 1 .045-.288l.011-.007a.204.204 0 1 1 .218.344.2.2 0 0 1-.274-.049zm8.156-.108v-.008a.26.26 0 0 1 .137-.343.271.271 0 0 1 .349.149.262.262 0 0 1-.148.339h-.01a.254.254 0 0 1-.092.017.25.25 0 0 1-.236-.154zm20.446-.065a.18.18 0 0 1 0-.255.173.173 0 0 1 .244 0v.005a.179.179 0 0 1-.005.253l-.014.014a.164.164 0 0 1-.107.039.162.162 0 0 1-.118-.056zm-15.659-.081-.007-.01a.294.294 0 0 1 .083-.406.3.3 0 0 1 .418.068.321.321 0 0 1-.075.427.3.3 0 0 1-.423-.077zm7.807-.085a.066.066 0 0 1-.008-.021.166.166 0 0 1 .1-.213.18.18 0 0 1 .232.1.183.183 0 0 1-.1.236.026.026 0 0 1-.011 0 .169.169 0 0 1-.052.008.166.166 0 0 1-.166-.11zm-11.276-.209a.212.212 0 0 1-.065-.285l.041-.055c.013 0 .023-.015.047-.019a.186.186 0 0 1 .2.01.21.21 0 0 1 .064.285.206.206 0 0 1-.283.064zm-9.413-.11a.157.157 0 0 1 .109-.175h.011a.142.142 0 0 1 .153.127v.02a.129.129 0 0 1-.114.143h-.023a.137.137 0 0 1-.141-.115zm8.885-.456a.02.02 0 0 1 0-.007.344.344 0 1 1 .677-.123.331.331 0 0 1-.123.337c-.024 0-.034.017-.047.019a.2.2 0 0 1-.1.051h-.009a.345.345 0 0 1-.059.005.341.341 0 0 1-.344-.282zm-7.792-.076a.192.192 0 0 1 .088-.245h.006a.173.173 0 0 1 .225.094.192.192 0 0 1-.087.245.187.187 0 0 1-.068.013.181.181 0 0 1-.17-.107zm-7.311-.255a.272.272 0 0 1 .077.124.293.293 0 0 1-.053.229c-.005-.122-.009-.244-.024-.353zm29.811.248a.317.317 0 0 1-.257-.358.3.3 0 0 1 .343-.242.255.255 0 0 1 .142.065.339.339 0 0 1 .044-.3.281.281 0 0 1 .2-.126v-.012a.187.187 0 0 1 .086-.085.182.182 0 0 1 .231.091.133.133 0 0 1 .013.1.351.351 0 0 1 .049.436l-.003.005a.344.344 0 0 1-.479.081.085.085 0 0 1-.027-.027.428.428 0 0 1 0 .117.3.3 0 0 1-.3.258zm-8.113-.105a.128.128 0 0 1-.011-.012.26.26 0 0 1 .374-.359.269.269 0 0 1 0 .369l-.009.009a.251.251 0 0 1-.356-.007zm-16.939-.08a.247.247 0 0 1 .076-.329.239.239 0 1 1-.076.329zm7.937-.018a.147.147 0 0 1 .045-.2.135.135 0 0 1 .185.05.147.147 0 0 1-.045.2.135.135 0 0 1-.07.02.138.138 0 0 1-.111-.066zm7.837.047a.206.206 0 0 1-.167-.236.2.2 0 0 1 .245-.153.2.2 0 0 1 .153.236.2.2 0 0 1 0 .023.189.189 0 0 1-.182.139.185.185 0 0 1-.045-.006zm-3.263-.384a.249.249 0 0 1-.048-.337.226.226 0 0 1 .319-.04.235.235 0 1 1-.275.382zm7.52-.132a.373.373 0 0 1 .077-.5.35.35 0 0 1 .407.571l-.011.008a.34.34 0 0 1-.473-.076zm-5.236.025a.181.181 0 1 1 .243-.267.18.18 0 0 1 0 .255.169.169 0 0 1-.124.054.172.172 0 0 1-.114-.039zm4.255 0a.183.183 0 0 1-.105-.231.189.189 0 0 1 .232-.107.182.182 0 0 1 .1.231.066.066 0 0 1-.006.017.166.166 0 0 1-.154.1.169.169 0 0 1-.064-.007zm7.057-.14a.174.174 0 1 1 .233.1.178.178 0 0 1-.231-.1zm-22.451-.06a.261.261 0 0 1-.265-.257.277.277 0 0 1 .266-.271.258.258 0 0 1 .255.26.133.133 0 0 1 0 .019.252.252 0 0 1-.252.249zm11.7-.266a.344.344 0 0 1 .208-.435.337.337 0 1 1-.208.435zm14.973-.046a.3.3 0 0 1 .061-.426.307.307 0 0 1 .349.5.3.3 0 0 1-.413-.078zm-.389.005a.18.18 0 0 1 0-.255.171.171 0 0 1 .241-.008.181.181 0 0 1-.243.267zm-3.245-.252a.091.091 0 0 1-.012-.008.349.349 0 1 1 .366-.594.363.363 0 0 1 .116.488.342.342 0 0 1-.47.113zm-30.916.04a.145.145 0 0 1-.109-.169.162.162 0 0 1 .18-.112.145.145 0 0 1 .109.169.157.157 0 0 1-.151.114zm6.031-.258v-.011a.293.293 0 0 1 .218-.35.3.3 0 0 1 .141.582h-.013a.292.292 0 0 1-.346-.224zm3.6-.006a.219.219 0 0 1 .045-.289.216.216 0 0 1 .288.058l.006.01a.2.2 0 0 1-.065.268l-.016.012a.188.188 0 0 1-.258-.059zm-4.337.023a.351.351 0 0 1-.09-.49c0-.006.009-.014.014-.02a.33.33 0 0 1 .461-.07.349.349 0 0 1 .1.478.354.354 0 0 1-.483.1zm21.922-.085a.223.223 0 0 1 .055-.293.204.204 0 0 1 .23.337.2.2 0 0 1-.117.037.2.2 0 0 1-.169-.081zm-16.55-.093v-.005a.175.175 0 0 1 .092-.229.1.1 0 0 1 .023-.01.164.164 0 0 1 .209.1.053.053 0 0 1 .005.013.17.17 0 0 1-.094.221.177.177 0 0 1-.231-.091zm15.825-.4a.175.175 0 0 1 .169-.182.178.178 0 0 1 .013.355h-.007a.176.176 0 0 1-.175-.173zm-8.259-.282a.351.351 0 0 1 .258-.417h.009a.344.344 0 0 1 .415.251.363.363 0 0 1-.257.428.352.352 0 0 1-.424-.261zm16.067.036a.18.18 0 0 1 .1-.235.179.179 0 0 1 .231.1.182.182 0 0 1-.1.236.178.178 0 0 1-.064.012.18.18 0 0 1-.168-.11zm-11.13-.216a.208.208 0 1 1 .409-.076.209.209 0 0 1-.166.242l-.032.005h-.021a.19.19 0 0 1-.191-.168zm10.871-.079a.273.273 0 0 1-.146-.348.266.266 0 0 1 .345-.146.272.272 0 0 1 .145.348.267.267 0 0 1-.344.146zm-28.962-.166a.139.139 0 0 1 .274-.045.148.148 0 0 1-.11.175H20.588a.14.14 0 0 1-.143-.13zm8.033-.374a.3.3 0 1 1 .36.224l-.029.006a.283.283 0 0 1-.33-.227zm18.872.189a.212.212 0 0 1-.064-.286.207.207 0 0 1 .283-.063.211.211 0 0 1 .064.285.208.208 0 0 1-.174.1.2.2 0 0 1-.108-.037zm-21.674-.06a.148.148 0 0 1 .044-.2.147.147 0 0 1 .158.248.144.144 0 0 1-.2-.047zm22.132-.148a.09.09 0 0 1-.013-.014.325.325 0 0 1 .045-.457l.009-.008a.333.333 0 0 1 .469.041.355.355 0 0 1-.042.485.329.329 0 0 1-.468-.047zm-7.966-.015-.006-.008a.3.3 0 0 1 .068-.418.055.055 0 0 1 .014-.011.292.292 0 0 1 .408.075.031.031 0 0 1 .007.008.3.3 0 0 1-.069.418.3.3 0 0 1-.176.051.3.3 0 0 1-.246-.119zm-17.815-.192a.36.36 0 0 1 .079-.493.35.35 0 0 1 .408.57l-.008.005a.344.344 0 0 1-.478-.086zm7.9-.087a.179.179 0 0 1 .089-.233h.006a.173.173 0 0 1 .225.095.132.132 0 0 1 .009.02.166.166 0 0 1-.1.213l-.014.007a.171.171 0 0 1-.06.011.169.169 0 0 1-.151-.113zm12.728-.126a.356.356 0 0 1 .22-.437.341.341 0 0 1 .43.211.346.346 0 0 1-.22.436.338.338 0 0 1-.108.018.343.343 0 0 1-.322-.228zm-15.2.175-.012-.008a.34.34 0 0 1-.1-.468l.02-.027a.289.289 0 0 1 .038-.176.241.241 0 0 1 .331-.058.2.2 0 0 1 .082.148c.014.011.014.011.015.023a.333.333 0 0 1 .111.452.042.042 0 0 1-.005.008.346.346 0 0 1-.477.108zm5.632.018a.21.21 0 0 1-.065-.284.207.207 0 0 1 .284-.065l.011.008a.2.2 0 0 1 .041.28l-.006.009a.191.191 0 0 1-.265.052zm13.906-.291a.316.316 0 0 1 .229-.364.309.309 0 0 1 .361.233.057.057 0 0 0 0 .006.302.302 0 1 1-.592.124zm-13.079.03a.137.137 0 0 1-.039-.191.149.149 0 0 1 .2-.04.153.153 0 0 1 .029.205.133.133 0 0 1-.187.022zm3.387-.039a.192.192 0 0 1-.012-.257.181.181 0 0 1 .265.246.186.186 0 0 1-.133.056.182.182 0 0 1-.118-.045zm7.087-.256a.326.326 0 0 1-.108-.428.315.315 0 0 1 .425-.1.31.31 0 0 1 .095.417.3.3 0 0 1-.26.148.3.3 0 0 1-.152-.037zm2-.043a.188.188 0 0 1-.012-.256.185.185 0 0 1 .254-.011.188.188 0 0 1 .012.257.186.186 0 0 1-.133.056.182.182 0 0 1-.116-.047zm-20.544-.093a.358.358 0 0 1-.276-.417.353.353 0 0 1 .413-.266.347.347 0 0 1 .275.4.353.353 0 0 1-.412.278zm3.163-.241a.205.205 0 0 1 .332-.241.032.032 0 0 0 0 .007.205.205 0 0 1-.062.283.193.193 0 0 1-.113.036.2.2 0 0 1-.156-.086zm3-.108a.262.262 0 1 1 .364-.378.271.271 0 0 1 0 .38.263.263 0 0 1-.365 0zm-12.449 0a.264.264 0 0 1 .187-.494.266.266 0 0 1 .143.352s0 0 0 .005a.254.254 0 0 1-.33.139zm7.094-.221a.021.021 0 0 1 0-.006.255.255 0 0 1 .138-.332l.026-.011a.243.243 0 0 1 .31.149l.01.023a.246.246 0 0 1-.146.316l-.026.01a.241.241 0 0 1-.309-.148zm16.671.015a.194.194 0 0 1 .087-.246.012.012 0 0 1 .007 0 .173.173 0 0 1 .225.094.183.183 0 0 1-.09.243.189.189 0 0 1-.231-.091zm-7.765-.151c0-.009 0-.018-.006-.028a.285.285 0 0 1 .224-.334.344.344 0 0 1 .279.084.145.145 0 0 1 0-.062v-.008a.2.2 0 0 1 .23-.159h.005a.2.2 0 0 1 .161.234s0 .005 0 .008a.2.2 0 0 1-.23.159.255.255 0 0 1-.078-.039.31.31 0 0 1-.229.364l-.026.006a.284.284 0 0 1-.33-.228zm.589-.143a.278.278 0 0 0-.086-.129.339.339 0 0 1 .086.129zm3.989.357a.194.194 0 0 1-.105-.23.178.178 0 1 1 .166.241.18.18 0 0 1-.062-.011zm-24.023-.065a.145.145 0 0 1-.109-.169.161.161 0 0 1 .184-.111.145.145 0 0 1 .109.169v.017a.141.141 0 0 1-.135.1.145.145 0 0 1-.049-.006zm-1.538-.304a.247.247 0 0 1 0 .258 1.767 1.767 0 0 1 0-.258zm1.983.008a.241.241 0 0 1 .077-.328l.01-.006a.233.233 0 0 1 .317.084.249.249 0 0 1-.076.329.254.254 0 0 1-.327-.077zm-1.117-.079v-.01a.2.2 0 0 1 .147-.231.207.207 0 0 1 .25.15.213.213 0 0 1-.158.242.2.2 0 0 1-.042 0 .2.2 0 0 1-.197-.151zm22.613.077a.348.348 0 0 1-.1-.477.338.338 0 0 1 .623.11.2.2 0 0 1 .157-.1h.014a.171.171 0 0 1 .158.184.174.174 0 0 1-.168.183.241.241 0 0 1-.16-.1.26.26 0 0 1-.046.1c0 .006-.009.013-.014.02a.327.327 0 0 1-.459.07zm5.5-.037a.266.266 0 0 1-.143-.347.017.017 0 0 0 0-.006.254.254 0 0 1 .331-.139h.008a.262.262 0 0 1 .137.345.269.269 0 0 1-.333.145zm-.53-.049a.178.178 0 0 1-.182-.172.2.2 0 0 1 .182-.184.188.188 0 0 1 .184.183v.016a.171.171 0 0 1-.17.158zm-8.771-.212a.187.187 0 0 1 .181-.185.18.18 0 0 1 .171.185.175.175 0 0 1-.169.182.2.2 0 0 1-.179-.181zm-2.307.024a.364.364 0 0 1 .1-.482.342.342 0 0 1 .472.1.348.348 0 0 1-.092.48.352.352 0 0 1-.2.059.356.356 0 0 1-.276-.156zm1.881-.027a.183.183 0 1 1 .331-.156.207.207 0 0 1-.087.246.2.2 0 0 1-.071.013.2.2 0 0 1-.169-.102zm5.952-.393a.217.217 0 0 1 .047-.289.211.211 0 0 1 .29.057.2.2 0 0 1-.048.276.064.064 0 0 1-.013.009.2.2 0 0 1-.109.033.2.2 0 0 1-.163-.085zm-8.683-.014a.032.032 0 0 1-.009-.007.141.141 0 0 1-.031-.2.147.147 0 0 1 .2-.04.152.152 0 0 1 .029.2.136.136 0 0 1-.111.059.13.13 0 0 1-.075-.012zm8-.076a.351.351 0 0 1-.114-.476l.006-.011a.345.345 0 0 1 .474-.117.364.364 0 0 1 .116.488.354.354 0 0 1-.482.116zm-15.273-.232a.16.16 0 0 1 .044-.2.157.157 0 0 1 .2.047.146.146 0 0 1-.045.2.144.144 0 0 1-.2-.047zm-3.604-.11a.178.178 0 0 1-.005-.023.189.189 0 0 1 .154-.219.207.207 0 0 1 .25.15.212.212 0 0 1-.161.243.2.2 0 0 1-.044 0 .2.2 0 0 1-.194-.151zm-.37-.122a.14.14 0 1 1 .274-.049.147.147 0 0 1-.112.164h-.021a.139.139 0 0 1-.141-.119zm11.932-.328a.353.353 0 0 1-.286-.4.186.186 0 0 1 0-.02.336.336 0 0 1 .394-.268h.014a.341.341 0 0 1 .272.4.348.348 0 0 1-.343.293.352.352 0 0 1-.051-.005zm-16.208-.534v-.005a.346.346 0 0 1 .247-.421.361.361 0 0 1 .426.261v.005a.344.344 0 0 1-.26.411h-.014a.333.333 0 0 1-.4-.254zm9.425-.076c0-.007 0-.015-.007-.023a.19.19 0 0 1 .155-.22.207.207 0 0 1 .249.15.221.221 0 0 1-.16.244.2.2 0 0 1-.043 0 .2.2 0 0 1-.194-.151zm-2.2.033a.249.249 0 0 1-.048-.337.253.253 0 0 1 .209-.09.236.236 0 0 1 .192-.1h.005a.259.259 0 0 1 .261.258.133.133 0 0 1 0 .019.252.252 0 0 1-.255.249.221.221 0 0 1-.087-.013h-.008a.212.212 0 0 1-.14.053.216.216 0 0 1-.126-.038zm10.22-.061a.219.219 0 0 1 .046-.29.208.208 0 0 1 .287.059l.006.01a.2.2 0 0 1-.065.269l-.016.011a.187.187 0 0 1-.258-.059zm-2.221-.062a.343.343 0 0 1-.317-.361v-.021a.324.324 0 0 1 .357-.287.343.343 0 0 1 .318.361.333.333 0 0 1-.332.306zm-12.555-.376a.182.182 0 0 1-.18-.184.176.176 0 0 1 .351-.008.194.194 0 0 1-.167.194zm10.038-.062-.009-.012a.142.142 0 0 1-.031-.2.13.13 0 0 1 .161-.049.284.284 0 0 1-.106-.178.022.022 0 0 1 0-.008.341.341 0 0 1 .274-.4.36.36 0 0 1 .2.021.322.322 0 0 1 .119-.373l.013-.008a.34.34 0 0 1 .472.089.347.347 0 0 1-.069.485.334.334 0 0 1-.336.034v.031a.343.343 0 0 1-.274.4.315.315 0 0 1-.235-.044.131.131 0 0 1 .01.17.134.134 0 0 1-.187.035zm-5.932-.26a.1.1 0 0 1 .035-.092.239.239 0 0 1-.033-.154.361.361 0 0 1 .37-.321.336.336 0 0 1 .305.363.341.341 0 0 1-.357.32l-.014-.01a.144.144 0 0 1-.124.067.178.178 0 0 1-.182-.173zm4.285-.139a.194.194 0 0 1 .167-.194.188.188 0 0 1 .188.181.175.175 0 0 1-.171.18h-.006a.175.175 0 0 1-.178-.167zm-6.178 0a.36.36 0 0 1 .09-.492l.014-.008a.351.351 0 1 1-.1.5zm-3.595.031a.144.144 0 0 1-.108-.169.068.068 0 0 1 .005-.023.138.138 0 0 1 .174-.087.144.144 0 0 1 .109.169.163.163 0 0 1-.156.112zm-2.324-.371a.037.037 0 0 1-.019 0 .044.044 0 0 0-.018 0c-.011-.227-.011-.448-.011-.673a.271.271 0 0 1 .1 0 .344.344 0 0 1 .318.361.175.175 0 0 1 0 .023.332.332 0 0 1-.328.29zm10.77-.1a.365.365 0 0 1-.1-.489.056.056 0 0 1 .007-.011.343.343 0 0 1 .475-.083.347.347 0 0 1-.382.58zm-1.582-.545v-.006a.344.344 0 1 1 .672-.149s0 .009 0 .013a.336.336 0 0 1-.25.4h-.014a.345.345 0 0 1-.41-.264zm-1.743.143a.034.034 0 0 1-.007-.015.131.131 0 0 1 .055-.176l.019-.014a.125.125 0 0 1 .168.049.144.144 0 0 1-.035.2.144.144 0 0 1-.2-.047zm-3.407-.278a.1.1 0 0 1-.016-.017.247.247 0 0 1 .015-.35l.023-.026a.242.242 0 0 1 .342.022.256.256 0 0 1 0 .364.029.029 0 0 1-.009.009.248.248 0 0 1-.174.071.253.253 0 0 1-.181-.073zm.668-.448a.145.145 0 1 1 .286-.045.146.146 0 0 1-.111.164h-.019a.159.159 0 0 1-.156-.119zm-4.062-.175a.349.349 0 0 1 .273-.406h.008a.341.341 0 0 1 .4.277.18.18 0 0 1 0 .022.333.333 0 0 1-.275.384h-.009a.346.346 0 0 1-.059.005.341.341 0 0 1-.338-.282zm-.692-.248a.23.23 0 0 1 .219.154v.006a.255.255 0 0 1-.139.332.2.2 0 0 1-.08.023zm.962-.355a.153.153 0 0 1-.04-.2.146.146 0 0 1 .242.163.15.15 0 0 1-.2.04zm2.707-.03a.248.248 0 0 1-.058-.337.241.241 0 0 1 .332-.058.249.249 0 0 1 .057.336.242.242 0 0 1-.332.058z" fill="#fff" opacity=".86"/><path d="M64.483 36.765s-.372 7.085-2.426 10.458c0 0 9.929 1.959 14.373 3.667l.88-9.093z" fill="#e9dac1" stroke="#17212a" stroke-miterlimit="10" stroke-width="1.05"/><path d="M82.936 42.075c5.528-2.255 8.3-7.735 9.485-7.571s3.82-.114 4.122-1.363-1.254-5.842-1.592-10.232a9.547 9.547 0 0 1-.024-1.219c0-.02.006-.028-.006-.045l.01-.226c.011-.28.011-.76-.021-1.387-3.168 1.563-6.106 1.988-7.506 1.257-3.968-2.068-4.446.544-8.375 3.7s-7.411 1.351-12.6.075-5.41 3.957-3.421 5.771 4.455 2.856 3.234 4.951a2.81 2.81 0 0 1-1.759.98l.527.44c.166.139.34.27.52.392l2.5 1.7c4.501 3.034 9.725 4.898 14.906 2.777z" fill="#e9dac1" stroke="#17212a" stroke-miterlimit="10" stroke-width="1.05"/><path d="M51.346 24.946C42.807-.015 56.456.617 66.318.617c10.979 0 16.015-.206 16.015-.206L106.791 0a20.415 20.415 0 0 1-6.985 16.723A19.621 19.621 0 0 0 108.205.652c.01-.442.7-.46.689-.016a20.235 20.235 0 0 1-13.211 18.99c-3.461 1.888-6.767 2.447-8.281 1.658-3.965-2.066-4.444.55-8.378 3.71s-7.4 1.352-12.6.077-5.411 3.952-3.424 5.77 4.465 2.847 3.242 4.945-9.93 3.674-14.896-10.84z" fill="#17212a"/><path d="M60.479 0S47.251 6.557 33.8 23.9 22.7 48.371 15.321 58.64-4.564 79.3 1.7 96.312c0 0 36.168 24.919 81.742 7.79L74.683 3.884A78.771 78.771 0 0 0 60.479 0z" fill="url(#b)" transform="translate(1.747 47.005)"/><path d="M62.226 47.005s-13.228 6.557-26.679 23.9-11.1 24.471-18.479 34.74-19.885 20.66-13.621 37.672c0 0 36.168 24.919 81.742 7.79L76.43 50.889a78.771 78.771 0 0 0-14.204-3.884z" fill="#8edc97" stroke="#17212a" stroke-miterlimit="10" stroke-width="1.05"/><path d="M24.064 3.667s6.208 26.66 15.623 42.693S53.876 67.054 69.8 68.562a479.594 479.594 0 0 0 23.694 1.611l11.473 52.546s-17.623 5.741-30.937-2.383c-14.975-9.136-22.282-6.232-30.939-4.861s-28.7-.556-37.419-27.57S-1.723 37.7 9.691 0" fill="url(#b)" transform="translate(52.366 47.223)"/><path d="M76.43 50.89s6.208 26.66 15.623 42.693 14.189 20.694 30.113 22.202a479.594 479.594 0 0 0 23.694 1.611l11.473 52.546s-17.623 5.741-30.937-2.383c-14.975-9.136-22.282-6.232-30.939-4.861s-28.7-.556-37.419-27.57-7.395-50.205 4.019-87.905" fill="#8edc97" stroke="#17212a" stroke-miterlimit="10" stroke-width="1.05"/><path d="M99.832 23.435a4.886 4.886 0 0 1-6.584 2.548 5.294 5.294 0 0 1-2.28-1.98c-.425-.66.487-1.422.922-.757a3.885 3.885 0 0 0 5.269 1.481 3.691 3.691 0 0 0 1.536-1.737c.319-.697 1.457-.259 1.137.446z" fill="#17212a"/></svg>