<svg height="394" width="350" xmlns="http://www.w3.org/2000/svg" xmlns:xlink="http://www.w3.org/1999/xlink"><defs><path id="p" d="M75.107 50.408s6.154 26.408 15.49 42.29c9.336 15.88 14.068 20.498 29.858 21.992a475.54 475.54 0 0 0 23.492 1.595l11.375 52.049s-17.473 5.686-30.674-2.361c-14.848-9.05-22.093-6.173-30.676-4.815-8.583 1.358-28.46-.55-37.101-27.31s-7.332-49.732 3.985-87.072"/><path id="d" d="M154.609 302.617c-6.005-15.955-11.34-10.85-10.125-23.784 1.207-12.932-1.624-21.304-6.885-34.979-5.253-13.693-17.4-20.155-1.216-65.397 6.032-16.845 7.963-29.936 8.018-39.744a125.43 125.43 0 0 1-11.516.584l-41.24-4.608-4.733 32.282c-.39 2.262-.77 4.57-1.114 6.916-2.83 19.404-4.445 42.97-2.431 62.736 2.032 19.775 48.242 120.735 48.242 120.735h26.48s2.193-39.664-3.48-54.74z"/><path id="f" d="M94.449 54.46s10.436 25.229-34.243 56.2c0 0 15.956 25.051 28.266 25.507 0 0 32.505-23.06 17.061-91.052z"/><path id="h" d="M94.449 54.46s1.895 56.616-15.483 83.496c0 0 39.8 29.12 68.948 11.76 0 0-8.884-79.294-41.326-104.694 0 0-11.209 7.762-12.14 9.438z"/><path id="c" d="M135.668 166.43c-8.853 38.818-7.36 32.968-11.925 67.047-3.62 27.016-1.596 15.687-2.96 44.27-1.365 28.591 2.18 61.55-16.222 79.592l-24.907.018s.76-76.802 1.178-101.444c.344-21.388 2.524-46.429 4.148-62.18.093-.899.214-1.799.371-2.698 1.968-11.162 2.506-15.018 3.462-21.48.102-.649 5.832-35.979 5.925-36.554 9.42 4.816 7.65 6.04 20.315 7.537 0 0 11.723 2.345 18.387-.335.64-.25 1.299-.501 1.995-.751a26.151 26.151 0 0 0 3.573-1.613c.176 7.361-.64 16.753-3.34 28.591z"/><path id="j" d="M109.303 43.219s58.79 33.696 58.79 113.217c0 0-23.543 3.36-44.283-9.52 0 0-11.075-75.152-29.361-92.457z"/><path id="k" d="M99.587 244.662c-1.336-17.18-5.837-32.826-8.595-48.511-.38-2.165-.887-4.299-1.172-6.478-1.36-10.438-5.78-44.142-6.691-48.692l-20.295 2.356-9.736 1.533s-6.905 1.324-12.06 4.038c-1.993 9.804-2.455 21.974.8 36.236 9.381 41.133 10.11 35.358 8.667 64.22-1.451 28.861 3.248 19.12 4.69 49.424 1.444 30.312-8.623 25.105 6.566 64.249l36.319.151s3.533-92.482 1.507-118.526z"/><path id="l" d="M83.7 202.266s3.38-56.597 5.365-63.68l-61.27 3.589-3.361 6.496c-.653-.132.603.134 0 0a95.429 95.429 0 0 0 1.79 55.418c14.968 44.876 4.682 42.75-.168 56.33-4.876 13.57-7.483 21.871-6.375 34.698 1.126 12.835-15.124 22.857-18.13 39.44-2.989 16.6-.738 28.725-.738 28.725l36.008-.116s41.588-94.012 43.583-113.613c1.798-17.657 1.798-24.541 3.295-47.287z"/><path id="n" d="M61.024 46.56s-13.116 6.496-26.448 23.673-11.007 24.24-18.326 34.413c-7.32 10.172-19.716 20.466-13.503 37.315 0 0 35.861 24.683 81.048 7.716l-8.688-99.269a78.162 78.162 0 0 0-14.083-3.847z"/><linearGradient id="b" x1="50%" x2="50%" y1="0%" y2="100%"><stop offset="0" stop-color="#f5f6f0"/><stop offset="1" stop-color="#ea593f"/></linearGradient><linearGradient id="g" x1="57.231%" x2="17.784%" xlink:href="#a" y1="48.664%" y2="68.157%"/><linearGradient id="a"><stop offset="0" stop-color="#f5f6f0"/><stop offset=".696" stop-color="#d6d5d5"/><stop offset="1" stop-color="#d8d8d8"/></linearGradient><linearGradient id="m" x1="60.633%" x2="2.63%" xlink:href="#a" y1="48.664%" y2="68.157%"/><linearGradient id="e" x1="55.459%" x2="25.679%" xlink:href="#a" y1="48.664%" y2="68.157%"/><linearGradient id="o" x1="63.121%" x2="-8.456%" xlink:href="#a" y1="48.664%" y2="68.157%"/><linearGradient id="i" x1="57.764%" x2="15.409%" xlink:href="#a" y1="48.664%" y2="68.157%"/></defs><g fill="none" transform="translate(1)"><path d="M203.06 134.432s-12.688 10.088-17.455 11.697c-4.768 1.609-16.247-9.415-16.247-9.415l21.653-12.551z" fill="#fff" stroke="#17212a" stroke-width="1.411"/><path d="M137.02 123.996s22.827 4.481 28.362 2.355c5.535-2.127 13.198-5.317 18.52-3.616 5.322 1.702 20.436 10.847 21.287 14.462.852 3.615-16.39 9.145-19.584 8.081-3.194-1.064-15.114-9.145-23.842-7.018-8.728 2.127-26.397 10.846-26.397 10.846z" fill="#e9dac1" stroke="#17212a" stroke-width="1.041"/><g transform="translate(167.724 4.481)"><path d="M89.43 39.049s5.415 8.561 5.019 15.411c0 0 7.648 3.294 12.658-6.982l-4.747-10.011z" fill="#e9dac1" stroke="#17212a" stroke-width="1.041"/><path d="M83.183 10.907s-4.97 8.688-8.52 11.171-.976 3.99 1.42 4.344c0 0 5.237 19.19 26.277 11.045l6.455-12.487-3.435-11.667-13.877 3.431z" fill="#e9dac1" stroke="#17212a" stroke-width="1.041"/><path d="M104.561 357.357H79.66s-12.997 12.189-26.922 18.15-18.102 14.011-18.102 14.011l81.466-.002z" fill="#334656"/><path d="m158.088 357.357-26.48.002s-11.419 12.187-25.344 18.149c-13.925 5.962-18.102 14.011-18.102 14.011l81.466-.002z" fill="#334656"/><use fill="url(#b)" xlink:href="#c"/><use fill="#1d918b" xlink:href="#c"/><use fill="#1d918b" stroke="#17212a" stroke-width="1.041" xlink:href="#c"/><use fill="url(#b)" xlink:href="#d"/><use fill="#1d918b" xlink:href="#d"/><use fill="#1d918b" stroke="#17212a" stroke-width="1.041" xlink:href="#d"/><path d="M116.084 165.746a.165.165 0 0 0-.215-.09l-.003.002a.168.168 0 0 0-.087.22.165.165 0 0 0 .215.088h.002a.169.169 0 0 0 .088-.22zm-1.556-3.773a.156.156 0 0 0-.198-.097l-.02.008a.171.171 0 0 0-.098.218.18.18 0 0 0 .228.09.167.167 0 0 0 .088-.22zm-1.556-3.774a.172.172 0 0 0-.323.114c.001.006.004.01.006.016a.165.165 0 0 0 .215.09l.002-.001a.172.172 0 0 0 .1-.219zm-1.565-3.786a.165.165 0 0 0-.214-.09l-.003.001a.181.181 0 0 0-.09.23.166.166 0 0 0 .216.09h.003a.183.183 0 0 0 .088-.231zM98.91 165.724a.162.162 0 0 0-.209.1.158.158 0 0 0 .065.212l.019.008a.17.17 0 0 0 .22-.096.171.171 0 0 0-.095-.224zm22.93-6.624a.154.154 0 0 0-.218-.01l-.013.014a.157.157 0 0 0-.008.222l.01.01a.154.154 0 0 0 .218.01l.013-.013a.157.157 0 0 0 .008-.222l-.01-.01zm-2.873-2.889a.163.163 0 0 0-.23.004.195.195 0 0 0-.049.098.165.165 0 0 0 .049.145c.008.01.02.016.032.016l.011.002c.059.04.138.031.187-.021a.169.169 0 0 0 .004-.239.008.008 0 0 0-.004-.005zm-11.525 9.012a.174.174 0 0 0-.002.347.174.174 0 0 0 .002-.347zm-.007-4.092a.178.178 0 0 0-.173.173.16.16 0 0 0 .157.163l.016-.001a.167.167 0 0 0 .171-.162.185.185 0 0 0-.171-.173zm24.832.28a.309.309 0 0 0-.437.027l-.004.005a.32.32 0 0 0 .023.45l.005.006a.315.315 0 0 0 .445-.022l.008-.009a.334.334 0 0 0-.04-.457zm-5.795-5.078a.325.325 0 0 0-.453.03.329.329 0 0 0 .03.456.323.323 0 0 0 .423-.486zm-11.822 29.8a.325.325 0 0 0-.3.34c.007.17.15.3.319.293l.02-.002a.324.324 0 0 0 .299-.34.314.314 0 0 0-.337-.291h-.001zm-.535-7.747a.318.318 0 0 0-.289.342.319.319 0 1 0 .638-.035v-.005a.34.34 0 0 0-.349-.302zm-.523-7.745a.342.342 0 0 0-.301.352c.007.169.15.299.32.292l.019-.002a.316.316 0 0 0 .3-.331v-.01a.321.321 0 0 0-.338-.301zm-.536-7.736a.318.318 0 0 0 .055.635.32.32 0 1 0-.051-.636h-.004zm-.522-7.746a.314.314 0 0 0-.289.342.314.314 0 1 0 .627-.04.325.325 0 0 0-.338-.302zm17.233 23.223a.314.314 0 0 0-.42-.144l-.01.004a.321.321 0 0 0-.152.429l.001.003c.074.155.261.221.416.147l.013-.007a.331.331 0 0 0 .152-.432zm-3.425-6.941a.314.314 0 0 0-.419-.146l-.01.005a.321.321 0 0 0-.152.428l.001.003c.074.155.261.221.417.146l.012-.006a.329.329 0 0 0 .15-.43zm-3.425-6.941a.336.336 0 0 0-.44-.142.325.325 0 0 0 .287.585.346.346 0 0 0 .153-.443zm-3.437-6.931a.323.323 0 0 0-.427-.152.331.331 0 0 0-.14.432c.074.155.26.221.416.147l.012-.007a.306.306 0 0 0 .147-.407c-.004-.004-.006-.009-.008-.013zm-19.254 23.023a.306.306 0 0 0-.397.211.313.313 0 0 0 .197.398.321.321 0 0 0 .406-.198.34.34 0 0 0-.206-.411zm2.454-7.357a.317.317 0 0 0-.404.191l-.002.007a.324.324 0 0 0 .196.41.34.34 0 0 0 .408-.21.313.313 0 0 0-.196-.398h-.002zm2.445-7.37a.322.322 0 0 0-.407.199.319.319 0 0 0 .194.407l.013.004a.306.306 0 0 0 .39-.184l.005-.016a.323.323 0 0 0-.195-.41zm2.445-7.37a.321.321 0 0 0-.397.211.308.308 0 0 0 .197.398.321.321 0 0 0 .407-.198.332.332 0 0 0-.207-.411zm25.166 10.47a.286.286 0 0 0-.388-.1.293.293 0 0 0-.09.404.283.283 0 1 0 .478-.305zm-3.63-5.881a.2.2 0 0 0-.11-.108l-.012-.002a.282.282 0 0 0-.267.021.293.293 0 0 0-.09.405.284.284 0 0 0 .39.088.24.24 0 0 0 .115-.17.247.247 0 0 0-.025-.234zm-3.63-5.868a.283.283 0 0 0-.39-.089.305.305 0 0 0-.09.405.287.287 0 1 0 .48-.316zm-17.79 22.332a.283.283 0 0 0-.34.214l-.001.006a.276.276 0 0 0 .194.338l.01.003a.288.288 0 0 0 .142-.56h-.006zm1.554-6.75a.283.283 0 0 0-.34.219.276.276 0 0 0 .194.338l.01.003a.283.283 0 0 0 .34-.209.292.292 0 0 0-.204-.352zm1.555-6.752a.283.283 0 0 0-.339.214l-.001.006a.27.27 0 0 0 .206.341.283.283 0 0 0 .339-.214l.001-.005a.29.29 0 0 0-.206-.342zm1.545-6.753a.297.297 0 0 0-.34.22.286.286 0 0 0 .555.135.303.303 0 0 0-.215-.355zm9.953 17.175a.302.302 0 0 0-.231.34.28.28 0 0 0 .322.23h.002a.291.291 0 0 0 .24-.327.295.295 0 0 0-.333-.243zm-1.12-6.83a.302.302 0 0 0-.232.338.28.28 0 0 0 .323.231h.002a.275.275 0 0 0 .231-.313l-.002-.014a.287.287 0 0 0-.323-.243zm-1.124-6.821a.275.275 0 0 0-.231.313l.002.014a.28.28 0 0 0 .323.23h.001a.285.285 0 0 0 .23-.326.27.27 0 0 0-.325-.231zm-1.12-6.832a.291.291 0 0 0-.24.327c.01.06.038.116.08.161l.011.002a.273.273 0 0 0 .243.068.285.285 0 0 0 .23-.327.28.28 0 0 0-.322-.23h-.002zM96.872 170.81a.29.29 0 0 0-.399.062.286.286 0 0 0 .065.4l.006.003c.116.091.284.071.375-.046l.012-.016a.282.282 0 0 0-.051-.397l-.008-.006zm3.987-5.65a.28.28 0 0 0-.389.074.283.283 0 1 0 .459.33.283.283 0 0 0-.07-.404zm32.248-10.32a.173.173 0 0 0-.24-.01.18.18 0 0 0-.01.243c.065.066.17.07.24.01a.178.178 0 0 0 .01-.242zm-13.335 8.983a.167.167 0 1 0 .159.174v-.002a.166.166 0 0 0-.16-.172zm.14-4.084a.162.162 0 0 0-.171.15v.012a.166.166 0 0 0 .16.173.176.176 0 0 0 .183-.16.17.17 0 0 0-.167-.175h-.005zm.153-4.082a.161.161 0 0 0-.172.15v.011a.166.166 0 1 0 .172-.161zm7.83 4.722a.159.159 0 0 0-.198-.105l-.017.006a.165.165 0 0 0-.101.21l.002.008a.18.18 0 0 0 .216.1.172.172 0 0 0 .099-.219zm-1.42-3.835a.16.16 0 0 0-.217-.089.175.175 0 0 0-.099.218.18.18 0 0 0 .216.1.172.172 0 0 0 .1-.23zm-14.162 3.35a.155.155 0 0 0-.21.064l-.009.02a.165.165 0 0 0 .08.22l.004.001a.162.162 0 0 0 .215-.08l.003-.006a.165.165 0 0 0-.083-.22zm1.686-3.72a.155.155 0 0 0-.21.065l-.009.02a.163.163 0 0 0 .073.22c.087.039.19.001.23-.085a.165.165 0 0 0-.08-.219H114zm5.521 9.051a.21.21 0 0 0-.227.154.191.191 0 0 0 .14.228.178.178 0 0 0 .227-.143.196.196 0 0 0-.14-.239zm.999-4.556a.21.21 0 0 0-.228.153.195.195 0 0 0 .378.09v-.003a.214.214 0 0 0-.15-.24zm.998-4.556a.21.21 0 0 0-.227.153.191.191 0 0 0 .14.229.18.18 0 0 0 .223-.125l.005-.029a.191.191 0 0 0-.14-.228zm7.697 7.022a.187.187 0 0 0-.22-.158l-.01-.002a.198.198 0 0 0-.146.224.187.187 0 0 0 .219.158.235.235 0 0 0 .074-.037.176.176 0 0 0 .083-.185zm-1.03-4.756a.212.212 0 0 0-.158.234.203.203 0 0 0 .232.147.187.187 0 0 0 .146-.221v-.001a.191.191 0 0 0-.22-.159zm-16.357.96a.182.182 0 0 0-.261.058.191.191 0 0 0 .314.217.2.2 0 0 0-.053-.275zm2.655-3.828a.197.197 0 0 0-.272.056.184.184 0 0 0 .046.256l.01.007a.177.177 0 0 0 .258-.045.196.196 0 0 0-.042-.274zm19.11 11a.328.328 0 1 0 .085.65h.008a.339.339 0 0 0 .282-.379.327.327 0 0 0-.375-.272zm-1.225-7.902a.33.33 0 0 0 .105.652c.178-.03.299-.2.27-.38a.323.323 0 0 0-.366-.272h-.009zm-28.52 15.901a.322.322 0 0 0-.45.064l-.01.012a.326.326 0 0 0 .06.457l.003.003a.333.333 0 1 0 .399-.535h-.003zm4.673-6.47a.322.322 0 0 0-.45.063l-.008.012a.329.329 0 1 0 .53.388l.002-.001a.336.336 0 0 0-.074-.462zm4.674-6.47a.32.32 0 0 0-.449.053l-.008.01a.351.351 0 0 0 .072.474.331.331 0 0 0 .385-.538zm4.675-6.472a.32.32 0 0 0-.45.055l-.006.01a.355.355 0 0 0 .072.473.33.33 0 0 0 .458-.076.318.318 0 0 0-.053-.447l-.021-.015zm2.714 23.013a.323.323 0 0 0-.389.24l-.001.007a.334.334 0 0 0 .23.403.35.35 0 0 0 .402-.246.333.333 0 0 0-.242-.404zm1.869-7.775a.316.316 0 0 0-.386.226l-.005.022a.323.323 0 0 0 .233.391.331.331 0 0 0 .4-.244v-.002a.317.317 0 0 0-.242-.393zm1.871-7.785a.33.33 0 0 0-.39.248.334.334 0 0 0 .242.404.323.323 0 0 0 .389-.24l.001-.008a.334.334 0 0 0-.242-.404zm1.047 18.134a.334.334 0 1 0 .255.397l.001-.003a.331.331 0 0 0-.254-.394h-.002zm1.542-7.82a.35.35 0 0 0-.393.27.338.338 0 0 0 .257.384c.18.037.355-.08.392-.258a.34.34 0 0 0-.256-.395zm1.53-7.809a.328.328 0 0 0-.123.644c.18.036.355-.08.392-.26a.34.34 0 0 0-.269-.384zm1.543-7.82a.322.322 0 0 0-.38.253l-.001.008a.33.33 0 0 0 .257.384c.17.038.338-.07.376-.24.002-.007.004-.013.004-.02a.323.323 0 0 0-.256-.384zm-18.917-3.855a.31.31 0 0 0-.43-.097l-.018.013a.329.329 0 0 0 .356.551.328.328 0 0 0 .101-.452l-.01-.015zm1.161 17.397a.317.317 0 0 0-.45.1.328.328 0 0 0 .547.366.33.33 0 0 0-.087-.46l-.01-.006zm4.388-6.638a.317.317 0 0 0-.44.085l-.01.015a.329.329 0 0 0 .546.365.332.332 0 0 0-.09-.461l-.006-.004zm4.386-6.638a.331.331 0 0 0-.364.552.331.331 0 1 0 .364-.552zm4.345 9.503a.237.237 0 0 0-.328.128.249.249 0 0 0 .128.32.244.244 0 0 0 .328-.129.248.248 0 0 0-.128-.32zm2.35-5.53a.244.244 0 0 0-.324.12l-.004.01a.256.256 0 0 0 .127.33.252.252 0 0 0 .327-.129.255.255 0 0 0-.126-.33zm2.351-5.527a.252.252 0 0 0-.328.128.256.256 0 0 0 .127.33.252.252 0 0 0 .327-.128.256.256 0 0 0-.126-.33zm-13.02 1.735a.235.235 0 0 0-.343-.012.246.246 0 0 0-.016.347l.012.012a.238.238 0 0 0 .344.001.243.243 0 0 0 .006-.344l-.003-.004z" fill="#fff" opacity=".86"/><use fill="url(#e)" xlink:href="#f"/><use fill="#8edc97" stroke="#17212a" stroke-width="1.041" xlink:href="#f"/><use fill="url(#g)" xlink:href="#h"/><use fill="#8edc97" stroke="#17212a" stroke-width="1.041" xlink:href="#h"/><use fill="url(#i)" xlink:href="#j"/><use fill="#8edc97" stroke="#17212a" stroke-width="1.041" xlink:href="#j"/><path d="M109.077 219.771c.833-10.08 10.793-16.047 20.29-13.772 9.024 2.161 14.506 10.248 15.897 19.008.202 1.275 2.142.734 1.94-.535-1.66-10.451-9.074-19.713-20.075-20.892-10.078-1.08-19.223 6.013-20.065 16.19-.107 1.29 1.906 1.283 2.013.001z" fill="#334656"/><path d="M144.292 181.979c-8.355 17.577-4.62 18.422-3.212 25.94 1.401 7.518-1.28 8.917-14.036 8.153-12.75-.764-7.904-14.272-7.904-14.272s-1.232 1.978-2.487-.531-.5-10.035 9.296-16.315c8.83-5.653 8.475-28.448 8.322-32.87a74.285 74.285 0 0 0 22.537 4.639c-1.86 3.546-6.286 12.166-12.516 25.256z" fill="#e9dac1" stroke="#17212a" stroke-width="1.041"/><path d="m72.93 215.123 108.346 10.852-7.517 74.913-108.347-10.852z" fill="#334656"/><path d="M168 237.252a.172.172 0 0 0-.225-.093h-.003a.178.178 0 0 0-.092.231c.036.089.137.13.226.093h.002a.176.176 0 0 0 .093-.231zm-1.632-3.962a.164.164 0 0 0-.228-.092.18.18 0 0 0-.104.229.19.19 0 0 0 .24.094.177.177 0 0 0 .092-.23zm-1.633-3.962a.18.18 0 1 0-.333.136c.037.089.138.13.227.094l.002-.001a.18.18 0 0 0 .104-.229zm-1.644-3.975a.172.172 0 0 0-.226-.093h-.002a.191.191 0 0 0-.095.243c.037.089.138.13.227.094l.002-.001a.192.192 0 0 0 .094-.243zm-13.122 11.876a.17.17 0 0 0-.218.104.165.165 0 0 0 .088.232.179.179 0 0 0 .231-.1v-.002a.182.182 0 0 0-.1-.234zm24.074-6.954a.162.162 0 0 0-.241.002.165.165 0 0 0-.01.233l.011.01a.162.162 0 0 0 .242-.002.165.165 0 0 0-.002-.243zm-3.016-3.034a.17.17 0 0 0-.241.003.198.198 0 0 0-.051.103.17.17 0 0 0 .052.153c.008.01.02.017.033.017l.012.001a.151.151 0 0 0 .196-.021.177.177 0 0 0 0-.256zm-3.016-3.021a.162.162 0 0 0-.242.002.163.163 0 0 0-.01.231l.013.013a.17.17 0 0 0 .239.01v-.001a.177.177 0 0 0 0-.255zm-9.084 12.483c-.1 0-.182.082-.182.183 0 .099.08.18.18.182.1-.001.181-.083.181-.184 0-.099-.08-.179-.18-.181zm-.007-4.297a.187.187 0 0 0-.182.182.168.168 0 0 0 .165.171h.017a.176.176 0 0 0 .18-.17.194.194 0 0 0-.18-.183zm19.986-5.037a.341.341 0 0 0-.475.032.346.346 0 0 0 .03.478.338.338 0 1 0 .445-.51zm-12.412 31.287a.341.341 0 0 0-.315.358.322.322 0 0 0 .356.304.341.341 0 0 0 .315-.358.33.33 0 0 0-.353-.304h-.003zm-.56-8.134a.333.333 0 0 0-.303.36.335.335 0 1 0 .67-.036v-.006a.358.358 0 0 0-.368-.318zm-.55-8.131a.36.36 0 0 0-.316.37.322.322 0 0 0 .356.304.332.332 0 0 0 .315-.348v-.01a.337.337 0 0 0-.355-.316zm-.562-8.122a.335.335 0 1 0 .005 0h-.005zm-.55-8.132a.33.33 0 0 0-.303.355l.001.004a.33.33 0 1 0 .657-.042.338.338 0 0 0-.354-.317zm14.498 17.094a.33.33 0 0 0-.44-.153l-.01.005a.338.338 0 0 0-.16.45v.003a.328.328 0 0 0 .437.154l.013-.006a.345.345 0 0 0 .16-.453zm-3.595-7.287a.352.352 0 0 0-.461-.15.345.345 0 0 0-.148.455.34.34 0 0 0 .449.16.365.365 0 0 0 .16-.465zm-3.61-7.277a.338.338 0 0 0-.448-.16.348.348 0 0 0-.147.455.328.328 0 0 0 .437.153l.013-.006a.32.32 0 0 0 .153-.427l-.007-.015zm-20.214 24.171a.32.32 0 0 0-.408.196l-.009.027a.328.328 0 0 0 .206.417l.002.001a.338.338 0 0 0 .427-.209.36.36 0 0 0-.218-.432zm2.578-7.724a.332.332 0 0 0-.425.201l-.002.007a.341.341 0 0 0 .205.43.356.356 0 0 0 .428-.22.328.328 0 0 0-.205-.417h-.001zm2.566-7.738a.338.338 0 0 0-.426.21.334.334 0 0 0 .203.426l.014.005a.32.32 0 0 0 .41-.193l.005-.017a.343.343 0 0 0-.206-.43zm2.567-7.737a.338.338 0 0 0-.417.222.322.322 0 0 0 .194.414l.014.005a.338.338 0 0 0 .426-.21.35.35 0 0 0-.217-.431zm18.8-1.343a.297.297 0 0 0-.41-.093.32.32 0 0 0-.094.424.3.3 0 1 0 .504-.331zm-18.68 23.447a.298.298 0 0 0-.356.224l-.001.006a.29.29 0 0 0 .203.355l.012.004a.303.303 0 0 0 .145-.589h-.003zm1.633-7.088a.298.298 0 0 0-.356.224l-.001.007a.29.29 0 0 0 .203.355l.012.003a.297.297 0 0 0 .356-.218.308.308 0 0 0-.214-.371zm1.633-7.088a.299.299 0 0 0-.356.224l-.002.006c-.045.15.04.306.19.351l.026.007c.16.036.32-.065.355-.225l.002-.006a.302.302 0 0 0-.215-.357zm1.621-7.09a.312.312 0 0 0-.357.231.3.3 0 0 0 .583.142.319.319 0 0 0-.226-.373zm10.45 18.032a.318.318 0 0 0-.243.356c.027.16.178.269.34.242a.306.306 0 0 0 .254-.342.31.31 0 0 0-.351-.256zm-1.177-7.172a.317.317 0 0 0-.242.356c.026.16.178.268.339.242h.001a.289.289 0 0 0 .243-.33l-.002-.014a.302.302 0 0 0-.339-.254zm-1.178-7.16a.289.289 0 0 0-.243.328l.003.015c.026.16.178.269.339.242h.001a.299.299 0 0 0 .241-.344.286.286 0 0 0-.32-.245c-.008 0-.014.002-.02.003zm-1.176-7.172a.306.306 0 0 0-.253.342.334.334 0 0 0 .085.17l.012.001c.069.065.164.091.256.072a.299.299 0 0 0 .24-.344.294.294 0 0 0-.338-.242h-.002zm-23.156 15.563a.305.305 0 0 0-.419.063.3.3 0 0 0 .069.42l.005.004a.281.281 0 0 0 .408-.065.297.297 0 0 0-.063-.422zm4.185-5.932a.296.296 0 0 0-.409.077.297.297 0 1 0 .47.363c.005-.006.01-.01.013-.016a.297.297 0 0 0-.063-.416l-.011-.008zm19.856-1.404a.176.176 0 1 0 .168.183v-.002a.174.174 0 0 0-.168-.181zm.148-4.287a.168.168 0 0 0-.18.156v.013a.174.174 0 0 0 .167.182h.001a.185.185 0 0 0 .193-.168.179.179 0 0 0-.18-.183zm.16-4.286a.167.167 0 0 0-.18.157v.012a.174.174 0 1 0 .18-.17zm8.222 4.957a.167.167 0 0 0-.227-.105.174.174 0 0 0-.107.222c0 .003.002.005.003.008a.189.189 0 0 0 .226.104.18.18 0 0 0 .105-.229zm-1.491-4.027a.167.167 0 0 0-.216-.098l-.013.006a.184.184 0 0 0-.104.229.189.189 0 0 0 .227.104.181.181 0 0 0 .11-.231l-.004-.01zm-14.87 3.517a.163.163 0 0 0-.229.09.173.173 0 0 0 .084.23l.004.001a.17.17 0 0 0 .226-.084l.003-.006a.173.173 0 0 0-.083-.23h-.004zm1.771-3.904a.162.162 0 0 0-.23.09.172.172 0 0 0 .077.23.184.184 0 0 0 .242-.089.173.173 0 0 0-.084-.229l-.005-.002zm5.796 9.502a.219.219 0 0 0-.239.162.2.2 0 0 0 .147.24.188.188 0 0 0 .239-.15.206.206 0 0 0-.147-.252zm1.049-4.783a.219.219 0 0 0-.24.161.204.204 0 0 0 .396.093l.002-.002a.223.223 0 0 0-.158-.252zm1.048-4.784a.219.219 0 0 0-.24.162.2.2 0 0 0 .148.24.19.19 0 0 0 .24-.162.2.2 0 0 0-.148-.24zm7 2.38a.223.223 0 0 0-.167.244.213.213 0 0 0 .244.155.197.197 0 0 0 .153-.233.2.2 0 0 0-.23-.166zm-17.174 1.008a.19.19 0 0 0-.265.046l-.008.014a.2.2 0 0 0 .33.228.21.21 0 0 0-.057-.288zm2.788-4.02a.206.206 0 0 0-.285.058.193.193 0 0 0 .048.27l.01.006a.186.186 0 0 0 .272-.048.206.206 0 0 0-.045-.286zm-11.166 19.947a.338.338 0 0 0-.473.067l-.009.013a.342.342 0 0 0 .066.484.35.35 0 1 0 .416-.564zm4.907-6.794a.337.337 0 0 0-.48.08.345.345 0 1 0 .554.41c.002 0 .002-.002.004-.004a.356.356 0 0 0-.078-.486zm4.907-6.793a.336.336 0 0 0-.471.057l-.009.01a.368.368 0 0 0 .076.497.347.347 0 1 0 .404-.564zm4.907-6.793a.337.337 0 0 0-.471.057l-.008.01a.371.371 0 0 0 .075.497c.156.11.37.074.482-.08a.335.335 0 0 0-.056-.469l-.022-.015zm2.85 24.16a.34.34 0 0 0-.408.253l-.002.007a.35.35 0 0 0 .243.423.368.368 0 0 0 .422-.258.35.35 0 0 0-.255-.425zm1.962-8.162a.333.333 0 0 0-.405.237l-.005.023a.338.338 0 0 0 .245.41.349.349 0 0 0 .42-.256l.002-.002a.332.332 0 0 0-.235-.407l-.022-.005zm1.965-8.174a.347.347 0 0 0-.41.26.35.35 0 0 0 .254.425.34.34 0 0 0 .408-.253l.002-.007a.35.35 0 0 0-.254-.425zm1.962-8.162a.345.345 0 0 0-.155.672.343.343 0 0 0 .41-.247.35.35 0 0 0-.255-.425zm-.863 27.2a.351.351 0 0 0-.15.685.35.35 0 0 0 .416-.267l.001-.002a.348.348 0 0 0-.266-.415zm1.62-8.208a.368.368 0 0 0-.413.284c-.03.184.087.36.27.402a.348.348 0 0 0 .41-.272.358.358 0 0 0-.268-.414zm-16.636-20.457a.327.327 0 0 0-.45-.103l-.02.013a.345.345 0 0 0 .374.579.343.343 0 0 0 .106-.474l-.01-.015zm1.219 18.264a.334.334 0 0 0-.463.09l-.01.015a.344.344 0 1 0 .574.384.347.347 0 0 0-.091-.483l-.01-.006zm4.606-6.968a.334.334 0 0 0-.472.105.344.344 0 0 0 .574.384.35.35 0 0 0-.095-.485l-.007-.004zm4.607-6.97a.348.348 0 0 0-.382.58.348.348 0 0 0 .391-.574l-.01-.005zm4.56 9.977a.247.247 0 0 0-.332.109c-.004.009-.008.017-.01.025a.261.261 0 0 0 .133.336.256.256 0 0 0 .345-.135.262.262 0 0 0-.135-.335zm2.468-5.804a.256.256 0 0 0-.34.125c0 .003-.002.006-.004.01a.268.268 0 0 0 .133.347.266.266 0 0 0 .344-.135.269.269 0 0 0-.133-.347zm-11.202-3.982a.248.248 0 0 0-.35-.023l-.01.009a.259.259 0 0 0-.016.365l.013.012a.25.25 0 0 0 .352.01l.009-.01a.255.255 0 0 0 .006-.36l-.004-.003z" fill="#fff" opacity=".86"/><path d="M0 133.354s12.985 9.782 17.882 8.294c4.897-1.489 4.258-5.105.212-6.593S7.451 127.4 0 133.354zM60.205 110.66s-22.1 7.807-29.126 6.744c-7.025-1.063-9.366-1.063-12.347.425-2.98 1.489-9.153 5.104-10.643 5.317-1.49.212 1.703 4.04 7.45 1.913 5.748-2.126 13.411-1.063 19.798 4.892 0 0 24.907-6.805 34.485-6.168z" fill="#e9dac1" stroke="#17212a" stroke-width="1.041"/><g fill="#334656"><path d="M131.799 45.079c-.139-2.216-6.571-1.724-13.476-4.99a42.409 42.409 0 0 0 12.855 2.17.302.302 0 0 0 0-.604 41.181 41.181 0 0 1-17.196-3.957 21.076 21.076 0 0 0-8.167-2.46c3.943-.694 10.303-3.292 14.922-12.418 7.167-14.165-14.958-30.352-39.108-18.99a10.747 10.747 0 0 0 .055 5.36 16.685 16.685 0 0 0 7.448 12.903c2.22 1.436 4.963 2.465 7.619 1.84a7.828 7.828 0 0 0 2.334-1.019 3.42 3.42 0 0 0 1.241-.717c2.96-2.646 7.634-1.246 5.764 4.203a59.149 59.149 0 0 1-3.894 9.028c.779 14.632 14.49 22.103 14.49 22.103 12.62-1.4 15.269-9.962 15.113-12.452zM90.415 22.154a15.637 15.637 0 0 1-7.72-10.364 13.802 13.802 0 0 0 3.297 4.026c4.38 3.735 8.099 6.59 10.96 7.165-1.702.663-3.677.7-6.537-.827zM82.445 18.328c-2.3 1.518-5.354.824-6.825-1.555a5.24 5.24 0 0 1-.775-2.888c.015-.778 1.192-.899 1.177-.111-.135 2.142 1.435 3.993 3.51 4.134a3.663 3.663 0 0 0 2.226-.575c.649-.4 1.341.59.687.995z"/></g></g><path d="m74.288 363.184-11.026 30.727 77.84.003s-3.99-7.691-17.296-13.387c-13.305-5.696-25.724-17.343-25.724-17.343z" fill="#334656"/><path d="M13.025 363.168 1.999 393.895l77.84.003s-3.991-7.691-17.296-13.387c-13.306-5.697-25.724-17.343-25.724-17.343z" fill="#334656"/><use fill="url(#b)" xlink:href="#k"/><use fill="#1d918b" xlink:href="#k"/><use fill="#1d918b" stroke="#17212a" stroke-width="1.041" xlink:href="#k"/><use fill="url(#b)" xlink:href="#l"/><use fill="#1d918b" xlink:href="#l"/><use fill="#1d918b" stroke="#17212a" stroke-width="1.041" xlink:href="#l"/><path d="M32.823 149.135a.177.177 0 0 0 .23.102.172.172 0 0 0 .091-.227l-.002-.004a.177.177 0 0 0-.229-.102h-.002a.182.182 0 0 0-.088.231zm3.934-1.627a.178.178 0 0 0 .23.102l.002-.001a.18.18 0 0 0 .1-.233.178.178 0 0 0-.23-.102h-.001a.186.186 0 0 0-.1.234zm3.946-1.629a.166.166 0 0 0 .22.103.18.18 0 0 0 .1-.233.178.178 0 0 0-.23-.102h-.001a.165.165 0 0 0-.098.212.062.062 0 0 0 .009.02zm3.933-1.626a.178.178 0 0 0 .23.102.18.18 0 0 0-.13-.335.18.18 0 0 0-.1.233zm3.934-1.628a.177.177 0 0 0 .23.102h.001a.18.18 0 0 0 .1-.234.177.177 0 0 0-.229-.102l-.001.001a.18.18 0 0 0-.1.233zm-2.995 19.46a.173.173 0 0 0 .227-.09l.001-.003a.176.176 0 0 0-.093-.231.173.173 0 0 0-.227.09v.002a.178.178 0 0 0 .092.231zm1.633-3.963a.19.19 0 0 0 .24-.094.18.18 0 0 0-.104-.229.164.164 0 0 0-.228.093.178.178 0 0 0 .092.23zm1.645-3.963a.173.173 0 0 0 .227-.09l.001-.002a.179.179 0 0 0-.086-.24.179.179 0 0 0-.239.087c-.002.005-.005.011-.006.017a.18.18 0 0 0 .103.228zm1.634-3.962a.174.174 0 0 0 .227-.09l.001-.002a.191.191 0 0 0-.094-.243.173.173 0 0 0-.227.09v.003a.19.19 0 0 0 .093.242zm12.927 11.867a.178.178 0 0 0 .23.102h.001a.165.165 0 0 0 .089-.232.172.172 0 0 0-.22-.104.18.18 0 0 0-.1.234zm-30.123-22.34a.196.196 0 0 0 .182.182.173.173 0 0 0 .168-.18v-.001a.178.178 0 0 0-.17-.183.186.186 0 0 0-.18.182zm4.259.02c.002.03.01.057.023.082a.24.24 0 0 0 .159.1.173.173 0 0 0 .167-.18v-.002a.17.17 0 0 0-.156-.182l-.014-.001a.195.195 0 0 0-.155.095.17.17 0 0 0-.024.088zm4.258.02a.175.175 0 0 0 .18.17.17.17 0 0 0 .181-.156v-.016a.187.187 0 0 0-.181-.182.195.195 0 0 0-.18.184zm-2.37 15.356a.162.162 0 0 0 .242.003.165.165 0 0 0 .013-.233l-.01-.01a.162.162 0 0 0-.242-.004.165.165 0 0 0-.013.234l.01.01zm3.018-3.02a.152.152 0 0 0 .195.02h.012a.044.044 0 0 0 .034-.018.174.174 0 0 0 .052-.153.195.195 0 0 0-.051-.102.171.171 0 0 0-.242-.004.178.178 0 0 0 0 .256zm3.017-3.023a.17.17 0 0 0 .239-.008.164.164 0 0 0 .003-.244.162.162 0 0 0-.241-.003.178.178 0 0 0-.006.25l.005.005zm3.016-3.033a.162.162 0 0 0 .241.004.178.178 0 0 0 .006-.251l-.005-.005a.171.171 0 0 0-.241-.003.179.179 0 0 0-.004.252l.003.003zm5.888 15.444a.196.196 0 0 0 .182.181.182.182 0 0 0-.002-.364.193.193 0 0 0-.18.183zm.008-4.297a.175.175 0 0 0 .18.17.17.17 0 0 0 .182-.155v-.016a.187.187 0 0 0-.181-.182.193.193 0 0 0-.18.183zm-40.683-20.6c.012-.001.025.01.037.008a.328.328 0 0 0 .365-.285l.002-.022a.34.34 0 0 0-.315-.357.26.26 0 0 0-.097 0c-.004.22.001.439.008.656zm7.784.238a.233.233 0 0 0 .033.154c.041.113.148.19.268.194l.014.01a.338.338 0 0 0 .354-.317.333.333 0 0 0-.302-.359.358.358 0 0 0-.367.318zm8.061.578a.34.34 0 0 0 .315.358.33.33 0 0 0 .356-.303v-.002a.34.34 0 0 0-.315-.358.322.322 0 0 0-.356.305zm-7.18 25.708c.116.14.323.158.462.043.004-.004.008-.008.012-.01a.331.331 0 0 0 .031-.468.328.328 0 0 0-.462-.043c-.004.004-.008.008-.012.01a.332.332 0 0 0-.031.468zm6.085-5.332a.33.33 0 0 0 .465.04l.01-.008a.335.335 0 0 0 .035-.473l-.005-.005a.324.324 0 0 0-.457-.038l-.006.005a.35.35 0 0 0-.042.48zm6.096-5.333a.339.339 0 0 0 .475.031.345.345 0 0 0 .03-.478.342.342 0 0 0-.476-.033.335.335 0 0 0-.035.473l.006.007zm6.085-5.332c.092.097.235.13.36.083a.2.2 0 0 0 .114-.052.306.306 0 0 0 .097-.171l.012-.002a.34.34 0 0 0-.553-.337.345.345 0 0 0-.03.479zm6.095-5.345c.113.14.32.162.46.048.002 0 .003-.002.004-.003a.351.351 0 0 0 .042-.48.331.331 0 0 0-.474-.032.321.321 0 0 0-.032.467zm-.094 41.79a.34.34 0 0 0 .314.358.322.322 0 0 0 .356-.305.34.34 0 0 0-.315-.358.33.33 0 0 0-.355.302v.003zm.551-8.12a.335.335 0 0 0 .669.047v-.007a.333.333 0 0 0-.303-.359.356.356 0 0 0-.366.318zm.56-8.134a.333.333 0 0 0 .306.358h.01a.322.322 0 0 0 .355-.304.36.36 0 0 0-.316-.37.337.337 0 0 0-.354.316zm.551-8.12a.335.335 0 0 0 .669.046v-.005a.334.334 0 0 0-.309-.36.334.334 0 0 0-.36.308zm.561-8.134a.33.33 0 0 0 .656.064l.002-.02a.33.33 0 0 0-.298-.36h-.005a.339.339 0 0 0-.355.316zm-30.196-1.983a.335.335 0 0 0 .635-.214l-.002-.007a.335.335 0 0 0-.634.215l.001.006zm7.66-2.579c.055.175.24.274.417.223a.34.34 0 0 0 .205-.43.328.328 0 1 0-.622.207zm7.649-2.567a.335.335 0 0 0 .628-.228.335.335 0 0 0-.422-.202.34.34 0 0 0-.206.43zm7.65-2.566a.338.338 0 0 0 .426.209.343.343 0 0 0 .217-.432.338.338 0 0 0-.426-.21.352.352 0 0 0-.218.433zm-10.342 34.213a.328.328 0 0 0 .45-.147.338.338 0 0 0-.157-.45c0-.002-.001-.002-.003-.002a.33.33 0 0 0-.445.137l-.005.01a.347.347 0 0 0 .16.452zm3.596-7.288a.327.327 0 0 0 .449-.147.337.337 0 0 0-.156-.451c-.001 0-.003 0-.004-.002a.33.33 0 0 0-.445.138l-.004.01a.346.346 0 0 0 .16.452zm3.597-7.275a.341.341 0 0 0 .3-.614.353.353 0 0 0-.46.15.362.362 0 0 0 .16.464zm3.593-7.3a.328.328 0 0 0 .45-.147.348.348 0 0 0-.147-.454.34.34 0 0 0-.448.16.32.32 0 0 0 .13.434l.015.007zm3.597-7.275a.34.34 0 0 0 .449-.16.323.323 0 0 0-.144-.433l-.014-.007a.314.314 0 0 0-.438.146.336.336 0 0 0 .147.454zm16.254 31.437a.338.338 0 0 0 .426.21.328.328 0 0 0 .208-.416v-.003a.32.32 0 0 0-.391-.23l-.027.008a.36.36 0 0 0-.216.431zm-2.566-7.737c.064.173.25.269.428.22a.34.34 0 0 0 .205-.43.334.334 0 0 0-.633.21zm-2.566-7.726a.32.32 0 0 0 .415.21.334.334 0 0 0 .222-.417l-.004-.015a.335.335 0 1 0-.633.222zm-2.578-7.736a.338.338 0 0 0 .427.209.323.323 0 0 0 .211-.404l-.005-.014a.338.338 0 0 0-.416-.223.349.349 0 0 0-.217.432zm-40.152-9.539a.293.293 0 0 0 .053-.227.268.268 0 0 0-.077-.123c.015.108.02.23.024.35zm6.49-1.713a.289.289 0 0 0 .343.222.296.296 0 1 0-.127-.58.29.29 0 0 0-.22.347l.004.011zm7.02-1.627a.28.28 0 0 0 .356.219.296.296 0 1 0-.135-.579.296.296 0 0 0-.222.357l.001.003zm7.02-1.628a.28.28 0 0 0 .355.22c.16-.04.26-.2.228-.361a.34.34 0 0 0-.368-.217.282.282 0 0 0-.216.358zm-10.3 31.64a.296.296 0 0 0 .408-.093.293.293 0 0 0-.093-.412.289.289 0 0 0-.4.078l-.009.015a.305.305 0 0 0 .093.412zm3.811-6.161a.297.297 0 0 0 .41-.094.308.308 0 0 0-.096-.424.3.3 0 0 0-.407.105c-.09.137-.05.32.086.409l.007.004zm3.69-6.339c.013.074.057.14.121.178a.297.297 0 0 0 .41-.094.308.308 0 0 0-.096-.424.297.297 0 0 0-.28-.022l-.012.002a.212.212 0 0 0-.117.113.262.262 0 0 0-.025.247zm3.934-5.984c.14.08.317.04.409-.093a.319.319 0 0 0-.095-.425.296.296 0 0 0-.409.094.308.308 0 0 0 .095.424zm3.812-6.16a.3.3 0 0 0 .407-.106.306.306 0 0 0-.093-.413.312.312 0 0 0-.421.094.322.322 0 0 0 .107.424zm3.812-6.163c.141.082.322.036.407-.105s.043-.322-.093-.413a.312.312 0 0 0-.421.095.322.322 0 0 0 .107.423zm10.733 35.706a.316.316 0 0 0 .37.229.289.289 0 0 0 .214-.359.297.297 0 0 0-.351-.231l-.006.001a.312.312 0 0 0-.227.36zm-1.62-7.078a.297.297 0 0 0 .356.219.289.289 0 0 0 .218-.347l-.003-.012a.297.297 0 0 0-.351-.231l-.006.001a.307.307 0 0 0-.214.37zm-1.634-7.1c.033.161.19.265.35.232l.007-.002a.282.282 0 0 0 .216-.358.298.298 0 0 0-.352-.231l-.006.001a.302.302 0 0 0-.215.358zm-1.632-7.076a.3.3 0 0 0 .584-.141.313.313 0 0 0-.358-.231.317.317 0 0 0-.226.372zm-1.635-7.1a.3.3 0 0 0 .586-.125v-.004a.3.3 0 0 0-.586.122v.007zm-1.632-7.088a.3.3 0 0 0 .587-.123c0-.002 0-.004-.002-.006a.306.306 0 0 0-.357-.231.313.313 0 0 0-.228.36zM21.244 154.4a.292.292 0 0 0 .419.063.286.286 0 0 0 .072-.398l-.009-.012a.295.295 0 0 0-.409-.083l-.011.008a.31.31 0 0 0-.062.422zm5.865-4.218a.296.296 0 0 0 .409.077.307.307 0 0 0 .074-.424.313.313 0 0 0-.42-.076.302.302 0 0 0-.063.423zm5.853-4.217a.301.301 0 0 0 .42.076.318.318 0 0 0 .074-.424.297.297 0 0 0-.414-.067c-.002 0-.003.002-.004.003a.29.29 0 0 0-.082.402l.006.01zm5.868-4.206a.3.3 0 1 0 .48-.359.291.291 0 0 0-.405-.074l-.013.01a.296.296 0 0 0-.069.415l.007.008zm-.215 31.608a.305.305 0 0 0 .252.343c.16.027.313-.08.34-.24v-.002a.319.319 0 0 0-.242-.356.31.31 0 0 0-.35.255zm1.189-7.174a.288.288 0 0 0 .225.341l.015.003c.16.027.312-.08.34-.24v-.002a.318.318 0 0 0-.242-.357.303.303 0 0 0-.338.255zm1.175-7.172a.3.3 0 0 0 .241.344c.16.027.312-.08.34-.24v-.001a.289.289 0 0 0-.226-.341l-.015-.003a.285.285 0 0 0-.336.222l-.004.019zm1.177-7.172a.3.3 0 0 0 .24.344.285.285 0 0 0 .256-.071l.012-.002a.333.333 0 0 0 .085-.17.305.305 0 0 0-.253-.342.294.294 0 0 0-.34.24zm1.177-7.172a.314.314 0 0 0 .254.354.302.302 0 0 0 .334-.374.256.256 0 0 1-.106-.156.252.252 0 0 0-.142-.066.294.294 0 0 0-.34.24v.002zm22.258 22.916a.28.28 0 0 0 .406.065.3.3 0 0 0 .078-.418l-.004-.005c-.1-.132-.285-.16-.418-.064s-.165.281-.069.414l.007.008zm-4.198-5.93a.297.297 0 0 0 .494-.33l-.012-.016a.297.297 0 1 0-.482.346zm-12.577-17.78a.296.296 0 0 0 .41.076.307.307 0 0 0 .073-.423.313.313 0 0 0-.42-.076.302.302 0 0 0-.063.422zm-31.581-6.671c0 .1.079.18.178.181h.004a.193.193 0 0 0 .166-.193.174.174 0 0 0-.348.008zm4.249-.138a.175.175 0 0 0 .18.17.14.14 0 0 0 .123-.066.162.162 0 0 0 .045-.116.175.175 0 0 0-.18-.17.136.136 0 0 0-.133.091.093.093 0 0 0-.035.091zm4.249-.137a.174.174 0 1 0 .348-.01v-.002a.187.187 0 0 0-.182-.181.193.193 0 0 0-.166.193zm-1.006 16.848c.073.064.184.06.252-.01a.186.186 0 0 0-.012-.255.183.183 0 0 0-.252.01.188.188 0 0 0 .012.255zm2.894-3.127a.185.185 0 0 0 .252-.01.188.188 0 0 0-.011-.254.183.183 0 0 0-.252.01.188.188 0 0 0 .011.254zm2.905-3.14a.17.17 0 0 0 .239-.008.166.166 0 0 0-.01-.255.175.175 0 0 0-.23.263zm2.894-3.125a.17.17 0 0 0 .24-.008.179.179 0 0 0 .004-.253l-.003-.004a.185.185 0 0 0-.252.01.186.186 0 0 0 .011.255zm2.892-3.138c.073.064.184.06.252-.01A.18.18 0 0 0 36.3 141a.19.19 0 0 0 .011.254zm5.131 18.761a.174.174 0 1 0 .349-.015.174.174 0 0 0-.349.015zm-.16-4.286a.185.185 0 0 0 .193.169.173.173 0 0 0 .167-.181v-.001a.169.169 0 0 0-.167-.17h-.013a.178.178 0 0 0-.18.183zm-.147-4.288a.174.174 0 0 0 .347-.008v-.003a.169.169 0 0 0-.167-.17h-.013a.174.174 0 0 0-.167.181zm-.149-4.287.007.047c.028.072.096.12.174.123a.174.174 0 0 0 .167-.181v-.001a.19.19 0 0 0-.119-.167l-.012.002a.074.074 0 0 0-.05-.006.168.168 0 0 0-.167.168v.015zm-.159-4.286a.175.175 0 0 0 .18.17.176.176 0 0 0-.012-.352.174.174 0 0 0-.168.18v.002zm7.603 1.018a.185.185 0 0 0 .252-.01.186.186 0 0 0-.011-.254.17.17 0 0 0-.24.008.179.179 0 0 0-.004.253l.003.003zm-3.106-2.93c.073.065.184.06.252-.01a.186.186 0 0 0-.011-.254.185.185 0 0 0-.252.01.186.186 0 0 0 .01.255zm-24.052 4.08a.18.18 0 0 0 .23.09.19.19 0 0 0 .086-.242.171.171 0 0 0-.229-.09.19.19 0 0 0-.087.243zm3.865-1.775c.04.088.14.128.23.09a.169.169 0 0 0 .088-.231.163.163 0 0 0-.23-.09.173.173 0 0 0-.09.227l.002.004zm3.865-1.776a.168.168 0 0 0 .23.09.165.165 0 0 0 .097-.211l-.01-.02a.172.172 0 0 0-.222-.094c-.002.001-.005.002-.006.004a.178.178 0 0 0-.089.231zm3.867-1.763c.046.086.15.124.241.088a.203.203 0 0 0 .087-.243.19.19 0 0 0-.242-.088.19.19 0 0 0-.086.243zm.315 16.726a.19.19 0 0 0 .227-.105.173.173 0 0 0-.097-.226l-.007-.002a.168.168 0 0 0-.22.086l-.007.018a.18.18 0 0 0 .104.229zm1.493-4.016a.19.19 0 0 0 .227-.105.185.185 0 0 0-.104-.229.167.167 0 0 0-.223.08l-.005.013a.18.18 0 0 0 .096.237l.01.004zm1.48-4.026a.166.166 0 0 0 .226-.105.18.18 0 0 0-.103-.229.19.19 0 0 0-.227.105.173.173 0 0 0 .104.229zm1.481-4.014a.166.166 0 0 0 .226-.105.18.18 0 0 0-.103-.229.19.19 0 0 0-.227.105.181.181 0 0 0 .104.229zm1.482-4.013a.178.178 0 0 0 .227-.107.177.177 0 0 0-.332-.122.193.193 0 0 0 .105.229zm10.232 15.561a.171.171 0 0 0 .223.093c.003 0 .005-.001.007-.003a.172.172 0 0 0 .088-.23.163.163 0 0 0-.23-.09.172.172 0 0 0-.088.23zm-1.77-3.905c.042.09.15.13.241.088a.171.171 0 0 0 .076-.23.163.163 0 0 0-.229-.09.172.172 0 0 0-.09.227c0 .002 0 .003.002.005zm-1.771-3.905a.19.19 0 0 0 .241.089.19.19 0 0 0 .087-.243.182.182 0 0 0-.328.154zm-1.759-3.906a.171.171 0 0 0 .23.09.187.187 0 0 0 .1-.148.132.132 0 0 0-.013-.096.18.18 0 0 0-.23-.09.187.187 0 0 0-.084.085l.002.012a.132.132 0 0 0-.005.147zm-1.77-3.906c.042.084.14.122.229.09a.181.181 0 0 0 .088-.24l-.001-.002a.171.171 0 0 0-.23-.09.192.192 0 0 0-.086.242zm3.992 1.663c.095.06.22.032.28-.062a.21.21 0 0 0-.063-.284.205.205 0 0 0-.28.063.21.21 0 0 0 .063.283zm-31.639-2.038a.2.2 0 0 0 .238.15.21.21 0 0 0 .159-.242.205.205 0 0 0-.248-.149l-.002.001a.193.193 0 0 0-.15.23l.003.01zm4.738-1.045a.2.2 0 0 0 .237.15.21.21 0 0 0 .16-.241.205.205 0 0 0-.249-.149h-.001a.188.188 0 0 0-.153.218l.006.022zm4.738-1.044a.2.2 0 0 0 .237.15.22.22 0 0 0 .16-.242.205.205 0 0 0-.248-.149l-.003.001a.188.188 0 0 0-.153.217l.007.023zm-2.412 20.18a.19.19 0 0 0 .264-.053l.004-.007a.2.2 0 0 0-.063-.283.19.19 0 0 0-.264.054l-.005.007a.21.21 0 0 0 .064.283zm2.6-4.119c.094.06.22.032.28-.063a.21.21 0 0 0-.063-.283.19.19 0 0 0-.264.054l-.005.007a.198.198 0 0 0 .051.285zm2.611-4.121a.212.212 0 0 0 .26-.036c.01-.014.022-.016.02-.028a.21.21 0 0 0-.063-.283.205.205 0 0 0-.281.064.21.21 0 0 0 .064.283zm2.611-4.121c.095.06.22.031.281-.063a.21.21 0 0 0-.064-.283.185.185 0 0 0-.194-.01c-.023.004-.033.017-.045.019l-.041.055a.21.21 0 0 0 .063.282zm2.612-4.122a.19.19 0 0 0 .263-.052l.006-.009a.198.198 0 0 0-.041-.277c-.004-.003-.008-.005-.01-.008a.205.205 0 0 0-.282.064.209.209 0 0 0 .064.282zm9.595 20.006a.187.187 0 0 0 .237.15.201.201 0 0 0 .148-.24.22.22 0 0 0-.239-.161.206.206 0 0 0-.146.251zm-1.06-4.781c.027.109.138.176.247.148h.002a.2.2 0 0 0 .148-.24.22.22 0 0 0-.24-.162.223.223 0 0 0-.157.254zm-1.039-4.798a.189.189 0 0 0 .24.162.2.2 0 0 0 .147-.24.22.22 0 0 0-.24-.161.2.2 0 0 0-.147.24zm-1.048-4.783a.189.189 0 0 0 .239.162.2.2 0 0 0 .147-.24.21.21 0 0 0-.239-.162.202.202 0 0 0-.147.24zm-1.048-4.784a.189.189 0 0 0 .239.162.206.206 0 1 0-.24-.162zm-21.378 6.595a.2.2 0 0 0 .276.064l.01-.006a.218.218 0 0 0 .045-.287.201.201 0 0 0-.33.229zm3.978-2.79c.062.089.184.11.271.048a.201.201 0 1 0-.217-.34l-.01.007a.21.21 0 0 0-.044.285zm3.976-2.801a.185.185 0 0 0 .272.047.193.193 0 0 0 .065-.266l-.007-.01a.213.213 0 0 0-.285-.057.217.217 0 0 0-.045.286zm3.978-2.789c.062.089.183.11.271.048a.204.204 0 0 0 .061-.282l-.004-.006a.204.204 0 1 0-.328.24zm3.976-2.801a.185.185 0 0 0 .272.047.193.193 0 0 0 .064-.266l-.006-.01a.206.206 0 0 0-.285-.057.217.217 0 0 0-.045.286zm-.28 21.481c.024.017.05.03.078.038.107.02.21-.05.228-.158l.002-.008a.207.207 0 0 0-.153-.234l-.012.002a.195.195 0 0 0-.229.157l-.001.008a.186.186 0 0 0 .088.195zm.764-5.022a.197.197 0 0 0 .152.234c.11.019.216-.049.244-.155a.223.223 0 0 0-.166-.245.201.201 0 0 0-.23.166zm.84-4.814a.199.199 0 0 0 .16.232h.005c.107.021.21-.05.228-.157l.002-.008a.198.198 0 0 0-.16-.231l-.005-.001a.196.196 0 0 0-.228.157l-.002.008zm.839-4.825a.204.204 0 0 0 .165.233.187.187 0 0 0 .231-.153.197.197 0 0 0-.152-.234.203.203 0 0 0-.244.152v.002zm.848-4.754a.279.279 0 0 1 .09.134c.024.017.05.03.078.038.107.019.21-.051.229-.158l.001-.008a.199.199 0 0 0-.159-.232h-.006a.195.195 0 0 0-.228.157l-.002.008a.13.13 0 0 0-.003.061zm14.82 15.523a.2.2 0 1 0 .33-.228.19.19 0 0 0-.26-.068l-.014.008a.211.211 0 0 0-.056.288zm-2.775-4.02a.186.186 0 0 0 .272.047.194.194 0 0 0 .064-.267l-.006-.01a.2.2 0 0 0-.34.214l.01.015zm-2.788-4.02c.06.09.182.114.272.054l.013-.009a.205.205 0 0 0-.24-.332.218.218 0 0 0-.045.286zm-2.786-4.021a.202.202 0 0 0 .283.047.202.202 0 0 0-.227-.334.22.22 0 0 0-.056.287zm-2.775-4.021c.06.09.181.115.271.054l.013-.008a.2.2 0 0 0 .047-.275.21.21 0 0 0-.285-.057.216.216 0 0 0-.046.286zm-24.322 7.183c.109.15.32.185.47.076l.01-.008a.347.347 0 0 0-.404-.564.369.369 0 0 0-.076.496zm6.718-4.944a.34.34 0 0 0 .473.085l.008-.005a.347.347 0 0 0-.404-.565.357.357 0 0 0-.077.485zm6.678-5.049a.26.26 0 0 0 .052.115.284.284 0 0 0 .148.113c.109.05.237.037.333-.034a.343.343 0 0 0 .066-.484.338.338 0 0 0-.469-.088l-.013.008a.32.32 0 0 0-.117.37zm-3.699 43.007a.36.36 0 0 0 .297.397.345.345 0 0 0 .394-.285.356.356 0 0 0-.296-.398.344.344 0 0 0-.395.286c0-.001 0 0 0 0zm1.287-8.295a.344.344 0 0 0 .28.398h.004a.34.34 0 0 0 .392-.275l.002-.01a.344.344 0 0 0-.678-.119v.006zm1.274-8.293a.356.356 0 0 0 .296.397.345.345 0 1 0-.296-.397zm1.286-8.295a.35.35 0 0 0 .284.4.347.347 0 0 0 .11-.686.34.34 0 0 0-.393.276l-.001.01zm1.274-8.293a.356.356 0 0 0 .296.397.328.328 0 0 0 .38-.264c0-.007.002-.013.003-.02a.33.33 0 0 0-.252-.394l-.032-.005a.345.345 0 0 0-.395.286zm1.286-8.295a.35.35 0 0 0 .284.399.345.345 0 0 0 .395-.286.34.34 0 0 0-.27-.396l-.014-.002a.334.334 0 0 0-.392.266l-.003.02zm27.7 33.481a.362.362 0 0 0 .494.078.343.343 0 0 0 .068-.48l-.003-.004a.338.338 0 0 0-.468-.088l-.013.009a.358.358 0 0 0-.078.485zm-4.907-6.793a.346.346 0 0 0 .561-.403l-.002-.003a.337.337 0 0 0-.482-.08.354.354 0 0 0-.077.486zm-4.907-6.793a.348.348 0 0 0 .481.08.368.368 0 0 0 .076-.498.335.335 0 0 0-.469-.075l-.01.008a.344.344 0 0 0-.082.48l.004.005zm-4.907-6.794a.348.348 0 0 0 .481.08.371.371 0 0 0 .076-.497.349.349 0 0 0-.557.417zm-4.92-6.792c.109.15.319.184.47.076l.01-.008a.348.348 0 0 0-.403-.566.368.368 0 0 0-.077.498zm-23.845-6.438c.04.177.215.29.394.251.005 0 .01-.002.014-.003a.34.34 0 0 0 .258-.407c0-.001 0-.004-.002-.005a.358.358 0 0 0-.421-.258.341.341 0 0 0-.245.416l.002.006zm8.081-1.97c.04.185.222.302.407.262l.015-.003a.332.332 0 0 0 .248-.4c-.001-.003-.003-.007-.003-.012a.341.341 0 1 0-.668.147l.001.006zm-4.958 19.902a.352.352 0 0 0 .478-.115.36.36 0 0 0-.115-.484.351.351 0 0 0-.478.115.36.36 0 0 0 .115.484zm4.323-7.17a.34.34 0 0 0 .472-.09l.008-.013a.36.36 0 0 0-.115-.483.342.342 0 0 0-.473.105l-.006.01a.348.348 0 0 0 .114.471zm4.337-7.158c.16.1.372.053.473-.107l.006-.008a.33.33 0 0 0-.11-.447c-.002-.013-.002-.013-.016-.023a.33.33 0 0 0-.446.086l-.02.027a.336.336 0 0 0 .113.472zm13.955 33.726a.367.367 0 0 0 .421.258.35.35 0 0 0 .243-.423.34.34 0 0 0-.402-.261c-.002 0-.005 0-.007.002a.35.35 0 0 0-.255.424zm-1.964-8.174a.349.349 0 0 0 .419.259l.002-.001a.338.338 0 0 0 .244-.411.341.341 0 1 0-.667.147c0 .002 0 .004.002.006zm-1.963-8.162a.34.34 0 0 0 .403.262l.007-.002a.35.35 0 0 0 .254-.425.347.347 0 0 0-.41-.26.35.35 0 0 0-.254.425zm-1.963-8.162a.342.342 0 0 0 .664-.165.345.345 0 0 0-.41-.26.351.351 0 0 0-.254.425zm-1.976-8.172a.35.35 0 0 0 .42.26l.002-.002a.36.36 0 0 0 .254-.424.34.34 0 0 0-.41-.249l-.01.003a.348.348 0 0 0-.256.412zm12.575 1.048c.16.097.368.048.465-.111 0 0 0-.002.002-.003a.36.36 0 0 0-.115-.483.346.346 0 1 0-.352.597zm-7.12-4.394a.351.351 0 0 0 .479-.115.362.362 0 0 0-.115-.484.342.342 0 0 0-.47.116l-.007.011a.347.347 0 0 0 .114.472zm-23.716-4.035a.338.338 0 0 0 .39.275l.01-.001c.18-.03.303-.2.273-.381 0-.008-.002-.014-.004-.021a.338.338 0 0 0-.39-.275l-.009.001a.345.345 0 0 0-.27.402zm.824 15.171a.345.345 0 0 0 .392-.567c-.004-.003-.009-.005-.013-.009a.326.326 0 0 0-.456.07c-.005.007-.01.013-.013.02a.348.348 0 0 0 .09.486zm4.608-6.94a.352.352 0 0 0 .48-.104c.1-.159.055-.369-.102-.472a.327.327 0 0 0-.47.089.348.348 0 0 0 .092.486zm4.608-6.942a.344.344 0 1 0-.104-.484.362.362 0 0 0 .104.484zm11.047 41.454a.34.34 0 1 0 .268-.414.35.35 0 0 0-.268.414zm-1.62-8.209a.35.35 0 0 0 .412.272.355.355 0 0 0 .27-.402.368.368 0 0 0-.413-.284.357.357 0 0 0-.268.414zm-1.62-8.21a.347.347 0 0 0 .682-.13.345.345 0 0 0-.4-.274.358.358 0 0 0-.281.405zm-1.607-8.21c.028.181.197.305.378.277.007 0 .014-.002.022-.004a.346.346 0 0 0 .27-.402.34.34 0 0 0-.671.123l.001.006zM29 145.112a.338.338 0 0 0 .391.275l.009-.001a.196.196 0 0 0 .101-.05c.012-.003.022-.016.046-.02a.327.327 0 0 0 .123-.333.341.341 0 0 0-.672.122l.002.007zm-1.62-8.209a.283.283 0 0 0 .11.18c.003.024.029.033.054.04a.313.313 0 0 0 .237.053.339.339 0 0 0 .27-.395v-.007l-.004-.024a.316.316 0 0 0-.2-.228.339.339 0 0 0-.466.381zm23.462 12.455a.352.352 0 0 0 .48-.103c.1-.16.055-.37-.102-.473a.326.326 0 0 0-.47.09.348.348 0 0 0 .092.486zm-7.027-4.858a.259.259 0 0 0 .106.156c.002.012.016.022.03.032a.342.342 0 0 0 .474-.08l.007-.011a.348.348 0 0 0-.047-.432.118.118 0 0 0-.056-.053.346.346 0 0 0-.272-.047l.002.012a.275.275 0 0 0-.2.124.334.334 0 0 0-.044.299zm-6.757-4.48a.326.326 0 0 0 .47-.09.257.257 0 0 0 .045-.104.269.269 0 0 0 .001-.17.346.346 0 0 0-.137-.212.352.352 0 0 0-.48.102c-.1.159-.056.37.101.473zm-17.45-3.09a.344.344 0 0 0 .575-.383.344.344 0 0 0-.472-.112l-.013.009a.355.355 0 0 0-.09.487zm.22 28.13a.347.347 0 0 0 .682.137.348.348 0 0 0-.68-.142l-.002.005zm1.624-8.207c-.04.186.079.37.266.41l.008.002a.342.342 0 0 0 .396-.274.361.361 0 0 0-.275-.412.338.338 0 0 0-.395.274zm1.614-8.194a.343.343 0 0 0 .273.4.339.339 0 0 0 .407-.253l.002-.01a.355.355 0 0 0-.274-.413.35.35 0 0 0-.408.276zm1.612-8.206a.355.355 0 0 0 .274.412.35.35 0 0 0 .408-.276.343.343 0 0 0-.273-.4.35.35 0 0 0-.41.264zm24.752 27.171a.344.344 0 1 0 .574-.384.334.334 0 0 0-.457-.114l-.016.01a.35.35 0 0 0-.106.482c.003.002.003.004.005.006zm-4.606-6.969a.344.344 0 0 0 .574-.384.334.334 0 0 0-.458-.114l-.016.01a.348.348 0 0 0-.104.482l.004.006zm-4.607-6.969a.346.346 0 0 0 .574-.383.343.343 0 0 0-.472-.106.35.35 0 0 0-.106.483c.002.002.004.004.004.006zm-4.605-6.969c.11.156.324.197.483.092a.344.344 0 0 0 .09-.475.346.346 0 1 0-.573.383zm-4.606-6.969c.11.156.323.197.483.092a.344.344 0 0 0 .09-.475.339.339 0 0 0-.468-.095l-.002.001a.36.36 0 0 0-.103.477zm17.308 2.585a.264.264 0 0 0 .34-.145.27.27 0 0 0-.143-.345.264.264 0 0 0-.341.145.27.27 0 0 0 .144.345zm-5.8-2.35a.266.266 0 0 0 .33-.144.26.26 0 0 0-.136-.342l-.008-.003a.251.251 0 0 0-.327.138l-.003.005a.263.263 0 0 0 .142.344l.002.001zm-28.822-4.51a.193.193 0 0 0 .081-.023c.13-.053.19-.2.138-.328l-.002-.007a.227.227 0 0 0-.214-.153l-.003.512zm2.705 10.907a.264.264 0 0 0 .342-.144.27.27 0 0 0-.144-.345.251.251 0 0 0-.328.137l-.002.006a.27.27 0 0 0 .132.346zm2.323-5.857a.251.251 0 0 0 .328-.138l.002-.005a.263.263 0 0 0-.14-.345l-.004-.001a.262.262 0 0 0-.186.489zm16.903 22.986a.256.256 0 0 0 .345.134.261.261 0 0 0 .134-.335.248.248 0 0 0-.344-.135.263.263 0 0 0-.135.336zm-2.466-5.792c.06.13.212.19.345.135a.268.268 0 0 0 .132-.346.256.256 0 0 0-.334-.14l-.01.005a.267.267 0 0 0-.133.346zm-2.468-5.804c.06.13.212.19.345.135a.268.268 0 0 0 .133-.347.266.266 0 0 0-.345-.135.268.268 0 0 0-.133.347zm-2.467-5.804a.25.25 0 0 0 .322.14l.01-.004a.259.259 0 0 0 .147-.336.269.269 0 0 0-.347-.148.259.259 0 0 0-.132.348zm-2.468-5.805a.24.24 0 0 0 .332.137.243.243 0 0 0 .144-.313l-.01-.023a.24.24 0 0 0-.306-.147l-.026.01a.252.252 0 0 0-.136.33l.002.006zm-11.976-.035a.246.246 0 0 0 .001-.256c-.006.085-.006.17 0 .256zm3.966-4.443a.25.25 0 0 0 .353.007l.01-.009c.1-.1.1-.261 0-.36l-.003-.004a.24.24 0 0 0-.362.002.245.245 0 0 0 .002.364zm4.625 27.033a.265.265 0 0 0 .264.256c.14-.01.25-.125.253-.266a.26.26 0 0 0-.263-.256h-.002a.25.25 0 0 0-.252.247v.02zm-.091-6.315a.28.28 0 0 0 .266.268.258.258 0 0 0 .253-.263v-.003a.25.25 0 0 0-.244-.258h-.009a.258.258 0 0 0-.265.25l-.001.006zm-.078-6.305a.251.251 0 0 0 .246.256h.018a.247.247 0 0 0 .254-.24v-.014a.28.28 0 0 0-.266-.268.258.258 0 0 0-.252.266zm-.09-6.304a.26.26 0 0 0 .263.256h.001a.25.25 0 0 0 .253-.247v-.02a.255.255 0 0 0-.254-.257.276.276 0 0 0-.263.268zm-.078-6.305c-.006.11.062.21.167.245l.012-.002c.027.01.057.015.086.013a.25.25 0 0 0 .253-.247l-.001-.02a.257.257 0 0 0-.26-.255h-.004a.237.237 0 0 0-.19.1.286.286 0 0 0-.063.166zm22.462 16.122a.25.25 0 0 0 .354.007l.009-.008a.258.258 0 0 0 .008-.365l-.012-.012a.249.249 0 0 0-.351.003l-.01.01c-.1.1-.1.26 0 .36 0 .003 0 .004.002.005zm-4.48-4.406a.262.262 0 0 0 .37-.014l.002-.001a.266.266 0 0 0-.002-.365.275.275 0 0 0-.373.003.282.282 0 0 0 .004.377zm-4.47-4.42c.096.1.254.103.353.007l.009-.009a.266.266 0 0 0-.003-.365.257.257 0 0 0-.37.356l.011.01zm-4.48-4.407a.26.26 0 0 0 .361-.001.27.27 0 0 0-.004-.376.26.26 0 0 0-.361.373l.004.004zm-16.418-5.907a.148.148 0 0 0 .2-.04.145.145 0 0 0-.24-.162.151.151 0 0 0 .04.202zm6.133 14.338a.146.146 0 0 0 .162.124.144.144 0 1 0-.042-.286l-.01.001a.145.145 0 0 0-.11.161zm-.59-3.386a.136.136 0 0 0 .157.113l.004-.001a.128.128 0 0 0 .11-.162.14.14 0 0 0-.161-.123.156.156 0 0 0-.11.173zm-.59-3.399a.14.14 0 0 0 .161.124.146.146 0 0 0 .109-.173.137.137 0 0 0-.272.045l.001.004zm-.59-3.386a.136.136 0 0 0 .155.112h.004a.144.144 0 0 0 .11-.162.138.138 0 0 0-.27.047v.003zm-.604-3.398c.017.08.093.133.174.123a.144.144 0 0 0-.051-.284.143.143 0 0 0-.123.161zm14.55 5.911c.057.045.14.036.186-.022l.003-.004a.151.151 0 0 0-.028-.203.147.147 0 0 0-.2.04.136.136 0 0 0 .038.188l.001.001zm-2.793-1.975c.06.042.143.027.185-.034l.003-.004a.15.15 0 0 0-.028-.203.147.147 0 0 0-.2.04.14.14 0 0 0 .04.201zm-2.795-1.987c.06.042.143.027.185-.034l.002-.004a.13.13 0 0 0-.01-.169c-.002-.012-.004-.024-.016-.023-.014-.01-.025-.008-.039-.019a.129.129 0 0 0-.162.047.14.14 0 0 0 .031.195c.003.004.006.006.009.007zm-12.911 6.179a.144.144 0 0 0 .108.168.156.156 0 0 0 .178-.11.144.144 0 0 0-.108-.168.161.161 0 0 0-.178.11zm.74-3.363a.144.144 0 0 0 .108.168.14.14 0 0 0 .173-.094c.002-.005.004-.01.004-.016a.144.144 0 0 0-.107-.168.16.16 0 0 0-.178.11zm.741-3.352a.143.143 0 0 0 .108.167.161.161 0 0 0 .178-.109.144.144 0 0 0-.108-.168.136.136 0 0 0-.178.11zm10.685 8.039a.136.136 0 0 0 .187.047.146.146 0 0 0 .045-.202.133.133 0 0 0-.187-.046.146.146 0 0 0-.045.2zm-1.837-2.91c.042.067.13.088.197.046l.002-.001a.157.157 0 0 0 .045-.201.156.156 0 0 0-.2-.046.147.147 0 0 0-.044.202zm-1.838-2.91c.042.067.13.088.198.046l.002-.001a.145.145 0 0 0 .044-.201.155.155 0 0 0-.2-.046.158.158 0 0 0-.044.202zM21.12 136.1c.042.068.13.088.197.047l.003-.002a.142.142 0 0 0 .034-.197l-.001-.002a.123.123 0 0 0-.185-.036.129.129 0 0 0-.055.175c0 .005.004.011.007.015zm3.66 18.418c.07.106.214.136.321.066l.002-.001a.232.232 0 0 0-.247-.392.23.23 0 0 0-.075.327zm-3.009-4.842a.217.217 0 0 0 .294.09l.019-.012a.23.23 0 0 0 .075-.326.237.237 0 0 0-.324-.078.229.229 0 0 0-.07.317l.006.01zm-3.02-4.827c.07.109.214.143.325.077a.237.237 0 0 0-.249-.403.244.244 0 0 0-.076.326zm-3.007-4.83a.252.252 0 0 0 .324.078.248.248 0 0 0 .076-.326.23.23 0 0 0-.315-.083l-.01.005a.24.24 0 0 0-.075.327zm15.412 4.478a.234.234 0 0 0 .273-.379.225.225 0 0 0-.316.04l-.004.005a.246.246 0 0 0 .047.334zm-4.7-3.464a.233.233 0 0 0 .425.1.283.283 0 0 0 .037-.163c-.001-.013-.001-.013-.015-.023a.202.202 0 0 0-.08-.147.24.24 0 0 0-.33.058.29.29 0 0 0-.037.175zm-4.522-3.147c.08.057.189.052.263-.012l.012-.002c.023-.003.044-.03.054-.044a.234.234 0 0 0-.052-.328l-.007-.004a.252.252 0 0 0-.318.056.247.247 0 0 0 .048.334zm-4.605-3.306a.24.24 0 0 0 .33-.058.246.246 0 0 0-.059-.333.24.24 0 0 0-.329.058.245.245 0 0 0 .058.333z" fill="#fff" opacity=".86"/><path d="M63.26 36.417s-.368 7.018-2.404 10.359c0 0 9.844 1.94 14.25 3.632l.873-9.007z" fill="#e9dac1" stroke="#17212a" stroke-width="1.041"/><path d="M81.558 41.677c5.48-2.234 8.225-7.663 9.404-7.5 1.184.154 3.787-.113 4.087-1.35.287-1.235-1.244-5.786-1.579-10.135a9.448 9.448 0 0 1-.023-1.208c.001-.02.006-.028-.006-.045l.01-.223c.007-.277.01-.753-.022-1.374-3.145 1.548-6.053 1.97-7.441 1.245-3.935-2.048-4.409.539-8.304 3.668-3.909 3.134-7.348 1.338-12.497.075-5.153-1.255-5.363 3.92-3.391 5.716 1.968 1.804 4.42 2.826 3.209 4.901a2.787 2.787 0 0 1-1.744.97l.522.437c.165.137.337.267.515.388l2.478 1.687c4.465 3.004 9.644 4.849 14.782 2.748z" fill="#e9dac1" stroke="#17212a" stroke-width="1.041"/><path d="M50.236 24.71C41.77-.014 55.306.61 65.08.61c10.886 0 15.88-.204 15.88-.204L105.21 0a20.212 20.212 0 0 1-6.926 16.565 19.43 19.43 0 0 0 8.328-15.92c.01-.438.693-.455.684-.015-.193 8.74-5.27 15.899-13.1 18.81-3.431 1.87-6.709 2.424-8.21 1.643-3.932-2.046-4.407.544-8.307 3.675-3.9 3.13-7.341 1.339-12.493.076-5.152-1.262-5.365 3.915-3.395 5.716s4.427 2.82 3.215 4.898c-1.213 2.079-9.846 3.639-14.77-10.738z" fill="#334656"/><use fill="url(#m)" xlink:href="#n"/><use fill="#8edc97" stroke="#17212a" stroke-width="1.041" xlink:href="#n"/><use fill="url(#o)" xlink:href="#p"/><use fill="#8edc97" stroke="#17212a" stroke-width="1.041" xlink:href="#p"/><path d="M98.31 23.213c-1.056 2.543-3.978 3.674-6.528 2.523a5.248 5.248 0 0 1-2.26-1.961c-.422-.653.485-1.41.913-.75 1.088 1.852 3.426 2.51 5.225 1.467a3.658 3.658 0 0 0 1.523-1.72c.315-.693 1.443-.26 1.127.441z" fill="#334656"/></g></svg>