<svg fill="none" height="501" width="379" xmlns="http://www.w3.org/2000/svg" xmlns:xlink="http://www.w3.org/1999/xlink"><linearGradient id="a"><stop offset="0" stop-color="#f5f6f0"/><stop offset="1" stop-color="#ea593f"/></linearGradient><linearGradient id="c" gradientUnits="userSpaceOnUse" x1="160.45" x2="160.45" xlink:href="#a" y1="238.629" y2="469.977"/><linearGradient id="d" gradientUnits="userSpaceOnUse" x1="186.155" x2="186.155" xlink:href="#a" y1="237.856" y2="469.977"/><linearGradient id="b"><stop offset="0" stop-color="#f5f6f0"/><stop offset=".696" stop-color="#d6d5d5"/><stop offset="1" stop-color="#d8d8d8"/></linearGradient><linearGradient id="e" gradientUnits="userSpaceOnUse" x1="222.152" x2="141.511" xlink:href="#b" y1="129.535" y2="140.594"/><linearGradient id="f" gradientUnits="userSpaceOnUse" x1="179.487" x2="49.499" xlink:href="#b" y1="129.685" y2="158.652"/><ellipse cx="255.54" cy="271.292" fill="#f5f6f0" rx="22.42" ry="23.289" stroke="#17212a"/><path d="m184.223 469.977 11.016 30.633H117.64s3.962-7.634 17.298-13.336c13.336-5.701 25.609-17.297 25.609-17.297zM291.779 469.977l11.017 30.633h-77.599s3.962-7.634 17.297-13.336c13.336-5.701 25.609-17.297 25.609-17.297z" fill="#17212a"/><path d="M134.841 170.79s-13.432-8.214-23.192-20.583c-9.761-12.37-17.202-21.647-18.265-21.164s-2.899 2.803.484 7.248 5.991 7.538 3.962 10.243c-2.03 2.706-9.374 10.437 1.353 16.042 10.726 5.605 13.915 2.803 17.781 10.34 2.416 4.832 4.542 9.857 6.184 15.075l11.693-17.008" fill="#e9dac1"/><path d="M134.841 170.79s-13.432-8.214-23.192-20.583c-9.761-12.37-17.202-21.647-18.265-21.164s-2.899 2.803.484 7.248 5.991 7.538 3.962 10.243c-2.03 2.706-9.374 10.437 1.353 16.042 10.726 5.605 13.915 2.803 17.781 10.34 2.416 4.832 4.542 9.857 6.184 15.075l11.693-17.008" stroke="#17212a" stroke-width="1.05"/><path d="M223.07 294.195c-7.054 20.583-14.592 44.259-11.693 65.229 2.9 20.971-3.189 32.567-5.798 38.365s-3.189 18.941 1.74 37.495c4.928 18.554-2.899 34.693-2.899 34.693h-43.97s1.16-69.675 2.223-105.527c1.063-35.853 2.995-44.453 6.088-54.987 3.092-10.533 12.659-70.158 12.659-70.158l6.765-.676c16.911 5.508 33.049 3.962 45.129 1.063 1.353 12.369-4.252 36.915-10.244 54.503z" fill="url(#c)"/><path d="M223.07 294.195c-7.054 20.583-14.592 44.259-11.693 65.229 2.9 20.971-3.189 32.567-5.798 38.365s-3.189 18.941 1.74 37.495c4.928 18.554-2.899 34.693-2.899 34.693h-43.97s1.16-69.675 2.223-105.527c1.063-35.853 2.995-44.453 6.088-54.987 3.092-10.533 12.659-70.158 12.659-70.158l6.765-.676c16.911 5.508 33.049 3.962 45.129 1.063 1.353 12.369-4.252 36.915-10.244 54.503z" fill="#1d918b"/><path d="M223.07 294.195c-7.054 20.583-14.592 44.259-11.693 65.229 2.9 20.971-3.189 32.567-5.798 38.365s-3.189 18.941 1.74 37.495c4.928 18.554-2.899 34.693-2.899 34.693h-43.97s1.16-69.675 2.223-105.527c1.063-35.853 2.995-44.453 6.088-54.987 3.092-10.533 12.659-70.158 12.659-70.158l6.765-.676c16.911 5.508 33.049 3.962 45.129 1.063 1.353 12.369-4.252 36.915-10.244 54.503z" stroke="#17212a" stroke-width="1.05"/><path d="M303.472 469.977h-35.369s-39.428-99.149-50.637-122.729c-11.21-23.579-17.395-51.893-23.58-74.023-3.285-11.597-5.895-23.386-7.731-35.369 20.777 7.344 40.588 4.059 53.537 0 1.739 4.638 8.407 23.579 8.407 43.486 0 23 6.765 41.94 12.853 52.087 7.634 12.37 12.659 26.189 14.882 40.588 2.706 17.587 8.794 20.293 16.911 33.146 7.925 12.949 17.975 45.902 10.727 62.814z" fill="url(#d)"/><path d="M303.472 469.977h-35.369s-39.428-99.149-50.637-122.729c-11.21-23.579-17.395-51.893-23.58-74.023-3.285-11.597-5.895-23.386-7.731-35.369 20.777 7.344 40.588 4.059 53.537 0 1.739 4.638 8.407 23.579 8.407 43.486 0 23 6.765 41.94 12.853 52.087 7.634 12.37 12.659 26.189 14.882 40.588 2.706 17.587 8.794 20.293 16.911 33.146 7.925 12.949 17.975 45.902 10.727 62.814z" fill="#1d918b"/><path d="M303.472 469.977h-35.369s-39.428-99.149-50.637-122.729c-11.21-23.579-17.395-51.893-23.58-74.023-3.285-11.597-5.895-23.386-7.731-35.369 20.777 7.344 40.588 4.059 53.537 0 1.739 4.638 8.407 23.579 8.407 43.486 0 23 6.765 41.94 12.853 52.087 7.634 12.37 12.659 26.189 14.882 40.588 2.706 17.587 8.794 20.293 16.911 33.146 7.925 12.949 17.975 45.902 10.727 62.814z" fill="#1d918b"/><path d="M303.472 469.977h-35.369s-39.428-99.149-50.637-122.729c-11.21-23.579-17.395-51.893-23.58-74.023-3.285-11.597-5.895-23.386-7.731-35.369 20.777 7.344 40.588 4.059 53.537 0 1.739 4.638 8.407 23.579 8.407 43.486 0 23 6.765 41.94 12.853 52.087 7.634 12.37 12.659 26.189 14.882 40.588 2.706 17.587 8.794 20.293 16.911 33.146 7.925 12.949 17.975 45.902 10.727 62.814z" stroke="#17212a" stroke-width="1.05"/><path d="M254.574 231.768s-39.428 22.419-78.565 1.643c0 0 15.075-82.625 15.848-94.124 0 0 11.21 2.416 15.365-7.828 0 .097 44.839 56.532 47.352 100.309z" fill="url(#e)"/><path d="M254.574 231.768s-39.428 22.419-78.565 1.643c0 0 15.075-82.625 15.848-94.124 0 0 11.21 2.416 15.365-7.828 0 .097 44.839 56.532 47.352 100.309z" fill="#8edc97"/><path d="M254.574 231.768s-39.428 22.419-78.565 1.643c0 0 15.075-82.625 15.848-94.124 0 0 11.21 2.416 15.365-7.828 0 .097 44.839 56.532 47.352 100.309z" stroke="#17212a" stroke-width="1.05"/><path d="M215.05 142.959c6.764 9.084 12.949 18.651 18.264 28.701.676 39.814-17.781 57.305-36.045 67.742-18.845 10.63-39.815 3.479-46.869-2.223-2.996-2.415-10.147-7.634-23.773-7.634-13.722 0-23.772-11.789-23.772-11.789l31.986-46.773c28.991 19.424 39.718 17.105 52.281 10.92 14.978-7.344 20.1-50.251 20.1-50.251a107.443 107.443 0 0 0 7.828 11.307z" fill="url(#f)"/><path d="M215.05 142.959c6.764 9.084 12.949 18.651 18.264 28.701.676 39.814-17.781 57.305-36.045 67.742-18.845 10.63-39.815 3.479-46.869-2.223-2.996-2.415-10.147-7.634-23.773-7.634-13.722 0-23.772-11.789-23.772-11.789l31.986-46.773c28.991 19.424 39.718 17.105 52.281 10.92 14.978-7.344 20.1-50.251 20.1-50.251a107.443 107.443 0 0 0 7.828 11.307z" fill="#8edc97"/><path d="M215.05 142.959c6.764 9.084 12.949 18.651 18.264 28.701.676 39.814-17.781 57.305-36.045 67.742-18.845 10.63-39.815 3.479-46.869-2.223-2.996-2.415-10.147-7.634-23.773-7.634-13.722 0-23.772-11.789-23.772-11.789l31.986-46.773c28.991 19.424 39.718 17.105 52.281 10.92 14.978-7.344 20.1-50.251 20.1-50.251a107.443 107.443 0 0 0 7.828 11.307z" stroke="#17212a" stroke-width="1.05"/><path d="M207.222 131.556c-4.155 10.243-15.365 7.827-15.365 7.827.29-7.247.386-15.751.193-18.071 3.769.773 7.634.677 11.307-.193.193 2.609 1.256 5.895 3.865 10.437z" fill="#e9dac1" stroke="#17212a" stroke-width="1.05"/><path d="M205.966 109.426c-1.063 4.445-2.899 7.248-2.609 11.596-4.639 1.257-13.916 1.353-17.492-3.285-3.382-4.349-2.415-8.891-3.478-9.277-1.063-.387-3.093-1.643-2.9-2.803.194-1.159 4.059-3.672 5.509-7.73.096-.387.29-.774.483-1.064s0-.096.097-.193c1.063-2.416 2.705-4.542 4.831-6.281 1.16.676 12.756 7.634 15.172 14.978.194.387.29.87.29 1.353.387.87.29 1.836.097 2.706z" fill="#e9dac1" stroke="#17212a" stroke-width="1.05"/><path d="M271.389 184.706c-3.189-5.315-7.828-8.311-12.177-12.466-8.117-7.635-2.126-17.975-3.285-27.058.193-2.996-.87-5.895-2.803-8.118-5.025-5.701-19.52-8.987-22.419-15.172-1.74-3.672-1.74-6.571-1.836-9.76 0-1.256 0-2.416-.194-3.769-.096-1.063-.193-2.126-.483-3.189-1.353-6.378-4.638-16.718-17.394-19.23-10.824-2.223-18.748 2.898-20.391 4.251 0 0 12.756 7.248 15.269 14.979.193.387.29.87.29 1.353.193.966.193 1.836-.097 2.802-2.126 8.988-7.827 11.5 9.084 33.533s30.924 53.73 31.793 57.402h24.449s1.547-13.239-8.987-22.323c-10.533-9.084-10.92-10.726-8.987-19.134.483-2.126 1.063-4.252 1.45-6.281-.87 6.088-2.416 12.369 1.449 17.781 2.706 3.672 7.055 5.895 10.147 9.18 5.218 5.605 8.407 12.95 8.89 20.584 0 .58.87.58.87 0-.29-5.412-1.933-10.63-4.638-15.365z" fill="#17212a"/><path d="M228.869 112.229c-1.836.193-10.824.869-22.806-5.509-.194-.096-.387-.193-.484-.29a7.58 7.58 0 0 0 1.74-2.126c.096-.29.29-.483.386-.773 2.803 1.257 13.433 5.798 21.067 4.929 0 1.256.097 2.512.097 3.769z" fill="#fff"/><path d="M207.222 104.208c-1.836 3.479-6.088 4.735-9.47 2.899l-5.992-3.189c3.479 1.836 7.731.483 9.471-2.899 1.836-3.383.483-7.635-2.899-9.47l5.991 3.188c3.382 1.836 4.735 6.088 2.899 9.471z" fill="#17212a" stroke="#fff" stroke-width="1.836"/><path d="m198.332 91.548-14.399-7.634c-6.765 6.281-6.572 12.466-6.572 12.466l14.399 7.634c3.479 1.837 7.731.484 9.471-2.899 1.836-3.479.483-7.73-2.899-9.567z" fill="#17212a" stroke="#fff" stroke-width="1.836"/><path clip-rule="evenodd" d="M239.789 239.499c.096-.097.289-.194.386-.097s.097.29.097.387c-.097.096-.29.193-.387.096-.096-.096-.193-.29-.096-.386zm-2.513.193c-.097 0-.193 0-.29.097 0 .096 0 .193.097.29.096 0 .193 0 .29-.097 0-.097 0-.193-.097-.29zm-6.281 1.643c.096-.193.29-.29.483-.193.193.096.29.289.193.483-.097.193-.29.29-.483.193s-.29-.29-.193-.483zm-11.5 1.256c.097-.097.193-.097.29-.097.096 0 .096.097.096.29-.096.097-.193.097-.289.097-.097-.097-.097-.193-.097-.29zm4.445 1.836c.097-.096.193-.096.29-.096s.193.096.097.289c-.097.097-.194.097-.29.097-.097-.097-.097-.193-.097-.29zm-13.915 14.302c0-.096-.194-.193-.29-.096-.097 0-.194.193-.097.29 0 .096.193.193.29.096.097-.096.193-.193.097-.29zm-2.03-4.542c.097-.096.193 0 .193.097.097.097 0 .29 0 .29-.096.097-.193 0-.289-.097-.097-.096 0-.29.096-.29zm-1.643-4.348c0-.097-.193-.193-.29-.097-.096.097-.193.193-.096.29 0 .097.193.193.29.097.096 0 .096-.097.096-.29zm-2.126-4.542c.097-.097.29 0 .29.097 0 .096 0 .289-.096.289-.097.097-.29 0-.29-.096-.097-.097 0-.193.096-.29zm12.66 5.701c-.097-.096-.194-.096-.29 0-.097.097-.097.194 0 .29.096.097.193.097.29 0 .096-.096.096-.29 0-.29zm-3.672-3.478c.096-.097.193-.097.289 0 0 .096 0 .289-.096.289h-.193c-.056-.055-.08-.079-.09-.107a.122.122 0 0 1-.006-.03.747.747 0 0 1 .009-.066zm-.087.086-.01.01.001.056-.001.041c0 .041 0 .065.007.085.01.029.034.053.09.108.096.097.193.097.289.097.194 0 .29-.194.29-.387s-.193-.386-.386-.29c-.157 0-.251.128-.28.28zm-3.102-3.469c-.097-.096-.194-.096-.29 0-.097.097-.097.194 0 .29.096.097.193.097.29 0 .096 0 .096-.193 0-.29zm-10.437 14.206c0-.097.096-.193.193-.193.193 0 .193.096.193.193 0 .096-.096.193-.193.193s-.193-.097-.193-.193zm.193-5.025c-.097 0-.193.096-.193.193s.096.193.193.193.193-.096.193-.193-.096-.193-.193-.193zm28.991.386c.097-.096.29-.096.483 0 .097.097.193.387.097.58a.614.614 0 0 1-.58 0 .614.614 0 0 1 0-.58zm-6.378-5.991a.614.614 0 0 0-.58 0 .62.62 0 0 0 0 .58.62.62 0 0 0 .58 0 .614.614 0 0 0 0-.58zm-14.399 35.369c0-.194.193-.387.387-.387.193 0 .386.097.386.387a.415.415 0 0 1-.386.386.415.415 0 0 1-.387-.386zm-.29-9.471c-.193 0-.386.194-.386.387s.193.386.386.386a.415.415 0 0 0 .387-.386c0-.29-.097-.387-.387-.387zm-.966-8.697c0-.193.193-.386.386-.386.194 0 .387.096.387.386a.416.416 0 0 1-.387.387c-.193 0-.386-.194-.386-.387zm-.29-9.47c-.193 0-.387.193-.387.386 0 .194.194.387.387.387s.387-.193.387-.387c0-.29-.194-.386-.387-.386zm-.966-8.698c0-.193.193-.386.386-.386.193-.097.387.097.387.386 0 .194-.194.387-.387.387s-.386-.193-.386-.387zm34.595-2.705c-.193-.097-.386 0-.483.193-.096.193 0 .386.194.483.193.097.386 0 .483-.193.096-.193 0-.483-.194-.483zm-13.819 29.57c-.096-.193-.289-.29-.483-.193-.193.097-.29.29-.193.483.097.194.29.29.483.194.29-.097.29-.29.193-.484zm-4.541-8.31c.193-.097.386 0 .483.193.096.193 0 .386-.194.483-.193.097-.386 0-.483-.193-.096-.193 0-.387.194-.483zm-3.576-8.021c-.097-.193-.29-.29-.483-.193-.193.096-.29.289-.193.483.096.193.289.29.483.193.193 0 .29-.29.193-.483zm-4.542-8.311c.193-.097.387 0 .483.193.097.194 0 .387-.193.484-.193.096-.387 0-.483-.194-.097-.193 0-.386.193-.483zm-19.424 18.554c-.193-.096-.386 0-.483.194-.097.193 0 .386.193.483.194.096.387-.097.483-.29.097-.097 0-.29-.193-.387zm2.416-8.407c.097-.193.29-.29.483-.193.194 0 .29.193.194.483-.097.193-.29.29-.484.193-.193-.097-.29-.29-.193-.483zm3.382-8.891c-.193-.096-.386.097-.483.29-.096.194 0 .387.193.483.194.097.387 0 .484-.193.096-.29 0-.483-.194-.58zm29.378 12.273c.193-.096.386-.096.483.097.097.096 0 .29-.097.483-.193.097-.386.097-.483-.097-.096-.193-.096-.386.097-.483zm-3.886-6.924c-.028-.034-.076-.034-.076-.034h-.095c.07.001.127.013.171.034zm.117.343c0-.093-.003-.187-.097-.28a.097.097 0 0 0-.02-.063c.078.037.117.098.117.16.061.061.045.122 0 .183zm0 0c-.026.036-.061.071-.097.107h-.096c-.194 0-.29-.097-.29-.194 0-.192.096-.289.192-.29h-.192c-.193.097-.193.29-.097.484.097.193.29.193.483.096.097 0 .097-.096.097-.193zm-4.928-7.238c.193-.096.386-.096.483.097.193.096.096.386-.097.483s-.386.097-.483-.097c-.097-.193-.097-.386.097-.483zm-20.487 26.285c-.194 0-.387.097-.387.29s.097.387.193.387c.194 0 .387-.097.387-.29.097-.193-.097-.387-.193-.387zm1.449-7.634c0-.193.193-.29.387-.29.096 0 .29.193.193.387 0 .193-.193.29-.387.29-.096 0-.193-.194-.193-.387zm2.223-8.214c-.193 0-.387.097-.387.29-.096.193 0 .386.194.386.193 0 .386-.096.386-.29 0-.193-.097-.386-.193-.386zm1.353-7.634c0-.194.193-.29.386-.29.194 0 .29.193.29.386 0 .194-.193.29-.386.29-.194 0-.29-.193-.29-.386zm2.222-8.214c-.193 0-.386.096-.386.289 0 .194.096.387.29.387.193 0 .386-.097.386-.29s-.096-.386-.29-.386zm29.474 6.764c.097-.193.29-.193.484-.097.096.194.193.387.096.484-.096.193-.386.193-.483.096-.193-.096-.193-.386-.097-.483zm-6.184-4.735c-.194-.097-.387-.097-.483.097-.097.193-.097.386.096.483.193.096.387.096.483-.097.097-.193.097-.386-.096-.483zm-13.529 26.478c0-.193.096-.386.29-.386.193-.097.289.096.386.29 0 .193-.097.386-.29.386s-.386-.096-.386-.29zm-1.063-8.407c-.194 0-.29.193-.29.386 0 .194.193.29.386.29.194 0 .29-.193.29-.386s-.193-.387-.386-.29zm-1.643-7.634c0-.194.096-.387.29-.387.193-.097.386.097.386.29s-.096.387-.29.387c-.193 0-.386-.097-.386-.29zm-22.903 2.416c.097-.194.29-.194.483-.097.097.097.193.29.097.483-.097.193-.29.193-.483.097-.194-.097-.194-.29-.097-.483zm41.94-8.698c-.096-.096-.193-.096-.29 0-.096.097-.096.194 0 .29.097.097.194.097.29 0 .097-.096.097-.193 0-.29zm-3.575-3.479c.096-.096.193-.096.29 0 .096.097.096.194 0 .29-.097.097-.194.097-.29 0-.097-.096-.097-.193 0-.29zm-2.996-3.479c-.097-.096-.193-.096-.29 0-.097.097-.097.194 0 .29.097.097.193.097.29 0 .097-.096.097-.193 0-.29zM214.277 256.7c0-.097.096-.193.193-.193.096 0 .193.096.193.193s-.097.193-.193.193a.207.207 0 0 1-.193-.193zm.289-5.025c-.096 0-.193.097-.193.193 0 .097.097.193.193.193.097 0 .194-.096.194-.193 0-.096-.097-.193-.194-.193zm0-4.542c0-.097.097-.193.194-.193.096 0 .193.096.193.193s-.097.193-.193.193c-.097 0-.194-.096-.194-.193zm9.278 5.218c.096-.096.193 0 .193.097.064.064.043.129.021.193-.01.032-.021.065-.021.097-.097.097-.29 0-.29-.097-.097-.193 0-.29.097-.29zm-1.45-4.348c0-.097-.193-.194-.29-.097-.097 0-.193.193-.097.29 0 .097.194.193.29.097.097-.097.097-.194.097-.29zm-2.029-4.639c.096-.096.29 0 .29.097.096.096 0 .193-.194.29-.096.096-.193 0-.193-.097-.097-.097 0-.29.097-.29zm-14.786 8.504c-.096 0-.193 0-.29.097 0 .096 0 .193.097.29.097.096.193 0 .29-.097s0-.29-.097-.29zm1.74-4.252c.096-.096.193-.096.29-.096.096 0 .096.193.096.289-.096.097-.193.097-.29.097-.096-.097-.096-.193-.096-.29zm2.222-4.445c-.096 0-.193 0-.29.097 0 .096 0 .193.097.289.097 0 .193 0 .29-.096.097-.193 0-.29-.097-.29zm27.155 10.92c.097 0 .193 0 .29.096.097.097 0 .29-.097.29-.096 0-.193 0-.289-.096 0-.097 0-.194.096-.29zm-2.706-4.542c-.096-.097-.193-.097-.29-.097-.096.097-.096.194-.096.29.096.097.193.097.29.097.193 0 .193-.097.096-.29zm-3.189-4.639c.097 0 .194 0 .29.097.097.097 0 .193-.096.193-.097.097-.194.097-.29 0 0-.096 0-.29.096-.29zm-16.621 13.24c-.097 0-.193.096-.29.193 0 .096 0 .193.193.29.097 0 .194 0 .29-.097 0-.193-.096-.386-.193-.386zm.87-5.122c.096-.097.193-.193.29-.193.096 0 .193.096.193.289 0 .194-.193.194-.29.194-.193-.097-.193-.194-.193-.29zm1.449-5.605c-.096 0-.193.097-.29.193 0 .097 0 .193.194.29.096 0 .193 0 .289-.193 0-.097-.096-.193-.193-.29zm.87-5.122c0-.096.193-.193.29-.193.096 0 .193.097.193.29-.097.193-.193.193-.29.193-.193-.097-.193-.193-.193-.29zm21.26-1.353c-.097-.096-.29-.096-.29.097-.097.097 0 .29.097.29.096.096.193 0 .29-.097 0 0 0-.193-.097-.29zm-14.206 9.181c-.096 0-.193.193-.193.29 0 .096.193.193.29.193s.193-.097.193-.29c-.096-.097-.193-.193-.29-.193zm-1.159-5.122c0-.193.096-.29.193-.29s.193.097.29.193c0 .194-.097.29-.193.29-.194 0-.29-.096-.29-.193zm-18.265 6.185c-.096-.097-.193 0-.289.096-.097.097 0 .194.096.29.097.097.193.097.29 0 0-.096 0-.29-.097-.386zm2.9-4.349c0-.097.193-.193.289-.097.097.097.097.194.097.387-.097.097-.193.097-.29 0-.096-.097-.193-.193-.096-.29zM233.7 278.25c-.193 0-.386.193-.289.483 0 .193.193.387.483.29.193 0 .386-.193.29-.483 0-.193-.194-.29-.484-.29zm-1.739-8.794c-.097-.29.097-.483.29-.483s.386.096.483.29c.097.29-.097.483-.29.483-.29.097-.483-.097-.483-.29zm-1.16-9.76c-.193 0-.386.193-.29.386.097.194.194.387.387.29.193 0 .387-.193.29-.483 0-.097-.193-.29-.387-.193zm-1.739-8.794c-.097-.29.097-.483.29-.483.193-.097.386.096.483.29.097.289-.097.483-.29.483-.29.096-.483-.097-.483-.29zm-1.16-9.76c-.193 0-.386.193-.29.483 0 .193.194.386.387.29.193 0 .386-.194.29-.484 0-.193-.193-.386-.387-.289zm-32.953 28.024c.194-.193.387-.193.58-.097.193.097.29.29.097.58-.194.194-.387.194-.58.097-.193-.193-.193-.387-.097-.58zm6.185-7.731c-.193-.096-.387-.096-.58.097-.096.193-.096.386.097.58.193.193.386.096.58-.097.096-.193 0-.483-.097-.58zm4.928-7.537c.194-.194.387-.194.58-.097.194.193.194.386.097.58-.193.193-.387.193-.58.096-.193-.193-.193-.386-.097-.579zm6.089-7.635c-.194-.096-.387-.096-.58.097-.097.193-.097.386.096.58.194.096.387.096.58-.097.097-.193.097-.483-.096-.58zm28.604 5.219c.193-.194.483-.097.58.096.096.194.096.387-.097.58s-.483.097-.58-.097c-.193-.193-.096-.483.097-.579zm-4.349-7.925c-.096-.193-.386-.289-.58-.096-.193.096-.193.386-.096.58.096.193.386.193.58.096.193-.193.193-.386.096-.58zm-21.453 30.054c.097-.193.29-.386.483-.29.193 0 .29.194.29.484a.532.532 0 0 1-.483.29c-.193-.097-.387-.29-.29-.484zm2.706-9.47c-.193-.097-.387.097-.483.29-.097.193.096.386.29.483.193.097.386-.097.483-.29a.532.532 0 0 0-.29-.483zm1.643-8.794a.531.531 0 0 1 .483-.29c.29 0 .386.193.29.483-.097.194-.29.387-.483.29a.53.53 0 0 1-.29-.483zm2.705-9.47a.53.53 0 0 0-.483.29c0 .193.097.386.29.483a.531.531 0 0 0 .483-.29c.097-.193-.096-.387-.29-.483zm-1.352 30.73a.53.53 0 0 1 .483-.29c.193 0 .29.29.29.483a.531.531 0 0 1-.484.29c-.193-.096-.386-.29-.289-.483zm2.222-9.47a.53.53 0 0 0-.483.29c0 .193.097.386.29.483.193 0 .386-.097.483-.29s0-.483-.29-.483zm1.353-8.891a.532.532 0 0 1 .483-.29c.194.097.387.29.29.483a.53.53 0 0 1-.483.29c-.193-.096-.387-.29-.29-.483zm2.319-9.47a.53.53 0 0 0-.483.29c0 .193.097.386.29.483a.531.531 0 0 0 .483-.29.53.53 0 0 0-.29-.483zm-22.902-4.639c.096-.096.386-.096.483.097.069.139.039.278.016.381a.513.513 0 0 0-.016.102c-.194.097-.483.097-.58-.097-.097-.096-.097-.386.097-.483zm33.049 8.794c-.193 0-.386.29-.29.483 0 .194.29.387.483.29.194 0 .387-.29.29-.483 0-.193-.193-.386-.483-.29zm-2.126-8.697c-.096-.193.097-.483.29-.483.29-.097.483.096.483.29 0 .29-.096.483-.29.483-.193.096-.386-.097-.483-.29zm-29.087 20.39c-.194-.096-.387-.096-.484.097-.096.193-.096.386.097.58.193.096.387.096.58-.097.097-.193 0-.387-.193-.58zm4.735-7.634c.096-.193.29-.193.483-.097.193.097.193.387.193.58-.193.193-.386.193-.58.097-.193-.194-.193-.387-.096-.58zm5.701-7.924c-.193-.097-.386-.097-.579.096-.097.194-.097.387.096.58.193.097.387.097.58-.096.097-.194.097-.484-.097-.58zm4.736 11.306c.096-.096.289-.193.386-.096.193 0 .193.193.193.289-.096.194-.193.29-.386.194-.193-.097-.29-.194-.193-.387zm3.189-6.571c-.194-.097-.29 0-.387.097-.097.193 0 .289.193.386.194.097.29 0 .387-.193 0-.097-.097-.29-.193-.29zm2.415-6.378c.097-.193.194-.29.387-.193.097.096.193.29.193.386-.096.193-.193.29-.386.193-.194-.096-.29-.193-.194-.386zm3.093-6.668c-.193-.097-.29 0-.387.193-.096.194 0 .29.194.387.096.096.289 0 .386-.097.097-.193 0-.386-.193-.483zm6.281 12.08c0-.194.097-.29.29-.29s.29.096.29.29c0 .193-.097.289-.29.289s-.29-.096-.29-.289zm.387-7.345c-.194 0-.29.097-.29.29s.096.29.29.29c.193 0 .29-.097.29-.29s-.097-.29-.29-.29zm-25.222 3.769c.096-.097.29-.097.386 0a.294.294 0 0 1 0 .387c-.096.096-.29.096-.386 0a.294.294 0 0 1 0-.387zm5.411-4.928c-.096-.097-.29-.097-.386 0-.097.096-.097.289 0 .386.096.097.29.097.386 0 .097-.097.097-.29 0-.386zm21.454-.097c0-.097.096-.097.193-.097 0 .049.024.073.048.097s.048.048.048.097c0 0-.096.096-.193.096-.096 0-.096-.096-.096-.193zm.773-3.866c-.097 0-.194 0-.194.097s0 .193.097.193.193 0 .193-.096c.097-.097 0-.194-.096-.194zm-5.509 9.954c.097-.097.29-.193.387-.097.193.097.193.194.097.29-.097.194-.29.194-.387.097-.193 0-.193-.193-.097-.29zm3.769-5.508c-.096-.097-.29 0-.386.096-.097.097 0 .29.096.387.097.097.29 0 .387-.097.096-.193.096-.29-.097-.386z" fill="#17212a" fill-rule="evenodd" opacity=".86"/><path d="M188.913 112.473c-1.791 2.298-5.225 2.974-7.763 1.487a5.439 5.439 0 0 1-2.09-2.298c-.298-.676.896-1.352 1.194-.541.747 2.028 3.285 3.109 5.524 2.298.896-.27 1.493-.811 2.09-1.487.299-.676 1.493 0 1.045.541z" fill="#17212a"/><g stroke="#17212a"><path d="M33.856 73.96c-18.07 0-32.76-14.688-32.76-32.76s14.69-32.759 32.76-32.759 32.76 14.689 32.76 32.76c0 18.07-14.689 32.76-32.76 32.76z" fill="#f5f6f0"/><circle cx="135.131" cy="17.911" fill="#f5f6f0" r="16.911"/><circle cx="86.427" cy="113.388" fill="#17212a" r="13.432"/><circle cx="303.182" cy="125.178" fill="#f5f6f0" r="20.1"/><path d="M280.956 225.39c-6.958 0-12.95-5.025-14.206-11.79-1.353-7.151 3.286-14.109 10.437-15.462.29-.096.58-.096.773-.096 3.672-.484 7.441.483 10.437 2.609 6.281 4.542 7.924 13.239 3.479 19.327-2.513 3.382-6.572 5.412-10.92 5.412z" fill="#f5f6f0"/><ellipse cx="346.765" cy="257.28" fill="#f5f6f0" rx="10.05" ry="10.533"/><path d="m140.253 54.053 2.706 1.063c4.445 1.643 6.668 6.572 5.025 11.017l-10.727 28.411c-1.643 4.445-6.571 6.668-11.016 5.025l-2.706-1.063c-4.445-1.643-6.668-6.571-5.025-11.016l10.726-28.412c1.643-4.445 6.572-6.764 11.017-5.025z" fill="#f5f6f0"/><path d="M324.829 195.432c-.58 0-1.257-.096-1.836-.193-5.219-1.063-8.504-6.088-7.538-11.21l4.349-21.646c1.063-5.219 6.088-8.504 11.209-7.538 5.219 1.063 8.504 6.088 7.538 11.21l-4.349 21.647c-.869 4.541-4.735 7.73-9.373 7.73zM203.163 58.885H181.71V37.432h21.453z" fill="#17212a"/><path d="m324.539 80.822 18.071 13.432-13.433 18.168-18.167-13.433zM75.41 48.738l-12.37 33.05 36.432-7.151zM347.925 175.622l-40.104 51.507 70.061 6.475z" fill="#f5f6f0"/></g></svg>