<?xml version="1.0" encoding="UTF-8"?>
<svg width="243px" height="247px" viewBox="0 0 243 247" version="1.1" xmlns="http://www.w3.org/2000/svg" xmlns:xlink="http://www.w3.org/1999/xlink">
    <title>Group 9</title>
    <defs>
        <linearGradient x1="61.5463167%" y1="48.66409%" x2="-1.4394377%" y2="68.1565634%" id="linearGradient-1">
            <stop stop-color="#F5F6F0" offset="0%"></stop>
            <stop stop-color="#D6D5D5" offset="69.55%"></stop>
            <stop stop-color="#D8D8D8" offset="100%"></stop>
        </linearGradient>
        <path d="M80.4435791,58.58636 C80.4435791,39.13287 64.5754865,23.3632 45.0001669,23.3632 C25.4248473,23.3632 9.55724657,39.13287 9.55724657,58.58636 C9.55724657,69.65742 15.5666135,77.43127 21.2848317,85.98765 C29.062238,97.62515 31.9702818,107.01845 32.0956921,113.03957 L57.9061171,113.03957 C58.3880862,106.29619 61.9826899,94.44946 68.7169775,85.98765 C76.3227439,76.4302 80.4435791,69.65742 80.4435791,58.58636 Z" id="path-2"></path>
        <linearGradient x1="0%" y1="48.8381492%" x2="100%" y2="51.1618508%" id="linearGradient-3">
            <stop stop-color="#334554" offset="0%"></stop>
            <stop stop-color="#17212A" offset="100%"></stop>
        </linearGradient>
        <linearGradient x1="0%" y1="46.2066525%" x2="100%" y2="53.7933475%" id="linearGradient-4">
            <stop stop-color="#334554" offset="0%"></stop>
            <stop stop-color="#17212A" offset="100%"></stop>
        </linearGradient>
        <linearGradient x1="0%" y1="46.2064302%" x2="100%" y2="53.7935698%" id="linearGradient-5">
            <stop stop-color="#334554" offset="0%"></stop>
            <stop stop-color="#17212A" offset="100%"></stop>
        </linearGradient>
        <linearGradient x1="0%" y1="48.8379128%" x2="100%" y2="51.1620872%" id="linearGradient-6">
            <stop stop-color="#334554" offset="0%"></stop>
            <stop stop-color="#17212A" offset="100%"></stop>
        </linearGradient>
        <linearGradient x1="0%" y1="0.619852088%" x2="100%" y2="99.3801479%" id="linearGradient-7">
            <stop stop-color="#334554" offset="0%"></stop>
            <stop stop-color="#17212A" offset="100%"></stop>
        </linearGradient>
    </defs>
    <g id="WIP" stroke="none" stroke-width="1" fill="none" fill-rule="evenodd">
        <g id="Service-Single" transform="translate(-599.000000, -3038.000000)">
            <g id="Group-9" transform="translate(600.000000, 3039.000000)">
                <path d="M122.5,245 C157.916819,245 190.451296,217.4325 212.816831,193.40291 C233.174999,171.530042 241.34544,155.238063 241.34544,123 C241.34544,86.6009179 238.02114,56.177122 212.816831,33.7399561 C191.173954,14.4732184 153.7558,0 122.5,0 C95.2634284,0 75.7864877,18.7049737 55.4447875,33.7399561 C25.2582736,56.0514492 0,82.0816898 0,122.5 C0,154.518435 35.3324997,177.142553 55.4447875,198.967106 C77.8297194,223.257785 86.8635528,245 122.5,245 Z" id="Oval" stroke="#17212A" stroke-linecap="round" stroke-linejoin="round" stroke-dasharray="8,14" fill-rule="nonzero"></path>
                <g id="clip-197" transform="translate(84.000000, 46.000000)">
                    <g id="Path" fill-rule="nonzero">
                        <use fill="url(#linearGradient-1)" xlink:href="#path-2"></use>
                        <use stroke="#17212A" stroke-width="0.709006621" fill="#8EDC97" xlink:href="#path-2"></use>
                    </g>
                    <path d="M44.2590166,120.12938 C44.2560657,120.12938 44.2526231,120.12938 44.2496723,120.12938 C44.0490158,120.1235 43.8906545,119.95837 43.8955726,119.75796 C44.3937712,101.01791 44.3401644,81.4233 38.836865,63.40992 C38.3652239,63.11004 37.9098123,62.78468 37.4745648,62.43433 C34.9348831,60.39103 29.2928947,55.18723 31.7484777,51.00263 C31.9914294,50.58809 32.3686439,50.37543 32.8009407,50.39944 C34.0786504,50.47392 35.5304591,52.55642 35.9893133,53.60159 C37.3294823,56.65821 38.4753882,59.77657 39.4530968,62.94148 C42.4570426,64.77457 46.1352532,65.53701 49.6172335,64.99409 C50.9529762,64.78584 52.2075711,64.3909 53.333313,63.83818 C53.7301998,61.99039 54.1605293,60.15044 54.6218425,58.31735 L54.6921706,58.03707 C55.1549592,56.17409 55.8641422,53.36443 57.8436579,53.80494 C58.4348077,53.93724 58.8838257,54.30229 59.1425152,54.86138 C59.832026,56.35147 59.0510395,58.85194 58.3964469,60.0789 C57.4561155,61.84143 55.9039785,63.30653 53.9721679,64.32377 C51.5593719,75.65845 50.3706789,87.23764 50.436089,98.82712 C50.4375644,99.02655 50.2752687,99.18923 50.0746122,99.1907 C50.0741204,99.1907 50.0731368,99.1907 50.072645,99.1907 C49.8724803,99.1907 49.7106765,99.03047 49.709201,98.83153 C49.6452664,87.37631 50.8000248,75.93236 53.1469189,64.72116 C52.0915051,65.18274 50.9421565,65.51888 49.7303487,65.70753 C46.3403359,66.23428 42.7737651,65.58454 39.7599832,63.95088 C45.0709869,81.8545 45.1162329,101.23351 44.623936,119.77609 C44.6175425,119.97405 44.4557386,120.12938 44.2590166,120.12938 L44.2590166,120.12938 Z M57.474804,54.48604 C56.3244718,54.48604 55.7711911,56.71064 55.3988946,58.21102 L55.3285665,58.49424 C54.9193846,60.11761 54.5352848,61.74735 54.1767588,63.38248 C55.728404,62.4554 56.972671,61.20884 57.7556248,59.74129 C58.4884144,58.36782 58.9748097,56.22701 58.4834964,55.16469 C58.3182498,54.80797 58.0575931,54.59482 57.6857884,54.51152 C57.6130013,54.49388 57.5426732,54.48604 57.474804,54.48604 Z M32.7296289,51.12023 C32.6224154,51.12023 32.4999559,51.15845 32.3770046,51.36719 C30.2047014,55.06816 35.538328,59.94758 37.9319436,61.87328 C38.1144033,62.01979 38.3007974,62.16238 38.4906342,62.29958 C37.5817783,59.45268 36.5317744,56.64547 35.3243928,53.89069 C34.8045548,52.70587 33.4929105,51.16384 32.7611044,51.12121 C32.7497929,51.12023 32.7389732,51.12023 32.7296289,51.12023 L32.7296289,51.12023 Z" id="Shape" fill="#FFFFFF" fill-rule="nonzero"></path>
                    <g id="Group" transform="translate(27.735840, 104.445950)">
                        <polygon id="Path" fill="url(#linearGradient-3)" points="4.03280207 23.8875 34.1637352 23.8875 32.6971723 19.0708 2.56574737 19.0708"></polygon>
                        <polygon id="Path" fill="url(#linearGradient-4)" points="26.8923963 0 3.51542307 7.02807 29.0312569 7.02807"></polygon>
                        <polygon id="Path" fill="url(#linearGradient-5)" points="7.63773368 35.73325 35.0209515 27.50027 5.13149473 27.50027"></polygon>
                        <polygon id="Path" fill="url(#linearGradient-6)" points="0 10.64084 1.4665629 15.45803 31.5979878 15.45803 30.1314249 10.64084"></polygon>
                    </g>
                    <polygon id="Path" fill="#F5F6F0" fill-rule="nonzero" points="56.7670965 111.47402 31.2512627 111.47402 27.0227222 112.74508 27.7358396 115.08679 57.8672645 115.08679"></polygon>
                    <polygon id="Path" fill="#F5F6F0" fill-rule="nonzero" points="30.301587 123.51675 60.4330119 123.51675 59.3338274 119.90398 29.2024025 119.90398"></polygon>
                    <polygon id="Path" fill="#F5F6F0" fill-rule="nonzero" points="32.8673343 131.94622 62.7567911 131.94622 62.9795789 131.87958 61.8995748 128.33345 31.7686417 128.33345"></polygon>
                    <polygon id="Path" fill="url(#linearGradient-7)" points="38.9421113 134.95727 51.0601897 134.95727 51.0601897 147 38.9421113 147"></polygon>
                    <polygon id="Path" fill="#8EDC97" fill-rule="nonzero" points="14.7566104 26.03174 19.4828577 26.03174 19.4828577 30.72839 14.7566104 30.72839"></polygon>
                    <polygon id="Path" fill="#283744" fill-rule="nonzero" points="20.2712213 17.33571 16.5984206 20.67212 13.240867 17.02211 16.9136677 13.6857"></polygon>
                    <polygon id="Path" fill="#8EDC97" fill-rule="nonzero" points="68.0953358 5.61981 62.4400686 11.23962 56.7852933 5.61981 62.4400686 0"></polygon>
                    <polygon id="Path" fill="#8EDC97" fill-rule="nonzero" points="65.0254882 20.83921 63.236793 17.22448 66.8746755 15.44676 68.6633708 19.06149"></polygon>
                    <path d="M67.8391054,102.43401 C67.8036954,102.43401 67.7677936,102.42911 67.7328755,102.41833 C67.5400878,102.36002 67.4328743,102.15814 67.4923827,101.96753 C70.7422311,91.45164 79.1771808,82.46161 89.5060722,78.50486 C89.6934499,78.43381 89.9039425,78.52642 89.9757461,78.71213 C90.0475496,78.89833 89.9545985,79.10756 89.7672207,79.1791 C79.6419367,83.05696 71.373217,91.8701 68.1863198,102.17872 C68.1386147,102.33503 67.9950076,102.43401 67.8391054,102.43401 Z" id="Path" fill="#17212A" fill-rule="nonzero"></path>
                    <path d="M58.4092338,24.06929 C58.3939878,24.06929 58.3797255,24.0688 58.3644795,24.06733 C58.1657903,24.04283 58.0231668,23.863 58.0472652,23.66504 C58.4412011,20.4379 60.2962901,16.83395 62.5571183,14.90139 C64.6251588,13.13396 66.5643465,12.29753 69.7128829,11.81341 C69.9100968,11.78597 70.0969827,11.91827 70.1274746,12.11525 C70.1579666,12.31174 70.0217365,12.49696 69.8235391,12.52734 C66.7856588,12.99431 65.0087668,13.75871 63.0312184,15.44872 C60.8953087,17.27446 59.1420234,20.68927 58.7682515,23.75226 C58.7471039,23.93503 58.5902181,24.06929 58.4092338,24.06929 Z" id="Path" fill="#8EDC97" fill-rule="nonzero"></path>
                    <path d="M49.671332,16.6061 C49.6290368,16.6061 49.5872334,16.59875 49.5444463,16.58356 C49.356085,16.51398 49.260183,16.30671 49.3300193,16.11953 C50.9303532,11.81831 52.7436387,6.94379 51.7477333,2.21921 C51.7064217,2.02419 51.831832,1.8326 52.0290458,1.79144 C52.2218334,1.74881 52.4185555,1.87523 52.4593753,2.07123 C53.4990514,6.99965 51.6464214,11.97805 50.0116612,16.37041 C49.9575626,16.51594 49.8183818,16.6061 49.671332,16.6061 Z" id="Path" fill="#17212A" fill-rule="nonzero"></path>
                    <path d="M12.9595545,36.04881 C12.8326687,36.04881 12.7102093,35.98315 12.6433238,35.86653 C9.78249332,30.88029 5.8883803,28.68509 0.38213006,28.96831 C0.179506346,28.97468 0.0103253812,28.82523 0.000489278546,28.6258 C-0.00983862919,28.42637 0.144588182,28.25634 0.345244675,28.24654 C6.15444688,27.95156 10.2624951,30.25946 13.2752934,35.50883 C13.3751298,35.68229 13.3136542,35.90279 13.1390633,36.00177 C13.0825057,36.03362 13.0210301,36.04881 12.9595545,36.04881 Z" id="Path" fill="#8EDC97" fill-rule="nonzero"></path>
                </g>
            </g>
        </g>
    </g>
</svg>