<?xml version="1.0" encoding="UTF-8"?>
<svg width="247px" height="247px" viewBox="0 0 247 247" version="1.1" xmlns="http://www.w3.org/2000/svg" xmlns:xlink="http://www.w3.org/1999/xlink">
    <title>Group 18</title>
    <defs>
        <linearGradient x1="0%" y1="49.9992414%" x2="99.9997089%" y2="49.9992414%" id="linearGradient-1">
            <stop stop-color="#8EDC97" offset="0%"></stop>
            <stop stop-color="#5DC969" offset="100%"></stop>
        </linearGradient>
        <linearGradient x1="57.4918475%" y1="8.24722186%" x2="47.2399889%" y2="88.583765%" id="linearGradient-2">
            <stop stop-color="#17212A" offset="0%"></stop>
            <stop stop-color="#334656" offset="100%"></stop>
        </linearGradient>
        <linearGradient x1="80.8549117%" y1="8.45907513%" x2="38.6329907%" y2="88.3879913%" id="linearGradient-3">
            <stop stop-color="#17212A" offset="0%"></stop>
            <stop stop-color="#334656" offset="100%"></stop>
        </linearGradient>
        <linearGradient x1="80.8296786%" y1="8.24722186%" x2="38.6422867%" y2="88.583765%" id="linearGradient-4">
            <stop stop-color="#17212A" offset="0%"></stop>
            <stop stop-color="#334656" offset="100%"></stop>
        </linearGradient>
        <linearGradient x1="18.9212584%" y1="8.57228611%" x2="118.838262%" y2="63.8124574%" id="linearGradient-5">
            <stop stop-color="#17212A" offset="0%"></stop>
            <stop stop-color="#334656" offset="100%"></stop>
        </linearGradient>
    </defs>
    <g id="WIP" stroke="none" stroke-width="1" fill="none" fill-rule="evenodd">
        <g id="Service-Single" transform="translate(-809.000000, -3963.000000)" fill-rule="nonzero">
            <g id="Group-18" transform="translate(810.000000, 3964.000000)">
                <circle id="Oval" stroke="#17212A" stroke-linecap="round" stroke-linejoin="round" cx="122.5" cy="122.5" r="122.5"></circle>
                <circle id="Oval" stroke="#17212A" stroke-linecap="round" stroke-linejoin="round" cx="122.5" cy="122.5" r="107.5"></circle>
                <g id="clip-technical-support-of-start-up-copy" transform="translate(122.000000, 119.000000) rotate(25.000000) translate(-122.000000, -119.000000) translate(42.017787, 28.988936)">
                    <g id="Group" transform="translate(79.982213, 90.011064) rotate(-30.780939) translate(-79.982213, -90.011064) translate(32.416298, 13.574605)">
                        <g transform="translate(0.000000, 0.000000)">
                            <path d="M41.6130929,89.8856303 C48.0440579,93.6824922 52.6128417,99.2749252 54.865797,105.311556 C63.8199846,99.3714519 73.0112565,89.4824894 80.4001641,76.9589162 C95.4657113,51.4225847 84.5685681,17.0765552 84.5685681,17.0765552 C84.5685681,17.0765552 49.2447608,24.1334858 34.1792135,49.6702541 C26.790306,62.1942641 22.5786767,75.0227044 21.7080579,85.7358563 C28.0796426,84.790681 35.182128,86.0887683 41.6130929,89.8856303 Z" id="Path" fill="url(#linearGradient-1)"></path>
                            <path d="M69.44888,56.4065938 C71.153005,57.4124805 72.5357781,58.7538084 73.5648897,60.296925 C73.9609034,55.5789102 71.698779,50.8263904 67.3496147,48.2586059 C61.296762,44.6853714 53.494376,46.696708 49.9215206,52.7516829 C47.3546361,57.1023722 47.6707484,62.3563066 50.2970132,66.2955563 C50.4524496,64.4471358 51.0152519,62.6043933 52.020786,60.8996709 C55.5932047,54.844696 63.396464,52.8333593 69.44888,56.4065938 Z" id="Path" fill="#EFEFEF"></path>
                            <path d="M71.8411169,65.6928105 C72.846651,63.9880881 73.4098899,62.1453456 73.5648897,60.296925 C72.5362147,58.7538084 71.1525683,57.4124805 69.44888,56.4065938 C63.3960273,52.8333593 55.5927681,54.844696 52.020786,60.8996709 C51.0152519,62.6043933 50.452013,64.4471358 50.2970132,66.2955563 C51.3256881,67.838673 52.7093346,69.1800008 54.4130229,70.1858875 C60.4663122,73.7595588 68.2691348,71.7477854 71.8411169,65.6928105 Z" id="Path" fill="#FFFFFF"></path>
                            <path d="M74.3307199,77.4454806 L53.168658,103.514238 L61.5578603,121.963938 C73.0348339,105.659226 76.9377734,90.891517 74.3307199,77.4454806 Z" id="Path" fill="url(#linearGradient-2)"></path>
                            <path d="M37.9288997,55.9540977 L25.3437864,87.0863564 L5.1427235,88.6569897 C13.8646297,70.7261749 24.9023643,60.1698243 37.9288997,55.9540977 Z" id="Path" fill="url(#linearGradient-3)"></path>
                            <g transform="translate(82.528113, -0.000000)" fill="#18232C" id="Path">
                                <path d="M0.676892673,20.4209209 C0.559442094,20.4209209 0.441118277,20.3907837 0.332836703,20.3270149 C0.011048315,20.1370189 -0.0959234015,19.7216484 0.0940059727,19.3997472 L11.343501,0.3328876 C11.5343036,0.0109863872 11.9504017,-0.0955860632 12.2708803,0.093536359 C12.5926687,0.283532326 12.6996404,0.698902819 12.509711,1.02080403 L1.26021599,20.0876637 C1.13315979,20.3021189 0.907864256,20.4209209 0.676892673,20.4209209 Z"></path>
                            </g>
                            <g transform="translate(35.412767, 113.592805)" fill="#7ED688" id="Path">
                                <path d="M0.225627683,29.7611843 C0.204669959,29.7611843 0.183275616,29.7581269 0.161881272,29.7515753 C0.0422475976,29.7161967 -0.0263016248,29.5912799 0.00950115375,29.4716042 C2.88201921,19.6970761 4.95639727,10.6654977 6.7351841,0.187766095 C6.75614182,0.0654698403 6.87228254,-0.0170801315 6.99540917,0.00301139604 C7.11809918,0.0244132406 7.20105684,0.140594682 7.18053573,0.263327709 C5.39869257,10.7594038 3.32038493,19.8067059 0.442627451,29.5982682 C0.413373961,29.6969788 0.323867014,29.7611843 0.225627683,29.7611843 Z"></path>
                            </g>
                            <g transform="translate(0.000000, 101.933449)" fill="#7ED688" id="Path">
                                <path d="M0.22595411,20.5131219 C0.168756988,20.5131219 0.111123247,20.4912833 0.0670247025,20.447606 C-0.0216090055,20.3598148 -0.022482244,20.2169902 0.0652782255,20.1283255 C7.24504519,12.8744105 14.1584744,6.6814155 22.4813106,0.0499010979 C22.5786767,-0.0291546952 22.7210145,-0.012120574 22.7987328,0.0857164296 C22.876451,0.183116661 22.8602961,0.325067671 22.7624934,0.402813147 C14.4545023,7.02384501 7.55329838,13.2054839 0.386193375,20.4462957 C0.342094831,20.4904097 0.28402447,20.5131219 0.22595411,20.5131219 Z"></path>
                            </g>
                            <polygon id="Rectangle" fill="#77D381" transform="translate(33.644349, 149.489986) rotate(-110.359554) translate(-33.644349, -149.489986) " points="31.0122556 146.859217 36.2756087 146.860051 36.2764426 152.120754 31.0130894 152.119921"></polygon>
                            <polygon id="Rectangle" fill="#1D918B" transform="translate(4.504234, 146.642624) rotate(-42.020857) translate(-4.504234, -146.642624) " points="1.87366993 144.012283 7.13606911 144.011012 7.13479778 149.272964 1.8723986 149.274236"></polygon>
                            <polygon id="Rectangle" fill="#1D918B" transform="translate(5.917296, 109.746538) rotate(-110.359554) translate(-5.917296, -109.746538) " points="4.12354115 107.953686 7.71048356 107.954254 7.71105181 111.539391 4.1241094 111.538823"></polygon>
                            <g transform="translate(8.717907, 113.727381)" fill="#7ED688" id="Path">
                                <path d="M0.2251507,27.6475926 C0.186291587,27.6475926 0.146559235,27.6375469 0.111193076,27.6165818 C0.00378474013,27.552813 -0.0320180385,27.414793 0.0312917529,27.307347 L16.076176,0.110843827 C16.1399224,0.00339783197 16.2783307,-0.031543955 16.3853024,0.0309144892 C16.4927108,0.0946832505 16.5285135,0.232703309 16.4652037,0.340149304 L0.420319506,27.5366524 C0.3770942,27.6078463 0.301559069,27.6475926 0.2251507,27.6475926 Z"></path>
                            </g>
                            <g transform="translate(26.412642, 128.293556)" fill="#1D918B" id="Path">
                                <path d="M0.225720117,7.8510697 C0.199086343,7.8510697 0.172452568,7.84670198 0.146692033,7.83665622 C0.0296780733,7.79297898 -0.0292655256,7.66282083 0.0143963995,7.54576584 L2.78561879,0.146842442 C2.82928071,0.0302242279 2.95982987,-0.0300503547 3.07640721,0.014937196 C3.19342117,0.0586144298 3.25236476,0.188772586 3.20870284,0.305827573 L0.437480454,7.70475097 C0.402987533,7.79472607 0.31697354,7.8510697 0.225720117,7.8510697 Z"></path>
                            </g>
                            <g transform="translate(45.892883, 44.231565)" fill="url(#linearGradient-4)" id="Shape">
                                <path d="M14.9764288,29.98049 C12.309995,29.98049 9.68111048,29.2606892 7.37357774,27.8979595 C3.92690537,25.8630372 1.47878123,22.6073362 0.480233004,18.7305449 C-0.518315223,14.8541904 0.0514728993,10.8201611 2.08568199,7.37228028 C4.76827067,2.82504348 9.71734988,0 15.0008794,0 C17.6673132,0 20.2961977,0.719800812 22.6037305,2.08209373 C29.7188778,6.2825333 32.0905935,15.4901309 27.8920628,22.6073362 C25.2086009,27.1558833 20.2599583,29.98049 14.9764288,29.98049 Z M15.0008794,4.51535242 C11.3062073,4.51535242 7.84687301,6.48956339 5.97202994,9.66751892 C4.55083428,12.0767551 4.15263752,14.8956838 4.85035509,17.6049826 C5.54850927,20.3138446 7.25918349,22.5889917 9.66757528,24.0111225 C11.2808834,24.9637229 13.1168674,25.4668847 14.977302,25.4668847 C18.6719741,25.4668847 22.131745,23.4922369 24.0065881,20.3142814 C26.9406695,15.3407548 25.2828262,8.90666151 20.3110428,5.9715514 C18.6968614,5.01851416 16.8608774,4.51535242 15.0008794,4.51535242 Z"></path>
                            </g>
                            <path d="M58.417258,33.5358839 C71.3293991,41.1593083 80.698375,52.2585669 85.7238626,64.4283546 C92.3085175,41.4711637 84.5690047,17.0765552 84.5690047,17.0765552 C84.5690047,17.0765552 68.1005998,20.368945 52.8573485,30.58505 C54.7321915,31.4743185 56.58826,32.4566195 58.417258,33.5358839 Z" id="Path" fill="#5CBC67"></path>
                            <path d="M89.1011125,45.0326054 C89.4888304,28.9567627 85.3186799,15.8055477 85.3186799,15.8055477 C85.3186799,15.8055477 71.7943986,18.510042 57.9133994,26.619594 L89.1011125,45.0326054 Z" id="Path" fill="url(#linearGradient-5)"></path>
                        </g>
                    </g>
                    <g id="Group" transform="translate(51.158979, 144.611941) scale(-1, 1) rotate(106.632807) translate(-51.158979, -144.611941) translate(32.361069, 128.740837)">
                        <g transform="translate(0.000000, -0.000000)" id="Path">
                            <polygon fill="#1D918B" points="1.96144685 13.0784173 0 12.1710669 0.905408478 10.2051828 2.86685533 11.1126587"></polygon>
                            <polygon fill="#1D2934" points="16.8967393 15.5538077 11.5560198 13.082934 14.0213625 7.73041973 19.3622073 10.2012935"></polygon>
                            <polygon fill="#72D17D" points="35.1303502 7.82338801 29.7896307 5.35263973 32.2549734 4.54292474e-13 37.5958182 2.47087375"></polygon>
                            <g transform="translate(9.036594, 3.013789)" fill="#334656">
                                <path d="M17.0900484,7.25337239 C17.013355,7.25337239 16.9376641,7.21498063 16.892801,7.14509759 C13.4829512,1.79195601 6.35133996,-0.812787058 0.303587276,1.08434313 C0.1796497,1.12323675 0.0491956898,1.05435741 0.0108489778,0.93065062 C-0.0279989984,0.80694383 0.0407995143,0.675709244 0.164235826,0.637317482 C6.40610308,-1.32179157 13.7676693,1.36789014 17.2879225,6.8929164 C17.3570969,7.00206945 17.3252667,7.14685407 17.2168683,7.21623526 C17.1770178,7.24157885 17.1335331,7.25337239 17.0900484,7.25337239 Z"></path>
                            </g>
                            <g transform="translate(1.328211, 22.315343)" fill="#334656">
                                <path d="M0.233728228,9.42686578 C0.22859027,9.42686578 0.223953576,9.42686578 0.218815618,9.42636393 C0.0902413479,9.41795789 -0.00800643713,9.30692289 0.000515054426,9.17807211 C0.298767259,4.46918445 4.52179291,0.267042957 9.22202208,0.00181359233 C9.3533533,-0.0155003397 9.46137574,0.0936527101 9.46839344,0.222503494 C9.4759124,0.351354278 9.37716335,0.462389277 9.24821314,0.469415221 C4.77229969,0.722474647 0.750907576,4.72374943 0.466690769,9.20717959 C0.458670542,9.33176462 0.355786063,9.42686578 0.233728228,9.42686578 Z"></path>
                            </g>
                        </g>
                    </g>
                    <g id="Group" transform="translate(106.241808, 146.223686) rotate(102.871734) translate(-106.241808, -146.223686) translate(85.997604, 126.470193)">
                        <g transform="translate(0.000000, -0.000000)">
                            <ellipse id="Oval" fill="#1D918B" cx="25.9266685" cy="37.1904904" rx="2.3153706" ry="2.3164958"></ellipse>
                            <polygon id="Rectangle" fill="#1D918B" transform="translate(1.488722, 5.878020) rotate(107.266179) translate(-1.488722, -5.878020) " points="0.299677955 4.689452 2.67809357 4.68912454 2.67776611 7.06658839 0.299350492 7.06691585"></polygon>
                            <polygon id="Rectangle" fill="#1D2934" transform="translate(16.797179, 11.670076) rotate(107.266179) translate(-16.797179, -11.670076) " points="13.5596392 8.43383198 20.0356102 8.43294036 20.0347186 14.9063199 13.5587476 14.9072115"></polygon>
                            <polygon id="Rectangle" fill="#72D17D" transform="translate(7.662692, 35.219026) rotate(107.266179) translate(-7.662692, -35.219026) " points="4.42515266 31.9827821 10.9011237 31.9818905 10.900232 38.45527 4.42426104 38.4561616"></polygon>
                            <g transform="translate(7.553151, 0.000000)" fill="#17212A" id="Path">
                                <path d="M1.67912365,19.7986784 C1.58181762,19.7986784 1.48923518,19.743588 1.4455082,19.6493403 C-1.58501446,13.1174865 0.28417899,4.69595212 5.79256387,0.0603950322 C5.90107156,-0.031287216 6.0631583,-0.016839498 6.15533586,0.091855951 C6.24697357,0.200416375 6.23253287,0.363121985 6.12389022,0.454804233 C0.787444143,4.94561409 -1.02317675,13.1046591 1.91273909,19.4331646 C1.97239133,19.5618439 1.916383,19.7152327 1.7877663,19.7749139 C1.75213691,19.7908469 1.71515792,19.7986784 1.67912365,19.7986784 Z"></path>
                            </g>
                            <g transform="translate(26.026731, 25.929083)" fill="#17212A" id="Path">
                                <path d="M0.257041249,3.32785489 C0.189696301,3.32785489 0.122216393,3.30165996 0.0718763815,3.24913508 C-0.0263743644,3.1471909 -0.0238101279,2.98408022 0.0790292517,2.88524162 C3.80769904,-0.711430024 10.3513607,-0.985801642 14.3665502,2.28910447 C14.4772172,2.37916641 14.4936823,2.54079182 14.4035291,2.65097255 C14.3135109,2.76209845 14.1514242,2.77708627 14.0418368,2.68796951 C10.2169407,-0.42990206 3.98665576,-0.169438059 0.435997964,3.25629143 C0.385657953,3.30368534 0.321417081,3.32785489 0.257041249,3.32785489 Z"></path>
                            </g>
                        </g>
                    </g>
                    <g id="Oval" transform="translate(65.195929, 157.795545)" fill="#72D17D">
                        <ellipse cx="2.38726089" cy="2.38842103" rx="2.38726089" ry="2.38842103"></ellipse>
                    </g>
                    <g id="Group" transform="translate(29.482506, 153.591924) rotate(-13.500462) translate(-29.482506, -153.591924) translate(26.810846, 150.914759)" fill="#1D918B">
                        <g transform="translate(0.000000, 0.000000)" id="Path">
                            <polygon points="5.34332125 2.05564948 3.08833387 5.35432934 0 3.29867986 2.25498738 0"></polygon>
                        </g>
                    </g>
                    <g id="Oval" transform="translate(115.423898, 160.470577)" fill="#1D918B">
                        <ellipse cx="4.29706961" cy="4.29915786" rx="4.29706961" ry="4.29915786"></ellipse>
                    </g>
                    <g id="Path" transform="translate(137.004737, 151.107966)" fill="#77D381">
                        <polygon points="3.15116122 6.30543153 0 3.15271576 3.15116122 0 6.30236876 3.15271576"></polygon>
                    </g>
                </g>
            </g>
        </g>
    </g>
</svg>