<?xml version="1.0" encoding="UTF-8"?>
<svg width="498px" height="304px" viewBox="0 0 498 304" version="1.1" xmlns="http://www.w3.org/2000/svg" xmlns:xlink="http://www.w3.org/1999/xlink">
    <title>Oval</title>
    <g id="WIP" stroke="none" stroke-width="1" fill="none" fill-rule="evenodd">
        <g id="Service-Single" transform="translate(-463.000000, -3596.000000)" fill="#D1EDD1" fill-rule="nonzero">
            <path d="M715.770469,3900 C753.633993,3900 792.420663,3887.94531 825,3875.11983 C855.301888,3863.1909 879.893991,3850.99904 902.133144,3836.81989 C944.140846,3810.03679 961,3790.08742 961,3750.61224 C961,3706.04194 954.140532,3668.78831 902.133144,3641.31423 C879.443596,3629.32796 866.836781,3607.40154 833.27889,3600 C800.786595,3592.83349 747.497337,3600 715.770469,3600 C659.569644,3600 593.373141,3616.58982 551.399417,3635 C489.111587,3662.3202 463,3700.50819 463,3750 C463,3789.20625 509.899071,3818.27606 551.399417,3845 C597.589211,3874.74369 642.237069,3900 715.770469,3900 Z" id="Oval"></path>
        </g>
    </g>
</svg>