<svg xmlns="http://www.w3.org/2000/svg" xmlns:xlink="http://www.w3.org/1999/xlink" width="487" height="356" viewBox="0 0 487 356"><defs><path id="f" d="M100.555 53.243s-9.322 37.463-40.123 28.898l6.67 36.33s26.645-1.41 39.325-18.331c12.68-16.921-3.879-45.402-5.872-46.897"/><path id="h" d="M140.055 119.28a25.547 25.547 0 0 1-3.844 7.66 19.646 19.646 0 0 1-10.471 7.13s0 .184-4.62 1.136c-6.337 1.067-7.068 1.251-7.068 1.251l-12.423-.684-6.05 23.968c-3.001 13.96-8.201 31.05-8.47 47.916-.384 24.106 1.361 109.396 1.361 109.396h21.514c17.635-17.655 15.962-31.462 17.266-59.439 1.306-27.97 5.554-18.979 4.241-45.618-1.305-26.639-.646-21.307 7.838-59.273a80.27 80.27 0 0 0 .726-33.443z"/><path id="i" d="M161.042 278.238c-2.718-15.305-7.787-12.165-6.768-24.013 1.002-11.839-1.356-19.5-5.766-32.025-4.386-12.534-13.688-10.571-.152-51.99a89.81 89.81 0 0 0 1.62-51.149c-.925.208-1.92.417-2.973.621l.038-.702s-1.868.589-4.787 1.525c-.888.136-1.807.27-2.765.395-.075.195-.153.38-.23.567-11.784 3.8-32.687 10.692-31.635 11.406 1.46.992-3.736 36.624-3.736 36.624l4.813 5.405-.147.081-4.667-5.485c-1.484 15.117-2.06 31.698-.721 46.087 1.692 18.101 35.61 101.447 35.61 101.447H160.3c-.003 0 3.445-23.472.743-38.794z"/><path id="k" d="M113.344 48.8a80.817 80.817 0 0 1 27.15 19.494c12.88 13.991 11.398 20.343 18.526 28.674 7.128 8.33 16.737 18.431 9.28 32.729 0 0-28.792 2.615-43.187-2.018l-24.538-74.39c0-.002 6.896 2.014 12.77-4.488z"/><path id="m" d="M100.299 54.508s7.318 22.972 3.914 37.57c-3.072 13.164-7.252 17.462-19.616 20.884-12.364 3.42-12.25 3.197-12.25 3.197l9.005 48.257s12.992 3.202 23.161-6.568 14.045-12.188 20.791-14.156c6.749-1.967 20.638-10.249 17.754-32.953-2.885-22.704-8.579-38.337-29.71-61.937"/><path id="o" d="M32.013 120.274c-1.91 9.432-2.353 21.142.767 34.863 8.99 39.576 9.69 34.02 8.306 61.788-1.39 27.768 3.113 18.396 4.496 47.553 1.383 29.163-.391 43.556 18.298 61.96h22.8s1.85-88.908 1.443-114.037c-.286-17.582-5.796-35.398-8.975-49.95l-7.026-38.781"/><path id="p" d="M70.344 172.623s-6.57-39.274-6.048-48.43l-42.251-6.802-.545 2.654a92.163 92.163 0 0 0 1.717 53.319c14.343 43.177 4.486 41.13-.161 54.197-4.674 13.057-7.172 21.042-6.11 33.384 1.08 12.35-4.291 9.076-7.171 25.03-2.864 15.973.79 40.442.79 40.442h22.807s35.945-86.881 37.737-105.751c1.419-15 .807-32.284-.765-48.043z"/><path id="r" d="M93.26 44.035S35.8 55.945 8.45 105.752c0 0 24.47 35.01 69.453 22.017 0 0 1.767-46.012 25.713-70.648 0 0-6.873.99-10.355-13.086"/><path id="t" d="M103.616 57.12s-15.575 40.105 8.095 71.672l-21.59 39.656s-29.852-7.113-31.652-64.14C56.67 47.282 93.26 44.035 93.26 44.035s1.883 11.375 10.356 13.086"/><linearGradient id="a"><stop offset="0" stop-color="#f5f6f0"/><stop offset=".696" stop-color="#d6d5d5"/><stop offset="1" stop-color="#d8d8d8"/></linearGradient><linearGradient xlink:href="#a" id="e" x1="61.179%" x2=".198%" y1="48.664%" y2="68.157%"/><linearGradient id="g" x1="50%" x2="50%" y1="0%" y2="100%"><stop offset="0" stop-color="#f5f6f0"/><stop offset="1" stop-color="#ea593f"/></linearGradient><linearGradient xlink:href="#a" id="j" x1="63.753%" x2="-11.272%" y1="48.664%" y2="68.157%"/><linearGradient xlink:href="#a" id="l" x1="56.928%" x2="19.135%" y1="48.664%" y2="68.157%"/><linearGradient xlink:href="#a" id="q" x1="68.479%" x2="-32.324%" y1="48.893%" y2="65.044%"/><linearGradient xlink:href="#a" id="s" x1="53.392%" x2="34.887%" y1="48.664%" y2="68.157%"/><mask id="b" fill="#fff"><path fill-rule="evenodd" d="M0 0h135.715v106.597H0z"/></mask><mask id="c" fill="#fff"><path fill-rule="evenodd" d="M0 0h146.634v115.957H0z"/></mask><mask id="d" fill="#fff"><path fill-rule="evenodd" d="M0 0h171v345H0z"/></mask><mask id="n" fill="#fff"><path fill-rule="evenodd" d="M0 0h188v356H0z"/></mask></defs><g fill="none"><g mask="url(#b)" transform="rotate(-105.459 135.486 49.467)"><g fill="#334656"><path d="M71.523 28.616H64.33c-7.815 0-14.15-6.296-14.15-14.061v-.492C50.18 6.296 56.515 0 64.33 0h7.193c7.816 0 14.15 6.296 14.15 14.062v.492c0 7.766-6.334 14.062-14.15 14.062z"/><path d="M59.22 12.644h17.413v23.292H59.22zM106.917 71.248v-7.147c0-7.767 6.336-14.061 14.15-14.061h.496c7.816 0 14.15 6.296 14.15 14.061v7.147c0 7.767-6.335 14.062-14.15 14.062h-.495c-7.815 0-14.151-6.296-14.151-14.062z"/><path d="M100.658 59.024h23.44v17.302h-23.44zM28.798 50.791v7.147C28.798 65.705 22.462 72 14.647 72h-.495C6.336 72 0 65.705 0 57.938v-7.147C0 43.025 6.336 36.73 14.15 36.73h.496c7.816 0 14.152 6.295 14.152 14.061z"/><path d="M11.616 45.714h23.44v17.302h-23.44z"/><path d="M107.85 33.142c0-3.185-2.713-5.686-5.912-5.487-22.543 1.406-45.222 1.386-68.03-.01-3.197-.195-5.904 2.305-5.904 5.488 2.126 22.423 2.033 45.087 0 67.96 0 3.039 2.48 5.503 5.538 5.503 8.586-.58 17.07-.96 25.454-1.137-5.169-2.093-8.815-7.13-8.815-13.019v-.492c0-7.767 6.336-14.062 14.15-14.062h7.193c7.816 0 14.15 6.297 14.15 14.062v.492c0 5.84-3.583 10.846-8.684 12.972 8.566.145 17.01.533 25.322 1.184 3.059 0 5.539-2.464 5.539-5.503-1.374-24.821-1.71-48.005-.001-67.95z"/></g><path fill="#fff" d="M66.495 38.124a.235.235 0 1 0-.147-.297.237.237 0 0 0 .147.297zm1.814-5.437a.26.26 0 0 0 .315-.15.237.237 0 0 0-.162-.293.223.223 0 0 0-.29.12c-.004.008-.006.017-.009.027a.232.232 0 0 0 .146.296zm22.235 3.585c.058.12.203.17.321.112a.218.218 0 0 0 .096-.316.234.234 0 0 0-.307-.115.238.238 0 0 0-.11.319zM57.54 29.488c.096.083.24.074.326-.02a.232.232 0 0 0-.02-.324.232.232 0 0 0-.326.02.218.218 0 0 0 .02.324zm20.765 6.942c.019.13.132.225.264.224a.244.244 0 1 0-.039-.487.263.263 0 0 0-.225.263zm-.412-5.716c.013.13.13.222.26.208a.228.228 0 0 0 .229-.226c-.002-.007 0-.014-.002-.02a.251.251 0 0 0-.263-.224.261.261 0 0 0-.224.262zM35.313 41.87a.45.45 0 0 0 .632.004c.004-.002.006-.007.01-.01a.44.44 0 0 0 0-.623l-.001-.002a.45.45 0 0 0-.633-.004c-.004.002-.007.008-.011.01a.44.44 0 0 0 0 .623c-.001.002-.001.002.002.002zm7.677-7.715a.457.457 0 0 0 .643 0 .452.452 0 0 0 0-.642c-.002-.002-.002-.004-.005-.005a.445.445 0 0 0-.625 0l-.002.002a.467.467 0 0 0-.011.645zm27.04 32.43c.005.248.21.446.458.445.24.007.441-.18.45-.417v-.024a.457.457 0 0 0-.46-.445.447.447 0 0 0-.448.441zm-.095-21.732c0 .245.198.442.445.443h.015c.24.006.44-.18.45-.418v-.024a.481.481 0 0 0-.463-.46.458.458 0 0 0-.447.459zm-.054-10.859a.452.452 0 0 0 .905-.012.453.453 0 0 0-.905-.006zM48.545 57.53a.447.447 0 1 0-.258-.585.457.457 0 0 0 .258.585zm4.133-10.06a.447.447 0 1 0-.259-.585.457.457 0 0 0 .259.584zm4.136-10.048a.46.46 0 0 0 .59-.269.456.456 0 0 0-.246-.579.457.457 0 1 0-.344.848zm33.258 20.033a.456.456 0 0 0 .597.233.438.438 0 0 0 .24-.572l-.002-.005a.436.436 0 0 0-.55-.266c-.01.005-.021.008-.033.012a.482.482 0 0 0-.252.598zM81.64 37.409a.433.433 0 0 0 .56.245c.005-.002.013-.004.019-.009a.447.447 0 0 0 .252-.596.455.455 0 0 0-.595-.238.45.45 0 0 0-.238.592l.002.006zM38.746 53.236a.406.406 0 0 0 .543-.165.4.4 0 1 0-.543.165zm4.534-8.587a.406.406 0 0 0 .543-.165.399.399 0 0 0-.149-.545.403.403 0 0 0-.548.149c-.005.007-.008.015-.012.022a.391.391 0 0 0 .15.533c.006.002.011.003.016.006zm4.353-8.81c.022.097.089.18.182.224a.406.406 0 0 0 .377-.72l-.004-.002a.41.41 0 0 0-.381-.002l-.017.005a.278.278 0 0 0-.145.163.343.343 0 0 0-.012.331zm31.755 20.863a.428.428 0 0 0 .521.266.388.388 0 0 0 .26-.483l-.005-.016a.399.399 0 0 0-.496-.272l-.008.002a.42.42 0 0 0-.272.503zm-5.777-18.526a.403.403 0 0 0 .497.274l.008-.002a.376.376 0 0 0 .255-.499.403.403 0 0 0-.498-.274l-.008.002a.407.407 0 0 0-.254.499zm-2.894-9.244a.406.406 0 0 0 .771-.25.424.424 0 0 0-.504-.27.427.427 0 0 0-.267.52zM58.22 53.842c-.013.22.153.411.374.43.219.02.413-.139.433-.357a.423.423 0 0 0-.361-.449.42.42 0 0 0-.446.376zm.898-9.663a.385.385 0 0 0 .333.432c.007 0 .017 0 .023.002.22.02.413-.139.433-.357a.423.423 0 0 0-.36-.449.408.408 0 0 0-.43.372zm.884-9.66a.395.395 0 0 0 .362.429.397.397 0 0 0 .076-.79.397.397 0 0 0-.438.352zm27.777 1.424c.143.17.398.196.574.057a.405.405 0 0 0 .037-.574.41.41 0 0 0-.554-.055.396.396 0 0 0-.074.554l.017.018zm-27.056-.148a.236.236 0 0 0 .47-.05.237.237 0 0 0-.261-.208.233.233 0 0 0-.21.258zm-.636-5.686a.25.25 0 0 0 .276.205.236.236 0 0 0 .209-.259.227.227 0 0 0-.243-.21l-.018.003a.244.244 0 0 0-.226.255c.002.003 0 .004.002.006zM49.24 31.892a.255.255 0 0 0 .295-.162.232.232 0 0 0-.15-.29c-.005-.003-.008-.003-.014-.005a.228.228 0 0 0-.29.14l-.005.021a.242.242 0 0 0 .164.296zm21.748-2.328a.234.234 0 0 0 .318.096.231.231 0 0 0 .095-.317c-.05-.111-.18-.16-.29-.111a.088.088 0 0 0-.028.015.23.23 0 0 0-.1.31l.005.007zm-37.076 5.618a.261.261 0 0 0 .357-.109.264.264 0 0 0-.112-.37.261.261 0 0 0-.357.108.278.278 0 0 0 .112.371zm27.348 2.636a.253.253 0 0 0 .336.174.267.267 0 0 0 .176-.333.297.297 0 0 0-.34-.19.274.274 0 0 0-.172.35c-.001-.004-.001-.004 0 0zm-1.899-6.252a.273.273 0 0 0 .35.17h.001a.266.266 0 0 0 .177-.333.297.297 0 0 0-.34-.19.297.297 0 0 0-.188.353zm-11.728 4.272c.033.02.07.034.108.042a.266.266 0 0 0 .293-.235l.002-.008a.276.276 0 0 0-.228-.296l-.017.004a.266.266 0 0 0-.293.234.245.245 0 0 0 .135.259zm24.034-7.028a.27.27 0 0 0 .379.039l.005-.006a.262.262 0 0 0 .036-.37.261.261 0 0 0-.362-.063.074.074 0 0 1-.015.01.282.282 0 0 0-.043.39zM39.32 63.521c-.01.255.18.474.438.5.255.02.481-.166.503-.42a.478.478 0 0 0-.438-.5.463.463 0 0 0-.503.42zm.92-11.166a.465.465 0 0 0 .923.083.465.465 0 0 0-.924-.083zm.904-11.16a.478.478 0 0 0 .438.499.463.463 0 0 0 .485-.437.463.463 0 0 0-.923-.063zm36.089-.324c.168.19.456.216.656.056a.46.46 0 0 0 .056-.653.466.466 0 0 0-.656-.056.469.469 0 0 0-.056.653zm-7.281-8.535a.473.473 0 0 0 .656.056.485.485 0 0 0 .052-.67.473.473 0 0 0-.664-.03.47.47 0 0 0-.044.644zm-12.447 13.16c.08.246.345.38.592.301h.002a.451.451 0 0 0 .289-.57.46.46 0 0 0-.575-.308.457.457 0 0 0-.308.577zM54.058 34.84a.458.458 0 0 0 .577.305.469.469 0 1 0-.262-.9.469.469 0 0 0-.32.58c0 .006.002.01.005.015zM51.435 49.51c.073.248.332.39.581.32a.474.474 0 0 0 .324-.564.495.495 0 0 0-.585-.335.48.48 0 0 0-.32.58zm-2.989-10.755c.073.248.332.39.582.32a.458.458 0 0 0 .323-.564.463.463 0 0 0-.566-.324.481.481 0 0 0-.339.568zm-16.368 5.96a.46.46 0 0 0 .402.506h.002a.464.464 0 0 0 .525-.392.478.478 0 0 0-.41-.522.484.484 0 0 0-.52.408zm1.382-11.083a.462.462 0 0 0 .916.13l.001-.013a.483.483 0 0 0-.41-.522.458.458 0 0 0-.507.401v.004zM72.235 45.1a.477.477 0 0 0 .66.072.456.456 0 0 0 .077-.642.453.453 0 0 0-.632-.103l-.016.013a.458.458 0 0 0-.097.647c.001.005.005.008.008.013zm-6.893-8.8a.477.477 0 0 0 .66.073.456.456 0 0 0 .076-.642.453.453 0 0 0-.631-.103c-.006.004-.011.006-.017.013a.46.46 0 0 0-.096.647l.008.012zm-12.123 4.737c.091.17.303.235.474.145a.348.348 0 0 0 .15-.46.339.339 0 0 0-.475-.146.35.35 0 0 0-.149.46zm-3.893-7.452a.352.352 0 1 0 .156-.48l-.011.006a.357.357 0 0 0-.145.474zm-14.04 7.944c.02.19.192.328.382.311a.365.365 0 0 0 .313-.38.347.347 0 0 0-.377-.313H35.6a.338.338 0 0 0-.314.382zm-.741-8.39c.02.192.19.335.385.327a.345.345 0 0 0 .315-.375v-.002a.336.336 0 0 0-.355-.317c-.004 0-.008 0-.013.002a.348.348 0 0 0-.332.364z" opacity=".51"/></g><g mask="url(#c)" transform="rotate(-99.936 213.374 -9.066)"><g fill="#7ebfc9"><path d="M77.277 31.129h-7.77c-8.445 0-15.29-6.849-15.29-15.296v-.536C54.217 6.85 61.062 0 69.507 0h7.77c8.445 0 15.29 6.849 15.29 15.296v.536c0 8.448-6.845 15.297-15.29 15.297z"/><path d="M63.986 13.754h18.812v25.337H63.986zM115.52 77.504v-7.775c0-8.448 6.845-15.296 15.289-15.296h.535c8.444 0 15.29 6.85 15.29 15.296v7.775c0 8.449-6.847 15.296-15.29 15.296h-.535c-8.444 0-15.29-6.849-15.29-15.296z"/><path d="M108.757 64.206h25.326v18.821h-25.326zM31.115 55.251v7.774c0 8.45-6.846 15.297-15.29 15.297h-.534C6.846 78.322 0 71.474 0 63.025v-7.774c0-8.449 6.846-15.296 15.29-15.296h.534c8.445 0 15.29 6.847 15.29 15.296z"/><path d="M12.551 49.728h25.326v18.82H12.55z"/><path d="M116.527 36.053c0-3.466-2.93-6.186-6.387-5.97-24.357 1.53-48.86 1.508-73.504-.01-3.454-.213-6.38 2.507-6.38 5.969 2.299 24.392 2.198 49.046 0 73.927a5.986 5.986 0 0 0 5.985 5.987 587.086 587.086 0 0 1 27.502-1.237c-5.585-2.277-9.525-7.756-9.525-14.162v-.535c0-8.45 6.846-15.297 15.29-15.297h7.77c8.445 0 15.29 6.85 15.29 15.297v.535c0 6.353-3.872 11.799-9.383 14.11 9.255.159 18.378.58 27.36 1.289a5.986 5.986 0 0 0 5.983-5.987c-1.484-27-1.846-52.22 0-73.916z"/></g><path fill="#334656" d="M71.845 41.472a.254.254 0 0 0 .322-.16.256.256 0 0 0-.158-.323.255.255 0 0 0-.323.16.259.259 0 0 0 .16.323zm1.96-5.915a.28.28 0 0 0 .34-.163.259.259 0 0 0-.174-.319.24.24 0 0 0-.314.131c-.005.008-.006.018-.01.029a.252.252 0 0 0 .158.322zm24.024 3.9a.26.26 0 0 0 .347.122.238.238 0 0 0 .103-.344.252.252 0 0 0-.331-.126.26.26 0 0 0-.119.348zm-35.659-7.38c.103.09.26.08.352-.021a.254.254 0 0 0-.022-.353.25.25 0 0 0-.352.021.238.238 0 0 0 .003.337c.007.007.012.012.019.016zm22.436 7.552c.02.141.142.244.284.243a.265.265 0 0 0-.042-.53.285.285 0 0 0-.242.287zm-.446-6.218c.015.14.142.24.282.226.135 0 .246-.11.246-.246l-.001-.022a.272.272 0 0 0-.285-.243.283.283 0 0 0-.242.285zM38.153 45.545c.187.19.493.193.684.005.005-.002.007-.008.012-.012a.48.48 0 0 0 0-.676l-.003-.003a.483.483 0 0 0-.683-.005c-.005.003-.007.009-.012.012a.48.48 0 0 0 0 .677c-.001.002-.001.002.002.002zm8.296-8.392a.494.494 0 0 0 .695-.698c-.002-.003-.002-.005-.006-.006a.479.479 0 0 0-.675 0l-.002.002a.51.51 0 0 0-.012.702zM75.664 72.43c.006.27.227.485.496.483a.472.472 0 0 0 .485-.453c0-.01.002-.018 0-.027a.495.495 0 0 0-.496-.483.484.484 0 0 0-.485.48zm-.102-23.64a.48.48 0 0 0 .48.482c.005 0 .011 0 .017-.002a.472.472 0 0 0 .486-.453v-.027a.521.521 0 0 0-.5-.5.497.497 0 0 0-.483.5zm-.058-11.813a.49.49 0 1 0 .978-.013.483.483 0 0 0-.48-.487.491.491 0 0 0-.498.48zM52.45 62.58a.482.482 0 0 0 .622-.286.484.484 0 0 0-.901-.35.498.498 0 0 0 .279.636zm4.465-10.944a.482.482 0 0 0 .622-.286.484.484 0 0 0-.9-.35.498.498 0 0 0 .278.636zm4.469-10.93a.497.497 0 1 0 .345-.93.497.497 0 0 0-.345.93zM97.319 62.5c.11.246.395.361.645.253.245-.099.36-.38.26-.622l-.002-.005a.47.47 0 0 0-.595-.29c-.01.005-.023.009-.036.013a.526.526 0 0 0-.272.65zm-9.111-21.805c.095.24.364.361.604.267.006-.003.015-.005.02-.01a.487.487 0 0 0 .274-.649.49.49 0 1 0-.9.386l.002.006zM41.864 57.91c.211.11.472.03.586-.18a.432.432 0 1 0-.765-.408.439.439 0 0 0 .179.588zm4.898-9.34c.212.11.473.03.587-.18a.434.434 0 1 0-.753-.431c-.005.007-.009.017-.013.024a.427.427 0 0 0 .162.58c.006.002.012.003.017.007zm4.704-9.585a.357.357 0 0 0 .196.244c.212.11.473.03.586-.18a.447.447 0 0 0-.178-.603l-.005-.002a.44.44 0 0 0-.411-.002l-.018.005a.302.302 0 0 0-.157.177.375.375 0 0 0-.013.36zm34.31 22.696a.462.462 0 0 0 .563.29.423.423 0 0 0 .28-.526c-.002-.006-.004-.01-.005-.018a.43.43 0 0 0-.536-.296c-.003.001-.005.003-.009.003a.457.457 0 0 0-.293.547zm-6.243-20.153a.435.435 0 0 0 .538.298l.008-.002a.41.41 0 0 0 .275-.543.435.435 0 0 0-.545-.295.443.443 0 0 0-.276.542zm-3.126-10.055a.438.438 0 0 0 .833-.272.458.458 0 0 0-.544-.295.466.466 0 0 0-.289.567zM62.905 58.57a.442.442 0 0 0 .403.467.429.429 0 0 0 .468-.388.46.46 0 0 0-.39-.488.454.454 0 0 0-.481.41zm.97-10.512c-.03.23.13.441.36.47l.025.002a.429.429 0 0 0 .468-.388.46.46 0 0 0-.39-.488.442.442 0 0 0-.464.404zm.954-10.508a.43.43 0 0 0 .857.081.434.434 0 0 0-.383-.475.43.43 0 0 0-.474.384zM94.842 39.1c.154.184.43.213.62.062a.443.443 0 0 0-.559-.684.433.433 0 0 0-.08.602l.019.02zm-29.234-.16a.255.255 0 1 0 .508-.056.255.255 0 0 0-.508.055zm-.687-6.186a.27.27 0 0 0 .298.222.256.256 0 0 0 .227-.281.246.246 0 0 0-.262-.228l-.02.003a.265.265 0 0 0-.245.278c.002.002.001.003.002.006zm-11.719 1.94c.135.03.27-.046.319-.177a.253.253 0 0 0-.163-.316l-.015-.005a.246.246 0 0 0-.312.152l-.006.023a.264.264 0 0 0 .177.322zM76.7 32.16c.067.126.22.17.344.104a.252.252 0 0 0 .103-.345c-.054-.12-.194-.175-.314-.12a.094.094 0 0 0-.03.016.251.251 0 0 0-.107.337c0 .003.003.006.004.008zM36.641 38.27a.281.281 0 0 0 .38-.111l.005-.007a.289.289 0 0 0-.12-.404.281.281 0 0 0-.386.119.304.304 0 0 0 .12.403zm29.548 2.868a.273.273 0 0 0 .363.19.29.29 0 0 0 .19-.364.32.32 0 0 0-.368-.207.299.299 0 0 0-.185.38c-.001-.003-.001-.003 0 0zm-2.051-6.801c.052.157.22.24.378.186v-.002a.29.29 0 0 0 .191-.361.32.32 0 0 0-.367-.207.323.323 0 0 0-.202.384zm-12.672 4.647a.373.373 0 0 0 .116.045c.156.018.3-.097.317-.255l.002-.01a.3.3 0 0 0-.246-.321l-.018.004a.288.288 0 0 0-.317.255.267.267 0 0 0 .146.281zm25.967-7.645a.29.29 0 0 0 .41.042l.005-.006c.121-.1.14-.28.039-.403a.281.281 0 0 0-.39-.068.08.08 0 0 1-.017.01.308.308 0 0 0-.047.425zm-34.95 37.758a.525.525 0 0 0 .474.544c.276.023.52-.18.544-.456a.519.519 0 0 0-.474-.544.502.502 0 0 0-.544.456zm.994-12.146a.502.502 0 1 0 .998.09.505.505 0 0 0-.455-.546.505.505 0 0 0-.543.456zm.978-12.14a.519.519 0 0 0 .472.543.501.501 0 0 0 .05-1.001.498.498 0 0 0-.522.457zm38.992-.353a.512.512 0 0 0 .709.061.504.504 0 0 0-.648-.77.512.512 0 0 0-.061.71zm-7.867-9.284c.181.208.496.238.709.06a.53.53 0 0 0 .056-.727.508.508 0 0 0-.717-.034.513.513 0 0 0-.048.7zM62.132 49.49a.509.509 0 0 0 .64.328l.001-.002a.492.492 0 0 0 .313-.62.498.498 0 1 0-.954.293zm-3.725-11.592a.495.495 0 0 0 .624.332.508.508 0 1 0-.63-.347l.006.015zm-2.834 15.96a.51.51 0 0 0 .628.347.516.516 0 0 0 .35-.613.534.534 0 0 0-.632-.364.522.522 0 0 0-.346.63zm-3.229-11.7a.51.51 0 0 0 .628.347.5.5 0 0 0-.262-.965.524.524 0 0 0-.366.618zM34.66 48.643a.5.5 0 0 0 .434.55c.001-.002.003 0 .003 0a.502.502 0 0 0 .567-.427.519.519 0 0 0-.443-.567.524.524 0 0 0-.561.444zm1.493-12.056a.5.5 0 1 0 .99.14l.001-.014a.525.525 0 0 0-.443-.567.496.496 0 0 0-.548.436c.002.002.002.002 0 .005zm41.895 12.472a.513.513 0 0 0 .713.08.498.498 0 0 0 .083-.699.487.487 0 0 0-.682-.112c-.006.005-.012.007-.018.014a.5.5 0 0 0-.104.704c0 .005.004.009.008.013zm-7.448-9.571a.513.513 0 0 0 .713.079.498.498 0 0 0 .083-.698.487.487 0 0 0-.682-.113c-.006.005-.012.007-.018.015a.502.502 0 0 0-.104.704l.008.013zM57.501 44.64a.38.38 0 0 0 .675-.342.365.365 0 0 0-.514-.16.381.381 0 0 0-.16.502zm-4.207-8.106a.382.382 0 1 0 .673-.358.375.375 0 0 0-.504-.164c-.005.002-.007.005-.012.006a.39.39 0 0 0-.157.516zm-15.168 8.641a.382.382 0 0 0 .412.34.397.397 0 0 0 .338-.414.375.375 0 0 0-.408-.341h-.002a.367.367 0 0 0-.34.415zm-.802-9.127c.023.21.206.365.416.357a.374.374 0 0 0 .34-.409v-.002a.364.364 0 0 0-.383-.345l-.014.002a.377.377 0 0 0-.359.397z" opacity=".51"/></g><g mask="url(#d)" transform="translate(316 11)"><path fill="#e9dac1" stroke="#17212a" stroke-width="1.322" d="M65.435 87.976s-18.867-2.766-25.073-22.59c-.054-.174-2.39-10.23-3.97-12.792-1.894-3.069-6.583-4.932-9.486-4.859-3.512.089-9.808 1.206-17.248 3.084-1.684.426-9.694 4.18-9.658 5.926.026 1.295 1.357 2.243 2.64 2.334 1.284.092 2.52-.435 3.717-.91 5.394-2.141 6.147-2.06 11.943-2.216 3.25-.089 6.202-.018 5.684 1.232-1.39 3.343-5.62 2.841-9.208 2.507-1.146-.106-3.26.04-4.393.243-1.133.203-2.91 1.117-2.404 2.156 1.188 2.431 7.754 2.167 11.868 1.908 1.78-.112 3.528.25 5.085 1.127 2.063 1.163 4.258 3.371 4.977 5.52 5.088 15.17 12.375 37.825 40.306 42.27z"/><g><use xlink:href="#f" fill="url(#e)"/><use xlink:href="#f" fill="#8edc97" stroke="#17212a" stroke-width="1.322"/></g><path fill="#334656" d="m109.986 317.019 9.972 27.978-70.392.002s3.61-7.002 15.642-12.19c12.032-5.187 23.263-15.79 23.263-15.79z"/><path fill="#334656" d="m160.293 317.003 9.972 27.978-70.393.003s3.61-7.003 15.642-12.19c12.032-5.188 23.263-15.79 23.263-15.79z"/><g><use xlink:href="#h" fill="url(#g)"/><g fill="#1d918b"><use xlink:href="#h"/><use xlink:href="#h" stroke="#17212a" stroke-width="1.322"/></g></g><g><use xlink:href="#i" fill="url(#g)"/><g fill="#1d918b"><use xlink:href="#i"/><use xlink:href="#i" stroke="#17212a" stroke-width="1.322"/></g></g><path fill="#fff" d="M145.357 132.909a.147.147 0 0 0-.19.083.14.14 0 0 0 .068.187l.004.001c.075.03.16-.007.19-.083a.15.15 0 0 0-.072-.188zm-3.25-1.341a.147.147 0 0 0-.191.084.149.149 0 0 0 .083.191c.076.03.16-.008.19-.084a.153.153 0 0 0-.083-.191zm-7.085 11.954a.143.143 0 0 0-.189-.076.144.144 0 0 0 .113.264.143.143 0 0 0 .076-.188zm-1.349-3.254a.135.135 0 0 0-.173-.083l-.015.006a.147.147 0 0 0-.086.187.156.156 0 0 0 .198.078.143.143 0 0 0 .076-.188zm6.315-2.466a.139.139 0 0 0-.198.002.142.142 0 0 0 .002.2.139.139 0 0 0 .199-.002.135.135 0 0 0 .007-.19l-.01-.01zm-2.486-2.492a.14.14 0 0 0-.198.002.171.171 0 0 0-.042.084.142.142 0 0 0 .042.126.038.038 0 0 0 .028.014l.01.001a.126.126 0 0 0 .16-.018.145.145 0 0 0 .005-.204l-.005-.005zm16.525 8.89a.27.27 0 0 0-.384.019l-.006.007a.272.272 0 0 0 .025.382l.002.002a.27.27 0 0 0 .384-.019l.006-.008a.272.272 0 0 0-.025-.382l-.002-.001zm-5.024-4.394a.268.268 0 0 0-.38.025v.002a.28.28 0 0 0 .024.393c.114.101.29.09.391-.025a.287.287 0 0 0-.035-.395zm-5.016-4.383a.277.277 0 0 0-.39.025.277.277 0 1 0 .416.368.273.273 0 0 0-.026-.393zm-10.181 25.663a.28.28 0 0 0-.259.294c.008.147.132.26.278.252h.015a.278.278 0 0 0 .258-.295.27.27 0 0 0-.292-.25zm-.471-6.676a.273.273 0 0 0-.249.295.277.277 0 1 0 .551-.034.295.295 0 0 0-.302-.261zm-.461-6.674a.294.294 0 0 0-.26.303c.008.147.133.26.279.252h.014a.27.27 0 0 0 .26-.284c0-.003 0-.006-.002-.009a.279.279 0 0 0-.291-.262zm-.473-6.667a.273.273 0 0 0-.248.295.276.276 0 1 0 .55-.037.277.277 0 0 0-.294-.258h-.008zm24.517-8.358a.278.278 0 0 0-.181.525c.145.05.3-.027.351-.172a.279.279 0 0 0-.17-.353zm-6.31-2.116a.263.263 0 0 0-.337.16l-.004.011c-.052.14.02.297.16.349a.27.27 0 0 0 .346-.16l.006-.019a.265.265 0 0 0-.158-.338l-.013-.003zm-3.746 23.83a.278.278 0 0 0-.373-.136.282.282 0 0 0 .238.51l.005-.002a.281.281 0 0 0 .13-.372zm-2.967-5.983a.278.278 0 0 0-.37-.137.28.28 0 0 0-.136.374.278.278 0 0 0 .378.133.285.285 0 0 0 .128-.37zm-2.97-5.986a.292.292 0 0 0-.379-.123.281.281 0 0 0 .248.504.297.297 0 0 0 .132-.38zm-2.98-5.977a.273.273 0 1 0-.495.23.272.272 0 0 0 .377.135.263.263 0 0 0 .119-.365zm-16.612 19.814a.263.263 0 0 0-.337.161c-.002.007-.003.014-.006.02a.27.27 0 0 0 .169.343h.002c.145.05.3-.026.352-.17a.296.296 0 0 0-.18-.354zm2.113-6.335a.273.273 0 0 0-.35.166c0 .001 0 .003-.002.005a.28.28 0 0 0 .17.354c.147.041.3-.037.353-.18a.27.27 0 0 0-.168-.343l-.003-.002zm2.104-6.348a.277.277 0 0 0-.184.522l.013.004a.263.263 0 0 0 .337-.16l.004-.012a.282.282 0 0 0-.17-.354zm27.013 7.765a.244.244 0 0 0-.336-.077.246.246 0 0 0-.077.338.245.245 0 0 0 .414-.261zm-3.146-5.06c-.072-.115-.223-.15-.337-.077s-.148.224-.076.338c.072.115.223.15.337.077a.24.24 0 0 0 .076-.339zm-3.144-5.07a.178.178 0 0 0-.096-.095l-.01-.001a.243.243 0 0 0-.23.018.252.252 0 0 0-.079.346l.002.003a.247.247 0 0 0 .337.076.206.206 0 0 0 .1-.145.214.214 0 0 0-.024-.203zm-3.144-5.062a.245.245 0 0 0-.338-.077.25.25 0 0 0-.082.343.248.248 0 0 0 .341.083.251.251 0 0 0 .079-.347v-.002zm-15.35 19.22a.245.245 0 0 0-.293.184v.004a.238.238 0 0 0 .166.292l.01.002a.259.259 0 0 0 .304-.187.257.257 0 0 0-.187-.295zm1.335-5.815a.245.245 0 0 0-.293.184v.004a.24.24 0 0 0 .167.292l.01.002c.13.032.26-.049.293-.178a.253.253 0 0 0-.177-.304zm1.336-5.815a.245.245 0 0 0-.293.184v.004a.231.231 0 0 0 .177.294.245.245 0 0 0 .293-.184v-.004a.249.249 0 0 0-.177-.294zm24.466-6.688a.245.245 0 0 0-.341.054l-.006.007a.233.233 0 0 0 .053.336.24.24 0 0 0 .338-.043c.003-.002.004-.006.007-.009a.252.252 0 0 0-.051-.345zm-4.833-3.47a.258.258 0 0 0-.346.063.252.252 0 0 0 .061.348c.116.075.27.042.345-.074a.252.252 0 0 0-.06-.336zm-9.682 19.152a.26.26 0 0 0-.199.292.243.243 0 0 0 .28.198.249.249 0 0 0 .207-.28.255.255 0 0 0-.288-.21zm-.977-5.886a.26.26 0 0 0-.199.292.243.243 0 0 0 .28.198.238.238 0 0 0 .2-.268l-.002-.015a.248.248 0 0 0-.279-.207zm-.979-5.878a.238.238 0 0 0-.2.268l.002.015c.023.132.149.221.28.198s.22-.149.198-.281a.237.237 0 0 0-.28-.2zm-20.021 6.857a.252.252 0 0 0-.345.052.247.247 0 0 0 .053.343l.007.005a.23.23 0 0 0 .326-.041l.008-.012a.243.243 0 0 0-.042-.34l-.007-.007zm33.684-11.146c-.054-.06-.147-.063-.206-.009s-.064.149-.009.208c.054.06.148.065.207.009a.152.152 0 0 0 .008-.208zm-2.386-2.57c-.054-.06-.148-.063-.207-.008s-.063.149-.008.208.148.064.207.009a.153.153 0 0 0 .008-.208zm-2.394-2.58a.14.14 0 0 0-.197-.007.138.138 0 0 0-.025.192l.016.018a.14.14 0 0 0 .198.007.14.14 0 0 0 .023-.193l-.015-.016zm-9.12 10.305a.143.143 0 0 0-.149.139.144.144 0 1 0 .288.01.144.144 0 0 0-.14-.15zm.115-3.52a.139.139 0 0 0-.148.129v.01a.143.143 0 0 0 .138.15.15.15 0 0 0 .158-.137.147.147 0 0 0-.144-.15l-.004-.001zm.127-3.517a.139.139 0 0 0-.148.129v.01a.143.143 0 1 0 .287.01.143.143 0 0 0-.139-.149zm6.775 4.078a.138.138 0 0 0-.174-.09c-.004 0-.009.001-.013.005a.142.142 0 0 0-.09.18c.002.002.002.005.003.007a.155.155 0 0 0 .186.086.147.147 0 0 0 .088-.188zm-1.231-3.306a.138.138 0 0 0-.18-.08l-.008.003a.15.15 0 0 0-.085.187.155.155 0 0 0 .186.086.147.147 0 0 0 .087-.196zm-1.225-3.295a.155.155 0 0 0-.186-.086.147.147 0 0 0-.086.187c.024.073.1.114.174.09.004-.001.008-.002.013-.005a.142.142 0 0 0 .089-.18.014.014 0 0 1-.004-.006zm11.88 7.874a.157.157 0 0 0-.217-.054l-.003.003a.162.162 0 0 0-.052.231c.045.075.142.1.217.054l.004-.003a.17.17 0 0 0 .051-.231zm-2.154-3.385a.157.157 0 0 0-.217-.054l-.004.003a.17.17 0 0 0-.052.233c.05.08.152.102.231.052a.162.162 0 0 0 .05-.223l-.008-.011zm-2.146-3.385a.167.167 0 0 0-.231-.052.17.17 0 0 0-.052.233c-.002.01.008.011.016.023.056.057.145.07.215.03a.172.172 0 0 0 .052-.234zm-12.357 9.663a.18.18 0 0 0-.196.132.165.165 0 0 0 .122.197.155.155 0 0 0 .192-.104l.004-.02a.168.168 0 0 0-.12-.205h-.002zm.857-3.925a.18.18 0 0 0-.197.132.165.165 0 0 0 .122.197c.09.024.181-.03.205-.12v-.001a.184.184 0 0 0-.13-.208zm.857-3.924a.18.18 0 0 0-.196.133.165.165 0 0 0 .122.197.155.155 0 0 0 .197-.132.166.166 0 0 0-.123-.198zm.86-3.925a.172.172 0 0 0-.198.132.165.165 0 0 0 .122.197.155.155 0 0 0 .192-.107c.003-.008.004-.016.006-.025a.169.169 0 0 0-.123-.197zm18.545 1.485a.163.163 0 0 0-.23.033l-.003.003a.18.18 0 0 0 .036.235.164.164 0 0 0 .23-.04l.004-.008a.16.16 0 0 0-.037-.223zm-3.277-2.304a.17.17 0 0 0-.233.037.167.167 0 0 0 .04.231l.007.004a.16.16 0 0 0 .224-.04.17.17 0 0 0-.038-.232zm-9.467 10.803a.162.162 0 0 0-.183-.136h-.006l-.01-.001a.17.17 0 0 0-.125.192.162.162 0 0 0 .183.137h.005a.234.234 0 0 0 .065-.032.15.15 0 0 0 .071-.16zm-.895-4.097a.183.183 0 0 0-.138.2c.025.088.11.144.202.128a.163.163 0 0 0 .126-.189v-.002a.165.165 0 0 0-.19-.137zm-.697-3.953c-.09.015-.151.1-.135.191.014.091.1.152.19.137.09-.017.15-.1.135-.192a.163.163 0 0 0-.184-.137h-.006zm15.715-2.675a.287.287 0 0 0-.397.065.289.289 0 0 0 .069.401.286.286 0 0 0 .39-.057.305.305 0 0 0-.062-.409zm-8.208 27.256a.292.292 0 0 0-.244.325c.027.155.171.26.325.235a.297.297 0 0 0 .244-.326.283.283 0 0 0-.325-.234zm-1.068-6.81a.284.284 0 0 0 .091.562.284.284 0 0 0-.091-.561zm-1.058-6.806a.284.284 0 0 0 .07.561l.011-.001a.292.292 0 0 0 .245-.326.284.284 0 0 0-.326-.234zm-1.068-6.81a.282.282 0 0 0-.235.322v.006a.283.283 0 1 0 .559-.092.28.28 0 0 0-.32-.236h-.004zm-1.06-6.807a.284.284 0 0 0 .082.56.292.292 0 0 0 .244-.325.286.286 0 0 0-.326-.235zm-23.572 20.474a.285.285 0 0 0-.399.068.287.287 0 0 0 .057.392c.13.091.309.063.406-.064a.29.29 0 0 0-.064-.396zm4.031-5.57a.283.283 0 0 0-.396.064.287.287 0 0 0 .064.4.283.283 0 0 0 .397-.066.286.286 0 0 0-.065-.398zm29.338-7.249a.288.288 0 0 0-.394-.095.288.288 0 0 0 .3.492.296.296 0 0 0 .094-.397zm-3.568-5.879a.284.284 0 0 0-.395-.095.296.296 0 0 0-.095.396.286.286 0 0 0 .396.085.29.29 0 0 0 .094-.386zm-15.331 21.82a.279.279 0 0 0-.336.207v.006a.287.287 0 0 0 .2.347.302.302 0 0 0 .346-.21.29.29 0 0 0-.21-.35zm1.606-6.696a.272.272 0 0 0-.333.195l-.004.019c-.037.149.053.3.201.337a.285.285 0 0 0 .347-.21v-.001a.273.273 0 0 0-.211-.34zm1.608-6.705a.288.288 0 0 0-.127.562c.15.035.3-.057.336-.207v-.006a.288.288 0 0 0-.21-.35zm1.606-6.696a.284.284 0 0 0-.338.213.284.284 0 0 0 .214.338.28.28 0 0 0 .334-.203.286.286 0 0 0-.21-.348zm16.266-.343a.271.271 0 0 0-.374-.083l-.013.009a.295.295 0 0 0-.084.398.301.301 0 0 0 .397.075.285.285 0 0 0 .078-.395l-.004-.004zm-16.946 22.665a.287.287 0 0 0-.116.562.287.287 0 0 0 .116-.562zm1.325-6.737a.302.302 0 0 0-.34.232.293.293 0 0 0 .223.33.287.287 0 0 0 .338-.222.295.295 0 0 0-.221-.34zm1.312-6.726a.283.283 0 0 0-.106.555.287.287 0 0 0 .338-.223.294.294 0 0 0-.232-.332zm1.324-6.736a.277.277 0 0 0-.327.218v.007c-.029.152.07.3.222.33a.271.271 0 0 0 .328-.223.28.28 0 0 0-.223-.332zm8.783 9.75a.29.29 0 0 0-.226.338c.035.153.185.25.338.218a.281.281 0 0 0 .224-.327v-.002a.293.293 0 0 0-.336-.227zm-1.336-6.736a.296.296 0 0 0-.225.338.282.282 0 1 0 .551-.112.28.28 0 0 0-.324-.226h-.002zm-1.348-6.728a.29.29 0 0 0-.226.338c.035.155.19.252.344.215a.288.288 0 0 0 .218-.327.29.29 0 0 0-.336-.226zm-21.43 15.359a.274.274 0 0 0-.381.075l-.007.01a.282.282 0 0 0 .075.39c.13.087.307.055.397-.075a.287.287 0 0 0-.076-.396l-.008-.004zm3.784-5.713a.274.274 0 0 0-.381.075l-.007.01a.282.282 0 0 0 .075.39c.13.087.307.054.397-.075a.287.287 0 0 0-.076-.396l-.008-.004zm3.785-5.714a.284.284 0 0 0-.39.085.282.282 0 0 0 .076.39c.13.087.307.054.397-.075a.287.287 0 0 0-.083-.4zm3.783-5.714a.292.292 0 0 0-.389.085.282.282 0 0 0 .075.39.29.29 0 0 0 .398-.075.29.29 0 0 0-.081-.4h-.003zm16.01-.138a.209.209 0 0 0-.27-.119h-.002a.219.219 0 0 0-.13.28.217.217 0 0 0 .276.13.22.22 0 0 0 .13-.279l-.004-.012zm-16.027 14.045a.204.204 0 0 0-.283.11.215.215 0 0 0 .11.283.215.215 0 0 0 .173-.394zm2.024-4.76a.21.21 0 0 0-.28.102l-.003.007a.214.214 0 1 0 .393.174.215.215 0 0 0-.11-.284zm2.025-4.762a.214.214 0 0 0-.283.11.215.215 0 1 0 .393.175.22.22 0 0 0-.11-.285zm2.024-4.76a.22.22 0 0 0-.283.12.213.213 0 0 0 .118.276h.002c.103.047.225 0 .27-.105l.003-.007a.213.213 0 0 0-.11-.285zm4.74 13.819a.213.213 0 0 0-.218.207v.002c.003.116.094.21.208.219a.216.216 0 0 0 .218-.21.205.205 0 0 0-.193-.218h-.015zm.058-5.174a.205.205 0 0 0-.208.204v.007a.213.213 0 0 0 .206.22h.002a.227.227 0 0 0 .218-.22.213.213 0 0 0-.216-.21h-.002zm.066-5.183a.227.227 0 0 0-.218.22.204.204 0 0 0 .198.208h.011c.114.007.21-.08.217-.194v-.016a.213.213 0 0 0-.206-.22c0 .002 0 .002-.002.002zm-14.455-.843a.227.227 0 0 0-.307-.002.22.22 0 0 0 .008.309c.083.08.213.08.297.002a.231.231 0 0 0 .002-.309zm15.741-.126a.119.119 0 0 0-.052.232l.01.002a.12.12 0 0 0 .042-.234zm-3.26 4.429a.18.18 0 0 0-.249.05l-.007.014a.178.178 0 0 0 .038.247l.017.01a.19.19 0 0 0 .215-.314l-.014-.007zm2.482-3.969a.196.196 0 0 0-.267.063.19.19 0 0 0 .05.261c.004.002.009.004.012.007a.18.18 0 0 0 .248-.05l.008-.014a.187.187 0 0 0-.044-.26l-.007-.007z" opacity=".86"/><g><use xlink:href="#k" fill="url(#j)"/><use xlink:href="#k" fill="#8edc97" stroke="#17212a" stroke-width="1.322"/></g><path fill="#e9dac1" stroke="#17212a" stroke-width="1.322" d="M74.687 127.838s-9.82 6.23-17.709 8.499-8.47 1.633-11.325-1.768a67.168 67.168 0 0 1-6.831-10.279c-.821-1.677-3.477-1.83-3.04 2.463.438 4.293 6.172 6.917 3.706 9.027-2.466 2.11-10.832 2.291-17.068 1.76-6.237-.533-9.642-.621-4.445 7.291s11.641 12.68 29.42 5.922c17.78-6.757 30.143-5.086 36.29-4.306z"/><g><use xlink:href="#m" fill="url(#l)"/><use xlink:href="#m" fill="#8edc97" stroke="#17212a" stroke-width="1.322"/></g><path fill="#e9dac1" stroke="#17212a" stroke-width="1.322" d="M99.17 41.957a39.907 39.907 0 0 1 1.405 11.33s5.439 3.596 12.77-4.488l-5.326-13.356z"/><path fill="#e9dac1" stroke="#17212a" stroke-width="1.322" d="M85.387 16.01c-.03.095-.052.167-.068.207-.011.012-.01.024-.016.043-.127.38-.241.771-.349 1.18-1.16 4.394-4.856 7.414-5.015 8.646-.16 1.23 2.12 2.382 3.25 2.646 1.129.264 1.747 6.179 5.96 10.122 3.952 3.7 10.554 4.194 15.201 2.373 2.98-9.341 2.105-14.056-6.526-19.6-9.42-6.053-8.016-12.61-8.016-12.61a18.712 18.712 0 0 0-4.42 6.993z"/><path fill="#334656" d="M129.539 27.795c-1.648-4.918-1.912-10.942-2.154-13.192-.329-3.075-5.288-13.04-16.403-14.292-11.115-1.252-25.348.727-25.68 15.953a18.901 18.901 0 0 1 4.51-7.25s-1.41 6.556 8.012 12.61c.982.625 1.93 1.3 2.841 2.025 4.025 6.28 5.537 13.43-.914 19.924-.377.379.229.942.603.565 6.01-6.051 5.432-12.69 2.253-18.736 4.524 4.693 3.976 9.704.834 18.51 0 0 16.21 5.808 32.263-1.938a15.381 15.381 0 0 0-3.735-9.456 13.026 13.026 0 0 1-1.896-3.281c3.631 3.662 7.702 7.098 6.614 12.62a.412.412 0 0 0 .804.181c1.264-6.405-4.078-10.037-7.952-14.243z"/><path fill="#17212a" d="M89.494 22.01a3.432 3.432 0 0 1-4.873-.075 3.476 3.476 0 0 1-.92-1.81c-.094-.52.694-.765.79-.24a2.627 2.627 0 0 0 2.957 2.256 2.62 2.62 0 0 0 1.443-.695c.388-.358.995.204.603.564z"/></g><g mask="url(#n)"><path fill="#334656" d="m63.878 326.434-10.567 29.564 74.598.002s-3.825-7.4-16.576-12.88c-12.75-5.481-24.653-16.686-24.653-16.686z"/><path fill="#334656" d="M10.567 326.418 0 355.982l74.598.002s-3.826-7.399-16.576-12.88c-12.75-5.481-24.653-16.685-24.653-16.685z"/><g><use xlink:href="#o" fill="url(#g)"/><g fill="#1d918b"><use xlink:href="#o"/><use xlink:href="#o" stroke="#17212a" stroke-width="1.322"/></g></g><g><use xlink:href="#p" fill="url(#g)"/><g fill="#1d918b"><use xlink:href="#p"/><use xlink:href="#p" stroke="#17212a" stroke-width="1.322"/></g></g><path fill="#fff" d="M46.693 139.3c.074.05.172.03.221-.045a.16.16 0 1 0-.221.044zm2.145-3.272c.077.049.178.03.233-.043a.163.163 0 0 0-.055-.222.151.151 0 0 0-.211.029l-.01.015a.157.157 0 0 0 .043.221zm2.156-3.27c.073.05.173.03.221-.045a.176.176 0 0 0-.043-.233.18.18 0 0 0-.233.054.164.164 0 0 0 .055.223zm11.782 9.544a.165.165 0 0 0 .192.131.149.149 0 0 0 .12-.19.157.157 0 0 0-.181-.13.16.16 0 0 0-.13.19zm-20.431-10.279a.157.157 0 1 0 .044-.218.15.15 0 0 0-.053.205c.002.005.006.009.009.013zm3.233-2.193c.037.057.11.079.173.052l.01.001a.04.04 0 0 0 .034-.01.154.154 0 0 0 .071-.127.179.179 0 0 0-.027-.1.158.158 0 0 0-.217-.045.162.162 0 0 0-.05.222.015.015 0 0 1 .006.007zm9.15 10.426a.178.178 0 0 0 .134.194.166.166 0 0 0 .06-.328.176.176 0 0 0-.193.134zm.737-3.847a.16.16 0 0 0 .133.183.156.156 0 0 0 .19-.11l.003-.012a.17.17 0 0 0-.133-.194.177.177 0 0 0-.193.133zm-29.866-.118a.301.301 0 0 0 .412.114l.01-.006a.3.3 0 0 0 .109-.41l-.002-.002a.301.301 0 0 0-.412-.114l-.01.006a.301.301 0 0 0-.107.412zm6.39-3.744a.307.307 0 0 0 .421.108.31.31 0 0 0 .109-.424.298.298 0 0 0-.41-.109l-.001.002a.32.32 0 0 0-.12.423zm6.4-3.744a.307.307 0 0 0 .423.108.308.308 0 1 0-.314-.532.303.303 0 0 0-.108.424zM44 158.71a.31.31 0 0 0 .221.374.295.295 0 0 0 .374-.212.31.31 0 0 0-.224-.374.303.303 0 0 0-.372.212c.001 0 .001 0 0 0zm1.875-7.177a.307.307 0 0 0 .595.15.303.303 0 0 0-.211-.373.326.326 0 0 0-.384.223zm1.887-7.189a.302.302 0 0 0 .212.371l.01.002a.295.295 0 0 0 .373-.212.33.33 0 0 0-.222-.385.312.312 0 0 0-.373.224zm1.877-7.177a.307.307 0 1 0 .596.15.307.307 0 1 0-.596-.15zm-24.994-14.079a.308.308 0 1 0 .259-.35.305.305 0 0 0-.26.343v.007zm6.87 25.868a.304.304 0 0 0 .424-.072.303.303 0 0 0-.49-.36.313.313 0 0 0 .066.432zm4.478-5.917a.304.304 0 0 0 .425-.072.303.303 0 0 0-.49-.36.314.314 0 0 0 .065.432zm4.48-5.906c.14.1.335.07.435-.071a.314.314 0 0 0-.06-.428c-.135-.107-.33-.084-.437.051a.313.313 0 0 0 .062.448zm4.478-5.928c.132.104.32.083.425-.05l.006-.006a.304.304 0 1 0-.478-.377l-.009.011a.29.29 0 0 0 .042.408c.005.007.01.01.014.014zm13.79 24.998a.31.31 0 0 0 .35.259.3.3 0 0 0 .258-.336v-.002a.294.294 0 0 0-.314-.273l-.023.002a.327.327 0 0 0-.271.35zm-1-7.364c.03.167.181.285.35.27a.312.312 0 0 0 .258-.35.304.304 0 0 0-.343-.26h-.006a.3.3 0 0 0-.259.336v.004zm-1-7.352a.294.294 0 0 0 .324.26h.014a.304.304 0 0 0 .271-.335l-.002-.015a.306.306 0 1 0-.607.09zm-1.009-7.364a.31.31 0 0 0 .35.259.295.295 0 0 0 .26-.324l-.001-.014a.31.31 0 0 0-.338-.27.316.316 0 0 0-.271.349zM21.16 118.782a.268.268 0 0 0 .085-.195.251.251 0 0 0-.049-.124c-.004.1-.02.209-.036.319zm4.688 25.617a.274.274 0 0 0 .372-.4.27.27 0 0 0-.385.012l-.002.002a.279.279 0 0 0 .015.386zm4.482-4.872c.111.1.282.095.385-.014a.273.273 0 0 0-.002-.386.27.27 0 0 0-.385.002l-.012.012a.267.267 0 0 0 .006.378l.008.008zm4.404-5.052a.231.231 0 0 0 .079.18c.11.1.281.095.384-.014a.28.28 0 0 0-.013-.397.273.273 0 0 0-.249-.068h-.01a.196.196 0 0 0-.125.082.24.24 0 0 0-.066.217zm4.562-4.692a.275.275 0 0 0 .389-.019.278.278 0 0 0-.02-.39.274.274 0 0 0-.384.013.28.28 0 0 0 .012.395l.003.001zm12.574 24.048a.29.29 0 0 0 .294.267.265.265 0 0 0 .256-.273v-.012a.272.272 0 0 0-.279-.267h-.005a.287.287 0 0 0-.266.285zm-.258-6.612a.272.272 0 0 0 .284.256.266.266 0 0 0 .257-.273l-.001-.012a.272.272 0 0 0-.278-.267h-.006a.283.283 0 0 0-.256.296zm-.267-6.635c.003.15.128.27.278.267h.006a.258.258 0 0 0 .255-.284.272.272 0 0 0-.278-.267h-.005a.277.277 0 0 0-.256.284zm-.267-6.612c.01.152.142.266.294.255a.277.277 0 0 0 .256-.284.287.287 0 0 0-.283-.267.29.29 0 0 0-.267.296zm-25.011-5.676a.268.268 0 0 0 .366.128.26.26 0 0 0 .134-.342l-.007-.015a.272.272 0 0 0-.358-.143c-.003.002-.006.002-.008.005a.28.28 0 0 0-.127.367zm6.003-2.785a.27.27 0 0 0 .355.138.279.279 0 0 0 .138-.366.287.287 0 0 0-.365-.139.276.276 0 0 0-.129.367h.001zm6.432 22.711a.276.276 0 0 0 .17.349.27.27 0 0 0 .347-.159.29.29 0 0 0-.158-.36.286.286 0 0 0-.359.17zm2.29-6.222a.263.263 0 0 0 .16.348.27.27 0 0 0 .347-.159.29.29 0 0 0-.158-.36.278.278 0 0 0-.349.17zm2.28-6.224c-.053.14.018.296.157.35s.295-.02.348-.16a.27.27 0 1 0-.506-.19zm2.278-6.222a.271.271 0 0 0 .158.349c.079.033.17.025.242-.021h.01a.304.304 0 0 0 .106-.138.276.276 0 0 0-.169-.349.269.269 0 0 0-.347.16zm18.45 18.068c.057.132.209.192.34.134l.015-.007a.274.274 0 0 0 .142-.359l-.004-.008a.28.28 0 0 0-.367-.128.27.27 0 0 0-.133.356l.006.012zm-2.777-6.022a.28.28 0 0 0 .366.139.277.277 0 0 0 .125-.372.277.277 0 0 0-.353-.135.27.27 0 0 0-.138.368zm-31.712-13.266a.163.163 0 1 0 .033-.229.169.169 0 0 0-.033.23zm3.14-2.309a.163.163 0 1 0 .032-.229.172.172 0 0 0-.033.23zm10.868 10.722a.16.16 0 0 0 .134.182.162.162 0 0 0 .182-.135.16.16 0 0 0-.134-.182.16.16 0 0 0-.182.135c0-.001 0-.001 0 0zm.586-3.865a.17.17 0 0 0 .144.183.162.162 0 0 0 .183-.134.154.154 0 0 0-.122-.18l-.012-.001a.165.165 0 0 0-.192.13c-.001-.002-.001 0-.001.002zm-7.422-.73c.077.04.172.017.221-.055a.158.158 0 0 0-.048-.218l-.007-.004a.153.153 0 0 0-.215.042l-.007.012a.165.165 0 0 0 .056.223zm2.026-3.343c.078.04.173.017.222-.054a.167.167 0 0 0-.055-.223.154.154 0 0 0-.215.035l-.007.009a.165.165 0 0 0 .045.228.048.048 0 0 1 .01.005zm12.633 5.628a.16.16 0 0 0 .192.12.16.16 0 0 0 .12-.193.149.149 0 0 0-.191-.12.158.158 0 0 0-.12.187v.006zm-.932-3.797a.168.168 0 0 0 .202.12.156.156 0 0 0 .109-.192v-.001a.149.149 0 0 0-.19-.12.158.158 0 0 0-.12.186.007.007 0 0 0 0 .007zm-24.35.989c.07.068.182.065.249-.006l.004-.004a.178.178 0 0 0 0-.254l-.01-.01a.175.175 0 0 0-.248.006l-.005.004a.188.188 0 0 0 .01.264zm3.043-3.248a.187.187 0 1 0 .255-.273.175.175 0 0 0-.249.006l-.004.004a.18.18 0 0 0-.012.253l.01.01zm3.055-3.248a.198.198 0 0 0 .24.012c.012-.01.023-.01.023-.022a.186.186 0 0 0-.01-.264.185.185 0 0 0-.263.01.186.186 0 0 0 .01.264zm11.357 13.043a.171.171 0 0 0 .168.175h.02c.1-.006.178-.09.175-.19a.201.201 0 0 0-.188-.185.188.188 0 0 0-.175.198zm-.143-4.462c.006.102.096.18.198.175h.001c.1-.005.177-.09.174-.19a.201.201 0 0 0-.188-.185.204.204 0 0 0-.185.2zm-.12-4.471a.173.173 0 0 0 .187.185c.1-.005.177-.09.174-.19a.201.201 0 0 0-.188-.184.182.182 0 0 0-.173.189zm-20.655-6.638a.183.183 0 0 0 .247.099.197.197 0 0 0 .09-.248.183.183 0 0 0-.242-.092l-.006.002a.182.182 0 0 0-.09.239zm12.337 11.87a.25.25 0 0 0 .064.047.18.18 0 0 0 .235-.11.19.19 0 0 0-.098-.235h-.01a.18.18 0 0 0-.236.109.167.167 0 0 0 .045.189zm1.541-4.368a.18.18 0 0 0 .096.235l.002.001a.196.196 0 0 0 .246-.098.202.202 0 0 0-.11-.247.183.183 0 0 0-.234.11zm15.445 3.951c.042.093.15.134.242.092l.005-.002a.181.181 0 0 0 .09-.237.174.174 0 0 0-.238-.1.188.188 0 0 0-.1.247zm-30.438-13.972a.319.319 0 0 0 .573-.28.32.32 0 0 0-.42-.152.333.333 0 0 0-.153.432zm3.132 31.204c-.052.167.036.346.2.405s.343-.025.403-.19a.323.323 0 0 0-.2-.404.317.317 0 0 0-.403.189zm2.569-7.21a.316.316 0 1 0 .593.216.316.316 0 0 0-.593-.216zm2.557-7.21a.323.323 0 0 0 .2.404.314.314 0 1 0-.2-.405zm2.568-7.21a.316.316 0 1 0 .594.217.316.316 0 0 0-.594-.216zm24.407 20.252c.08.158.27.225.431.153a.32.32 0 0 0-.279-.574.324.324 0 0 0-.152.421zM53.245 143a.322.322 0 0 0 .42.152.316.316 0 1 0-.42-.152zm-3.27-6.915a.32.32 0 0 0 .42.152.334.334 0 0 0 .153-.433.319.319 0 0 0-.573.28zm-27.18-7.048a.32.32 0 1 0-.022-.452.328.328 0 0 0 .023.452zm5.116-5.687c.124.122.322.12.443-.004l.006-.007a.326.326 0 0 0-.022-.452.315.315 0 0 0-.446.017l-.005.005a.314.314 0 0 0 .024.441zm11.973 26.889a.335.335 0 0 0 .337.302.32.32 0 0 0 .29-.337.31.31 0 0 0-.318-.303h-.006a.32.32 0 0 0-.303.338zm-.381-7.653c.009.177.159.312.335.303h.001c.17-.01.3-.156.29-.326v-.001a.314.314 0 0 0-.626.024zm-.383-7.641a.31.31 0 0 0 .319.303h.006a.32.32 0 1 0-.326-.313.023.023 0 0 1 .001.01zm-17.816-11.271a.335.335 0 0 0 .449 0 .327.327 0 0 0-.011-.452.301.301 0 0 0-.426-.012l-.012.012a.316.316 0 0 0-.005.446l.005.006zm13.58 28.122a.314.314 0 1 0 .313-.326.319.319 0 0 0-.313.326zm-.065-7.625a.32.32 0 0 0 .325.313.325.325 0 0 0 .311-.314.336.336 0 0 0-.325-.324.326.326 0 0 0-.311.325zm-.065-7.627a.32.32 0 0 0 .325.313.313.313 0 0 0 .006-.628h-.01a.328.328 0 0 0-.321.315zm-.054-7.624a.304.304 0 0 0 .294.313h.019a.315.315 0 0 0 .31-.314.313.313 0 0 0-.315-.31.31.31 0 0 0-.308.311zm-11.721 8.684a.312.312 0 0 0 .175.404h.002a.316.316 0 0 0 .414-.166.322.322 0 0 0-.177-.415.325.325 0 0 0-.414.177zm2.857-7.075a.313.313 0 1 0 .577.244l.003-.007a.328.328 0 0 0-.177-.415.31.31 0 0 0-.403.178zm2.847-7.064a.32.32 0 0 0 .593.237.318.318 0 1 0-.593-.237zm20.542 21.448a.32.32 0 0 0 .42.163.313.313 0 0 0 .162-.41.306.306 0 0 0-.396-.179l-.012.006a.317.317 0 0 0-.177.41c0 .004.002.007.003.01zm-2.968-7.02a.32.32 0 0 0 .42.163.313.313 0 0 0 .162-.41.306.306 0 0 0-.396-.18l-.012.007a.317.317 0 0 0-.177.41l.003.01zm-2.967-7.02a.32.32 0 0 0 .42.162.313.313 0 0 0 .162-.41.316.316 0 1 0-.582.247zm-20.231-10.578a.241.241 0 0 0 .265-.403l-.003-.002a.23.23 0 0 0-.32.07l-.001.002a.243.243 0 0 0 .059.333zm14.42 18.596a.238.238 0 0 0 .466-.098.227.227 0 0 0-.264-.184l-.024.006a.235.235 0 0 0-.178.276zm-1.239-5.605a.24.24 0 1 0 .465-.11.233.233 0 0 0-.278-.18l-.008.002a.244.244 0 0 0-.179.288zm-1.238-5.616a.24.24 0 1 0 .465-.11.238.238 0 0 0-.287-.179.246.246 0 0 0-.178.289zm-9.36 8.393c-.02.129.066.25.195.274a.25.25 0 0 0 .273-.196.238.238 0 0 0-.193-.274h-.002a.228.228 0 0 0-.27.178l-.003.018zm.99-5.671a.255.255 0 0 0 .195.284.237.237 0 0 0 .273-.193v-.002a.229.229 0 0 0-.175-.272l-.008-.001a.236.236 0 0 0-.282.18l-.002.004zm1.002-5.66a.23.23 0 0 0 .177.272c.006 0 .01.002.017.003a.226.226 0 0 0 .27-.173l.001-.012a.255.255 0 0 0-.194-.285.237.237 0 0 0-.273.194c.003 0 .002.001.002.002zm19.5 6.924a.23.23 0 0 0 .319.065l.006-.005a.235.235 0 0 0 .072-.323l-.011-.016a.238.238 0 0 0-.387.28zm-20.561-8.317a.134.134 0 0 0 .124.138.133.133 0 0 0 .138-.127.133.133 0 0 0-.126-.138h-.01a.134.134 0 0 0-.126.127zm2.661 5.664a.212.212 0 0 0 .28.111.197.197 0 0 0 .12-.25l-.008-.019a.2.2 0 0 0-.253-.129l-.016.007a.209.209 0 0 0-.123.28zm-1.89-4.845a.2.2 0 0 0 .252.129c.006-.001.01-.004.017-.006a.209.209 0 0 0 .122-.28.217.217 0 0 0-.278-.123.21.21 0 0 0-.118.27l.005.01z" opacity=".86"/><path fill="#e9dac1" stroke="#17212a" stroke-width="1.322" d="M180.688 173.423c-7.004-1.08-16.161-3.512-18.316-6.483-2.154-2.971 4.85-4.322 6.464-8.915 1.615-4.593-1.347-5.133-2.694-3.512a75.782 75.782 0 0 1-10.235 9.454c-4.04 2.972-4.849 3.512-12.928-1.08-8.08-4.594-17.238-14.048-17.238-14.048s-15.486-14.824-17.114-18.089l-16.276 32.106s14.624 3.367 18.57 3.996c6.972.785 21.016 2.247 38.793 14.404 17.777 12.156 26.126 8.645 33.936 1.351 7.811-7.293 4.04-8.103-2.962-9.184z"/><g><use xlink:href="#r" fill="url(#q)"/><use xlink:href="#r" fill="#8edc97" stroke="#17212a" stroke-width="1.322"/></g><g><use xlink:href="#t" fill="url(#s)"/><use xlink:href="#t" fill="#8edc97" stroke="#17212a" stroke-width="1.322"/></g><path fill="#e9dac1" stroke="#17212a" stroke-width="1.322" d="M112.81 38.984c-.478.747-8.188 12.802-9.19 18.138 0 0-7.977 0-10.36-13.086 0 0 5.353-3.458 7.554-8.503 1.245 1.493 4.968 2.46 7.507 2.954 1.477.302 2.98.469 4.489.497z"/><path fill="#e9dac1" stroke="#17212a" stroke-width="1.322" d="M132.829 24.28c-1.959 1.43-2.57.582-3.096 1.878-.383.959-.947 6.437-5.203 9.745l-.133.086a.248.248 0 0 0-.047.04c-.016.016-.032.04-.055.063-.424.37-2.116 1.73-5.571 2.216a.07.07 0 0 1-.024.008c-2.24.322-4.897 1.242-10.381.173-2.36-.463-5.743-1.328-7.21-2.648.956-1.698 1.465-3.553-.101-4.393-3.26-1.738-5.163-2.255-4.615-6.507.454-3.567 4.756-3.946 7.71-3.663 2.547.244 13.305-5.147 16.266-18.75a11.28 11.28 0 0 1 3.745 2.742 13.531 13.531 0 0 1 2.782 4.354c1.175 2.94 3.651 8.621 5.696 10.145a2.819 2.819 0 0 1 .237 4.51z"/><path fill="#17212a" d="M136.597 16.313c.288-2.475-.959-4.924-2.782-5.46-1.824-.535-3.543 1.045-3.833 3.52a6.179 6.179 0 0 0-.037.865 3.595 3.595 0 0 0-2.844 1.404c-.057-.136-.101-.278-.166-.408a4.337 4.337 0 0 0-2.546-2.354c-2.11-.618-4.098 1.215-4.434 4.086a7.135 7.135 0 0 0 .67 3.975 4.704 4.704 0 0 0 1.894 2.083c.207.114.425.204.65.27a2.925 2.925 0 0 0 2.91-.754 5.396 5.396 0 0 0 1.524-3.33 7.276 7.276 0 0 0-.244-2.851c.673-.745 1.566-1.573 2.64-1.444.008.058.022.114.03.172a.369.369 0 0 1 .063.18l.002.021c.003.008.008.011.01.019a7.055 7.055 0 0 0 1.278 2.267c.26.278.535.534.813.79.067.054.127.12.192.178.088.082.176.163.264.247.037.014.073.034.111.047 1.826.531 3.544-1.048 3.835-3.523zm-9.593 3.718a4.798 4.798 0 0 1-1.348 2.964 2.428 2.428 0 0 1-2.407.643 3.595 3.595 0 0 1-2.104-1.966 6.32 6.32 0 0 1-.587-3.53c.293-2.51 1.978-4.127 3.754-3.605.182.054.358.127.524.218a3.937 3.937 0 0 1 1.58 1.748 6.324 6.324 0 0 1 .588 3.528zm5.838-.855c-1.497-.439-2.506-2.513-2.258-4.626.246-2.114 1.662-3.478 3.154-3.041 1.496.438 2.505 2.515 2.257 4.626-.248 2.115-1.662 3.48-3.153 3.041z"/><g fill="#334656"><path d="m70.917 33.921-.608.485c-2.258 1.309-4.296 3.086-6.812 4.28-7.095 3.363-14.121-2.008-21.264-2.366-11.32-.565-20.889 7.489-23.07 18.461-.073.37.494.53.568.156a22.292 22.292 0 0 1 10.097-14.919c6.274-3.814 13.12-3.64 19.904-1.514 4.28 1.34 8.68 2.816 13.084 1.119.861-.34 1.691-.756 2.48-1.243-6.973 5.372-8.226 4.844-18.79 1.91-12.9-3.583-21.633 7.364-22.824 17.516 0 0 10.32 9.355 19.45 9.753 0 0 18.356-14.328 50.127-23.526a27.905 27.905 0 0 0 6.21-5.817c.002.002-16.049-14.247-28.552-4.295z"/><path d="M126.897 9.623s-2.278-6.576-6.382-7.755l-.21.975-.001-.003c.073-.32.147-.642.212-.972 0 0-12.959-5.053-25.63 1.46s-12.444 32.321 3.67 35.984c0 0 5.707-6.13 2.45-7.864-3.258-1.734-5.163-2.255-4.615-6.504.411-3.19 3.875-3.83 6.717-3.726 1.262.415 2.566.685 3.889.802a12.359 12.359 0 0 0 7.553-2.457c5.036-3.663 6.498-9.958 5.909-15.872 1.166.548 5.419 2.744 6.438 5.932zm-21.059 11.633c-.202-.028-.41-.067-.617-.106 3.51-.863 11.61-5.942 14.697-16.795.472 8.36-4.228 18.288-14.08 16.901z"/></g></g></g></svg>