<svg width="140" height="116" viewBox="0 0 140 116" fill="none" xmlns="http://www.w3.org/2000/svg">
<g id="battigayo-logo">
<path id="Shape" d="M78.6337 35.8084C78.9149 36.0525 79.3394 36.0209 79.5818 35.7377C79.8242 35.4545 79.7928 35.027 79.5116 34.7829C73.737 29.7704 69.277 30.1703 63.0262 34.7482C62.7259 34.9681 62.6595 35.3915 62.8779 35.6938C63.0963 35.9962 63.5167 36.0631 63.817 35.8432C69.6098 31.6008 73.3953 31.2613 78.6337 35.8084Z" fill="white"/>
<path id="Shape_2" d="M63.0755 52.2517C62.9681 51.5659 62.7769 50.7643 62.4823 49.8509C61.6549 47.2863 60.1761 44.3205 57.8886 40.9839C52.8282 34.5222 51.0367 30.9293 50.1354 25.5062C48.8823 18.8031 50.7835 12.8235 55.1154 8.35884C59.0616 4.29158 64.7228 1.88033 70.141 1.88033C75.5338 1.65581 81.3149 4.03303 85.4036 8.18865C89.8631 12.7211 91.8632 18.8108 90.6148 25.4876C89.7102 30.9293 87.9188 34.5222 82.8934 40.9361C80.5709 44.3205 79.0921 47.2863 78.2647 49.8509C77.97 50.7643 77.7789 51.5659 77.6714 52.2517C77.6039 52.6822 77.5802 52.9893 77.5802 53.1687L77.6192 54.5674L77.5802 53.1687C77.5802 53.9458 77.5802 53.9458 77.5802 55.5C77.5802 57.0477 75.1635 57.9727 70.7663 58.2036C69.3482 58.2781 68.0409 58.28 65.9747 58.2394C63.2092 58.185 63.171 58.1853 62.7509 58.396C61.8791 58.8331 62.0285 59.8023 62.6947 60.2308C62.9183 60.3746 63.229 60.496 63.6632 60.6261C64.4033 60.848 65.5469 61.1018 67.0089 61.3711C70.0311 61.9278 74.1648 62.5065 78.4128 62.955C79.1139 63.029 79.5958 63.1026 79.8486 63.169C79.6833 63.0081 79.5945 62.8863 79.5417 62.7208C79.4124 62.3158 79.5719 61.9818 79.8052 61.7941C79.6892 61.8096 79.1456 61.9152 78.3323 62.0302C77.5874 62.1355 76.6383 62.2478 75.3454 62.3867C74.5856 62.4683 71.7217 62.7648 71.6997 62.7671C68.8604 63.0646 67.0616 63.2796 65.6279 63.5122C64.7333 63.6573 64.0465 63.8015 63.5563 63.9541C63.2477 64.0503 63.003 64.1529 62.8052 64.2821C62.395 64.5503 62.1263 64.9628 62.2646 65.5175C62.4948 66.4409 63.431 66.741 65.7277 67.1282C67.0581 67.3525 68.4368 67.5225 71.4305 67.8549C71.6651 67.881 71.6651 67.881 71.8993 67.907C74.7255 68.221 76.0874 68.3901 77.3055 68.5992C78.0369 68.7247 78.5858 68.8487 78.9381 68.9681C79.0817 69.0168 79.1752 69.0593 79.205 69.0797C79.0273 68.8661 78.9751 68.7205 78.9751 68.5552C78.9751 68.3384 79.0319 68.2496 79.0586 68.2264C78.9719 68.3017 78.8088 68.4055 78.581 68.5241C78.097 68.7761 77.3791 69.0668 76.4667 69.3836C75.6442 69.6691 74.6798 69.9704 73.6029 70.2819C72.2926 70.6609 70.8862 71.0352 69.4796 71.3878C68.987 71.5113 68.5297 71.6233 68.1195 71.7216C67.9762 71.7559 67.849 71.7861 67.7396 71.8119C67.1067 71.9587 66.7947 72.4594 66.9101 72.9612C67.0256 73.463 67.5249 73.7759 68.0253 73.6601C68.0505 73.6543 68.0969 73.6435 68.1644 73.6276C68.2763 73.6013 68.4059 73.5705 68.5518 73.5355C68.968 73.4358 69.4316 73.3223 69.9306 73.1972C71.3573 72.8395 72.7842 72.4598 74.1183 72.0739C75.2241 71.754 76.2185 71.4433 77.075 71.146C79.7087 70.2318 80.8349 69.6454 80.8349 68.5552C80.8349 67.8099 80.3536 67.4793 79.5339 67.2014C79.0702 67.0441 78.4383 66.9015 77.6192 66.7609C76.3511 66.5432 74.9698 66.3717 72.1041 66.0533C71.8697 66.0272 71.8697 66.0273 71.6351 66.0012C68.6795 65.673 67.3186 65.5052 66.036 65.289C65.2546 65.1572 64.658 65.0265 64.2569 64.8979C64.0781 64.8406 63.9513 64.7876 63.8875 64.7492C63.9394 64.7804 64.0187 64.8638 64.0689 65.0652C64.1251 65.2908 64.0793 65.5159 63.9684 65.6861C63.9131 65.771 63.8625 65.8173 63.8206 65.8447C63.8465 65.8277 63.9491 65.7847 64.108 65.7352C64.4965 65.6142 65.1095 65.4856 65.9249 65.3533C67.3131 65.1281 69.0878 64.9159 71.893 64.6221C71.9117 64.6201 74.7795 64.3232 75.5435 64.2411C76.8554 64.1002 77.822 63.9858 78.5919 63.8769C79.5419 63.7426 80.1678 63.621 80.5434 63.4807C80.7054 63.4202 80.8418 63.3512 80.969 63.2488C81.2735 63.0038 81.4601 62.6132 81.3129 62.1521C81.1534 61.6525 80.8621 61.5072 80.3196 61.3648C79.9537 61.2687 79.3951 61.1833 78.6075 61.1002C74.4044 60.6565 70.3172 60.0842 67.3449 59.5368C65.9437 59.2787 64.8577 59.0377 64.1959 58.8393C63.9183 58.756 63.7358 58.6848 63.6987 58.6609C63.901 58.8583 63.9789 58.9984 64.0077 59.1856C64.0776 59.6386 63.8453 59.9324 63.5826 60.0641C63.6927 60.0865 63.8684 60.0805 64.1 60.0787C64.4783 60.0759 64.6175 60.0781 65.9382 60.1041C68.0463 60.1455 69.389 60.1436 70.8636 60.0661C73.1548 59.9458 75.0171 59.65 76.437 59.1066C78.3258 58.3836 79.44 57.1943 79.44 55.5C79.44 53.9458 79.44 53.9458 79.44 53.3586C79.44 53.1688 79.4563 52.8756 79.5087 52.5412C79.601 51.9521 79.7694 51.2456 80.0342 50.425C80.8051 48.0357 82.2032 45.2316 84.3909 42.0405C89.5594 35.447 91.4875 31.5799 92.446 25.8128C93.8063 18.5385 91.605 11.8361 86.7275 6.87876C82.2768 2.35523 75.9901 -0.229907 70.1023 0.0161071C64.2193 0.0152987 58.0778 2.63113 53.7824 7.05826C49.036 11.9502 46.9409 18.5397 48.3042 25.8313C49.2594 31.5799 51.1876 35.447 56.3911 42.0884C58.5438 45.2316 59.9419 48.0357 60.7128 50.425C60.9775 51.2456 61.146 51.9521 61.2383 52.5412C61.2907 52.8756 61.3069 52.7024 61.3069 53.1687C61.3069 53.6349 61.7232 54.1012 62.2368 54.1012C62.7504 54.1012 63.1667 53.6837 63.1667 53.1687C63.1667 52.7024 63.143 52.6822 63.0755 52.2517Z" fill="white"/>
<path id="BattiGayo" fill-rule="evenodd" clip-rule="evenodd" d="M10.1115 100.144C14.6201 100.144 17.4799 97.7566 17.4799 94.051C17.4799 91.2388 15.2183 89.1151 12.3731 88.9832V88.8661C14.7077 88.5438 16.5023 86.6544 16.5023 84.2817C16.5023 81.0154 13.9927 79.0088 9.84888 79.0088H0V100.144H10.1115ZM5.35487 82.817H8.43356C10.2282 82.817 11.2788 83.6958 11.2788 85.1751C11.2788 86.6984 10.1261 87.6211 8.17092 87.6211H5.35487V82.817ZM5.35487 96.3359V90.8873H8.56488C10.7827 90.8873 12.0375 91.854 12.0375 93.5823C12.0375 95.3692 10.7973 96.3359 8.59406 96.3359H5.35487ZM26.1032 96.7607C24.7754 96.7607 23.9145 96.1162 23.9145 95.0763C23.9145 94.0803 24.717 93.4505 26.1907 93.348L29.1819 93.1429V94.2707C29.1819 95.7647 27.7665 96.7607 26.1032 96.7607ZM24.2793 100.364C26.2491 100.364 28.2335 99.441 29.1089 97.8006H29.211V100.144H34.2303V88.9832C34.2303 85.7024 31.3559 83.4907 27.0224 83.4907C22.6305 83.4907 19.7561 85.6731 19.6248 88.9686H24.2793C24.4252 87.958 25.3736 87.211 26.7744 87.211C28.2335 87.211 29.1819 87.9287 29.1819 89.2615V90.1989L25.3736 90.4333C21.1277 90.6969 18.7931 92.3813 18.7931 95.4278C18.7931 98.3571 21.2298 100.364 24.2793 100.364ZM38.1115 80.2392V83.8423H35.9375V87.6797H38.1115V95.6768C38.1115 98.8698 39.7603 100.173 43.9333 100.173C44.9401 100.173 45.6988 100.085 46.2095 99.9683V96.2773C45.9031 96.3212 45.5821 96.3505 45.1589 96.3505C43.8895 96.3505 43.2767 95.7793 43.2767 94.6369V87.6797H46.2095V83.8423H43.2767V80.2392H38.1115ZM49.7405 80.2392V83.8423H47.5664V87.6797H49.7405V95.6768C49.7405 98.8698 51.3893 100.173 55.5623 100.173C56.569 100.173 57.3278 100.085 57.8385 99.9683V96.2773C57.532 96.3212 57.211 96.3505 56.7879 96.3505C55.5185 96.3505 54.9057 95.7793 54.9057 94.6369V87.6797H57.8385V83.8423H54.9057V80.2392H49.7405ZM60.1001 100.144H65.2798V83.8423H60.1001V100.144ZM62.6826 82.4948C64.1563 82.4948 65.3528 81.4109 65.3528 79.9316C65.3528 78.4669 64.1563 77.3684 62.6826 77.3684C61.2236 77.3684 60.0271 78.4669 60.0271 79.9316C60.0271 81.4109 61.2236 82.4948 62.6826 82.4948ZM87.5748 91.2095V88.6171H78.5576V92.3081H82.4096L82.395 92.6303C82.2491 94.7541 80.5565 96.1894 78.1344 96.1894C75.0558 96.1894 73.0714 93.6555 73.0714 89.4666C73.0714 85.3509 74.8661 82.9635 77.901 82.9635C79.9583 82.9635 81.5341 84.1059 82.0594 85.9807H87.3559C86.816 81.6745 82.9932 78.6427 77.8864 78.6427C71.5247 78.6427 67.6144 82.6852 67.6144 89.5398C67.6144 96.4824 71.5247 100.51 78.0177 100.51C84.0146 100.51 87.5748 96.9804 87.5748 91.2095ZM96.3877 96.7607C95.0599 96.7607 94.1991 96.1162 94.1991 95.0763C94.1991 94.0803 95.0016 93.4505 96.4752 93.348L99.4664 93.1429V94.2707C99.4664 95.7647 98.0511 96.7607 96.3877 96.7607ZM94.5638 100.364C96.5336 100.364 98.518 99.441 99.3934 97.8006H99.4956V100.144H104.515V88.9832C104.515 85.7024 101.64 83.4907 97.3069 83.4907C92.9151 83.4907 90.0406 85.6731 89.9093 88.9686H94.5638C94.7097 87.958 95.6582 87.211 97.0589 87.211C98.518 87.211 99.4664 87.9287 99.4664 89.2615V90.1989L95.6582 90.4333C91.4122 90.6969 89.0776 92.3813 89.0776 95.4278C89.0776 98.3571 91.5143 100.364 94.5638 100.364ZM109.388 106.105C114.043 106.105 116.406 104.465 117.793 100.115L123.016 83.8423H117.559L114.568 96.2187H114.466L111.475 83.8423H105.77L111.314 100.276L111.241 100.73C111.066 101.697 110.089 102.165 108.411 102.165C108.338 102.165 107.579 102.165 107.506 102.151V106.076C107.579 106.091 109.315 106.105 109.388 106.105ZM131.727 100.496C136.848 100.496 140 97.3905 140 91.9858C140 86.6691 136.79 83.4907 131.727 83.4907C126.678 83.4907 123.454 86.6984 123.454 91.9858C123.454 97.3758 126.606 100.496 131.727 100.496ZM131.727 96.6728C129.83 96.6728 128.692 94.9884 128.692 91.9858C128.692 89.0565 129.845 87.3135 131.727 87.3135C133.595 87.3135 134.762 89.0565 134.762 91.9858C134.762 94.9884 133.609 96.6728 131.727 96.6728Z" fill="white"/>
<path id="load shedding app fo" fill-rule="evenodd" clip-rule="evenodd" d="M16.9474 114.068H17.5005V107.579H16.9474V114.068ZM20.6488 114.12C21.8892 114.12 22.7021 113.194 22.7021 111.746C22.7021 110.298 21.8892 109.376 20.6488 109.376C19.4084 109.376 18.5996 110.298 18.5996 111.746C18.5996 113.194 19.4084 114.12 20.6488 114.12ZM20.6488 113.607C19.7352 113.607 19.1653 112.905 19.1653 111.746C19.1653 110.591 19.7352 109.884 20.6488 109.884C21.5665 109.884 22.1364 110.587 22.1364 111.746C22.1364 112.905 21.5665 113.607 20.6488 113.607ZM25.1883 113.62C24.5597 113.62 24.1322 113.28 24.1322 112.78C24.1322 112.259 24.5345 111.957 25.293 111.905L26.613 111.81V112.323C26.613 113.056 25.997 113.62 25.1883 113.62ZM25.0793 114.12C25.7707 114.12 26.3826 113.745 26.6256 113.181H26.6382V114.068H27.1662V110.906C27.1662 109.97 26.5083 109.376 25.4732 109.376C24.5261 109.376 23.8138 109.953 23.7677 110.768H24.2999C24.4004 110.216 24.8404 109.884 25.469 109.884C26.1982 109.884 26.613 110.276 26.613 110.953V111.349L25.226 111.444C24.1448 111.522 23.5665 111.983 23.5665 112.776C23.5665 113.577 24.1783 114.12 25.0793 114.12ZM30.13 114.12C30.8634 114.12 31.4375 113.711 31.6973 113.082H31.7099V114.068H32.2379V107.579H31.6805V110.38H31.668C31.4249 109.781 30.8466 109.376 30.1175 109.376C28.9944 109.376 28.1982 110.328 28.1982 111.746C28.1982 113.163 28.9986 114.12 30.13 114.12ZM30.218 109.884C31.0855 109.884 31.6847 110.647 31.6847 111.746C31.6847 112.853 31.0855 113.607 30.218 113.607C29.3548 113.607 28.7639 112.866 28.7639 111.746C28.7639 110.63 29.3548 109.884 30.218 109.884ZM35.6554 110.677C35.6554 111.289 36.041 111.668 36.8204 111.871L37.5831 112.069C38.1949 112.224 38.4254 112.44 38.4254 112.832C38.4254 113.323 37.956 113.642 37.2814 113.642C36.5983 113.642 36.1499 113.293 36.0829 112.763H35.5213C35.5842 113.551 36.2798 114.12 37.2478 114.12C38.2619 114.12 38.9869 113.577 38.9869 112.793C38.9869 112.134 38.6433 111.798 37.7381 111.565L37.0467 111.392C36.4726 111.246 36.2044 111.026 36.2044 110.647C36.2044 110.177 36.657 109.858 37.2604 109.858C37.8974 109.858 38.3122 110.207 38.3667 110.733H38.8989C38.8528 109.936 38.1907 109.376 37.2772 109.376C36.3469 109.376 35.6554 109.91 35.6554 110.677ZM40.0901 114.068H40.6433V111.362C40.6433 110.479 41.1755 109.884 41.9927 109.884C42.7637 109.884 43.2079 110.376 43.2079 111.186V114.068H43.7611V111.095C43.7611 110.057 43.1367 109.376 42.1477 109.376C41.4227 109.376 40.9073 109.716 40.6559 110.294H40.6433V107.579H40.0901V114.068ZM46.7962 109.88C47.6133 109.88 48.1665 110.5 48.1748 111.423H45.3672C45.4175 110.5 45.9874 109.88 46.7962 109.88ZM48.1455 112.754C48.0114 113.263 47.5295 113.616 46.8506 113.616C45.9538 113.616 45.3672 112.97 45.3672 111.918V111.888H48.7531V111.638C48.7531 110.259 47.9905 109.376 46.8045 109.376C45.5893 109.376 44.7931 110.32 44.7931 111.759C44.7931 113.219 45.5893 114.12 46.8381 114.12C47.8186 114.12 48.5604 113.547 48.6945 112.754H48.1455ZM51.5158 114.12C52.2492 114.12 52.8233 113.711 53.0831 113.082H53.0957V114.068H53.6237V107.579H53.0663V110.38H53.0538C52.8107 109.781 52.2324 109.376 51.5033 109.376C50.3802 109.376 49.584 110.328 49.584 111.746C49.584 113.163 50.3844 114.12 51.5158 114.12ZM51.6038 109.884C52.4713 109.884 53.0705 110.647 53.0705 111.746C53.0705 112.853 52.4713 113.607 51.6038 113.607C50.7406 113.607 50.1497 112.866 50.1497 111.746C50.1497 110.63 50.7406 109.884 51.6038 109.884ZM56.6504 114.12C57.3837 114.12 57.9578 113.711 58.2176 113.082H58.2302V114.068H58.7582V107.579H58.2009V110.38H58.1883C57.9453 109.781 57.367 109.376 56.6378 109.376C55.5147 109.376 54.7185 110.328 54.7185 111.746C54.7185 113.163 55.5189 114.12 56.6504 114.12ZM56.7384 109.884C57.6058 109.884 58.2051 110.647 58.2051 111.746C58.2051 112.853 57.6058 113.607 56.7384 113.607C55.8751 113.607 55.2843 112.866 55.2843 111.746C55.2843 110.63 55.8751 109.884 56.7384 109.884ZM60.1213 114.068H60.6744V109.428H60.1213V114.068ZM60.3979 108.51C60.6032 108.51 60.7708 108.333 60.7708 108.126C60.7708 107.911 60.6032 107.738 60.3979 107.738C60.1925 107.738 60.0207 107.911 60.0207 108.126C60.0207 108.333 60.1925 108.51 60.3979 108.51ZM61.9998 114.068H62.5529V111.341C62.5529 110.475 63.0642 109.884 63.8688 109.884C64.6356 109.884 65.0714 110.354 65.0714 111.173V114.068H65.6246V111.082C65.6246 110.031 65.017 109.376 64.0238 109.376C63.2946 109.376 62.7876 109.716 62.5362 110.294H62.5194V109.428H61.9998V114.068ZM68.6597 113.577C67.7964 113.577 67.2223 112.845 67.2223 111.737C67.2223 110.625 67.7964 109.884 68.6597 109.884C69.5313 109.884 70.1264 110.638 70.1264 111.737C70.1264 112.827 69.5313 113.577 68.6597 113.577ZM68.6974 115.684C69.9043 115.684 70.6795 115.047 70.6795 113.982V109.428H70.1515V110.388H70.1431C69.8791 109.781 69.2966 109.376 68.5759 109.376C67.4276 109.376 66.6566 110.32 66.6566 111.737C66.6566 113.142 67.4276 114.09 68.5633 114.09C69.2841 114.09 69.8624 113.681 70.1138 113.082H70.1264V114.025C70.1264 114.741 69.569 115.184 68.7309 115.184C68.0562 115.184 67.5659 114.909 67.457 114.495H66.8787C66.9918 115.206 67.7 115.684 68.6974 115.684ZM75.5931 113.62C74.9645 113.62 74.5371 113.28 74.5371 112.78C74.5371 112.259 74.9394 111.957 75.6978 111.905L77.0179 111.81V112.323C77.0179 113.056 76.4019 113.62 75.5931 113.62ZM75.4841 114.12C76.1756 114.12 76.7874 113.745 77.0304 113.181H77.043V114.068H77.571V110.906C77.571 109.97 76.9131 109.376 75.878 109.376C74.931 109.376 74.2186 109.953 74.1725 110.768H74.7047C74.8053 110.216 75.2453 109.884 75.8739 109.884C76.603 109.884 77.0179 110.276 77.0179 110.953V111.349L75.6308 111.444C74.5496 111.522 73.9713 111.983 73.9713 112.776C73.9713 113.577 74.5832 114.12 75.4841 114.12ZM80.9288 109.376C80.2122 109.376 79.6046 109.798 79.3657 110.388H79.3531V109.428H78.8293V115.607H79.3825V113.112H79.395C79.6465 113.715 80.2122 114.12 80.9372 114.12C82.0728 114.12 82.8522 113.163 82.8522 111.746C82.8522 110.332 82.0686 109.376 80.9288 109.376ZM80.8324 113.607C79.9733 113.607 79.3783 112.853 79.3783 111.746C79.3783 110.647 79.9733 109.884 80.8324 109.884C81.704 109.884 82.2865 110.634 82.2865 111.75C82.2865 112.866 81.704 113.607 80.8324 113.607ZM86.0088 109.376C85.2923 109.376 84.6846 109.798 84.4458 110.388H84.4332V109.428H83.9094V115.607H84.4625V113.112H84.4751C84.7265 113.715 85.2923 114.12 86.0172 114.12C87.1529 114.12 87.9323 113.163 87.9323 111.746C87.9323 110.332 87.1487 109.376 86.0088 109.376ZM85.9125 113.607C85.0534 113.607 84.4583 112.853 84.4583 111.746C84.4583 110.647 85.0534 109.884 85.9125 109.884C86.7841 109.884 87.3666 110.634 87.3666 111.75C87.3666 112.866 86.7841 113.607 85.9125 113.607ZM91.4043 114.068H91.9617V109.906H92.8794V109.428H91.9617V108.906C91.9659 108.406 92.1628 108.208 92.5651 108.208C92.6783 108.208 92.7998 108.221 92.892 108.243V107.764C92.7788 107.738 92.6573 107.725 92.519 107.725C91.7689 107.725 91.4043 108.083 91.4043 108.898V109.428H90.7757V109.906H91.4043V114.068ZM95.5331 114.12C96.7736 114.12 97.5865 113.194 97.5865 111.746C97.5865 110.298 96.7736 109.376 95.5331 109.376C94.2927 109.376 93.484 110.298 93.484 111.746C93.484 113.194 94.2927 114.12 95.5331 114.12ZM95.5331 113.607C94.6196 113.607 94.0497 112.905 94.0497 111.746C94.0497 110.591 94.6196 109.884 95.5331 109.884C96.4509 109.884 97.0208 110.587 97.0208 111.746C97.0208 112.905 96.4509 113.607 95.5331 113.607ZM98.6436 114.068H99.1968V111.19C99.1968 110.44 99.6075 109.923 100.249 109.923C100.441 109.923 100.601 109.953 100.676 109.988V109.423C100.605 109.402 100.471 109.376 100.324 109.376C99.7625 109.376 99.3351 109.699 99.18 110.251H99.1633V109.428H98.6436V114.068ZM103.775 114.068H104.328V111.341C104.328 110.475 104.84 109.884 105.644 109.884C106.411 109.884 106.847 110.354 106.847 111.173V114.068H107.4V111.082C107.4 110.031 106.792 109.376 105.799 109.376C105.07 109.376 104.563 109.716 104.312 110.294H104.295V109.428H103.775V114.068ZM110.435 109.88C111.252 109.88 111.805 110.5 111.814 111.423H109.006C109.056 110.5 109.626 109.88 110.435 109.88ZM111.784 112.754C111.65 113.263 111.168 113.616 110.49 113.616C109.593 113.616 109.006 112.97 109.006 111.918V111.888H112.392V111.638C112.392 110.259 111.629 109.376 110.443 109.376C109.228 109.376 108.432 110.32 108.432 111.759C108.432 113.219 109.228 114.12 110.477 114.12C111.458 114.12 112.199 113.547 112.333 112.754H111.784ZM115.549 109.376C114.832 109.376 114.224 109.798 113.986 110.388H113.973V109.428H113.449V115.607H114.002V113.112H114.015C114.266 113.715 114.832 114.12 115.557 114.12C116.693 114.12 117.472 113.163 117.472 111.746C117.472 110.332 116.688 109.376 115.549 109.376ZM115.452 113.607C114.593 113.607 113.998 112.853 113.998 111.746C113.998 110.647 114.593 109.884 115.452 109.884C116.324 109.884 116.906 110.634 116.906 111.75C116.906 112.866 116.324 113.607 115.452 113.607ZM119.958 113.62C119.33 113.62 118.902 113.28 118.902 112.78C118.902 112.259 119.304 111.957 120.063 111.905L121.383 111.81V112.323C121.383 113.056 120.767 113.62 119.958 113.62ZM119.849 114.12C120.541 114.12 121.153 113.745 121.396 113.181H121.408V114.068H121.936V110.906C121.936 109.97 121.278 109.376 120.243 109.376C119.296 109.376 118.584 109.953 118.538 110.768H119.07C119.17 110.216 119.61 109.884 120.239 109.884C120.968 109.884 121.383 110.276 121.383 110.953V111.349L119.996 111.444C118.915 111.522 118.336 111.983 118.336 112.776C118.336 113.577 118.948 114.12 119.849 114.12ZM123.236 114.068H123.789V107.579H123.236V114.068Z" fill="white"/>
</g>
</svg>
