<svg xmlns="http://www.w3.org/2000/svg" width="442" height="150" viewBox="0 0 442 150">
  <path id="dwt-logo" d="M137.972,150h0c-9.806-7.457-23.066-16.311-23.2-16.4l37.239-4.307-55.556-4.51L62.678,106.747l35-3.694L8.749,92.394l100.526-2.869L0,87.068C.089,87,9.081,80,19.551,73.217a157.152,157.152,0,0,1,16.5-9.521c5.936-2.871,10.624-4.327,13.933-4.327.235,0,.459.007.686.022.7.046,1.388.069,2.058.069,11.042,0,17.178-6.152,22.591-11.579l.006-.006c.857-.86,1.572-1.575,2.318-2.291,2.013-1.932,7.536-5.469,14.529-9.947l.007,0c7.379-4.726,16.563-10.609,24.059-16.246C125,12.795,129.848,7.775,131.053,4.04c.865-2.681,3.4-4.04,7.547-4.04a40.676,40.676,0,0,1,11.121,2.007,118.294,118.294,0,0,1,12.846,4.785,191.088,191.088,0,0,1,20.691,10.5c5.725,3.46,17.431,9.826,28.727,15.3,10.005,4.845,23.468,10.832,30.788,11.837a22.592,22.592,0,0,0,3.048.216c7.051,0,11.3-3.687,15.8-7.591l0,0a42.935,42.935,0,0,1,8.412-6.152c8.984-4.619,18.292-13.508,21.877-17.115a.363.363,0,0,1,.267-.086c1.542,0,8,4.571,17.779,11.491,17.882,12.654,44.9,31.776,70.176,43.156,20.814,9.37,36.525,14.409,46.04,16.986A112.781,112.781,0,0,0,442,88.706h-1.631c-29.1-.039-98.2-.156-111.312-.411-.434-.008-.755-.012-1.01-.012a3,3,0,0,0-1.08.074c-.011.276,11.816,1.335,28.121,2.516,16.485,1.2,38.941,2.591,47.977,2.591.925,0,1.7-.015,2.3-.043-20.977,7.173-29,7.38-29.851,7.38h-.059l-72.045,2.665L354.5,108,323.969,122.12l-37.444,2.459,27.881,3.691a.873.873,0,0,1-.08.04l-.033.016c-2.549,1.224-15.684,7.5-23.9,10.809l-.068-.046c-16.708-11.152-18.073-12.063-40.734-24.81a129.037,129.037,0,0,1-16.813,4.742,100.467,100.467,0,0,1-18.961,1.359c-9.216,0-21.951-.5-41.229-1.246l-.055,0-.129-.005-.269-.01c-3.9-.152-7.93-.309-12.387-.479,24.541,5.538,47.6,8.2,47.83,8.229a.179.179,0,0,1-.035.016l-.048.02c-1.886.78-11.93,4.9-24.418,9.455-8.112,2.957-15.729,5.546-22.639,7.693-8.644,2.687-16.2,4.689-22.465,5.951Zm144.822-40.932a5.947,5.947,0,0,0,1.365,2.336,6.016,6.016,0,0,0,2.263,1.455,9.627,9.627,0,0,0,3.313.5,6.847,6.847,0,0,0,5.526-2.182,7.739,7.739,0,0,0,1.364-5.037V94.58h-3.348v1.483a7.067,7.067,0,0,0-2.064-1.407,5.7,5.7,0,0,0-2.179-.425h-.083a5.874,5.874,0,0,0-4.179,1.76,7.648,7.648,0,0,0-.112,10.12,6.051,6.051,0,0,0,4.449,1.958h.1l.111,0a5.768,5.768,0,0,0,2.094-.391,5.5,5.5,0,0,0,1.858-1.283,5.47,5.47,0,0,1-.337,2.307,2.521,2.521,0,0,1-1.165,1.093,4.779,4.779,0,0,1-2.175.422,5.26,5.26,0,0,1-1.837-.292,3.111,3.111,0,0,1-1.267-.859ZM216.814,94.23a6.637,6.637,0,0,0-4.953,2.044,7.089,7.089,0,0,0-1.976,5.125A6.815,6.815,0,0,0,217,108.418a7.9,7.9,0,0,0,3.506-.724,6.706,6.706,0,0,0,2.539-2.24l-2.832-1.339a4.471,4.471,0,0,1-3.239,1.328,3.924,3.924,0,0,1-2.589-.849,3.642,3.642,0,0,1-1.253-2.291h10.8l.012-.642a7.419,7.419,0,0,0-1.982-5.386A6.888,6.888,0,0,0,216.814,94.23Zm-48.026,0a5.849,5.849,0,0,0-4.452,2,7.3,7.3,0,0,0-1.831,5.119,7.147,7.147,0,0,0,1.891,5.042,5.979,5.979,0,0,0,4.492,2.028,5.528,5.528,0,0,0,2.143-.413,6.514,6.514,0,0,0,1.975-1.361v1.428h3.36v-18.7h-3.36v6.7a6.3,6.3,0,0,0-1.957-1.374A5.588,5.588,0,0,0,168.789,94.23Zm-33.406,0a6.745,6.745,0,0,0-4.644,1.834,7.187,7.187,0,0,0-.263,10.289,6.677,6.677,0,0,0,4.919,2.063,7.1,7.1,0,0,0,3.586-.936,6.84,6.84,0,0,0,2.561-2.6,7.152,7.152,0,0,0,.946-3.572,7.017,7.017,0,0,0-.939-3.534,6.911,6.911,0,0,0-2.6-2.595A7.1,7.1,0,0,0,135.383,94.232Zm123.935.35v13.493h3.359V94.582ZM243.826,89.37v18.7h3.355v-6.219l5.691,6.218h4.171l-6.46-7.024,5.77-6.467h-4.219l-4.953,5.559V89.37Zm-15.888,0v18.7H231.3v-6.219l5.689,6.218h4.166l-6.458-7.024,5.77-6.467h-4.222l-4.946,5.559V89.37Zm-123.8.46h0l4.1,18.242h3.273l3.275-11.8,3.337,11.8h3.307l4.081-18.24h-3.395l-2.592,11.642-3.279-11.642h-2.868l-3.233,11.642L107.529,89.83h-3.389Zm169.194,7.5a2.092,2.092,0,0,1,1.251.411,2.243,2.243,0,0,1,.745,1.213,14.647,14.647,0,0,1,.217,3.206v5.909h3.322V99.155a4.86,4.86,0,0,0-1.167-3.523,4.592,4.592,0,0,0-3.38-1.4,5,5,0,0,0-1.9.378,8.053,8.053,0,0,0-2.072,1.354V94.58l-3.365,0v13.487h3.365v-5.413a15.439,15.439,0,0,1,.144-2.734,3.705,3.705,0,0,1,1.018-1.906,2.463,2.463,0,0,1,1.746-.683ZM200.4,94.58v13.492h3.334v-5.455l-.012-.66a8.957,8.957,0,0,1,.535-3.8,1.544,1.544,0,0,1,1.311-.966,2.333,2.333,0,0,1,.971.293l1.048-2.909a3.164,3.164,0,0,0-1.366-.348,3,3,0,0,0-1.7.52,3.628,3.628,0,0,0-1.244,1.524v-1.7Zm-44.957-5.21v18.7h3.36V89.37ZM145.7,94.58v13.492h3.334v-5.455l-.009-.66a8.973,8.973,0,0,1,.536-3.8,1.544,1.544,0,0,1,1.31-.966,2.357,2.357,0,0,1,.974.293l1.043-2.909a3.148,3.148,0,0,0-1.364-.348,3,3,0,0,0-1.7.52,3.614,3.614,0,0,0-1.241,1.524v-1.7Zm42.225-4.75v3.424h3.213v14.815h3.495V93.254h3.3V89.83ZM304.2,58.974l9.85,24.152-5.326,11.5h6.713l16.227-35.65H325l-7.423,16.378-6.73-16.378ZM272.448,58.3a12.831,12.831,0,0,0-9.582,3.945A13.233,13.233,0,0,0,260,66.7a15.14,15.14,0,0,0-.957,5.467A14.463,14.463,0,0,0,260,77.51a12.973,12.973,0,0,0,2.877,4.364,12.618,12.618,0,0,0,4.4,2.9,16.731,16.731,0,0,0,12.319-.436,12.942,12.942,0,0,0,4.9-4.328l-5.475-2.59a8.68,8.68,0,0,1-6.138,2.565h-.126a7.58,7.58,0,0,1-5.013-1.64,7.054,7.054,0,0,1-2.415-4.431l20.885,0,.023-1.248a16.929,16.929,0,0,0-.958-5.843,12.973,12.973,0,0,0-2.875-4.582A12.592,12.592,0,0,0,278,59.288,15.034,15.034,0,0,0,272.448,58.3Zm-58.558,0a13.034,13.034,0,0,0-8.979,3.549,13.656,13.656,0,0,0-3.339,4.59,13.93,13.93,0,0,0-1.113,5.61,13.366,13.366,0,0,0,3.94,9.706,12.941,12.941,0,0,0,9.515,3.99,13.687,13.687,0,0,0,6.93-1.808,13.267,13.267,0,0,0,4.972-5.027A13.856,13.856,0,0,0,227.631,72a13.567,13.567,0,0,0-1.812-6.836,13.267,13.267,0,0,0-5.036-5.011,13.667,13.667,0,0,0-6.862-1.85Zm-29.984,0a15.668,15.668,0,0,0-7.536,1.822,13.333,13.333,0,0,0-5.253,5.014,13.8,13.8,0,0,0,1.989,16.532,12.358,12.358,0,0,0,4.612,3.057,17.115,17.115,0,0,0,6.1,1.019,15.916,15.916,0,0,0,6.737-1.363,13.393,13.393,0,0,0,5.027-4.1l-5.127-3.533a8.3,8.3,0,0,1-6.795,3,7.852,7.852,0,0,1-5.7-2.1,7.274,7.274,0,0,1-2.173-5.441,7.535,7.535,0,0,1,2.252-5.616,8.165,8.165,0,0,1,5.906-2.191,9.072,9.072,0,0,1,3.493.623,9.189,9.189,0,0,1,3.016,2.233l5.413-3a13.243,13.243,0,0,0-5.025-4.4A15.269,15.269,0,0,0,183.906,58.3ZM151,76.9l-4.006,4.388a11.172,11.172,0,0,0,3.954,3.349,11.425,11.425,0,0,0,5.1,1.114,9.7,9.7,0,0,0,6.8-2.326,7.983,7.983,0,0,0,1.13-10.366,14.126,14.126,0,0,0-5.165-3.812l-2.382-1.2a7.314,7.314,0,0,1-1.939-1.211,1.437,1.437,0,0,1-.4-.973,1.42,1.42,0,0,1,.622-1.164,2.794,2.794,0,0,1,1.714-.467c1.325,0,2.823.823,4.452,2.445l4.027-4.054a10.529,10.529,0,0,0-8.48-4.316h-.048a8.607,8.607,0,0,0-6.06,2.2,7.02,7.02,0,0,0-.8,9.686,13.909,13.909,0,0,0,4.716,3.589l2.191,1.106c1.881.957,2.834,1.951,2.834,2.954a1.807,1.807,0,0,1-.785,1.44,3.253,3.253,0,0,1-2.073.62,5.934,5.934,0,0,1-2.727-.826A9.192,9.192,0,0,1,151,76.9ZM289.955,58.974v26.1h6.454V74.52l-.023-1.272c0-3.633.348-6.1,1.034-7.34a2.991,2.991,0,0,1,2.538-1.874,4.418,4.418,0,0,1,1.879.579l2.026-5.639a6.1,6.1,0,0,0-2.643-.671h-.027a5.744,5.744,0,0,0-3.256,1.008,7.025,7.025,0,0,0-2.412,2.948V58.974Zm-59.788,0,11.052,26.1h4.214l11.027-26.1h-6.592l-6.532,15.4-6.543-15.4Zm-93.534,0v26.1h6.5v-26.1Zm-32.7-9.187v35.29h8.02c4.513,0,7.73-.29,9.563-.863a13.168,13.168,0,0,0,5.127-3.119,15.6,15.6,0,0,0,3.713-5.674A21.888,21.888,0,0,0,129.3,57.9a14.906,14.906,0,0,0-6.115-6.2c-2.466-1.265-6.285-1.906-11.35-1.906Zm181.015-15.4c1.6,0,3.3.067,5.033.2,4.253.325,14.012,3.4,29.007,9.154,12.465,4.781,25.548,10.24,34.205,13.852l.005,0,.071.029c4.991,2.082,8.288,3.458,8.508,3.458.007,0,.011,0,.012,0s0-.023-.229-.15c-.208-.114-.563-.3-1.081-.58l-.01-.005A305.384,305.384,0,0,1,324.325,38.18c-15.507-11.355-30.831-21.459-32.034-21.459-.035,0-.059.009-.068.027-1.687,3.108-17.008,14.757-21.57,16.4-2.919,1.054-15.945,12.9-16.077,13.019-.085.074-.115.148-.088.22.483,1.305,19.074,2.171,31.158,2.171,6.474,0,10.355-.237,10.647-.65a.165.165,0,0,0,.018-.152c-.541-1.736-22.848-9.961-25.39-10.894l-.066-.023C271.041,36.737,275.456,34.388,284.952,34.388ZM115.876,31.782a.566.566,0,0,1,.22.036c1.789.8,5.932,6.059,9.939,11.143l.011.014c4.246,5.386,8.256,10.474,9.546,10.474l.035,0c1.8-.151,5.4-7.452,8.875-14.513l0-.006c2.837-5.758,5.516-11.2,6.9-12.032a1.755,1.755,0,0,1,.916-.226c2.13,0,5.9,2.663,8.942,4.983.8.608,1.579,1.219,2.268,1.757l0,0c2.305,1.8,4.127,3.223,4.72,3.223l.041,0c.413-.034.69-1.732,1.039-3.882a44.35,44.35,0,0,1,1.391-6.471c.769-2.3,1.72-3.417,2.909-3.417a2.062,2.062,0,0,1,.359.033c1.511.277,8.152,2.984,16.56,6.412l.01,0c15.025,6.126,35.6,14.514,40.521,14.513a1.63,1.63,0,0,0,.906-.189c-20.2-7.512-30.234-13.189-41.855-19.763-3.544-2.005-7.2-4.076-11.335-6.3A176.31,176.31,0,0,0,150.665,5.372C143.735,3.1,138.6,2.04,137.3,2.04a1.234,1.234,0,0,0-.172.01c-1.689.276-2.549,1.606-3.974,3.809a42.524,42.524,0,0,1-10.04,11.2c-4.227,3.967-14.134,10.4-23.716,16.625l-.032.021-.012.008c-9.425,6.122-18.328,11.9-20.681,14.618a1.078,1.078,0,0,0,.208.018c2.041,0,9.715-3.752,18.787-8.284l1.251-.625.011-.005C106.8,35.5,114.241,31.782,115.876,31.782Zm53.609,73.534a3.412,3.412,0,0,1-2.58-1.124,4.084,4.084,0,0,1-1.053-2.879,4.039,4.039,0,0,1,1.032-2.844,3.38,3.38,0,0,1,2.506-1.114h.084a3.5,3.5,0,0,1,2.638,1.094,3.958,3.958,0,0,1,1.041,2.848,4.087,4.087,0,0,1-1.041,2.91A3.469,3.469,0,0,1,169.485,105.316Zm-34.061-.044a3.447,3.447,0,0,1-2.608-1.1,3.986,3.986,0,0,1-1.029-2.851,3.932,3.932,0,0,1,1.043-2.812,3.7,3.7,0,0,1,5.242-.009,4.374,4.374,0,0,1-.019,5.66A3.494,3.494,0,0,1,135.424,105.272Zm154.433-.261a3.587,3.587,0,0,1-2.659-1.08,3.8,3.8,0,0,1-1.057-2.765,3.736,3.736,0,0,1,1.034-2.7A3.492,3.492,0,0,1,289.8,97.4a3.533,3.533,0,0,1,2.633,1.052,4.23,4.23,0,0,1,0,5.5A3.43,3.43,0,0,1,289.857,105.011ZM220.57,99.64h-7.288a4.476,4.476,0,0,1,1.234-1.75,4.031,4.031,0,0,1,2.469-.793,3.827,3.827,0,0,1,2.272.7,3.442,3.442,0,0,1,1.313,1.839ZM426.14,81.657a9.332,9.332,0,1,1,9.314-9.332A9.334,9.334,0,0,1,426.14,81.657Zm0-16.77a7.438,7.438,0,1,0,7.423,7.438A7.439,7.439,0,0,0,426.14,64.887ZM213.973,79.655a6.667,6.667,0,0,1-5.046-2.11,7.773,7.773,0,0,1-1.993-5.52,7.622,7.622,0,0,1,2.016-5.436,6.693,6.693,0,0,1,5.041-2.119l.005,0a6.739,6.739,0,0,1,5.093,2.1,8.472,8.472,0,0,1-.035,10.954A6.742,6.742,0,0,1,213.973,79.655Zm-100.319-1.13h-3.1V56.263h2.261c4.124,0,7.161.937,9.026,2.785,2.071,2.06,3.12,4.993,3.12,8.719a13.2,13.2,0,0,1-1.309,6.148,8.016,8.016,0,0,1-3.37,3.555C118.921,78.171,116.69,78.526,113.654,78.526ZM428.182,77l-1.193-2.426a2.587,2.587,0,0,0-.726-.994,1.629,1.629,0,0,0-.91-.277l-.075,0h-.708V77h-2.516V67.227h3.838a4.846,4.846,0,0,1,2.818.653,2.339,2.339,0,0,1,.9,2.048,2.6,2.6,0,0,1-.464,1.591,2.711,2.711,0,0,1-1.409.91,1.921,1.921,0,0,1,.927.539,4.688,4.688,0,0,1,.824,1.259l1.369,2.766Zm-3.612-7.94v2.511h1.059a1.707,1.707,0,0,0,1.125-.3,1.2,1.2,0,0,0,.349-.967,1.218,1.218,0,0,0-.349-.957,1.776,1.776,0,0,0-1.125-.284Zm-144.858-.294h-14.1A8.63,8.63,0,0,1,268,65.379a7.808,7.808,0,0,1,4.771-1.534,7.366,7.366,0,0,1,4.4,1.367,6.58,6.58,0,0,1,2.539,3.549Z" fill="#fff"/>
</svg>
