<svg height="80" width="46" xmlns="http://www.w3.org/2000/svg"><g fill="#fff" fill-rule="evenodd"><path d="M46 0v70.116h-8.674v-4.324l4.337-.001V4.324H8.673V0zM4.337 0l-.001 65.791H32.99v4.325H0V0zm32.99 32.896v4.324H32.99v-4.324zM12.232 74.286c.656 0 1.17.15 1.54.448.37.3.565.72.586 1.265h-1.111c-.02-.262-.125-.462-.313-.6-.188-.136-.457-.205-.805-.205-.303 0-.536.057-.7.17a.558.558 0 0 0-.247.488c0 .287.32.502.958.643l.405.093c.41.1.7.179.872.235.171.056.321.119.448.187.23.123.401.285.515.488.115.202.172.444.172.726 0 .564-.197 1-.591 1.31-.395.311-.95.466-1.668.466-.707 0-1.262-.158-1.664-.474-.402-.317-.618-.766-.649-1.35h1.141c.044.297.17.517.378.66.209.144.51.215.905.215.335 0 .588-.057.76-.173.17-.115.255-.285.255-.51 0-.33-.49-.601-1.47-.817l-.034-.007a3.276 3.276 0 0 1-.118-.026c-.524-.11-.898-.234-1.122-.371a1.212 1.212 0 0 1-.454-.495 1.613 1.613 0 0 1-.157-.734c0-.527.186-.93.557-1.211.372-.281.909-.421 1.61-.421zm18.956.007c.84 0 1.509.257 2.006.772.497.515.746 1.209.746 2.082 0 .872-.249 1.566-.746 2.08-.497.516-1.166.773-2.006.773s-1.506-.257-2.001-.772c-.495-.515-.742-1.209-.742-2.081 0-.876.247-1.57.742-2.084.495-.513 1.162-.77 2.001-.77zm6.34 0c.84 0 1.508.257 2.005.772.497.515.746 1.209.746 2.082 0 .872-.249 1.566-.746 2.08-.497.516-1.166.773-2.005.773-.84 0-1.507-.257-2.002-.772-.495-.515-.742-1.209-.742-2.081 0-.876.247-1.57.742-2.084.495-.513 1.162-.77 2.002-.77zm-36.372.14v4.416H3.9v1H0v-5.416zm6.305 0 2.027 5.416H8.274l-.381-1.114h-2.18l-.37 1.114H4.126l2-5.416zm12.14 0v.967h-1.656v4.45H16.79V75.4H15.12v-.967zm5.435 0c.863 0 1.506.224 1.93.673.423.448.635 1.128.635 2.04 0 .496-.078.932-.235 1.31a2.184 2.184 0 0 1-.681.911 2.13 2.13 0 0 1-.763.37c-.285.075-.685.112-1.199.112h-1.889v-5.416zm19.056 0c.613 0 1.067.126 1.362.379s.443.638.443 1.158c0 .33-.072.606-.216.827-.143.22-.35.372-.62.452.244.084.418.211.521.383.103.171.162.439.178.802l.022.64v.021c.008.324.08.52.218.589v.165h-1.267a1 1 0 0 1-.094-.281 2.604 2.604 0 0 1-.04-.399l-.015-.57c-.013-.336-.078-.563-.196-.68-.119-.118-.332-.177-.64-.177h-1.225v2.107h-1.156v-5.416zm-12.904.83c-.493 0-.877.165-1.152.494-.275.328-.412.791-.412 1.39 0 .595.137 1.058.412 1.388.275.33.659.494 1.152.494.499 0 .887-.165 1.164-.494.278-.33.416-.793.416-1.388s-.138-1.059-.416-1.389c-.277-.33-.665-.494-1.164-.494zm6.34 0c-.494 0-.878.165-1.153.494-.275.328-.412.791-.412 1.39 0 .595.137 1.058.412 1.388.275.33.659.494 1.153.494.498 0 .886-.165 1.164-.494.277-.33.416-.793.416-1.388s-.14-1.059-.416-1.389c-.278-.33-.666-.494-1.164-.494zm-12.492.122h-1.068v3.486h.927c.537 0 .926-.135 1.166-.406.24-.271.36-.71.36-1.319 0-.605-.111-1.05-.335-1.334-.224-.285-.574-.427-1.05-.427zm-18.239.133-.778 2.305h1.56zm37.138-.151h-1.412V76.8h1.359c.295 0 .512-.058.65-.173.14-.115.209-.297.209-.544 0-.236-.068-.414-.203-.535-.135-.122-.335-.182-.603-.182z"/></g></svg>