<?xml version="1.0" encoding="UTF-8"?>
<svg width="192px" height="118px" viewBox="0 0 192 118" version="1.1" xmlns="http://www.w3.org/2000/svg" xmlns:xlink="http://www.w3.org/1999/xlink">
    <title>Group 5</title>
    <g id="WIP" stroke="none" stroke-width="1" fill="none" fill-rule="evenodd">
        <g id="Service-Single" transform="translate(-322.000000, -3147.000000)" fill="#1C1919" fill-rule="nonzero">
            <g id="Group-5" transform="translate(417.744128, 3206.284731) scale(1, -1) translate(-417.744128, -3206.284731) translate(322.238168, 3147.847674)">
                <path d="M0.0132649182,0.624153919 C3.06458148,7.79330205 6.13806399,14.9798468 10.181598,21.6653688 C14.0193909,27.8985413 18.5242909,33.7006366 23.6176572,38.9703691 C33.1813002,48.9132181 43.89463,57.6963467 55.5342768,65.136629 C67.0069545,72.5107367 79.1757111,78.7549458 91.8677515,83.7805893 C104.716,88.8720868 117.972781,92.8787724 131.497535,95.7581639 C145.642142,98.7780496 159.991832,100.755047 174.42946,101.673016 C176.145181,101.783967 177.861875,101.879455 179.579541,101.95948 C180.613951,102.033469 181.653175,102.006082 182.682189,101.877716 C182.881682,101.847562 183.921732,101.739703 183.995812,101.33958 C184.151557,100.495264 179.912613,100.247652 179.675787,100.237794 C177.958122,100.15661 176.241428,100.061122 174.525706,99.9513298 C173.761954,99.9014595 172.998784,99.8488831 172.236198,99.7936005 C171.808434,99.7622865 171.379115,99.7300061 170.94824,99.6967593 L170.376009,99.6521079 C169.347626,99.5703438 170.814662,99.6898006 170.390592,99.6521079 C167.049368,99.3656435 163.712228,99.0345278 160.38267,98.6355653 C158.716725,98.436084 157.04728,98.240662 155.388334,97.9913104 C156.452883,98.1513593 155.271671,97.9739137 155.00218,97.9333216 C154.574417,97.8718536 154.146653,97.809419 153.718889,97.746018 C152.817474,97.6126439 151.916448,97.4744374 151.015811,97.3313985 C147.698698,96.8048607 144.392084,96.216275 141.09597,95.5656413 C140.342911,95.4166102 139.591019,95.2629401 138.839127,95.1092699 C137.926824,94.923126 139.291779,95.206691 138.729464,95.0872342 L138.165983,94.9677774 C137.696998,94.8680367 137.228208,94.7667497 136.759612,94.6639164 C135.120499,94.3055459 133.484692,93.9309387 131.85219,93.5400946 C128.590686,92.7595661 125.345903,91.9144768 122.117842,91.0048268 C120.460063,90.5374375 118.80734,90.0526516 117.159672,89.5504691 C115.502476,89.0448073 114.506759,88.7293485 112.774899,88.1587393 C109.60167,87.114942 106.451773,86.0031045 103.325209,84.8232269 C90.8805719,80.1663906 78.9129562,74.3358951 67.5861314,67.4115273 C56.0924909,60.3778318 45.4206104,52.0962909 35.7669253,42.7193413 C30.5569662,37.7145843 25.8344567,32.2315322 21.662388,26.3433206 C17.3231137,20.1060516 14.020972,13.2830962 10.9941547,6.34068407 C10.2358462,4.60102182 9.4915373,2.8509216 8.74722839,1.10314093 C8.56173447,0.667065588 7.89383972,0.527892608 7.50185258,0.423512873 C6.49453433,0.175899689 5.4637556,0.0345920654 4.42662013,0.00193472155 C4.12854658,-0.0119825764 -0.239893443,0.0349883043 0.0103483473,0.622414257 L0.0132649182,0.624153919 Z" id="Path"></path>
                <path d="M190.610395,102.283249 L162.925268,80.0501599 C162.653268,79.8315667 162.269495,79.8149547 161.979386,80.0092164 C161.689276,80.2034782 161.560801,80.5630989 161.662734,80.8955716 L167.387336,99.5901855 L156.154344,115.63133 C155.95476,115.916635 155.965884,116.297898 156.181769,116.571239 C156.397653,116.84458 156.767782,116.946041 157.09423,116.821366 L190.320034,104.11984 C190.680188,103.981897 190.938926,103.663593 190.998813,103.284793 C191.058701,102.905992 190.910643,102.524223 190.610395,102.283249 L190.610395,102.283249 Z" id="Path"></path>
            </g>
        </g>
    </g>
</svg>