<?xml version="1.0" encoding="UTF-8"?>
<svg width="145px" height="92px" viewBox="0 0 145 92" version="1.1" xmlns="http://www.w3.org/2000/svg" xmlns:xlink="http://www.w3.org/1999/xlink">
    <title>Group 5</title>
    <g id="WIP" stroke="none" stroke-width="1" fill="none" fill-rule="evenodd">
        <g id="Service-Single" transform="translate(-189.000000, -3876.000000)" fill="#1C1919" fill-rule="nonzero">
            <g id="Group-5" transform="translate(261.698984, 3922.424250) scale(1, -1) translate(-261.698984, -3922.424250) translate(189.644004, 3876.987192)">
                <path d="M7.5862887,16.1428238 C10.4458207,20.7871484 13.8024128,25.1102783 17.5974701,29.0367456 C24.7233217,36.4451429 32.7058027,42.9894348 41.3784808,48.5331746 C49.9267504,54.0276077 58.9936671,58.6801557 68.4504815,62.4247528 C78.0236865,66.2184176 87.901288,69.2037912 97.9785553,71.3492202 C108.517675,73.5993311 119.2096,75.0723877 129.967048,75.7563645 C131.245429,75.8390345 132.524534,75.9101825 133.804364,75.9698086 C134.575101,76.0249378 135.349424,76.0045321 136.116141,75.9088863 C136.264783,75.8864185 137.039722,75.8060529 137.094919,75.5079226 C137.210964,74.8788243 134.052535,74.6943292 133.876077,74.6869839 C132.596247,74.6264937 131.317142,74.5553457 130.038762,74.4735399 C129.469691,74.4363816 128.901055,74.397207 128.332854,74.356016 C128.014128,74.3326841 127.694243,74.308632 127.373199,74.2838598 L126.94683,74.2505902 C126.180584,74.1896679 127.273669,74.278675 126.957696,74.2505902 C124.468157,74.0371462 121.98166,73.7904325 119.500813,73.4931663 C118.259521,73.3445332 117.01562,73.1989246 115.779543,73.0131332 C116.572736,73.1323854 115.692618,73.000171 115.491821,72.9699259 C115.173095,72.9241262 114.854369,72.8776063 114.535643,72.8303663 C113.864,72.7309896 113.192648,72.6280122 112.521585,72.5214342 C110.05001,72.1291119 107.586259,71.6905578 105.13033,71.2057719 C104.569228,71.0947292 104.008995,70.9802299 103.448761,70.8657305 C102.769006,70.7270351 103.786031,70.9383188 103.367052,70.8493117 L102.947203,70.7603047 C102.597763,70.6859882 102.248469,70.6105194 101.899319,70.5338985 C100.678019,70.2668774 99.4591821,69.9877582 98.242808,69.696541 C95.8126677,69.1149708 93.3949867,68.4852965 90.9897649,67.807518 C89.7545571,67.4592672 88.523116,67.0980542 87.2954417,66.723879 C86.0606685,66.3471113 85.3187615,66.1120636 84.0283561,65.6869038 C81.6639892,64.9091725 79.3170074,64.0807445 76.9874106,63.20162 C67.714936,59.7318204 58.7978889,55.3875297 50.358294,50.2281968 C41.794405,44.9874041 33.8428077,38.8168442 26.6498659,31.8300974 C22.7679356,28.1010628 19.249203,24.0156514 16.1406028,19.6283565 C12.9074181,14.9809796 10.4469988,9.89720895 8.19172309,4.72443127 C7.62670895,3.42821234 7.07212583,2.12421609 6.51754272,0.821948141 C6.37933157,0.497029262 5.8816845,0.393331747 5.58961565,0.315558612 C4.83906479,0.131062514 4.07103359,0.0257744801 3.29826598,0.00144155724 C3.07617196,-0.00892819421 -0.178744134,0.0260697169 0.00771053325,0.463759643 C2.28341365,5.80677408 4.57345944,11.1614545 7.5862887,16.1428238 Z" id="Path"></path>
                <path d="M143.708434,76.2832487 L116.023307,54.0501599 C115.751307,53.8315667 115.367535,53.8149547 115.077425,54.0092164 C114.787315,54.2034782 114.65884,54.5630989 114.760773,54.8955716 L120.485375,73.5901855 L109.252383,89.6313305 C109.052799,89.9166346 109.063924,90.2978978 109.279808,90.5712391 C109.495692,90.8445804 109.865822,90.9460414 110.192269,90.8213658 L143.418074,78.1198403 C143.778228,77.9818971 144.036965,77.663593 144.096853,77.2847927 C144.15674,76.9059924 144.008682,76.5242231 143.708434,76.2832487 L143.708434,76.2832487 Z" id="Path"></path>
            </g>
        </g>
    </g>
</svg>