<svg fill="none" height="360" viewBox="0 0 514 360" width="514" xmlns="http://www.w3.org/2000/svg"><g fill="#f5f6f0" stroke="#17212a"><path d="m199.358 244.371h153.795v153.795h-153.795z" transform="matrix(.74323474 -.66903073 .66903073 .74323474 -112.3035 196.122611)"/><path d="m102.435 165.592 31.292 63.477 69.969 10.178-50.63 49.409 11.951 69.766-62.582-32.938-62.5821 32.938 11.9527-69.766-50.62933-49.409 69.96863-10.178z"/><path d="m116.602 68.7211 130.762-5.3255 5.324 130.7604-130.76 5.326z"/><path d="m335.194 328.858c41.625 40.319 108.055 39.26 148.374-2.365 36.177-37.348 39.545-95.558 7.917-136.83-68.928 61.12-68.928 61.12-156.291 139.195z"/><path d="m351.806 10.2216 45.843 163.2844-179.768-68.507z"/></g><path clip-rule="evenodd" d="m238.877 90.9173c-.193.0648-.402-.0362-.471-.228-.06-.1969.047-.4054.241-.4721.194-.057.398.0505.46.2429.001.003.002.0061.003.0092l.002.0069c.057.1866-.048.3841-.235.4411zm-.077 2.7127c-.106.0039-.195-.079-.199-.1852.006-.1076.092-.1937.199-.2008.11.0026.198.09.201.1988 0 .0052 0 .011-.001.0162-.008.1023-.097.1788-.2.171zm-.214 4.5166c.008.1075.094.1923.201.1988.11-.0013.198-.092.197-.2021-.001-.1088-.09-.1969-.199-.1969-.107.0065-.193.0926-.199.2002zm9.977.616c.04.101.154.1509.256.1114.093-.0337.141-.1367.108-.23-.003-.0078-.007-.0155-.011-.0233-.035-.0978-.143-.1483-.242-.1127-.1.0395-.15.1535-.111.2546zm-17.308 5.7644c-.016.2.134.375.334.39.005.001.009.001.013.001.195.021.371-.119.391-.314l.002-.02c.007-.206-.145-.381-.349-.405-.203-.01-.378.144-.391.348zm.97-8.4978c-.204-.0104-.361-.1846-.35-.3887.001-.0051.001-.0103.001-.0155.019-.2034.2-.353.404-.3336.201.0169.35.1924.334.3932-.014.2021-.187.3549-.389.3446zm14.659 20.0338c.068.192.278.293.471.228.189-.061.292-.265.231-.454 0 0-.001-.001-.001-.002 0 0 0-.001 0-.002-.05-.188-.244-.301-.433-.251-.009.003-.018.005-.027.008-.191.072-.295.277-.241.473zm-2.35-8.222c-.196.054-.4-.05-.472-.241-.001-.001-.001-.001-.001-.002l-.001-.002c-.061-.19.042-.392.232-.454l.006-.002c.192-.065.4.038.464.23.065.193-.036.402-.228.471zm-3.293-8.6905c.057.1866.255.2922.442.2352.005-.002.011-.0033.016-.0052.194-.0577.304-.261.247-.4547l-.004-.013-.002-.0052c-.065-.1936-.276-.2973-.469-.2312-.193.0654-.297.2759-.231.469 0 .0012.001.0032.001.0051zm-4.79 7.9055c.043.174.218.28.392.238.172-.037.28-.207.243-.379-.002-.004-.002-.009-.004-.013-.037-.177-.211-.29-.388-.253h-.003-.001l-.002.001c-.176.05-.28.229-.237.406zm-1.406-7.5136c-.177.0369-.351-.0764-.388-.2532-.038-.1736.067-.3459.238-.3926.002-.0006.004-.0006.006-.0013.177-.0369.351.0765.389.2533l.001.0052c.002.0085.004.0166.006.0252.031.1678-.079.3297-.246.3621-.001.0003-.002.0005-.003.0007h-.001zm-12.558 3.7746c-.035.171.075.337.245.372.007.001.013.003.02.003.176.031.345-.088.376-.265.027-.179-.089-.349-.267-.389-.18-.024-.346.1-.374.279zm28.904 1.574c-.143.097-.337.06-.433-.083-.003-.003-.006-.007-.009-.012-.103-.146-.068-.347.078-.45.147-.104.351-.074.462.069l.003.005.004.005c.101.15.061.354-.089.455-.005.004-.011.007-.016.011zm-5.058-6.565c.107.1483.313.1846.464.0823.147-.1108.176-.32.065-.4671-.105-.1392-.3-.1742-.447-.079-.149.0978-.191.2986-.093.4482l.004.0053c.002.0034.005.0068.007.0103zm-2.938 10.897c-.175.121-.414.084-.545-.084-.117-.172-.08-.405.087-.532.167-.118.397-.084.524.077.13.167.101.409-.066.539zm-5.953-7.51c.126.166.359.204.531.086.171-.122.211-.36.088-.531-.122-.171-.36-.211-.531-.088l-.002.002c-.168.124-.206.36-.086.531zm-4.877-7.3401c-.171.1205-.407.0817-.531-.0861-.118-.1671-.084-.3977.077-.524.167-.1302.408-.1011.538.0661.121.1748.084.4139-.084.544zm-11.474 9.9221c.05.206.258.333.464.282h.001c.199-.049.32-.251.271-.449v-.001c-.046-.203-.248-.331-.452-.285-.203.046-.331.248-.285.451.001.001.001.002.001.002zm12.555.673c-.175.118-.413.074-.533-.099l-.007-.011c-.112-.178-.058-.412.119-.524.005-.004.009-.007.014-.009.174-.107.401-.052.508.123.115.171.07.404-.101.52z" fill="#fff" fill-rule="evenodd" opacity=".86"/><path clip-rule="evenodd" d="m267.715 77.1533c.097.1425.29.1794.433.0829.006-.0039.011-.0078.016-.0117.15-.101.19-.3044.089-.4547l-.003-.0048-.004-.0049c-.11-.1432-.314-.1736-.462-.0693-.146.103-.181.3044-.078.4502l.002.003c.003.0033.005.0063.007.0093zm-6.896 2.7916c.072.1905.276.2948.473.241.191-.0687.293-.2779.228-.4709-.065-.1917-.273-.2947-.465-.2299l-.006.0019c-.189.0615-.293.2643-.231.4534 0 .002 0 .0032.001.0045zm-13.439 5.8276c-.012.204.143.3789.347.3912s.379-.1431.391-.3472c.017-.2008-.132-.3769-.333-.3931h-.001c-.205-.0065-.381.1451-.404.3491zm-.621 8.8861c-.011.2034.144.3776.347.3912.195.0214.37-.1192.391-.3141l.002-.0201c.011-.2034-.144-.3776-.347-.3912-.2-.0162-.376.1328-.393.3342zm17.353-6.0225c-.193.0647-.402-.0363-.471-.228-.054-.1963.051-.401.241-.4729.009-.0032.018-.0058.027-.0084.189-.0499.383.0629.433.2513 0 .0007 0 .0013.001.002v.0009.001c.062.1892-.042.3925-.231.4541zm-8.719-1.243c-.181.0376-.36-.0719-.407-.25-.033-.1775.077-.3491.251-.3938.001-.0004.002-.0005.003-.0007 0-.0001.001-.0001.001-.0002.001-.0001.001-.0003.002-.0004.177-.0376.351.0758.388.2526.001.0022.001.0045.002.0068 0 .0023.001.0045.002.0068.038.1716-.07.3413-.242.3789zm4.759-5.825c-.175.1205-.414.0836-.544-.0842-.119-.1716-.081-.4054.086-.5317.167-.1186.398-.0849.524.077.131.1671.101.4087-.066.5389z" fill="#fff" fill-rule="evenodd" opacity=".86"/><path clip-rule="evenodd" d="m486.89 196.925c-.187.057-.385-.048-.442-.235 0-.001 0-.002 0-.001-.067-.193.036-.403.229-.47s.404.036.47.229l.006.018c.057.193-.053.397-.247.454l-.008.003zm-10.428 5.141c-.016.201.134.375.334.391.005.001.009.001.013.001.195.021.37-.12.391-.314l.002-.021c.007-.205-.145-.38-.349-.404-.203-.01-.378.144-.391.347zm-.285 9.293c-.204-.013-.36-.188-.347-.392.023-.204.199-.355.404-.349h.001c.2.017.349.193.333.393-.012.205-.187.36-.391.348zm-.621 8.886c-.203-.014-.357-.188-.347-.391.016-.201.193-.351.393-.335.204.014.358.188.348.392l-.002.02c-.022.195-.197.335-.392.314zm17.006-6.414c-.193.065-.403-.036-.471-.228-.054-.196.05-.401.241-.473.007-.003.015-.005.023-.007l.004-.001c.189-.05.383.063.433.251v.002c0 .001.001.001.001.002.061.189-.042.392-.231.454zm-3.293-8.691c.072.19.276.295.472.241.192-.069.293-.278.228-.471-.064-.192-.272-.295-.464-.23l-.006.002c-.19.061-.293.264-.232.453l.001.002.001.002zm-5.834 7.198c.048.178.227.288.408.25.171-.038.279-.207.241-.379-.001-.004-.002-.009-.003-.013-.038-.177-.211-.291-.388-.254-.002.001-.004.001-.006.002-.175.045-.284.217-.252.394zm-1.385-7.504c-.174.042-.349-.065-.392-.238-.043-.177.061-.356.237-.406.001-.001.002-.001.003-.001s.002 0 .003-.001c.177-.037.351.077.388.254.001.002.002.004.002.006.001.003.001.005.002.007.037.172-.071.342-.243.379zm6.007 1.845c.131.168.37.205.544.084.168-.13.197-.372.067-.539-.126-.162-.357-.195-.524-.077-.167.126-.204.36-.087.532zm-4.876-7.34c-.172.118-.406.08-.531-.086-.121-.171-.083-.407.086-.531l.001-.001c.001 0 .001-.001.001-.001h.001c.171-.122.409-.083.53.088.122.171.083.409-.088.531zm-14.727 11.437c.059.2.26.322.465.282.2-.056.319-.262.269-.463-.044-.201-.243-.329-.444-.285-.003.001-.006.001-.008.002-.205.05-.332.258-.281.464zm10.399-8.268c-.175.117-.413.073-.533-.1l-.007-.01c-.112-.178-.058-.413.119-.525.005-.003.009-.006.014-.009.174-.106.401-.051.508.123.115.172.07.405-.101.521z" fill="#fff" fill-rule="evenodd" opacity=".86"/></svg>